<svg xmlns="http://www.w3.org/2000/svg" viewBox="0 0 172.39 13.03"><defs><style>.cls-1{fill:#e40c31;}.cls-2{fill:none;}</style></defs><title>barra</title><g id="Capa_2" data-name="Capa 2"><g id="Capa_31" data-name="Capa 31"><path class="cls-1" d="M7.8,9.44c0,2.05-1.54,3.18-3.8,3.18H0V.51H3.39c2.25,0,4.1,1,4.1,2.88S6.16,6.16,4.1,6.26c2.16.1,3.7,1.23,3.7,3.18M1.54.62V6.26H3.39A2.52,2.52,0,0,0,6,3.49,2.57,2.57,0,0,0,3.39.72H1.54Zm2.15,11.9c1.85,0,2.57-1.75,2.57-3.08S5.54,6.36,3.69,6.36H1.54v6.16Z"/><path class="cls-1" d="M9.85,12.62,14.57.21h.21L19.5,12.62H17.85l-1.43-4H11.6l-1.54,4Zm1.75-4.1h4.72L14,2.46Z"/><path class="cls-1" d="M30.27,12.62H28.73L27.91,7.7a1.57,1.57,0,0,0-1.54-1.24H24v6.16H22.47V.51H26c2.26,0,4.11,1,4.11,3,0,1.64-1.13,2.67-3,3a2.64,2.64,0,0,1,2.46,2.16ZM25.86,6.36a2.65,2.65,0,0,0,2.56-2.87A2.51,2.51,0,0,0,25.86.72H23.91V6.36Z"/><path class="cls-1" d="M41.46,12.62H39.92L39.1,7.7a1.57,1.57,0,0,0-1.54-1.24H35.2v6.16H33.66V.51h3.49c2.25,0,4.1,1,4.1,3,0,1.64-1.13,2.67-3,3a2.65,2.65,0,0,1,2.47,2.16ZM37.15,6.36a2.65,2.65,0,0,0,2.56-2.87A2.52,2.52,0,0,0,37.15.72H35.2V6.36Z"/><path class="cls-1" d="M43.71,12.62,48.43.21h.21l4.72,12.41H51.72l-1.44-4H45.46l-1.54,4Zm1.75-4.1h4.72L47.82,2.46Z"/><path class="cls-1" d="M70.39,5.34a4.68,4.68,0,0,1-4.82,5H62.8V.31h2.77a4.68,4.68,0,0,1,4.82,5m-4.92,4.92c2,0,3.59-1.85,3.59-4.92S67.52.41,65.47.41H64v9.85Z"/><polygon class="cls-1" points="74.29 0.41 74.29 5.23 77.27 5.23 77.27 5.34 74.29 5.34 74.29 10.26 79.22 10.26 79.22 10.36 73.06 10.36 73.06 0.31 79.22 0.31 79.22 0.41 74.29 0.41"/><line class="cls-2" x1="62.49" y1="13.03" x2="79.73" y2="13.03"/><rect class="cls-1" x="62.49" y="12.93" width="17.24" height="0.1"/><path class="cls-1" d="M96.25,3.49c0,2.05-1.54,3.08-3.8,3.08H90.2v5.85H88.66V.41h3.69c2.26,0,3.9,1.13,3.9,3.08M92,6.46a2.69,2.69,0,0,0,2.57-3c0-1.34-.72-3-2.57-3h-2v6Z"/><polygon class="cls-1" points="100.87 0.51 100.87 6.26 104.36 6.26 104.36 6.46 100.87 6.46 100.87 12.42 106.82 12.42 106.82 12.52 99.33 12.52 99.33 0.41 106.82 0.41 106.82 0.51 100.87 0.51"/><rect class="cls-1" x="110.31" y="0.41" width="1.54" height="12.11"/><polygon class="cls-1" points="124.78 0.41 124.78 12.62 124.57 12.62 116.05 1.03 116.05 12.52 115.85 12.52 115.85 0.41 117.49 0.41 124.57 10.16 124.57 0.41 124.78 0.41"/><path class="cls-1" d="M127.14,12.52,131.86.1h.2l4.72,12.42h-1.64l-1.54-4h-4.82l-1.54,4Zm1.74-4.11h4.72l-2.36-6.05Z"/><path class="cls-1" d="M148.89,6.46A5.72,5.72,0,0,1,143,12.52h-3.28V.41H143a5.71,5.71,0,0,1,5.85,6.05m-6,6c2.46,0,4.3-2.26,4.3-6S145.3.51,142.84.51h-1.65V12.42Z"/><path class="cls-1" d="M162,6.46c0,3.49-2.25,6.37-5.23,6.37s-5.23-2.88-5.23-6.37S153.81.1,156.79.1,162,3,162,6.46m-1.64,0c0-2.87-1.13-6.25-3.59-6.25s-3.59,3.38-3.59,6.25,1.13,6.26,3.59,6.26,3.59-3.38,3.59-6.26"/><path class="cls-1" d="M168.39,5.34c2,.51,4,.92,4,3.69a3.92,3.92,0,0,1-4.11,3.69,4.4,4.4,0,0,1-3.49-1.64l.11-.1a4.29,4.29,0,0,0,3.28,1.64c1.85,0,3.39-1.13,3.39-2.77,0-1.95-1.85-2.46-3.59-2.87s-3.6-.93-3.6-3.49A3.74,3.74,0,0,1,168.18,0a4.25,4.25,0,0,1,3.18,1.44l-.1.1a3.82,3.82,0,0,0-3-1.44C166.44.1,165,1.23,165,2.67c0,1.84,1.64,2.26,3.39,2.67"/></g></g></svg>