<svg xmlns="http://www.w3.org/2000/svg" viewBox="0 0 103.73 10.97"><defs><style>.cls-1{fill:#c69088;}</style></defs><title>glowTan</title><g id="Capa_2" data-name="Capa 2"><g id="Capa_1-2" data-name="Capa 1"><path class="cls-1" d="M10.46,10.69v.11H6.18A7.8,7.8,0,0,1,4,10.53a5.7,5.7,0,0,1-1.88-1A5.74,5.74,0,0,1,.59,7.67,4.75,4.75,0,0,1,0,5.41,4.92,4.92,0,0,1,.74,2.88a5.68,5.68,0,0,1,2.12-2A6.14,6.14,0,0,1,6,0a9,9,0,0,1,3.3.69L9.72,2H9.61A4.19,4.19,0,0,0,8.1.79,4.84,4.84,0,0,0,6,.33,4.2,4.2,0,0,0,2.6,1.87,5.71,5.71,0,0,0,1.29,5.7a6.08,6.08,0,0,0,.22,1.69,4.14,4.14,0,0,0,.81,1.47A4,4,0,0,0,3.59,9.93a5.1,5.1,0,0,0,1.52.47,7.47,7.47,0,0,0,1.34.12H7a3.23,3.23,0,0,0,1.21-.18c.16-.1.24-.34.24-.73V8a.79.79,0,0,0-.2-.63.76.76,0,0,0-.55-.14V7.11h2.74v.11a.8.8,0,0,0-.62.18,1.09,1.09,0,0,0-.16.69V9.75a1.43,1.43,0,0,0,.13.72.52.52,0,0,0,.49.22Z"/><path class="cls-1" d="M15.17,10.8v-.11a.82.82,0,0,0,.64-.19A1.06,1.06,0,0,0,16,9.86V1.2a1.44,1.44,0,0,0-.11-.67c-.08-.14-.31-.21-.69-.22V.21H18V.31a1.1,1.1,0,0,0-.55.1.49.49,0,0,0-.21.24,2.27,2.27,0,0,0,0,.62V8.71a1.69,1.69,0,0,0,.46,1.35,2.44,2.44,0,0,0,1.57.39h1.29A1.81,1.81,0,0,0,21.87,10a2.74,2.74,0,0,0,.48-1.73h.11V10.8Z"/><path class="cls-1" d="M33.68,0A5.06,5.06,0,0,1,37.32,1.4a4.49,4.49,0,0,1,1.42,3.38A6.25,6.25,0,0,1,37.1,9.18,5.62,5.62,0,0,1,32.75,11a4.86,4.86,0,0,1-5-4.89,6.52,6.52,0,0,1,.68-2.79A5.63,5.63,0,0,1,33.68,0m0,10.36a4.42,4.42,0,0,0,2.16-.59A4.36,4.36,0,0,0,37.47,8.2a4.09,4.09,0,0,0,.61-2.11,5,5,0,0,0-.82-2.8,5.85,5.85,0,0,0-2.14-2A5.15,5.15,0,0,0,32.69.61,4.12,4.12,0,0,0,29.83,1.8a3.85,3.85,0,0,0-1.28,2.95,5.66,5.66,0,0,0,1.57,4,4.69,4.69,0,0,0,3.52,1.7"/><path class="cls-1" d="M54.26,11h-.18L51.16,2.89,48.29,11h-.16L44.68,1.51a3.38,3.38,0,0,0-.44-.89.82.82,0,0,0-.69-.31V.21H46V.31c-.24,0-.36.09-.36.27a1.61,1.61,0,0,0,.11.48l2.81,7.7,2.3-6.51-.22-.62A2.93,2.93,0,0,0,50.12.57a.86.86,0,0,0-.61-.25V.21H52V.31c-.24,0-.36.1-.36.31a2.15,2.15,0,0,0,.15.5l2.8,7.67L57.38,1l0,0L57.5.58c0-.18-.12-.27-.38-.27V.21h1.55V.31q-.63,0-1,1Z"/><polygon class="cls-1" points="67.89 0.74 71.16 0.74 71.16 10.74 71.92 10.74 71.92 0.74 75.15 0.74 75.15 0.04 67.89 0.04 67.89 0.74"/><polygon class="cls-1" points="85.44 0.05 81.2 10.74 82.02 10.74 83.09 8.04 83.1 8.04 83.38 7.33 83.37 7.33 85.74 1.34 88 7.11 88.04 7.11 89.06 9.83 89.41 10.74 90.22 10.74 86.06 0.05 85.44 0.05"/><polygon class="cls-1" points="102.96 0 102.96 9.19 96.94 0 96.25 0 96.25 10.7 97.02 10.7 97.02 1.47 103.06 10.74 103.73 10.74 103.73 0 102.96 0"/></g></g></svg>