<svg xmlns="http://www.w3.org/2000/svg" viewBox="0 0 390.91 273.22"><defs><style>.cls-1{fill:#e30613;}</style></defs><title>her-logo2</title><g id="Capa_2" data-name="Capa 2"><g id="Layer_1" data-name="Layer 1"><path class="cls-1" d="M0,175.83v-3H3a8.85,8.85,0,0,0,6.88-3.2,9.8,9.8,0,0,0,2.55-6.79V56.94q0-6.69-7.35-6.68H0v-3H63.68v3h-3.2a9.86,9.86,0,0,0-7.72,3.39,7.63,7.63,0,0,0-2.26,5.46v44.18H90.72V59.11a8.38,8.38,0,0,0-8.57-8.85H78.76v-3h63.59v3H138.2a9.41,9.41,0,0,0-7.06,2.92,8.45,8.45,0,0,0-2,5.93V165.19a6.85,6.85,0,0,0,3.58,6.5,8.1,8.1,0,0,0,4.24,1.13h5.37v3H78.76v-3h3.39q8.56,0,8.57-11.4V106.31H50.5v58.88q0,7.63,6.68,7.63h6.5v3Z"/><path class="cls-1" d="M139.14,50.26v-3H250.49V95.85h-2.35q-.28-12.15-3.3-18.75A47,47,0,0,0,226.18,56,43.15,43.15,0,0,0,203,49.6h-5.84v55.2h3.58q6.78,0,13.66-5.46,12.06-9.7,12.06-24V73.53l2.54.18v68.78h-2.54V140.6a32.34,32.34,0,0,0-6.22-19.31,35.13,35.13,0,0,0-11.78-10.36,16.17,16.17,0,0,0-7.72-2.36h-3.58v58.88a4.73,4.73,0,0,0,1.41,3.77q2.26,2,9.8,2,10.92,0,17.9-3.4,10.65-5.27,20.63-24.87,5.75-11.12,7.16-18.65a82,82,0,0,0,.66-9.8l2.45.1v59.25h-118v-3h6.4q8.11,0,11.69-2.83,2.63-2,2.63-8.66V57.51a7.24,7.24,0,0,0-2-5.18q-2.08-2.07-13.1-2.07Z"/><path class="cls-1" d="M259.4,175.83v-3h2.73q6.4,0,9.89-3.48,2-2,2-5.94V57.13c0-2.26-.47-3.77-1.41-4.52a10.53,10.53,0,0,0-7-2.35h-5.75v-3H322q18.38,0,26.76,2.17,15.36,4.05,22.8,14A24.46,24.46,0,0,1,369.15,96a43.12,43.12,0,0,1-13.1,8.39q-5.18,2.07-12.05,4.42,13.28,3.59,18.84,6.69,9.14,5.28,12,14.42c.94,3.07,1.42,42.5,1.42,50.23v13.75q0,6.88,3.67,6.88a4.59,4.59,0,0,0,3.48-1.88q2.26-2.55,3.77-9.52a62.35,62.35,0,0,0,1.23-13c0-.88-.06-3.48-.19-7.82l2.54.09q.19,7.63.19,9.43,0,19.68-8.38,26.85-7.72,6.5-18.94,6.5a31.73,31.73,0,0,1-22.8-8.95q-6.5-6.14-6.5-21.58,0-2.64.29-8.29c.25-5.46.37-43.51.37-46.09q0-15.91-11.3-15.92H312.44v53.23c0,3.08.81,5.37,2.45,6.88s2.88,2.07,3.95,2.07h6.5v3Zm53-125.57v57.09h8.66q10.93,0,14.51-6.6,2.73-4.8,2.73-19.31,0-14.13-1.41-19.5a15.73,15.73,0,0,0-5.09-8.67,12.14,12.14,0,0,0-7.63-3Z"/><path class="cls-1" d="M122,204.33c0,4.36-3.41,6.61-8.25,6.61H109v12.65H105.7v-26h8C118.56,197.56,122,200,122,204.33Zm-8.84,6.32c3.88,0,5.43-3.44,5.43-6.32s-1.51-6.48-5.39-6.48H109v12.8Z"/><path class="cls-1" d="M131.87,197.85v12.39h7.59v.3h-7.59v12.75h12.87v.3H128.62v-26h16.12v.29Z"/><path class="cls-1" d="M155.39,223.59h-3.25v-26h3.25Z"/><path class="cls-1" d="M183.09,197.56v26.25h-.41L164.45,199v24.63h-.37v-26h3.4l15.24,21v-21Z"/><path class="cls-1" d="M188.26,223.59,198.47,197h.33L209,223.59h-3.48L202.28,215H191.92l-3.29,8.58Zm3.77-8.87h10.1L197,201.81Z"/><path class="cls-1" d="M234.78,210.57c0,8.18-5.62,13-12.57,13h-7.1v-26h7.1C229.16,197.56,234.78,202.4,234.78,210.57ZM222,223.29c5.18,0,9.25-4.77,9.25-12.72s-4.07-12.72-9.25-12.72h-3.62v25.44Z"/><path class="cls-1" d="M263,210.57c0,7.51-4.77,13.61-11.31,13.61s-11.32-6.1-11.32-13.61,4.77-13.6,11.32-13.6S263,203.07,263,210.57Zm-3.55,0c0-6.1-2.33-13.31-7.76-13.31s-7.77,7.21-7.77,13.31,2.33,13.31,7.77,13.31S259.4,216.67,259.4,210.57Z"/><path class="cls-1" d="M276.67,208.28c4.14,1,8.54,2,8.54,7.91,0,4.44-3.95,8-8.87,8a9.26,9.26,0,0,1-7.4-3.51l.23-.22a9,9,0,0,0,7.09,3.43c3.92,0,7.29-2.44,7.29-5.95,0-4.25-3.88-5.21-7.73-6.17s-7.73-2-7.73-7.4c0-4.06,3.66-7.39,8.25-7.39a8.55,8.55,0,0,1,6.73,3.14l-.22.22a8.21,8.21,0,0,0-6.47-3.07c-3.89,0-7,2.37-7,5.47C269.42,206.32,273,207.36,276.67,208.28Z"/><path class="cls-1" d="M126.74,19.78c0,4.4-3.4,6.84-8.25,6.84H110V.59h7.36c4.84,0,8.76,2.22,8.76,6.18,0,3.73-3,5.88-7.4,6.13C123.45,13,126.74,15.46,126.74,19.78ZM113.24.89v11.9h4c3.92,0,5.47-3.18,5.47-5.88s-1.59-6-5.51-6Zm4.62,25.44c3.92,0,5.48-3.7,5.48-6.7s-1.59-6.54-5.51-6.54h-4.59V26.33Z"/><path class="cls-1" d="M131.18,26.62,141.38,0h.33l10.21,26.62h-3.48L145.19,18H134.84l-3.29,8.58ZM135,17.75H145L139.9,4.84Z"/><path class="cls-1" d="M174.77,26.62h-3.33L169.59,16a3.24,3.24,0,0,0-3.21-2.63h-5.11V26.62H158V.59h7.54c4.85,0,8.77,2.26,8.77,6.32,0,3.52-2.41,5.77-6.33,6.33a5.39,5.39,0,0,1,5.22,4.62Zm-9.35-13.53c3.88,0,5.5-3.44,5.5-6.18s-1.59-6-5.47-6h-4.18v12.2Z"/><path class="cls-1" d="M198.91,26.62h-3.32L193.74,16a3.24,3.24,0,0,0-3.22-2.63h-5.1V26.62h-3.26V.59h7.55c4.84,0,8.76,2.26,8.76,6.32,0,3.52-2.4,5.77-6.32,6.33a5.37,5.37,0,0,1,5.21,4.62Zm-9.35-13.53c3.88,0,5.51-3.44,5.51-6.18s-1.59-6-5.47-6h-4.18v12.2Z"/><path class="cls-1" d="M203.72,26.62,213.93,0h.33l10.21,26.62H221L217.73,18H207.38l-3.29,8.58Zm3.77-8.87h10.1L212.45,4.84Z"/><path class="cls-1" d="M260.87,11c0,6.76-4.65,10.77-10.4,10.77H244.6V.2h5.87C256.22.2,260.87,4.2,260.87,11ZM250.29,21.49c4.28,0,7.65-3.95,7.65-10.52S254.57.44,250.29.44h-3v21Z"/><path class="cls-1" d="M269.23.44V10.69h6.27v.25h-6.27V21.49h10.64v.25H266.53V.2h13.34V.44Z"/><line class="cls-1" x1="243.94" y1="27.46" x2="280.92" y2="27.46"/><rect class="cls-1" x="243.94" y="27.29" width="36.98" height="0.33"/><path class="cls-1" d="M135.44,269.06c0,2.68-2.07,4.16-5,4.16h-5.18V257.37h4.49c2.95,0,5.33,1.35,5.33,3.76s-1.8,3.58-4.5,3.74C133.43,264.93,135.44,266.42,135.44,269.06Zm-8.22-11.51v7.25h2.43a3.31,3.31,0,0,0,3.33-3.58,3.4,3.4,0,0,0-3.35-3.67ZM130,273c2.39,0,3.34-2.25,3.34-4.07s-1-4-3.36-4h-2.79V273Z"/><path class="cls-1" d="M145.62,267.16v6.06h-2v-5.79l-4.48-10.06h2.18l4.19,9.39,4.19-9.39H150Z"/><path class="cls-1" d="M164,265.11l-.56.55v7.56h-2V257.37h2v8l8.29-8H172l-6.56,6.35,7.44,9.5h-2.5Z"/><path class="cls-1" d="M187.45,273v.18h-9.82V257.37h2V273Z"/><path class="cls-1" d="M194.46,273.22h-2V257.37h2Z"/><path class="cls-1" d="M210.56,261.49c0,2.66-2.07,4-5,4h-2.91v7.7h-2V257.37h4.89C208.49,257.37,210.56,258.83,210.56,261.49Zm-5.38,3.85c2.36,0,3.31-2.1,3.31-3.85s-.92-3.94-3.29-3.94h-2.57v7.79Z"/><path class="cls-1" d="M232.55,273v.18h-9.82V257.37h2V273Z"/><path class="cls-1" d="M235.88,273.22,242.1,257h.2l6.22,16.21H246.4l-2-5.22h-6.31l-2,5.22Zm2.3-5.4h6.15L241.2,260Z"/><path class="cls-1" d="M263.59,269.05c0,2.68-2.07,4.16-5,4.16H253.4V257.38h4.47c2.95,0,5.34,1.35,5.34,3.75s-1.8,3.58-4.5,3.74C261.58,264.93,263.59,266.42,263.59,269.05Zm-8.21-11.49v7.24h2.43a3.31,3.31,0,0,0,3.33-3.58,3.4,3.4,0,0,0-3.36-3.66ZM258.19,273c2.38,0,3.33-2.25,3.33-4.07s-1-4-3.35-4h-2.79v8Z"/></g></g></svg>