<svg xmlns="http://www.w3.org/2000/svg" xmlns:xlink="http://www.w3.org/1999/xlink" viewBox="0 0 23.52 23.52"><defs><style>.cls-1{fill:none;}.cls-2{clip-path:url(#clip-path);}.cls-3{fill:#68748b;}</style><clipPath id="clip-path" transform="translate(0 0)"><rect class="cls-1" width="23.52" height="23.52"/></clipPath></defs><title>instagramblue</title><g id="Capa_2" data-name="Capa 2"><g id="Capa_31" data-name="Capa 31"><g class="cls-2"><path class="cls-3" d="M11.76,0C8.57,0,8.17,0,6.91.07A8.7,8.7,0,0,0,4.06.62,5.77,5.77,0,0,0,2,2,5.71,5.71,0,0,0,.62,4.06,8.7,8.7,0,0,0,.07,6.91C0,8.17,0,8.57,0,11.76s0,3.6.07,4.85a8.77,8.77,0,0,0,.55,2.86A5.67,5.67,0,0,0,2,21.55a5.8,5.8,0,0,0,2.08,1.36,8.48,8.48,0,0,0,2.85.54c1.26.06,1.66.07,4.85.07s3.6,0,4.85-.07a8.54,8.54,0,0,0,2.86-.54,5.8,5.8,0,0,0,2.08-1.36,5.67,5.67,0,0,0,1.36-2.08,8.54,8.54,0,0,0,.54-2.86c.06-1.25.07-1.65.07-4.85s0-3.59-.07-4.85a8.48,8.48,0,0,0-.54-2.85A5.71,5.71,0,0,0,21.55,2,5.77,5.77,0,0,0,19.47.62,8.77,8.77,0,0,0,16.61.07C15.36,0,15,0,11.76,0m0,2.12c3.14,0,3.52,0,4.76.07a6.49,6.49,0,0,1,2.18.4,3.72,3.72,0,0,1,1.35.88,3.67,3.67,0,0,1,.88,1.35A6.5,6.5,0,0,1,21.34,7c.05,1.24.07,1.61.07,4.75s0,3.51-.07,4.76a6.48,6.48,0,0,1-.41,2.18,3.91,3.91,0,0,1-2.23,2.23,6.69,6.69,0,0,1-2.18.41c-1.24.05-1.62.07-4.76.07s-3.51,0-4.75-.07a6.63,6.63,0,0,1-2.18-.41,3.63,3.63,0,0,1-1.36-.88,3.72,3.72,0,0,1-.88-1.35,6.55,6.55,0,0,1-.4-2.18c-.06-1.25-.07-1.62-.07-4.76s0-3.51.07-4.75a6.57,6.57,0,0,1,.4-2.19,3.8,3.8,0,0,1,.88-1.35,3.76,3.76,0,0,1,1.36-.88A6.44,6.44,0,0,1,7,2.19c1.24-.06,1.61-.07,4.75-.07" transform="translate(0 0)"/></g><path class="cls-3" d="M11.76,15.68a3.92,3.92,0,1,1,3.92-3.92,3.92,3.92,0,0,1-3.92,3.92m0-10a6,6,0,1,0,6,6,6,6,0,0,0-6-6" transform="translate(0 0)"/><path class="cls-3" d="M19.45,5.48A1.41,1.41,0,1,1,18,4.07a1.42,1.42,0,0,1,1.41,1.41" transform="translate(0 0)"/></g></g></svg>