<svg xmlns="http://www.w3.org/2000/svg" viewBox="0 0 32.78 12.95"><defs><style>.cls-1{fill:#3c3c3b;}</style></defs><title>lax2</title><g id="Capa_2" data-name="Capa 2"><g id="Capa_31" data-name="Capa 31"><path class="cls-1" d="M.72,13H.18C.06,13,0,12.88,0,12.73V.22C0,.07.06,0,.18,0H.72c.13,0,.2.07.2.22V12.73C.92,12.88.85,13,.72,13Z"/><path class="cls-1" d="M14.55,13H13.37a2.52,2.52,0,0,1-1.89-.7,2.63,2.63,0,0,1-.69-1.92V6.17a2.59,2.59,0,0,1,.69-1.91,2.52,2.52,0,0,1,1.89-.7h3.91c.12,0,.18.07.18.22v9c0,.15-.06.22-.18.22h-.54c-.13,0-.2-.07-.2-.22V12h-.07A1.93,1.93,0,0,1,14.55,13Zm2-2.63V4.55c0-.11-.06-.17-.18-.17H13.45a1.65,1.65,0,0,0-1.29.48,1.9,1.9,0,0,0-.45,1.35V10.3a1.89,1.89,0,0,0,.45,1.34,1.65,1.65,0,0,0,1.29.48h1.19A2,2,0,0,0,16,11.65,1.72,1.72,0,0,0,16.54,10.32Z"/><path class="cls-1" d="M26.88,13H26.2c-.16,0-.19-.07-.1-.22l2.68-4.57L26.23,3.78c-.09-.15-.06-.22.1-.22H27a.33.33,0,0,1,.31.22l2.08,3.75h.08l2-3.75a.36.36,0,0,1,.31-.22h.66c.16,0,.19.07.1.22L30,8.12l2.71,4.61c.08.15,0,.22-.1.22h-.73c-.1,0-.19-.07-.26-.22L29.46,8.79h-.08l-2.19,3.94A.36.36,0,0,1,26.88,13Z"/></g></g></svg>