<?xml version="1.0" encoding="utf-8"?>
<!-- Generator: Adobe Illustrator 22.0.1, SVG Export Plug-In . SVG Version: 6.00 Build 0)  -->
<svg version="1.1" id="Capa_1" xmlns="http://www.w3.org/2000/svg" xmlns:xlink="http://www.w3.org/1999/xlink" x="0px" y="0px"
	 viewBox="0 0 431.8 247.6" style="enable-background:new 0 0 431.8 247.6;" xml:space="preserve">
<style type="text/css">
	.st0{fill:#E10E33;}
</style>
<title>logo-her</title>
<path class="st0" d="M90.8,190.9H87v3.3h197.1v-65.5l-2.7-0.1c0,3.6-0.3,7.2-0.7,10.8c-1,5.6-3.7,12.4-7.9,20.6
	c-7.3,14.4-14.9,23.6-22.8,27.5c-5.1,2.5-11.7,3.8-19.8,3.8c-5.5,0-9.2-0.7-10.8-2.2c-1.1-1.1-1.7-2.6-1.6-4.2v-65h4
	c3,0.1,6,1,8.5,2.6c5.1,2.8,9.6,6.7,13,11.5c4.5,6.2,6.9,13.7,6.9,21.3v2.1h2.8v-76l-2.8-0.2v2c0,10.6-4.4,19.4-13.3,26.5
	c-5.1,4-10.1,6-15.1,6h-4v-61h6.4c9-0.1,17.9,2.3,25.6,7.1c9.1,5.5,16.3,13.6,20.6,23.3c2.2,4.8,3.4,11.7,3.6,20.7h2.6V52.2H87v3.3
	h3.8c2.4,0,4.8,0.9,6.6,2.5c2,1.9,3,4.6,2.9,7.3v48.8H55.8V65.3c0-2.3,0.9-4.4,2.5-6c2.1-2.5,5.3-3.8,8.5-3.7h3.5v-3.4H0v3.3h5.6
	c5.4,0,8.1,2.5,8.1,7.4v117c0.1,2.8-1,5.4-2.8,7.5c-1.9,2.3-4.7,3.6-7.6,3.5H0v3.3h70.3v-3.3h-7.2c-4.9,0-7.4-2.8-7.4-8.4v-65.1
	h44.4v60.9C100.2,186.7,97.1,190.9,90.8,190.9z M142.7,65.3c-0.1-2.4,0.7-4.7,2.2-6.6c2-2.1,4.9-3.3,7.8-3.2h7.3
	c8.1,0,12.9,0.8,14.5,2.3c1.5,1.5,2.2,3.6,2.2,5.7v114.7c0,4.9-1,8.1-2.9,9.6c-2.7,2.1-7,3.1-12.9,3.1h-9.5c-1.6,0-3.3-0.4-4.7-1.2
	c-2.7-1.5-4-3.9-4-7.2L142.7,65.3z"/>
<path class="st0" d="M431.6,186.4l-2.8-0.1c0.1,4.8,0.2,7.7,0.2,8.6c0.1,4.8-0.4,9.6-1.4,14.4c-1.1,5.2-2.5,8.7-4.2,10.5
	c-0.9,1.2-2.3,2-3.9,2.1c-2.7,0-4-2.5-4-7.6v-15.2c0-8.5-0.5-52.1-1.6-55.5c-2.1-6.7-6.5-12-13.2-15.9c-4.1-2.3-11-4.8-20.8-7.4
	c5.1-1.7,9.5-3.4,13.3-4.9c5.3-2.2,10.2-5.3,14.5-9.3c10-9.5,11.1-25.1,2.7-36c-5.5-7.3-13.9-12.5-25.2-15.5
	c-6.2-1.6-16-2.4-29.6-2.4h-68.7v3.3h6.4c2.8-0.1,5.5,0.8,7.7,2.6c1,0.8,1.6,2.5,1.6,5v117.4c0,2.9-0.7,5.1-2.2,6.6
	c-2.6,2.6-6.2,3.8-10.9,3.9h-3v3.3h72.9v-3.3h-7.2c-1.2,0-2.6-0.8-4.4-2.3s-2.7-4.2-2.7-7.6v-58.8h12.4c8.3,0,12.5,5.9,12.5,17.6
	c0,2.8-0.1,44.9-0.4,50.9c-0.2,4.2-0.3,7.2-0.3,9.2c0,11.4,2.4,19.3,7.2,23.8c6.7,6.5,15.8,10.1,25.2,9.9c8.3,0,15.2-2.4,20.9-7.2
	c6.2-5.3,9.3-15.2,9.3-29.7C431.8,195.5,431.8,192,431.6,186.4z M370.8,111.3c-2.7,4.9-8,7.3-16,7.3h-9.6V55.5h13
	c3.1,0.1,6.1,1.3,8.4,3.3c2.9,2.5,4.8,5.9,5.6,9.6c1,4,1.6,11.1,1.6,21.5C373.8,100.7,372.8,107.8,370.8,111.3z"/>
<path class="st0" d="M138.6,21.9c0-4.8-3.6-7.5-8.9-7.6c4.9-0.3,8.2-2.6,8.2-6.8c0-4.4-4.3-6.8-9.7-6.8H120v28.8h9.4
	C134.8,29.4,138.6,26.7,138.6,21.9z M123.7,1h4.3c4.3,0,6.1,3.7,6.1,6.7s-1.7,6.5-6,6.5h-4.4L123.7,1z M123.7,29.1V14.5h5.1
	c4.3,0,6.1,3.9,6.1,7.2s-1.7,7.4-6.1,7.4L123.7,29.1z"/>
<path class="st0" d="M147.5,19.9h11.4l3.6,9.5h3.8L155.1,0h-0.4l-11.3,29.4h0.4L147.5,19.9z M153.1,5.4l5.7,14.3h-11.2L153.1,5.4z"
	/>
<path class="st0" d="M176.7,14.8h5.6c1.7,0,3.2,1.2,3.6,2.9l2,11.7h3.7l-1.7-9.7c-0.4-2.9-2.9-5-5.8-5.1c4.3-0.6,7-3.1,7-7
	c0-4.5-4.3-7-9.7-7h-8.3v28.8h3.6L176.7,14.8z M176.7,1h4.6c4.3,0,6.1,3.6,6.1,6.7s-1.8,6.8-6.1,6.8h-4.6V1z"/>
<path class="st0" d="M203.4,14.8h5.6c1.7,0,3.2,1.2,3.6,2.9l2,11.7h3.7l-1.7-9.7c-0.4-2.9-2.9-5-5.8-5.1c4.3-0.6,7-3.1,7-7
	c0-4.5-4.3-7-9.7-7h-8.3v28.8h3.6L203.4,14.8z M203.4,1h4.6c4.3,0,6,3.6,6,6.7s-1.8,6.8-6.1,6.8h-4.6L203.4,1z"/>
<path class="st0" d="M227.6,19.9h11.4l3.6,9.5h3.8L235.2,0h-0.4l-11.3,29.4h0.4L227.6,19.9z M233.2,5.4l5.7,14.3h-11.2L233.2,5.4z"
	/>
<path class="st0" d="M286.7,12.1c0-7.5-5.1-11.9-11.5-11.9h-6.5V24h6.5C281.6,24,286.7,19.6,286.7,12.1z M271.7,23.7V0.5h3.3
	c4.7,0,8.5,4.4,8.5,11.6s-3.7,11.6-8.5,11.6H271.7z"/>
<polygon class="st0" points="307.7,23.7 296,23.7 296,12.1 302.9,12.1 302.9,11.8 296,11.8 296,0.5 307.7,0.5 307.7,0.2 293,0.2 
	293,24 307.7,24 "/>
<path class="st0" d="M125.6,218.2h-8.9V247h3.6v-14h5.3c5.4,0,9.1-2.5,9.1-7.3S131,218.2,125.6,218.2z M125,232.7h-4.6v-14.1h4.6
	c4.3,0,6,4,6,7.1S129.3,232.7,125,232.7z"/>
<polygon class="st0" points="142.1,247 159.9,247 159.9,246.7 145.7,246.7 145.7,232.6 154.1,232.6 154.1,232.2 145.7,232.2 
	145.7,218.6 159.9,218.6 159.9,218.2 142.1,218.2 "/>
<rect x="168.1" y="218.2" class="st0" width="3.6" height="28.8"/>
<polygon class="st0" points="201.9,241.4 185,218.2 181.3,218.2 181.3,247 181.7,247 181.7,219.8 201.8,247.2 202.2,247.2 
	202.2,218.2 201.9,218.2 "/>
<path class="st0" d="M219.2,217.6L208,247h0.4l3.6-9.5h11.4l3.6,9.5h3.8l-11.3-29.4H219.2z M212.1,237.2l5.5-14.3l5.7,14.3H212.1z"
	/>
<path class="st0" d="M245.5,218.2h-7.8V247h7.8c7.7,0,13.9-5.4,13.9-14.4S253.1,218.2,245.5,218.2z M245.2,246.7h-4v-28.1h4
	c5.7,0,10.2,5.3,10.2,14.1S251,246.7,245.2,246.7L245.2,246.7z"/>
<path class="st0" d="M278,217.6c-7.2,0-12.5,6.7-12.5,15s5.3,15,12.5,15s12.5-6.7,12.5-15S285.2,217.6,278,217.6z M278,247.3
	c-6,0-8.6-8-8.6-14.7s2.6-14.7,8.6-14.7s8.6,8,8.6,14.7S284,247.3,278,247.3z"/>
<path class="st0" d="M305.6,230.1c-4-1-8-2.2-8-6.1c0-3.4,3.4-6,7.7-6c2.8,0,5.4,1.2,7.1,3.4l0.2-0.2c-1.8-2.2-4.6-3.5-7.4-3.5
	c-5.1,0-9.1,3.7-9.1,8.2c0,5.9,4.2,7.1,8.5,8.2s8.5,2.1,8.5,6.8c0,3.9-3.7,6.6-8,6.6c-3.1,0-5.9-1.4-7.8-3.8l-0.2,0.2
	c2,2.5,5,3.9,8.2,3.9c5.4,0,9.8-3.9,9.8-8.8C315.1,232.2,310.2,231.2,305.6,230.1z"/>
<rect x="268" y="30.1" class="st0" width="40.9" height="0.4"/>
</svg>
