<svg xmlns="http://www.w3.org/2000/svg" viewBox="0 0 98.65 14.63"><defs><style>.cls-1{fill:#575756;}</style></defs><title>niumexico</title><g id="Capa_2" data-name="Capa 2"><g id="Capa_31" data-name="Capa 31"><path class="cls-1" d="M94.83,10.59A2.19,2.19,0,0,1,93,9.8a3.55,3.55,0,0,1-.64-2.27A3.55,3.55,0,0,1,93,5.26a2.45,2.45,0,0,1,3.62,0,3.55,3.55,0,0,1,.64,2.27,3.56,3.56,0,0,1-.63,2.28,2.21,2.21,0,0,1-1.82.78m0,1.11a3.9,3.9,0,0,0,2-.51,3.39,3.39,0,0,0,1.34-1.46,5,5,0,0,0,.47-2.2,4.92,4.92,0,0,0-.47-2.2,3.39,3.39,0,0,0-1.34-1.46,3.9,3.9,0,0,0-2-.51,3.84,3.84,0,0,0-2,.51,3.45,3.45,0,0,0-1.34,1.46A4.92,4.92,0,0,0,91,7.53a5,5,0,0,0,.47,2.2,3.45,3.45,0,0,0,1.34,1.46,3.84,3.84,0,0,0,2,.51m-7.91,0a4.88,4.88,0,0,0,1.31-.19,4.08,4.08,0,0,0,1.11-.5,1.91,1.91,0,0,0,.43-.39.69.69,0,0,0,.12-.39.6.6,0,0,0-.13-.38.37.37,0,0,0-.3-.15.6.6,0,0,0-.28.09l-.35.19a4.1,4.1,0,0,1-.81.45,2.56,2.56,0,0,1-1,.16,2.31,2.31,0,0,1-1.87-.79,3.38,3.38,0,0,1-.66-2.24,3.48,3.48,0,0,1,.66-2.26,2.28,2.28,0,0,1,1.87-.82,2.41,2.41,0,0,1,1,.17,5.12,5.12,0,0,1,.82.44l.12.08a.91.91,0,0,0,.22.13.5.5,0,0,0,.25.07.39.39,0,0,0,.32-.15.58.58,0,0,0,.12-.38.79.79,0,0,0-.12-.42A1.45,1.45,0,0,0,89.31,4a3.59,3.59,0,0,0-1.08-.51A4.81,4.81,0,0,0,87,3.36a3.82,3.82,0,0,0-2,.53,3.48,3.48,0,0,0-1.36,1.48,4.71,4.71,0,0,0-.49,2.19,4.86,4.86,0,0,0,.47,2.18,3.42,3.42,0,0,0,1.34,1.45,3.79,3.79,0,0,0,2,.51m-6.46-10a.85.85,0,0,0,.64-.23.76.76,0,0,0,.25-.61A.75.75,0,0,0,81.1.23.9.9,0,0,0,80.46,0a.91.91,0,0,0-.64.23.78.78,0,0,0-.25.59.8.8,0,0,0,.25.61.87.87,0,0,0,.64.23m0,10a.68.68,0,0,0,.48-.16.64.64,0,0,0,.18-.49v-7a.62.62,0,0,0-.18-.48.73.73,0,0,0-1,0,.59.59,0,0,0-.19.48v7a.6.6,0,0,0,.19.48.64.64,0,0,0,.48.17m-2.62-1.1L75.11,7.48l2.62-3a.66.66,0,0,0,.2-.48.6.6,0,0,0-.18-.43.61.61,0,0,0-.43-.18.65.65,0,0,0-.48.23L74.29,6.57,71.73,3.64a.65.65,0,0,0-.48-.23.61.61,0,0,0-.42.18.62.62,0,0,0-.19.45.74.74,0,0,0,.2.46l2.62,3-2.73,3.08a.68.68,0,0,0-.2.46.58.58,0,0,0,.19.45.6.6,0,0,0,.44.18.64.64,0,0,0,.47-.23l2.66-3.05L77,11.42a.68.68,0,0,0,.48.23.58.58,0,0,0,.43-.18A.6.6,0,0,0,78,11a.62.62,0,0,0-.2-.48M66,4.4a2.07,2.07,0,0,1,1.62.65,2.87,2.87,0,0,1,.61,1.87H63.58a2.93,2.93,0,0,1,.75-1.86A2.21,2.21,0,0,1,66,4.4M68.9,9.72a1.53,1.53,0,0,0-.58.25,7.26,7.26,0,0,1-1,.47,3.22,3.22,0,0,1-1.1.17c-1.69,0-2.59-.94-2.69-2.83h5.31a.55.55,0,0,0,.43-.15.76.76,0,0,0,.13-.48,4,4,0,0,0-.92-2.77,3.21,3.21,0,0,0-2.49-1,3.72,3.72,0,0,0-2,.53,3.53,3.53,0,0,0-1.34,1.47,4.77,4.77,0,0,0-.48,2.19,4.15,4.15,0,0,0,1.08,3,3.91,3.91,0,0,0,2.94,1.11,4.82,4.82,0,0,0,1.28-.18A4.9,4.9,0,0,0,68.77,11c.38-.24.57-.49.57-.76a.53.53,0,0,0-.13-.38.4.4,0,0,0-.31-.15M57.58,3.36A3,3,0,0,0,56,3.79a2.61,2.61,0,0,0-1.06,1.15,2.34,2.34,0,0,0-2.45-1.58A2.92,2.92,0,0,0,51,3.74a2.58,2.58,0,0,0-1,1.09V4a.61.61,0,0,0-.18-.47.63.63,0,0,0-.46-.18.66.66,0,0,0-.49.19.61.61,0,0,0-.19.47v7a.6.6,0,0,0,.19.48.68.68,0,0,0,.49.17A.62.62,0,0,0,50,11V7a2.7,2.7,0,0,1,.58-1.83,2,2,0,0,1,1.57-.68A1.54,1.54,0,0,1,53.4,5a2.56,2.56,0,0,1,.39,1.59V11a.63.63,0,0,0,.18.48.64.64,0,0,0,.48.17.68.68,0,0,0,.49-.17.64.64,0,0,0,.19-.48V7a2.75,2.75,0,0,1,.57-1.83,2,2,0,0,1,1.58-.68,1.49,1.49,0,0,1,1.24.5,2.56,2.56,0,0,1,.39,1.59V11a.64.64,0,0,0,.19.48.68.68,0,0,0,.49.17.64.64,0,0,0,.48-.17.63.63,0,0,0,.18-.48V6.54q0-3.18-2.67-3.18M42.65,10.64a1.68,1.68,0,0,1-1.17-.42A1.33,1.33,0,0,1,41,9.16a1.07,1.07,0,0,1,.32-.85,2.11,2.11,0,0,1,1.08-.41,15.07,15.07,0,0,1,2.2-.12h.3v.47A2.42,2.42,0,0,1,44.28,10a2.18,2.18,0,0,1-1.63.66m.55-7.28a5.63,5.63,0,0,0-1.46.19,5.35,5.35,0,0,0-1.31.52,1.63,1.63,0,0,0-.45.35.6.6,0,0,0-.14.41.55.55,0,0,0,.13.38.45.45,0,0,0,.33.14,1.42,1.42,0,0,0,.62-.28,4.93,4.93,0,0,1,2.28-.61,1.66,1.66,0,0,1,1.31.47,2.15,2.15,0,0,1,.4,1.45v.54h-.36a14.84,14.84,0,0,0-2.93.22,2.78,2.78,0,0,0-1.52.73,2,2,0,0,0-.46,1.41A2.08,2.08,0,0,0,40,10.51a2.38,2.38,0,0,0,1,.87,3.22,3.22,0,0,0,1.42.32A2.83,2.83,0,0,0,44,11.31a2.38,2.38,0,0,0,.95-1.1V11a.64.64,0,0,0,.18.47.65.65,0,0,0,.48.18.63.63,0,0,0,.47-.18.68.68,0,0,0,.17-.47V6.52c0-2.1-1-3.16-3-3.16m-9.1,7.23a2.14,2.14,0,0,1-1.8-.8,3.56,3.56,0,0,1-.63-2.26,3.56,3.56,0,0,1,.63-2.26,2.44,2.44,0,0,1,3.62,0,3.6,3.6,0,0,1,.64,2.26,3.49,3.49,0,0,1-.64,2.24,2.21,2.21,0,0,1-1.82.79m.27-7.23a3.19,3.19,0,0,0-1.64.41,2.67,2.67,0,0,0-1.06,1.17V4.05a.64.64,0,0,0-.18-.47A.6.6,0,0,0,31,3.39a.65.65,0,0,0-.5.19.64.64,0,0,0-.18.47V14a.63.63,0,0,0,.18.46.68.68,0,0,0,.5.18.67.67,0,0,0,.48-.17.64.64,0,0,0,.18-.47V10.12a2.67,2.67,0,0,0,1.06,1.17,3.19,3.19,0,0,0,1.64.41,3.27,3.27,0,0,0,3.11-2,4.93,4.93,0,0,0,.45-2.18,5.09,5.09,0,0,0-.45-2.2,3.47,3.47,0,0,0-1.25-1.47,3.35,3.35,0,0,0-1.86-.53M25.12,11.7a3.79,3.79,0,0,0,2.31-.64,2,2,0,0,0,.87-1.67A2,2,0,0,0,28,8.3a2.1,2.1,0,0,0-.88-.72A8.35,8.35,0,0,0,25.42,7a7.57,7.57,0,0,1-1.16-.33,1.51,1.51,0,0,1-.58-.4,1,1,0,0,1-.17-.58A1.1,1.1,0,0,1,24,4.79a2,2,0,0,1,1.24-.34,2.73,2.73,0,0,1,1,.16,5.76,5.76,0,0,1,.88.46,1.19,1.19,0,0,0,.59.28A.41.41,0,0,0,28,5.21a.53.53,0,0,0,.14-.37A1.08,1.08,0,0,0,27.6,4a3.89,3.89,0,0,0-1.07-.49,4.64,4.64,0,0,0-1.24-.17,3.86,3.86,0,0,0-1.59.31,2.73,2.73,0,0,0-1.1.86,2.09,2.09,0,0,0-.39,1.25,1.8,1.8,0,0,0,.62,1.44,4.94,4.94,0,0,0,2.08.84,9.36,9.36,0,0,1,1.3.35,1.52,1.52,0,0,1,.63.4.87.87,0,0,1,.18.58,1,1,0,0,1-.5.91,2.54,2.54,0,0,1-1.38.31,3.79,3.79,0,0,1-1.21-.17A5.81,5.81,0,0,1,23,10a1.19,1.19,0,0,0-.58-.25.42.42,0,0,0-.32.14.51.51,0,0,0-.12.35.7.7,0,0,0,.12.42,1.61,1.61,0,0,0,.42.38,4.74,4.74,0,0,0,1.21.51,5.68,5.68,0,0,0,1.44.18M19.28,3.39a.65.65,0,0,0-.5.19.64.64,0,0,0-.18.47v4A2.49,2.49,0,0,1,18,9.89a2.22,2.22,0,0,1-1.7.69,1.65,1.65,0,0,1-1.35-.51,2.36,2.36,0,0,1-.43-1.57V4.05a.68.68,0,0,0-.17-.47.73.73,0,0,0-1,0,.64.64,0,0,0-.18.47V8.53a3.43,3.43,0,0,0,.72,2.37,2.77,2.77,0,0,0,2.16.8,3.17,3.17,0,0,0,1.54-.38,2.53,2.53,0,0,0,1.06-1.11V11a.6.6,0,0,0,.18.45.61.61,0,0,0,.47.17.63.63,0,0,0,.48-.18.61.61,0,0,0,.17-.46v-7a.63.63,0,0,0-.17-.47.6.6,0,0,0-.48-.19M10,1.66a.89.89,0,0,0,.65-.23.79.79,0,0,0,.24-.61.78.78,0,0,0-.24-.59,1,1,0,0,0-1.29,0,.78.78,0,0,0-.25.59.8.8,0,0,0,.25.61.88.88,0,0,0,.64.23m0,10a.68.68,0,0,0,.48-.16.64.64,0,0,0,.18-.49v-7a.62.62,0,0,0-.18-.48A.65.65,0,0,0,10,3.39a.66.66,0,0,0-.48.18.59.59,0,0,0-.19.48v7a.6.6,0,0,0,.19.48.66.66,0,0,0,.48.17M4,3.36a3.29,3.29,0,0,0-1.62.39,2.67,2.67,0,0,0-1.1,1.13V4a.65.65,0,0,0-.17-.46.61.61,0,0,0-.47-.19.65.65,0,0,0-.5.19A.64.64,0,0,0,0,4.05v7a.63.63,0,0,0,.18.48.68.68,0,0,0,.5.17.63.63,0,0,0,.48-.17A.63.63,0,0,0,1.33,11V7A2.5,2.5,0,0,1,2,5.16a2.37,2.37,0,0,1,1.77-.68A1.74,1.74,0,0,1,5.15,5a2.5,2.5,0,0,1,.44,1.63V11a.63.63,0,0,0,.18.48.65.65,0,0,0,.49.17.65.65,0,0,0,.49-.17A.67.67,0,0,0,6.92,11V6.54Q6.92,3.36,4,3.36"/></g></g></svg>