<svg xmlns="http://www.w3.org/2000/svg" viewBox="0 0 87.66 26.77"><defs><style>.cls-1{fill:#6a7580;}.cls-2{fill:#bcbcbb;}</style></defs><title>Recurso 1</title><g id="Capa_2" data-name="Capa 2"><g id="Capa_1-2" data-name="Capa 1"><path class="cls-1" d="M9.26,12.15v5.5A1,1,0,0,1,9,18.4a1.13,1.13,0,0,1-.79.26,1.07,1.07,0,0,1-.77-.28,1,1,0,0,1-.29-.74V12.26a3,3,0,0,0-.52-1.92A2,2,0,0,0,5,9.72a2.76,2.76,0,0,0-2.07.8,3,3,0,0,0-.78,2.16v5a1,1,0,0,1-.28.74,1.07,1.07,0,0,1-.77.28,1.11,1.11,0,0,1-.78-.28,1,1,0,0,1-.3-.74V9a1,1,0,0,1,.31-.73A1.09,1.09,0,0,1,1.08,8a1,1,0,0,1,.74.27A1,1,0,0,1,2.09,9v.87A3.46,3.46,0,0,1,3.51,8.47,4.3,4.3,0,0,1,5.56,8q3.7,0,3.7,4.17"/><path class="cls-1" d="M18.63,2.09a1.16,1.16,0,0,1-.36-.89,1.13,1.13,0,0,1,.36-.88,1.59,1.59,0,0,1,1.93,0,1.12,1.12,0,0,1,.37.88,1.16,1.16,0,0,1-.36.89,1.56,1.56,0,0,1-1.95,0m.2,16.32a.94.94,0,0,1-.31-.76V9.06a1,1,0,0,1,.31-.77A1.14,1.14,0,0,1,19.6,8a1.1,1.1,0,0,1,.76.26,1,1,0,0,1,.3.77v8.59a1,1,0,0,1-.3.76,1.13,1.13,0,0,1-.76.25,1.17,1.17,0,0,1-.77-.25"/><path class="cls-1" d="M38.75,8.3a1,1,0,0,1,.28.76v8.61a.94.94,0,0,1-.3.72,1.1,1.1,0,0,1-.78.27,1,1,0,0,1-.72-.26.94.94,0,0,1-.28-.71v-.8a3.29,3.29,0,0,1-1.34,1.35,3.93,3.93,0,0,1-1.91.47q-3.77,0-3.77-4.15V9.07a1,1,0,0,1,.29-.76A1.1,1.1,0,0,1,31,8a1.07,1.07,0,0,1,.77.27,1,1,0,0,1,.29.76v5.48a2.79,2.79,0,0,0,.51,1.84,2,2,0,0,0,1.56.59,2.61,2.61,0,0,0,2-.8A3,3,0,0,0,36.9,14v-5a1,1,0,0,1,.3-.75,1.22,1.22,0,0,1,1.56,0"/><path class="cls-1" d="M18.63,26.43a1.16,1.16,0,0,1-.36-.89,1.13,1.13,0,0,1,.36-.88,1.39,1.39,0,0,1,1-.33,1.4,1.4,0,0,1,1,.33,1.12,1.12,0,0,1,.37.88,1.16,1.16,0,0,1-.36.89,1.56,1.56,0,0,1-1.94,0"/><path class="cls-2" d="M53.35,18.73H49.67a.2.2,0,0,1-.23-.23V18c0-.14.08-.21.23-.21h3.58q1.9,0,1.9-1.48v-.51A1.72,1.72,0,0,0,54,14l-2.64-1a3.61,3.61,0,0,1-1.53-1,2.48,2.48,0,0,1-.46-1.59q0-2.47,2.73-2.47h3.43a.21.21,0,0,1,.23.23v.49c0,.14-.08.21-.23.21H52.17a1.92,1.92,0,0,0-1.3.38,1.15,1.15,0,0,0-.43.89v.49a1.27,1.27,0,0,0,.33.93,2.52,2.52,0,0,0,1,.57l2.64,1.06a2.39,2.39,0,0,1,1.47,1.07,4.33,4.33,0,0,1,.37,2,2.36,2.36,0,0,1-.71,1.88,3.28,3.28,0,0,1-2.19.61"/><path class="cls-2" d="M65.09,21.88h-.61c-.14,0-.21-.08-.21-.23V8.2c0-.17.07-.25.21-.25h.61c.15,0,.23.09.23.25V9h.08a2.27,2.27,0,0,1,2.2-1.1H69a2.85,2.85,0,0,1,2.14.8,3,3,0,0,1,.78,2.2v4.78a3,3,0,0,1-.78,2.2,2.84,2.84,0,0,1-2.14.8H67.61a2.27,2.27,0,0,1-2.2-1.1h-.08v4a.21.21,0,0,1-.23.23m2.41-4.1h1.4a2,2,0,0,0,1.49-.54,2.16,2.16,0,0,0,.52-1.56V11a2.16,2.16,0,0,0-.52-1.55A2,2,0,0,0,68.9,8.9H67.5a2.26,2.26,0,0,0-1.6.54A2,2,0,0,0,65.32,11v4.74a2,2,0,0,0,.58,1.53,2.26,2.26,0,0,0,1.6.54"/><path class="cls-2" d="M84.32,18.73H83a2.91,2.91,0,0,1-2.17-.8,3,3,0,0,1-.79-2.2V10.95a3,3,0,0,1,.79-2.2A2.91,2.91,0,0,1,83,7.94h4.48c.14,0,.21.09.21.25V18.48c0,.17-.07.25-.21.25h-.61c-.16,0-.23-.08-.23-.25v-.85h-.08a2.22,2.22,0,0,1-2.2,1.1m2.28-3V9.09c0-.13-.07-.19-.21-.19H83a1.92,1.92,0,0,0-1.48.55A2.2,2.2,0,0,0,81.06,11v4.69a2.19,2.19,0,0,0,.51,1.54,1.91,1.91,0,0,0,1.48.55h1.38a2.26,2.26,0,0,0,1.6-.54,2,2,0,0,0,.58-1.53"/></g></g></svg>