<svg xmlns="http://www.w3.org/2000/svg" viewBox="0 0 9.75 12.01"><defs><style>.cls-1{fill:#ea0029;fill-rule:evenodd;}</style></defs><title>where</title><g id="Capa_2" data-name="Capa 2"><g id="Capa_31" data-name="Capa 31"><g id="map"><path class="cls-1" d="M9.75,5A4.93,4.93,0,0,0,4.87,0,4.92,4.92,0,0,0,0,5c0,.09,0,.17,0,.26s0,.08,0,.12c0,3.06,4.5,6.53,4.5,6.53a.62.62,0,0,0,.75,0c.37-.29,4.5-3.47,4.5-6.53,0,0,0-.08,0-.12S9.75,5.06,9.75,5ZM4.87,6.88A1.91,1.91,0,1,1,6.75,5,1.89,1.89,0,0,1,4.87,6.88Z"/></g></g></g></svg>