<svg xmlns="http://www.w3.org/2000/svg" viewBox="0 0 241.85 339.86"><defs><style>.cls-1{fill:#262424;}.cls-2{fill:#949699;}.cls-3{fill:#b77e9c;fill-rule:evenodd;}</style></defs><title>beauty</title><g id="Capa_2" data-name="Capa 2"><g id="Logo_Text" data-name="Logo Text"><path class="cls-1" d="M22.4,92.32q0,3.15,2.1,1.05C41.28,73.44,64.07,62.94,87.79,62.94c50.7,0,90.57,36,90.57,87.43,0,50-37.77,87.42-90.57,87.42A79.82,79.82,0,0,1,24.5,206.66c-1.06-1.39-2.1-1-2.1,1.05v18.54c0,4.2-2.45,8-7.69,8h-7c-5.24,0-7.69-3.84-7.69-8V8C0,3.85,2.47,0,7.71,0h7C20,0,22.4,3.85,22.4,8ZM21,150.37c0,37.76,31.12,67.84,66.79,67.84,42,0,67.49-31.48,67.49-67.84,0-37.77-28.33-67.84-67.49-67.84C51.77,82.53,21,113,21,150.37"/><path class="cls-2" d="M2.73,256.14c0,.25.08.3.25.13a9.81,9.81,0,0,1,7.71-3.71c6.17,0,11,4.39,11,10.65,0,6.09-4.6,10.64-11,10.64A9.73,9.73,0,0,1,3,270.06c-.13-.17-.25-.12-.25.13v2.26a.91.91,0,0,1-.94,1H.94a.91.91,0,0,1-.94-1V245.88a.91.91,0,0,1,.94-1h.85a.91.91,0,0,1,.94,1Zm-.18,7.07a8.27,8.27,0,0,0,8.14,8.26,8,8,0,0,0,8.22-8.26A8.07,8.07,0,0,0,10.69,255a8.27,8.27,0,0,0-8.14,8.26"/><path class="cls-2" d="M26.66,263.93a7.85,7.85,0,0,0,8.17,7.54c4,0,6.05-1.7,7.41-3.71.34-.51.68-.89,1.41-.46l.55.34c.55.34.77.68.38,1.32-1.61,2.64-5.06,4.89-9.75,4.89-6.21,0-10.94-4.17-10.94-10.47a10.58,10.58,0,0,1,10.86-10.82c8.47,0,10.69,6.43,10.94,10.48,0,.64-.47.89-1.11.89Zm16.14-2.21a7.62,7.62,0,0,0-8-6.77,7.86,7.86,0,0,0-8.13,6.77Z"/><path class="cls-2" d="M69.54,272.45a.91.91,0,0,1-.94,1h-.85a.91.91,0,0,1-.94-1v-2.26c0-.25-.12-.3-.25-.13a9.87,9.87,0,0,1-7.75,3.79c-6.52,0-11-4.55-11-10.64,0-6.26,4.85-10.65,11-10.65a9.46,9.46,0,0,1,7.75,3.71c.13.21.25.12.25-.13v-2.22a.9.9,0,0,1,.94-1h.85a.9.9,0,0,1,.94,1Zm-19-9.24a8,8,0,0,0,8.22,8.26,8.26,8.26,0,0,0,0-16.52,8.07,8.07,0,0,0-8.22,8.26"/><path class="cls-2" d="M91,264.53c0,5.62-3.62,9.32-9.15,9.32-5.79,0-9.16-3.7-9.16-9.32V253.92a.9.9,0,0,1,.94-1h.85a.9.9,0,0,1,.94,1v10.57c0,4.76,2.76,7,6.43,7s6.43-2.26,6.43-7V253.92a.89.89,0,0,1,.93-1h.86a.9.9,0,0,1,.93,1Z"/><path class="cls-2" d="M111.29,280.62a1.2,1.2,0,0,1-1.32.9H109c-.51,0-.81-.39-.55-1l3.62-8.3a.66.66,0,0,0,0-.64l-7.41-16.35H99.37v17.2a.91.91,0,0,1-.94,1h-.85a.91.91,0,0,1-.94-1v-17.2H94.17a.89.89,0,0,1-1-.94v-.39a.91.91,0,0,1,1-1h2.47v-4.43a.91.91,0,0,1,.94-1h.85a.91.91,0,0,1,.94,1V253h6.34a1.21,1.21,0,0,1,1.32.89l6.56,14.65c.08.17.13.17.21,0l6.39-14.65a1.18,1.18,0,0,1,1.24-.89h1c.59,0,.76.38.55.89Z"/></g><g id="X_Vector" data-name="X Vector"><path class="cls-3" d="M224.64,184.69a.39.39,0,0,1,0,.4c-.06,0-.07-.08-.13-.09C224.46,184.84,224.58,184.8,224.64,184.69Z"/><path class="cls-3" d="M196.92,208.53c.13,0,.19.08.18.23a.37.37,0,0,1-.27,0C196.8,208.65,196.88,208.61,196.92,208.53Z"/><path class="cls-3" d="M193.14,212.14c0-.1.32-.06.27.09S193.3,212.11,193.14,212.14Z"/><path class="cls-3" d="M190.34,214.58c.28-.08.13.33.26.18.1.07,0,.31-.13.31,0-.24-.05-.31-.18-.31S190.32,214.64,190.34,214.58Z"/><path class="cls-3" d="M177.79,230.38c.17.06.09.11.09.31h-.18C177.66,230.51,177.84,230.55,177.79,230.38Z"/><path class="cls-3" d="M175.21,232.16c0,.25-.28.25-.31,0A.26.26,0,0,1,175.21,232.16Z"/><path class="cls-3" d="M186.56,259.83a.78.78,0,0,1,.22.35c-.14.07-.2.22-.31.31C186.24,260.33,186.39,260,186.56,259.83Z"/><path class="cls-3" d="M186.78,262.81a.48.48,0,0,1-.14.58.45.45,0,0,1-.26-.41C186.49,262.89,186.6,262.72,186.78,262.81Z"/><path class="cls-3" d="M154.57,264.32a.73.73,0,0,1-.36.09c0-.08-.12-.11-.08-.27C154.41,264.15,154.57,263.93,154.57,264.32Z"/><path class="cls-3" d="M154.75,264.81c-.12.11-.22,0-.27-.09S154.83,264.6,154.75,264.81Z"/><path class="cls-3" d="M151.1,269.3c.05.32.41.33.4.71-.27-.09-.42-.32-.67-.44C150.84,269.39,150.89,269.27,151.1,269.3Z"/><path class="cls-3" d="M195.59,270c-.34.22-.83-.24-1.21-.4C194.88,269.13,195.19,269.86,195.59,270Z"/><path class="cls-3" d="M150.61,270.37c0,.18-.13.2-.09.4a.93.93,0,0,0-.44,0s0-.12-.09-.13C150.05,270.41,150.44,270.21,150.61,270.37Z"/><path class="cls-3" d="M198,272.55c.39,0,.46.41.54.76-.25.16-.47-.08-.72.13,0-.23-.31-.32-.22-.49s.3,0,.45-.05C198.07,272.77,198,272.63,198,272.55Z"/><path class="cls-3" d="M197,273.48c-.11,0-.27.13-.36,0s.08-.25.18-.31S197.08,273.34,197,273.48Z"/><path class="cls-3" d="M201,275.71c.14,0,.28.37.09.4C201.2,276,200.83,275.89,201,275.71Z"/><path class="cls-3" d="M146.3,276.78c.16,0,.08.27,0,.31C146.09,277.07,146.2,276.88,146.3,276.78Z"/><path class="cls-3" d="M147.63,277.75c.05.32.41.33.4.72-.27-.1-.42-.33-.67-.45C147.37,277.85,147.42,277.72,147.63,277.75Z"/><path class="cls-3" d="M204.22,278.69c.13.12,0,.25,0,.4s-.11-.06-.22,0C204,278.85,204.2,278.85,204.22,278.69Z"/><path class="cls-3" d="M147.14,278.82c0,.19-.13.2-.09.4a1.09,1.09,0,0,0-.44,0s0-.12-.09-.13C146.58,278.87,147,278.66,147.14,278.82Z"/><path class="cls-3" d="M203.28,280.33c0,.13,0,.3,0,.36C202.86,280.84,202.88,280,203.28,280.33Z"/><path class="cls-3" d="M145.5,281.8a.66.66,0,0,1-.36.09c0-.08-.13-.11-.09-.27C145.33,281.63,145.5,281.42,145.5,281.8Z"/><path class="cls-3" d="M145.67,282.29c-.11.12-.21,0-.26-.09S145.75,282.08,145.67,282.29Z"/><path class="cls-3" d="M143.14,286.12c.1.13,0,0,.18,0a.25.25,0,0,1,0,.4.46.46,0,0,1-.31-.09A.6.6,0,0,1,143.14,286.12Z"/><path class="cls-3" d="M143.27,286.74c.21,0,.27.46,0,.45A.39.39,0,0,1,143.27,286.74Z"/><path class="cls-3" d="M121.52,288c-.13-.11-.17-.16-.31,0,.08-.09,0-.12,0-.23C121.36,287.69,121.56,287.78,121.52,288Z"/><path class="cls-3" d="M183,290.92c-.17.18-.39-.15-.31-.22S182.93,290.77,183,290.92Z"/><path class="cls-3" d="M138,293.15c0,.08-.05.09,0,.17a.47.47,0,0,1-.4,0C137.57,293.09,137.92,292.87,138,293.15Z"/><path class="cls-3" d="M137.22,293.23v.14c-.11,0-.17.07-.18-.09C137.12,293.29,137.14,293.23,137.22,293.23Z"/><path class="cls-3" d="M219.34,293.68a1.41,1.41,0,0,1,.27.44c-.2.18-.24.51-.54.58a.5.5,0,0,1-.26-.58A1,1,0,0,0,219.34,293.68Z"/><path class="cls-3" d="M138.51,293.77a.46.46,0,0,1-.09.53c-.26-.11-.32.08-.44.23a.34.34,0,0,1-.18-.27c-.2-.05-.22.07-.36.09s-.07-.26-.26-.23C137.28,293.5,138.05,294,138.51,293.77Z"/><path class="cls-3" d="M137.84,295.5c.18.05.14.32.27.4a.58.58,0,0,1-.44.14c0-.16-.23-.23-.14-.4S137.81,295.71,137.84,295.5Z"/><path class="cls-3" d="M140.25,296.75c.16.09.21.29.22.53a.77.77,0,0,0-.4,0,.44.44,0,0,1-.09-.4C140.09,296.8,140.19,296.93,140.25,296.75Z"/><path class="cls-3" d="M222.23,297.24c0,.42-.35.47-.8.44C221.51,297.33,222,297.19,222.23,297.24Z"/><path class="cls-3" d="M222.77,299.42c0,.18.06.29-.09.49a7,7,0,0,0-.85-.27c.27-.3.13-1,.58-1.11,0,.91.81.28.85-.13C224.2,298.42,223.35,299.69,222.77,299.42Z"/><path class="cls-3" d="M117.87,302.67c-.11-.05-.1,0-.27-.05-.07.15,0,.26,0,.49-.32.05-.23-.3-.35-.44s-.22.05-.36,0c.17-.35-.2-.38-.31-.58s.13,0,.13-.09C117,302.34,117.81,302.13,117.87,302.67Z"/><path class="cls-3" d="M225.17,302.18c-.17.49-.12,1-.27,1.33-.14.07-.17,0-.35,0s-.12.3-.23.4c-.48-.13-.27.44-.71.36-.3-.42.07-.85,0-1.38C224.22,302.75,224.52,301.94,225.17,302.18Z"/><path class="cls-3" d="M120.05,303.56h-.13C119.21,303.2,120.28,302.48,120.05,303.56Z"/><path class="cls-3" d="M119.92,304a.19.19,0,0,0,0,.13h-.22A.16.16,0,0,1,119.92,304Z"/><path class="cls-3" d="M224.77,304.31c-.3.11,0,.32-.18.49C224.16,304.8,224.43,304.12,224.77,304.31Z"/><path class="cls-3" d="M132.28,305.11c-.14.09,0,.4-.09.58-.25,0-.28-.25-.49-.31C131.8,305.16,132,304.81,132.28,305.11Z"/><path class="cls-3" d="M116,306.05c-.21,0-.26.07-.4,0C115.39,305.76,116,305.65,116,306.05Z"/><path class="cls-3" d="M133.57,308a.49.49,0,0,1,.14-.4c0-.1-.19,0-.27-.05a1.55,1.55,0,0,0-1-1.24v-.22c.92-.24,1.52.6,1.73,1.24C134.06,307.6,133.92,308.05,133.57,308Z"/><path class="cls-3" d="M132.73,307.34c.21.09.11.51.4.53-.06.14-.18.21-.4.18C132.62,307.78,132.82,307.64,132.73,307.34Z"/><path class="cls-3" d="M134.64,308.76c0,.11-.08.1,0,.22C133.94,308.94,134.29,308.22,134.64,308.76Z"/><path class="cls-3" d="M132.73,308.58a.24.24,0,0,0,.18.05,1.41,1.41,0,0,1,.17.58A.45.45,0,0,1,132.73,308.58Z"/><path class="cls-3" d="M118.63,310.63c.5.14.64,1,.44,1.56-.25-.08-.22-.44-.36-.63C119.13,311.39,118.68,310.88,118.63,310.63Z"/><path class="cls-3" d="M233.71,311.83h.18a.42.42,0,0,1,0,.27C233.75,312.09,233.75,311.94,233.71,311.83Z"/><path class="cls-3" d="M128.68,312.41c.2.14.42.26.44.58a.29.29,0,0,1-.22,0A3.1,3.1,0,0,0,128.68,312.41Z"/><path class="cls-3" d="M113.69,314.28c.12,0,.12.21.4.35s.51-.16.8,0c.12.23.17.54.53.53.06.45.73.74.36,1.2-.27-.06-.43-.07-.54,0-.43-.11-.2-.89-.71-.93-.12.32.13.61,0,.93-.37,0-.22-.49-.49-.57.16-.58-.42-.77-.62-1.12,0-.13,0-.3.17-.35a1.27,1.27,0,0,1,0-1.12c-.07-.23-.32-.3-.31-.62a.8.8,0,0,1,.71,1A1,1,0,0,0,113.69,314.28Z"/><path class="cls-3" d="M234.29,314.54a.34.34,0,0,1,.09.14c0,.11-.07.14-.09.22C234.25,314.68,234.18,314.8,234.29,314.54Z"/><path class="cls-3" d="M124.68,315.52c.23.09.16.49.48.49.15,0,.1-.17.23-.18s.26.22.58.14c0,.39.31.52.44.8s0,.63.09.76a.94.94,0,0,0,1,.35.63.63,0,0,1,0,1.07,1,1,0,0,0-.89.18c-.23-.15-.57-.2-.53-.63,0-.12-.27-.05-.36-.13a.46.46,0,0,0-.13-.4,4.39,4.39,0,0,1,.4-.67c0-.13-.26-.07-.31-.18,0-.28,0-.56-.31-.57,0,0,0,.08,0,.22a9.15,9.15,0,0,1-.75-.62C124.66,316,124.57,315.72,124.68,315.52Z"/><path class="cls-3" d="M228.28,315.79c0,.14-.07.13,0,.27C228.14,316,228.09,315.76,228.28,315.79Z"/><path class="cls-3" d="M127.39,316.41h.31c0,.15.13.17.09.36S127.35,316.77,127.39,316.41Z"/><path class="cls-3" d="M130.5,316.59a.37.37,0,0,1,.4.4C130.69,316.94,130.52,316.84,130.5,316.59Z"/><path class="cls-3" d="M233,316.68a.73.73,0,0,1-.13.35.28.28,0,0,1-.22-.26C232.73,316.71,232.77,316.57,233,316.68Z"/><path class="cls-3" d="M211.69,316.81c.1,0,.21.3,0,.27Z"/><path class="cls-3" d="M130.15,317.57a3.73,3.73,0,0,0,.62.36c0,.11-.07.13-.13.17s-.14-.13-.23-.17-.08.09-.13.13a.71.71,0,0,1-.36-.27C129.93,317.65,130.16,317.73,130.15,317.57Z"/><path class="cls-3" d="M122.72,319c.22.08.54.41.31.66-.2-.08-.21-.35-.45-.4C122.59,319.17,122.7,319.15,122.72,319Z"/><path class="cls-3" d="M111.42,320.73a1,1,0,0,1-.71-.58C111,319.41,111.64,320.22,111.42,320.73Z"/><path class="cls-3" d="M127.88,320.1a.87.87,0,0,1,.31.09c0,.17.08.19,0,.36C128,320.64,127.8,320.35,127.88,320.1Z"/><path class="cls-3" d="M123,320.59c.07.09,0,.3,0,.45C122.72,321.11,122.65,320.54,123,320.59Z"/><path class="cls-3" d="M238.74,320.68c-.1.07-.14.19-.23.27s.16.33,0,.44-.24-.28-.4-.4C238.11,320.64,238.42,320.59,238.74,320.68Z"/><path class="cls-3" d="M128.15,320.82a.34.34,0,0,1,.26,0c.06.1-.11.17,0,.18C128.28,321.18,128.11,321,128.15,320.82Z"/><path class="cls-3" d="M229.57,320.86c.17,0,.28.26.14.36s-.19-.11-.31-.14S229.54,321,229.57,320.86Z"/><path class="cls-3" d="M119.52,320.91c.45.61,1.24,1.12,1.2,2.09.41.29,1.28.64,1.06,1.55-.39-.27-.66-.65-1.33-.53a.47.47,0,0,0-.31-.27c.19,0,.18-.22.4-.31a1.68,1.68,0,0,0-.71-1.51.4.4,0,0,1-.36.31.3.3,0,0,1,0-.45c-.24-.15-.32-.45-.54-.62C119,320.84,119.27,321,119.52,320.91Z"/><path class="cls-3" d="M238.92,321.79c.13,0,.14.1.13.23S238.92,321.91,238.92,321.79Z"/><path class="cls-3" d="M119,322.68a1,1,0,0,1,1,.58c-.1,0-.25.11-.31.05,0,.14,0,.33-.14.4C119.23,323.54,118.79,323.19,119,322.68Z"/><path class="cls-3" d="M111.06,322.82a1,1,0,0,0,.54.4,4.52,4.52,0,0,1,1.06,2.89c.15.13.48.22.32.53-.19,0-.46-.27-.67-.4-.2.15-.19.49-.45.58-.15-.09-.21-.29-.35-.4h-.36c-.34-.59,0-.92-.35-1.56,0-.07.13-.07.17-.13.08-.4-.32-.33-.26-.71.55,0,.67.65,1.11.62a5.66,5.66,0,0,1-.71-.89.84.84,0,0,1-.4,0c0-.27-.18-.39-.31-.54C110.45,322.89,110.67,322.77,111.06,322.82Z"/><path class="cls-3" d="M235.8,323.26H236c0,.08-.08.12,0,.14S235.74,323.4,235.8,323.26Z"/><path class="cls-3" d="M227.3,323.66a.13.13,0,0,1,.09.23C227.3,323.88,227.3,323.77,227.3,323.66Z"/><path class="cls-3" d="M238.34,323.66a.1.1,0,1,1,0,.18C238.34,323.72,238.26,323.75,238.34,323.66Z"/><path class="cls-3" d="M113.73,324.42c0,.23.26.4.09.58a.61.61,0,0,1-.35-.22C113.47,324.58,113.53,324.42,113.73,324.42Z"/><path class="cls-3" d="M238.6,325.09c0,.14-.17,0-.22.17a2.72,2.72,0,0,1,.18,1.16,1,1,0,0,0-.27.94c-.08.09-.27.08-.35.17a1.38,1.38,0,0,0-.31.76c-.31.36-.8.54-1,1a1.3,1.3,0,0,1-.18-1.24c.52,0,.46-.64.75-.89,0-.84.54-1.29.49-2,0-.2.29-.19.32-.4A.63.63,0,0,1,238.6,325.09Z"/><path class="cls-3" d="M113.91,325.09c.14,0,.2.1.18.26s-.08.13-.22.09S113.86,325.17,113.91,325.09Z"/><path class="cls-3" d="M110.8,325.58c-.12,0-.32.11-.4,0C110.34,325.35,110.82,325.32,110.8,325.58Z"/><path class="cls-3" d="M109.51,325.53c.18.08.42.12.4.4-.21-.14-.48,0-.58-.18S109.46,325.62,109.51,325.53Z"/><path class="cls-3" d="M241.85,325.53c0,.15-.09.26-.27.27C241.62,325.65,241.66,325.52,241.85,325.53Z"/><path class="cls-3" d="M233.44,325.71a1.43,1.43,0,0,0,.63.58c0,.3-.35.14-.49.26.09.22.34,0,.53.14a.47.47,0,0,0,.09.67c.49.07.58-.17,1-.09.16.27.08.56.09.93a2.74,2.74,0,0,0-.45.45c-1.14.07-.74,1.35-.35,2-.06.24-.32.28-.4.49.12.63.11,1.35-.54,1.43,0,.14-.07.22,0,.4-.18,0-.18.14-.31.17,0,.49-.51.7-.31,1.25a.84.84,0,0,0-.27.22c0,.17.14.22.18.36a1.55,1.55,0,0,0-.18.8c-.2,0-.26.09-.49.13-.24-.34-.38-1,0-1.2-.05-.09-.09-.2-.22-.22-.28.49-.86.68-1,1.29a.94.94,0,0,1-.31.09c-.1.2-.1.29-.18.44H230c-.11-.61.44-.81.35-1.33,0-.23-.4-.4-.22-.76a1.78,1.78,0,0,0,1.2-1.64c0-.36-.23-.67-.18-1,0-.12.15-.17.23-.35s0-.28,0-.36.4-.32.45-.53-.18-.65.09-.8c0-.36,0-.71-.09-1,.49-.75.64-1.84,1.42-2.31A.41.41,0,0,1,233.44,325.71Z"/><path class="cls-3" d="M236.78,326c-.16.43-.19,1-.49,1.29-.17,0-.24-.18-.4-.23s-.21.24-.44.14c.21-.45.81-.53.75-1.25C236.38,325.75,236.68,325.7,236.78,326Z"/><path class="cls-3" d="M118.05,326.47c-.23-.1-.32-.34-.63-.36C117.6,325.52,118.09,326.21,118.05,326.47Z"/><path class="cls-3" d="M109.82,326.15c.35,0,.24.29.09.45A.41.41,0,0,1,109.82,326.15Z"/><path class="cls-3" d="M231.09,326.6c.13,0,.13.08.26,0,0,.32-.06.57-.35.58A.84.84,0,0,1,231.09,326.6Z"/><path class="cls-3" d="M241,326.82c.08,0,.09.06.17.05.25.83-.71.85-.84,1.55C239.9,327.74,241,327.5,241,326.82Z"/><path class="cls-3" d="M230.24,328.29a.43.43,0,0,1-.44.31c0-.1-.12-.15-.09-.31C229.91,328.21,230.15,328,230.24,328.29Z"/><path class="cls-3" d="M112,328.47c.13.06-.06.17,0,.31s.18-.15.18-.31c.46.19.19.68-.32.62,0-.23-.17-.35-.09-.53A.25.25,0,0,0,112,328.47Z"/><path class="cls-3" d="M228.42,328.82h.13a.73.73,0,0,1,.13.45A.32.32,0,0,1,228.42,328.82Z"/><path class="cls-3" d="M229.84,329c.06-.12.29.11.18.18S229.93,329,229.84,329Z"/><path class="cls-3" d="M228.91,330.74c0,.49-.47.76-.23,1.11-.13.26-.73.28-.4.76-.45-.13-.68.33-1.11.13,0-.32.23-.36.31-.58-.24-.62.29-.79.49-1.2-.39-.55.29-.69.14-1.25.72,0,1.07-.4,1.6-.62C230.32,329.8,229.51,330.56,228.91,330.74Z"/><path class="cls-3" d="M238.11,329.71c0,.31-.33.35-.44.58C236.94,330.07,237.82,329,238.11,329.71Z"/><path class="cls-3" d="M238.83,329.62c.35.11.29.63.44.94,0,.14-.16.16-.27.22s.28.29.18.45c-.39-.13-.66.2-.84.53.12.61-.2.78-.49,1,0,.25.07.42,0,.58a1.35,1.35,0,0,0-.94.53c-.21-.05-.27-.39-.17-.62a4,4,0,0,0,.48-.14c-.08-.35-.35-.67-.22-1.11.32-.15.85-.34.67-.84.16-.08.2-.28.31-.4.42,0,.69-.26.53-.72C238.57,329.84,238.81,329.84,238.83,329.62Z"/><path class="cls-3" d="M239.89,330.11c0,.09-.09.12-.13.18C239.55,330.24,239.76,329.94,239.89,330.11Z"/><path class="cls-3" d="M237,330.65c.43-.06.56.17.58.53a.71.71,0,0,1-.67.09C236.83,331,237,330.89,237,330.65Z"/><path class="cls-3" d="M235.05,331.05c.1,0,.26,0,.35.09s-.15.24-.18.4c-.19,0-.18,0-.31-.09C234.94,331.29,235,331.21,235.05,331.05Z"/><path class="cls-3" d="M225.12,331.18c.12,0,.12.09.14.18-.14.05-.3.09-.36.22C224.58,331.43,225,331.23,225.12,331.18Z"/><path class="cls-3" d="M241.45,332a1.46,1.46,0,0,1-.44,1.07c-.13,0-.11-.13-.23-.13C240.77,332.47,241,331.76,241.45,332Z"/><path class="cls-3" d="M229.44,333.23c0,.16,0,.23-.13.26s-.29-.17-.18-.31S229.34,333.19,229.44,333.23Z"/><path class="cls-3" d="M240.56,333.36c0,.43-.29.8-.09,1.16a.83.83,0,0,0-.53.93c-.1.17-.31.22-.4.4,0,.38-.28.64-.22,1.11-.34.12-.42.51-.76.63-.35-.42,0-.85.31-1.11a2.15,2.15,0,0,0-.13-.67c.44-.39-.13-1.05,0-1.56a1.28,1.28,0,0,0,1.29-1C240.29,333.19,240.36,333.32,240.56,333.36Z"/><path class="cls-3" d="M241.41,333.54s.08,0,.09.09c.08.23-.37.33-.36.09S241.37,333.65,241.41,333.54Z"/><path class="cls-3" d="M235.09,334.61a.93.93,0,0,1-.22.93c-.11,0-.16-.11-.23-.18C234.69,335,235,334.88,235.09,334.61Z"/><path class="cls-3" d="M238,335.41c-.15,0-.12.18-.23.22s-.2-.18-.22-.36C237.72,335.13,238,335.17,238,335.41Z"/><path class="cls-3" d="M238,336.34c.22,0,.28.23.18.36C238,336.61,237.92,336.53,238,336.34Z"/><path class="cls-3" d="M233.71,338.17a.38.38,0,0,1-.67-.36c0-.1.22-.11.36-.31s.07-.32.13-.4c.23-.29.68-.45.71-.58.57.28,0,.45-.22.71-.06.09-.05.34-.13.49S233.65,337.87,233.71,338.17Z"/><path class="cls-3" d="M237.85,336.52c.05,0,0,.09.09.09a1.73,1.73,0,0,1-.63.71c0,.26,0,.58-.4.58a.43.43,0,0,1,.36-.53C237.2,336.82,237.58,336.72,237.85,336.52Z"/><path class="cls-3" d="M237.8,339.86c-.3,0-.35-.24-.35-.54s-.3-.15-.31-.35C237.59,338.25,238.08,339.2,237.8,339.86Z"/><path class="cls-3" d="M127,277.89c.08,0,.08-.16.14-.23s-.19-.13-.18-.31c.25,0,.19-.16.18-.4a1,1,0,0,1,.35-.17c0-.41.28-.5.36-.81-.2-.18-.48-.28-.58-.57.19-.18,0-.55.13-.67.16.07,0,.27.18.4s.14-.07.22-.09c.06-.29-.09-.38-.08-.62.59.47.85-1,.75-1.6.57,0,.5-.66.8-.94-.22-.6.48-1.21.4-1.82.4-.32.39-1,.67-1.47,0-.19-.19-.2-.13-.44.07-.08.2,0,.26,0a15.94,15.94,0,0,0,1.34-2.27c.09,0,.13-.13.26-.13-.18-.36.27-.37.14-.67.38-.09.54-.41.89-.53,0-.49.46-.84.44-1.2s-.48-.36-.58-.81c.39-.09.52-.43.76-.66-.07-.27-.24-.37-.22-.63s.2-.05.27,0,.14-.18.22-.26-.2-.31-.05-.49c.19,0,.19.2.27.31,1.26.32.6-1.61,1.47-1.82a.7.7,0,0,1,.53-.85c-.11-.47.28-.55.09-1.16.39-.2-.18-.41-.09-.84a2.9,2.9,0,0,1,.54-.09c.15-.09.09-.38.35-.36.05-.47.48-.77.54-1.2,0,0-.07-.1,0-.18.15-.46.62-.77.8-1.24,0-.38.2-.45.22-.76.57,0,.59-.73.94-1.11,0-.18-.07-.23-.05-.4.56-.14.55-1,1.12-1,0-.2-.18-.24-.09-.4.44-.07.37-.63.84-.67a1.59,1.59,0,0,0-.13-.13c0-.18.21-.18.27-.32-.16-.4.06-.86,0-1.2.35,0,.18.44.49.45.14-.11-.1-.34,0-.45.33,0,.39.3.58.45s.11-.25.35-.14c-.15-.39,0-.62,0-.93-.08-.1-.24-.08-.26-.09s.09-.26.13-.35c-.11-.06-.22.1-.22,0-.06-.31.2-.4,0-.58a.66.66,0,0,0,.31-.85c0-.15.14-.19.23-.26s-.27-.31-.18-.45.33,0,.44,0c.09-.11-.15-.33,0-.44s.19.22.35.26a1.09,1.09,0,0,1,.67-.93c.17.11.3.29.4.35-.1.11-.24-.15-.31.05.16.13.42,0,.53-.13s-.12-.15-.17-.23.06-.2.17-.22c-.08-.09-.12-.23-.31-.22.06-.26-.22-.55-.4-.71a1.94,1.94,0,0,0-.89-1.34,1.62,1.62,0,0,0-.71-1.11c-.05-.56-.2-1-.62-1.2,0-.42-.28-.56-.54-.71a2.86,2.86,0,0,0-.89-1.29c-.08-.46-.12-.95-.49-1.12a1,1,0,0,0-.57-.8c-.14-.73-.76-1-.72-1.91-.14-.12-.33-.2-.35-.44-.15-.06,0,.14-.18.08s-.1-.41-.18-.62-.32-.44-.58-.75-.26-.66-.4-.85-.53-.37-.62-.67,0-.48,0-.71a1.48,1.48,0,0,0-.67-.71,1.72,1.72,0,0,0-.4-1c.13-.53-.28-.62-.49-.93-.3-.46-.26-1.27-.67-1.6.23-.48,0-.9.27-1.29,0-.36-.53-.33-.67,0-.25,0-.35-.18-.53-.27-.14-.84-.31-1.64-1-1.95.1-.64-.28-.79-.58-1a3.5,3.5,0,0,0-.58-1.64c-.12-.14-.34-.2-.44-.36-.39-.59-.09-1.57-.76-2,0-.29-.23-.27-.22-.53a.42.42,0,0,0-.31-.23,3.7,3.7,0,0,1-.22-.8c0-.14.12-.11.13-.22a.71.71,0,0,1-.09-.49,1.33,1.33,0,0,0-.8-.36c-.42-.32,0-1-.49-1.24,0-.8-.39-1-.71-1.47,0-.3,0-.77-.31-.89.06-.07,0-.22,0-.4a2,2,0,0,0-.23-.18c.08-.53-.45-.7-.26-1.2-.15-.41-.49-.64-.71-1,.1-.49,0-1.13-.32-1.33.06-.42-.23-.51-.44-.67.06-.28-.07-.51,0-.75s-.16-.16-.27-.18a10.44,10.44,0,0,0-.75-2.23.35.35,0,0,1-.32-.09c-.05-.08,0-.22,0-.35-.63-.23-.29-1-.62-1.43.08-.24,0-.49-.27-.48,0-.37-.18-.33-.36-.54.16-.38.83-.91.36-1.2,0,0-.23.14-.27.13-.47,0-.72-.73-.44-1.29a.72.72,0,0,0-.49-.35,5.74,5.74,0,0,0-.58-2.23c-.12,0,0,.17-.13.18-.31-.23-.15-.86-.22-1.2s-.27-.3-.36-.49c.06-.08,0-.29.09-.36-.28-.21-.05-.74-.36-1-.16-.88.11-1.37,0-2.09-.5-.1-1-.76-.49-1.21,0-.17-.19-.13-.09-.31-.57-.35-.21-1.1-.4-1.64-.1-.28-.38-.3-.53-.54a1.26,1.26,0,0,1,0-1.15c-.08-.16-.2-.28-.27-.45a1.36,1.36,0,0,0-.17-1.29c-.17-.85.09-1.75-.32-2.45a5.56,5.56,0,0,0-.44-2.26c0-.12-.15-.21-.18-.32-.08-.29,0-.62-.09-.93s-.3-.6-.17-1c0-.19-.26-.31-.14-.53,0-.05-.08,0-.13-.05s0-.31.18-.31c-.49-.93.17-2,.13-3.2,0-.06-.11,0-.18-.05.35-.27.21-.69.27-1.06.08-.53.54-.73.71-1.16.17-.07,0,.2.18.13s.3-.36.22-.57c.88-.64.92-2.11,2-2.58,0-.08,0-.27,0-.27s.19,0,.27-.05a.54.54,0,0,0,.09-.35c.18,0,0,.06,0,.18.8,0,.25-1,1-1,0-.07,0-.17,0-.18.35-.17.41-.63.89-.67.21-.08.16-.43.4-.49.08,0,.08.14.14.18a4.37,4.37,0,0,1,3.42-.53c.14,0,.09-.12.18-.14.85-.13,1.16-.77,2.31-.71a2.78,2.78,0,0,1,1.11.22,2.06,2.06,0,0,1,1.07.36c.16-.08.45,0,.71,0,.26.38.75.08,1,.4,1.23,0,1.86,1,2.41,1.78,0,.14-.13.17-.18.27s.3.23.26.53c.14.07.11.31.32.31,0,.69.61.75.75,1.29-.07.21-.25.32-.22.62,0,.14.26.07.31.18a.69.69,0,0,0,.31.58c-.08.39.17.69.18,1s-.12.32-.09.49c.07.39.37.65.4,1.12,0,.17-.1.36.05.53s-.08.16-.05.31c.17.42.29.9.45,1.34,0,.11,0,.05-.09,0,.11.59.06,1.35-.4,1.51-.06.56.43.89.89,1.07.07.38.36.53.53.8s-.12.09-.09.22c.22.43.81.5,1,1a6,6,0,0,0-.13,1.34c-.23.08-.25.37-.36.57,0,.59.33.82.62,1.21-.12.08-.14.07-.31,0,0,.18.1.23.18.31.43-.18.48.33.89.31.12,0,.15-.18.27-.22s.17.46.13.71a.56.56,0,0,0,.67.14c.1.22,0,.34.09.57-.55.42-.39,1.41-.58,2.1.06.29.36.31.62.31.09.17.14.39.31.49s.22-.06.31-.09.11.15.27.13c0,.27,0,.5-.22.58a2.93,2.93,0,0,0,.53.8c-.43.06-.18.54-.31.89.05.17.19.25.27.4,0,.56-.06,1.59.4,2-.07.11,0,.19-.05.22s.19.18.32.23-.07.13-.09.22c.14,0,.1-.14.26-.09a1,1,0,0,1,0,.4c.38.14.26.78.71.85.08.08,0,.08,0,.22.22-.08.58.14.58-.18a.87.87,0,0,0,.62-.31c.7.15.18.6,0,.93.14.14.21,0,.45,0,0,.2-.15.23-.05.44s.09-.17.22-.13a.73.73,0,0,1-.31.84c0,.1.13.14.27.14s.16-.22.27-.31c.16.21.53.62.31.93-.14-.12,0-.25-.18-.31s-.24.32-.31.53c.28.25.07.74.31,1.16,0,.27-.15.33-.09.62a8.3,8.3,0,0,0,.89.89v.36c.13.15.55.14.4.44,0,0-.08,0-.09,0-.2,0,0-.07-.13-.09s-.09.29-.22.44c.3.42-.09,1-.23,1.34,0,.3.52.31.8.22,0,.16.16.17.23.27s.18-.15.35-.14c0,.11.16.09.14.23s-.3,0-.36.08c-.09,1.13,1,1.21.8,2.32a9.19,9.19,0,0,0,.85,1,1,1,0,0,0,.53-.09c.63.5-.23,1.53-.05,2-.05.13-.24.11-.31.23a.68.68,0,0,0,.72.44c.34,0,.61-.52.93-.35-.19.41-.47,1.14,0,1.55,0,.42.26.69.05,1.07-.72.3-.09,1.08.58,1,.19,0,.17-.3.31-.4.53.13.64-.56,1.2-.4a.6.6,0,0,0,.09.58.88.88,0,0,1-.27.36c-.17,0-.09-.15-.27-.09-.08.31.38.45.32.89-.21,0-.35.15-.58.18,0,.14.16.17.22.35a1.7,1.7,0,0,0-.09.71c.46.09.65.41,1.07.63-.39,1,.81,1.41.76,2.09.1-.09.41,0,.44-.05a.61.61,0,0,1-.09.89c.23.64,1.09.64,1.51,1.07a.65.65,0,0,0,.09.53c-.12.08-.27-.12-.4-.17a.72.72,0,0,0-.22.48c.09.19.28.28.31.54,0,.07-.13.11-.13.22-.18.05-.14-.13-.31-.09s-.19.44-.32.62c0,0,0,0,0-.08-.11.58,1.35.11,1.51.71,0,0,0,0,.09,0s0-.27,0-.35c.23,0,.29-.33.62-.31s0,.4,0,.53c-.39-.17-.5.31-.36.58,0,.09.13,0,.14,0,0,.5.52,1.23,0,1.38a9.34,9.34,0,0,1-.26,1c.11.23.48.2.75.27.11-.21.36-.29.45-.54s-.1-.23-.18-.31c.13-.16.18-.4.49-.4a1.76,1.76,0,0,1,1.07-1.11c.07-.33-.18-.63-.27-.93.2-.28.6.06.71-.27s-.13-.32-.22-.53.17-.22.31-.27a1.57,1.57,0,0,0,.8.22c.14-.07.14-.28.13-.49a.52.52,0,0,0,.54-.49c.31-.12.44-.42.66-.62,0-.35-.19-.67,0-.93.23.12.2.51.63.44.2-.2.12-.61,0-.89.51-.12.6-.65,1.11-.76-.08-.27,0-.37.14-.57H165c.42-.51,0-1.31.45-1.78.26.06.32-.29.62-.14.57-.13.47-.93,1-1.06,0-.13-.07-.12-.05-.23.37-.06.4-.46.71-.58,0-.13-.12-.08-.09-.22.22-.15.48-.26.72-.4.27-.88,1.1-1.33,1-2.49.09,0,.09-.12.13-.18.29,0,.56,0,.58-.22.22,0,.15.24.22.36.25,0,.26-.25.4-.36-.06-.16-.23-.21-.22-.44a1,1,0,0,1,.85-.14c.51-.34,1.15-1.08.49-1.64.15-.16.23-.12.44-.05s.06-.21.13-.27.24.18.31.32c.45-.18.3-.83.27-1.16.13,0,.14.1.27.09s.08-.19.09-.31a.55.55,0,0,0,.49-.71,1.81,1.81,0,0,1,.66-.63c0-.16.06-.3.09-.44.68-.26,1.47-.4,1.52-1.29.18-.11.21,0,.4,0s.38-.12.35-.4c.29-.07.4-.32.49-.58.22-.06.33-.24.49-.35.1-.54.5-.78.67-1.25.4,0,.45-.31.58-.58a.25.25,0,0,0,.22,0c.64-.58,1-1.4,1.64-2v-.27c.06,0,.07.08.14.09.37-.31.45-.91,1-1.07,0-.14.08-.16,0-.31.84-.3,1.09-1.19,1.56-1.87h.18c0-.29.37-.28.4-.58.1,0,.09-.08.22,0,1.23-1.16,2.24-2.53,3.42-3.74.14,0,.09.12.23.09s.23-.24.31-.4a.35.35,0,0,0,.22,0c.23-.57.89-.72,1.16-1.25.75-.46,1.63-.8,2-1.65a1.07,1.07,0,0,0,.71-.71,4.85,4.85,0,0,0,1.42-1.24c.85-.4,1.23-1.26,2-1.74a.91.91,0,0,0,.22-.4c.36.05.31-.31.67-.27a5.41,5.41,0,0,1,1.33-1.37c0-.08-.05-.1,0-.18a1.68,1.68,0,0,0,.89-.89c.11,0,.13.08.22,0,.36-.31.56-.78,1.11-.89.09-.06.08-.22.13-.31.67.32.83-.82,1.56-.58a.82.82,0,0,0,.31-.54.3.3,0,0,1,.31.14,2.25,2.25,0,0,0,1.34-1.29c.1,0,.19,0,.22.13.77-.32,1.19-1,1.82-1.42.11,0,.1.08.23,0,.3-.16.41-.5.84-.53a.55.55,0,0,0,.14-.54c.16,0,.07.2.17.23.39-.06.52-.38.72-.63.1,0,.09.09.22.05.57-.19.85-.66,1.42-.85a.45.45,0,0,0,.22-.31c.22,0,.43,0,.4-.22a1.72,1.72,0,0,0,1-.4.66.66,0,0,0,.85-.27c.21.12.35,0,.4-.22.72-.06,1-.5,1.69-.62.18-.66,1.23-.18,1.42-.8a.73.73,0,0,0,.71-.4c.42,0,.61,0,1-.05a1.22,1.22,0,0,1,1.2-.67c.17-.05.14-.31.32-.35a.7.7,0,0,1,.49.22c.29-.09.45-.31.4-.76.2-.12.33,0,.48.09s.21-.17.36-.22a.69.69,0,0,0,.58.13c.1,0,.14-.15.13-.31.63.36,1.62-.26,2.14.4.19,0,.43,0,.62-.09a2,2,0,0,0,.27.36c.94-.24,1.62.5,2.13,1.07a5.41,5.41,0,0,1,1.52.4c.18,1,1.52,1.28,1.51,2.53a5.55,5.55,0,0,0,1.38,1.78c.16.18,0,.75,0,1.12.07.18.27.44.09.62.41.18.27.7.35,1.16s.51,1.17.22,1.6a4.5,4.5,0,0,1-.26,2.44.34.34,0,0,0-.45.27c-.22,0-.26-.12-.4-.18,0,.64-.3,1.12-.35,1.6a.32.32,0,0,0-.23.05,5.06,5.06,0,0,1-.17.62c-.2-.1-.34.05-.45,0,0-.23-.14-.26,0-.49-.28.11-.22.33-.23.54a1.2,1.2,0,0,1-.26-.18.25.25,0,0,0-.14.35c-.08,0-.18-.05-.22-.13a.24.24,0,0,0-.13.13c0,.19.18,0,.26.09-.29.39-.48.46-.62.89-.13-.11-.24,0-.35-.09-.21.38-.74.42-1.07.67.09.19,0,.45.09.67-.13.2-.46.2-.49.49.09,0,.08-.07.09-.14.35.26-.2.47-.4.58s.06-.17-.14-.18a.88.88,0,0,1-.17.41c-.19-.05-.17-.3-.23-.45H225s0,.08,0,.09a.28.28,0,0,0,.22.31c-.14.14-.31-.08-.45-.09s0,.21-.17.36c-.13-.05-.19.07-.36-.05-.07.07,0,.12,0,.31a.7.7,0,0,1-1.33-.22c-.34.08-.4.44-.63.62,0,.59-.59.88-.89,1.29-.08,0-.15,0-.17-.08-.19.14-.29.59-.63.44,0,.14,0,.09,0,.22a1,1,0,0,0-.4,0,3.79,3.79,0,0,0-.53-1.2c-.33.13-.63.84-.09,1a5.3,5.3,0,0,1,.09,1c-1.16-.59-.9,1.73-2.14,1.2a11.78,11.78,0,0,0-2.13,2.27,2.14,2.14,0,0,0-.54.13,10.81,10.81,0,0,1-2.71,2c-.1,0-.13-.08-.27,0-.35.14-.45.53-.57.89a6,6,0,0,1-1.56,1.21c-.16,0-.09-.21-.27-.18-.63.7-.9,1.77-1.6,2.4-.09,0-.13-.11-.27-.09-.23.45-.54.82-.8,1.25-.13,0-.08,0-.22,0a26.43,26.43,0,0,1-2.05,2.31c-.15,0-.18-.08-.26,0-.13.66-.78.79-1,1.33-.11,0-.13-.08-.22,0a7.78,7.78,0,0,1-1.42,1.65c-.07,0,0-.13-.09-.13a1.47,1.47,0,0,1-.71.62c-.18.31-.42.56-.58.89-.1,0-.27-.09-.18-.18-.24.15-.37.63-.67.58-.15.05-.07-.14-.09-.22a1.38,1.38,0,0,1-.89.62,2.71,2.71,0,0,1-.8,1.33,1,1,0,0,1-.17.67,3.51,3.51,0,0,0-.4-.27c-.19,0-.22.15-.41.14s-.12-.27-.26-.31-.15.21-.31.22c-.22-.19-.13-.37-.18-.67a4,4,0,0,0-.71,1.11c-.1,0-.23.09-.31,0-.08.73.77,1.68.13,2.32a.66.66,0,0,1-.71-.36c-.27,0-.15.63-.05.8a8.39,8.39,0,0,1-1.29.71c.12.19.23.66,0,.8-.34,0-.29-.47-.66-.48-.19.46-.45.85-.63,1.33,0,.22.24.37.14.58-.34-.16-.35-.48-.49-.76-.48.13-.07.87-.31,1.07-.3,0-.34-.14-.67-.18,0-.14-.08-.19-.05-.35,0,.35-.77.63-.53,1.11-.35.28-.35.92-.67,1.24,0,.29.14.54,0,.72s-.18-.19-.31-.23a.45.45,0,0,0-.18.31c-.21,0-.23-.16-.36-.22a.54.54,0,0,1-.35.14.29.29,0,0,0,0-.14.21.21,0,0,1-.4,0,2.37,2.37,0,0,0-.4.58c-.07.11.06.21,0,.35s-.39.36-.4.54.22.39.4.57a.44.44,0,0,0-.22.45c-.23-.19-.28-.13-.58-.18a2.53,2.53,0,0,0-.18-.53c-.39.1-.44.53-.62.84a2,2,0,0,1-.18,1.6c-.2.13-.43-.32-.62-.49-.79.22-.67,1.11-.49,1.92-.14.07-.2,0-.36,0-.06.36-.56.45-.66.89a.34.34,0,0,1-.09-.4c-.34-.11-.71.55-.67.66-.33.15-.34.62-.53.89.41.26.06.8-.09,1.2-.44,0-.37.5-.72.58-.12.59-.71,1.09-1.06,1.6.09.05.12.15.17.23s-.13,0-.08.17c-.34-.24-.31,0-.67-.22-.13.38.28.42.49.54a.42.42,0,0,1-.31.4.51.51,0,0,0-.45-.23,1.85,1.85,0,0,0-.22.72,4.43,4.43,0,0,1-1.42.66c0,.35-.13.61-.09,1.16-.21.08-.26,0-.4-.13-.2.08-.3.26-.45.4-.19-.14-.4,0-.49.13s.05.28.18.31c-.06.18-.21.27-.27.45-.29-.05,0-.26,0-.45s-.2,0-.13-.18c-.11.11-.29-.07-.27.09-.21-.37-.42-.65-.22-1.11.18,0,.22.07.22.22.22-.25-.23-.36-.22-.66-.13,0-.3,0-.36-.05s-.08.16-.13.22a5.59,5.59,0,0,1,.26.72c0,.07-.25.12-.09.22-.2.24-.6-.48-.8,0,.11.29.56.41.36.75-.14,0-.16,0-.27,0a2,2,0,0,1-.26,1c.16,0,.15-.14.26-.18l.36.27c0,.29-.26.39-.36.62.05,0,0,.17.14.14-.1,0-.15.12-.23.18a1.62,1.62,0,0,1,0,1c-.13,0-.23,0-.27.09s-.13-.26-.26-.31,0,.09-.27.09a2,2,0,0,0-.09.53c.1.1.19-.07.27.09a2.1,2.1,0,0,0-.58,1.16c-.32-.29-.85.08-1.07.31-.15-.12.27-.4,0-.49,0-.06.11,0,.18-.05-.23-.05-.1-.23-.4-.13a.7.7,0,0,0-.54-.45c-.14,0-.19.11-.17.27s.15-.05.26,0a1,1,0,0,1-.09.36c-.16,0,0-.2-.17-.18.12.36-.14.49-.23.76.28.23.31.69.67.84-.25.2-.16.85-.22,1.11-.2,0-.29,0-.27-.22a2.88,2.88,0,0,0-.62-.36,1.32,1.32,0,0,1-.53.49c.07.32.3.09.48,0s.14.46.36.53c.16-.1-.21-.19,0-.31.21.15.25.46.53.53a1,1,0,0,1,.8.09.77.77,0,0,1-.09.67c.45.56,0,1.29-.31,1.74,0,.12.09.09.09.17.68-.55,1.67.48,2.27-.13a2.59,2.59,0,0,1-.18.8c.3.32.08.57,0,1,0,.08.06.24,0,.31-.06.32-.27.48-.22.67a.42.42,0,0,0,.8-.05c.54,0,1.31-.2,1.38.36.21,0,.15-.18.36-.13s.34.33.18.57c.19.19.06.57.13.85s.26.27.22.62c-.06.53-1,.37-1,.94.08.12.26.15.35.26-.09.27.12.36,0,.58a1.24,1.24,0,0,0,.18.14c.48-.19,1.33-.83,1.65-.36a1.25,1.25,0,0,0-.09.89c.25,0,.33-.09.53-.09.17.28.76.09.89.49a1.11,1.11,0,0,0-.31.62c.1.38.61.12.85,0,.23.08.3.33.66.27.4.41.26,1,.85,1.29.14.08.36,0,.49.22s-.2,0-.27.14c.11.44.11,1,.67,1,0,.93.86.72,1.47.72,0,.12.14.32,0,.44a1.75,1.75,0,0,1-1.42,0c-.06,0-.07.08-.14.09,0,.21.06.36.27.36-.17.78.55,0,1.2.17s.84.74,1.43.85c.28.47-.24.77-.05,1.11,0,.2-.22.23-.31.36,0,.54-.11.72.13,1.06a2.13,2.13,0,0,1,1.2,0c.12.4.07.8.45,1-.4.63.05,1.37.13,2.05-.31.22-.62.55-1,.84a.78.78,0,0,1,.32.85.55.55,0,0,0,.17.13c.5-.2,1.32-.81,1.69-.35.28-.61.35-1.49,1.21-1.29,0,.21-.13.44,0,.62.16-.18.44-.23.62-.4.15,0,.32.24.35,0,.14.3-.16.88-.44,1.16.13.28.64.19.84.4,0,.29.21.39.36.53s.43-.07.71,0c.37.23.19.85.45,1.11,0,.17-.09.21-.14.31s.21.24.36.31a.63.63,0,0,0,.13.67c0,.15-.14.24-.18.4a.78.78,0,0,0-.62.09c0,.33,0,1,.58.93a.33.33,0,0,0,0,.22c.19,0,.11-.25.36-.17-.13.16-.23.17-.27.4.23.49.88.19,1.34.26,0,.13.14.33,0,.45a1.75,1.75,0,0,1-1.42,0c-.06,0-.07.08-.13.09,0,.21.05.36.26.35-.17.79.55.05,1.2.18s.84.74,1.43.85c.28.47-.24.77-.05,1.11-.06.26-.41.24-.31.67a1,1,0,0,0,.89-1.16.46.46,0,0,0,.27-.13c.12,0,.11.12.18.17s.19-.25.35-.31a2.86,2.86,0,0,1,.49.14c0,.13,0,.31.09.44s-.22.1-.27.22.18.29.09.58c-.31.05-.5.15-.71.09-.53.09-.26,1-.76,1.11-.17,0-.13-.19-.31-.17-.05.18.07.19.23.17,0,.28.22.31.31.49a1,1,0,0,1-.14.36c.12.25,1.06.17.8-.31.19-.09.07.3,0,.44.07.34.34.47.63.58a1.5,1.5,0,0,0,1.33-.8c.31.11.72-.12.94,0,0,.2-.15.22-.27.27,0,.4.78.41.84,0,.6-.15.83.18,1.29.27a.9.9,0,0,1-.13.67,1.51,1.51,0,0,0-1.25,0,.56.56,0,0,1-.17-.31c-.24,0-.32.21-.54.26a6.88,6.88,0,0,0,.18.72c.08.08.31,0,.36.13s-.08.19-.05.36c.2-.32.51.05.63-.18.13.3-.17.88-.45,1.15.13.29.64.2.85.4a.93.93,0,0,1,.22-.8.9.9,0,0,1,1-1.29c.06.49-.55.63-.67,1.07.09.26-.14.68,0,.94a.12.12,0,0,1,.14.08c.7-.28,1.53-1.22,2.4-.75a5.55,5.55,0,0,0,.09,2.09c-.2-.14-.89.18-1.11-.18.11-.22.28-.78,0-.89s-.22.23-.45.22c0,.16.07.18,0,.32s-.17.18-.36.17c0-.11,0-.25,0-.31,0,.19-.31.39-.45.58a.47.47,0,0,1-.13.58,1.16,1.16,0,0,1,0,.93c.09.14.34.1.44.23-.45.43.15,1.12.76.75.08.11,0,.36,0,.54a1.09,1.09,0,0,0,.36.22c.24-.07.27-.35.44-.49a4.91,4.91,0,0,1,1-.18c.32-.05.61-.26.85-.27.06,0,.2.07.26.05.43-.12.73-.68,1.34-.54.15,0,.17.16.31.18.46-.11.57.11,1,.14.28.38.88.45.76,1.24-.32,0-.59-.1-.54.31.07.15.19.12.36.09,0,.14.13.1.09.27a3,3,0,0,0-1,2.31c-.82.07-.17.93-.14,1.25.33,0,.41-.13.81-.14.16-.22.47-.51.26-.84a2.42,2.42,0,0,0,.8-1.51c.31-.12.47-.37.4-.85a.87.87,0,0,1,.4-.22c.06,0,.09.12.18.13s0,.21,0,.31c.21.22.59.27.8.49.07.56-.17.78.09,1.25-.3.1-.74.06-.89.31.08.24.3.35.44.53a.94.94,0,0,1-.44.72,1.63,1.63,0,0,0,.58,1.15c.23-.13.22-.51.53-.58a.9.9,0,0,1,1.56-.71.87.87,0,0,1-.27.27c.3.44-.23,1,.09,1.42.21,0,.23-.12.44-.09a10.52,10.52,0,0,1,.36,1.12c-.31.37-.93.18-.62,1a1.13,1.13,0,0,0,.57-.09c.11-.7.37-1.67,1.38-1.51a.62.62,0,0,0,.36-.18c.1.09.14.24.27.31.64-.35.72.43.89.71-.46.73.28,1.53,0,2.54a.9.9,0,0,0-.49,1.15c0,.21-.24.22-.31.36,0,.44.65.21.75.53s-.23.19-.31.32,0,.47.27.49c.41-.2.25-.73.31-1.12a2.3,2.3,0,0,1,.89-1.47,1.22,1.22,0,0,1,.58.49c.14-.13.39-.16.35-.49.35.12.34.47.67.67-.17.23-.53,1.15,0,1.43,0,.12-.19.08-.23.17,0,.32.15.48.14.8.44.13.31.78.4,1.12-.16.12-.24-.13-.45-.09s-.19.78,0,1c-.12.16-.23.33-.36.49.13.31.38.51.45.89-.11.1-.25.17-.31.31.12.34.74.18.84.54,0,.19-.19.27-.09.4s.41.09.49.26-.15.27-.18.45a.72.72,0,0,1,.14.58,6.68,6.68,0,0,0-.72.57,1.4,1.4,0,0,1,.05.36c-.36.27-.34.74-.31,1.25-.6.37-1.51.65-1.47,1.51,0,.19-.23.19-.22.4s.18,0,.22,0c.26.13-.1.32.09.54-.09.22-.27.09-.4.26a.81.81,0,0,0,.93,0c1,.06.78-1.29.71-1.95.12,0,.59-.15.67-.31s0-.28.09-.41.23-.24.31-.4a9.2,9.2,0,0,1,.4-.84c.41-.65.73-1.18.09-1.65a2.78,2.78,0,0,1,1.56-1c0,.2-.08.28,0,.49-.12.09-.32.09-.4.22a.19.19,0,0,1,.05.13c.11.1.28.14.4.23,0,.51.45.53.71.75a.69.69,0,0,0-.09,1.12,1.49,1.49,0,0,0-.18,1c-.19.21-.78,0-.8.41s.26.15.49.26c-.3.43-1.07.07-1,.76,0,.2.22.35.35.53.41-.12,1.16-.65,1.34-.09.1.33-.31.64-.36,1.11,0,.12.06.26,0,.36a3.22,3.22,0,0,1-.49,1c0,.09.12.09.13.18a5.57,5.57,0,0,0,1.25,0,1.55,1.55,0,0,0,1.11-1.2,1,1,0,0,1,.4-.05,6.2,6.2,0,0,0,1.16-1.07c-.06-.09-.09-.21-.18-.26.52-.2,1.17-.39,1.6,0,0,.35-.07.42,0,.71-.34.11-.15.65-.31,1s-.32.19-.35.4.13.4.22.62a2.8,2.8,0,0,0,.36,0,3.3,3.3,0,0,0,2.66-.14c.28,0,.41.07.63.09-.15.18-.21.46-.09.58-.1.16-.44.06-.45.31.53.92-.33,1.43,0,2.36-.08,0-.08.16-.13.22.15.34-.18.6-.09.85-.36.42-.87.7-1,1.33-.08.09-.22.11-.31.18s-.16-.19-.31-.22a.66.66,0,0,0-.31.26,1.86,1.86,0,0,1,0,.54.34.34,0,0,1-.62-.14c0-.2.19-.25.22-.44-.2-.4-.14-.94-.62-.93-.25,0-.45.28-.71.4,0,.18.16.22.22.35,0,.38-.28.43-.44.62a6.37,6.37,0,0,1,.22,1c-.16.17-.28,0-.45,0-.47.05-.8.54-1.06.89a2.39,2.39,0,0,1-.63-.09c.09.41-.06.51-.26.71a1.17,1.17,0,0,0-1.12.13c.07.33-.11.43-.17.63a.69.69,0,0,1-.09.89,4.13,4.13,0,0,0,.09,1c.46-.32.57-1,1.24-1.11.42-.31.57-.89,1.07-1.11.06-.06,0-.21.09-.27.22,0,.32.06.49.09.52-.27.41-1.61,1.33-1.07.07.2,0,.49.09.71-.07.07-.19.08-.22.18s0-.17-.13-.18c-.14.16.13.28.17.4s-.21.27-.35.36c0,.21.2.3.31.44a2.46,2.46,0,0,0-.53,2c1.08.3,1.35-.91,2.17-1.16a4.07,4.07,0,0,1,.18-2.26c.8-.07,1.33-.4,1.29-1.3.29.06.48-.25.76-.35.25-1,.91-1.49,1.2-2.4a3.55,3.55,0,0,0,1.38-1.12.88.88,0,0,0,.62-.31c.16.23.33-.13.54-.13a.69.69,0,0,0,0,.71c-.1,0-.14.14-.27.13a1.48,1.48,0,0,0,.13.76,1.4,1.4,0,0,0-.62.8c-.14,0-.18.12-.27.18,0,.88-.55,1.28-.49,2.13-.13.05-.2.16-.4.14-.07-.2-.11-.42-.4-.4-.13.41-.7.75-.22,1.16a1.61,1.61,0,0,0,.76-.45,1,1,0,0,1,.4.22c-.07.39-.15.65-.18,1-.31,0-.73-.1-.89,0-.12-.14-.12-.39-.4-.36-.06.11-.17.57,0,.71s.17-.26.4-.22c-.1.69.75,1.13,1,.53.23,0,.29.21.4.36s-.16.11-.22.18c.1.25.24.6.57.49,0-.3.41-.59.23-1.07-.15,0-.22-.08-.4-.05-.25-.65,0-1.38.53-1.37.3,0,.84.3.8.75a1,1,0,0,1-.58.18c0,.51.25,1,0,1.56a1.2,1.2,0,0,1-.4,0c-.22.4-.24.48,0,.89-.09.31-.44.37-.49.71s.23.25.31.4c.07.65-.33.89-.18,1.38a1.61,1.61,0,0,1-.27.36c.09.08,0,.21,0,.31-.37.14-.31.72-.88.67-.09-.06-.07-.24-.18-.27s-.17.13-.23.22a.43.43,0,0,0,.23.36c-.22.24,0,.3,0,.62a1.2,1.2,0,0,0-.67.58c-.18,0-.19-.23-.45-.18a2.59,2.59,0,0,1-.44.67c-.35.08-.32-.22-.49-.31-.43.17-1,.2-1.2.62.3.49,0,1.14.18,1.69-.1.1-.18,0-.31,0-.5.61-1.12.86-1.2,1.82.16.12.38.18.4.45-.31.33-.73-.12-.58-.49-.61-.44,0-.91-.14-1.47a.49.49,0,0,0-.53.49,6.33,6.33,0,0,0-1.69,1.34c0,.31,0,.68-.13.84-.19-.12-.19-.44-.4-.53.06-.3.05-.66.13-.94a.56.56,0,0,1,.09-.8c0-.27-.08-.95-.22-.8a6.81,6.81,0,0,0-.58-.89c-.39,0-.56.24-.89.22a1.09,1.09,0,0,1-.18.89c-.08-.14-.15,0-.09-.17-.21,0-.29.07-.44.08a1.53,1.53,0,0,0-.27-.75c.19,0,.24-.2.44-.22,0,.16.2,0,.27.17.18-.06.08-.17.13-.31.37-.4.91-.63,1.21-1.11.51.05.65-.4,1-.44s.35.17.63.13a.59.59,0,0,0,.49-.67c0-.31-.37-.49-.23-1,0-.14.17-.22.27-.35-.06-.18-.22-.26-.49-.23s-.42-.31-.71-.22v.49a.83.83,0,0,1-.45.22c.12.58-.46.46-.35,1-.28.39-1.08.49-1.47.62-.1-.12-.06-.39,0-.53a.57.57,0,0,0-.36-.18c-.12.16-.31.25-.44.4a3.73,3.73,0,0,1,0,1c.18.14.45-.1.58.09s-.08.33,0,.62a1.26,1.26,0,0,0-1.34.49.44.44,0,0,1-.26-.62c-.23.09-.47.1-.58-.09,0-.39.23-.55.35-.8-.11-.23-.5-.18-.75-.27a.77.77,0,0,1,0-.85c-.06-.38,0-.52.27-.66.23.08.32.3.62.31,0,0,.05-.05.09-.05a3.46,3.46,0,0,0,.22-1c-.41-.34-.95.15-1,.58-.37,0-.48.26-.67.44-.18,0-.34-.16-.44.05a4.88,4.88,0,0,1-.45-1c-.29.14-.07.45-.09.8-.43.36-.91,0-1.29-.18-.16,0-.12.26-.31.27-.17-.14-.05-.41-.09-.58-.23-1-1.1-1.84-.13-2.58,0-.42-.19-.55-.18-.93a1.6,1.6,0,0,0,1.07-1.69c0-.09-.12-.12-.22-.14a2.2,2.2,0,0,0-.54.94c-.24,0-.24.2-.35.31s-.35-.22-.54-.09a.53.53,0,0,0,.05.67c0,.51-.32.81-.85.57a1.18,1.18,0,0,1-.66.58c-.46-.35.2-1.38-.31-1.87-.56.08-.77.35-1.34.32a2.38,2.38,0,0,0-.89-1.69c-.11.21-.39.24-.36.48-.66-.14-.39-.95-.66-1.46a3.59,3.59,0,0,0,.35-1.2.77.77,0,0,0-.57,0c-.12.45-.74.39-.89.8-.71-1.33.19-2.76.93-3.42-.06-.74-.19-1.47-.71-1.61-.3.06-.42.37-.94.4-.13-.26,0-.61-.17-.75-.34.11-.05.63-.4.75a1,1,0,0,1-.41,1.16c0,.26.07.39-.08.54-.11,0-.14-.17-.23-.23-.28.07-.39.29-.8.23a3.5,3.5,0,0,0-.22-1.25c-.55,0-.44.59-.8.76-.15,0-.13-.23-.18-.36.41-.28.29-1,.8-1.07.24,0,.44.23.76,0a2.73,2.73,0,0,1-.13-1.83c-.05-.13-.19-.17-.32-.22a9.11,9.11,0,0,0,.49-2.22s-.08,0-.09-.05-.21.14-.35.18c.18.78-.88.73-.49,1.42-.37.48-1,.72-1.25,1.29-.38-.28-.47-.86-.71-1.29-1.07-.23-.52,1-1.2,1.25-.34-.15-.38-.73-.44-1-.71-.38-.26-1.73-.18-2.5-.07-.06-.23,0-.36,0a1.2,1.2,0,0,1-.09-.53.33.33,0,0,0-.4-.18c.09-.09,0-.08,0-.22-.24.19.14.55,0,.8a.34.34,0,0,1-.35-.14c-.38.11-.45.47-.45.85a6.58,6.58,0,0,1-.89-.54c0-.42-.28-.49-.49-.66-.18,0-.26.15-.49.13a.81.81,0,0,1,.27-1.33c0-.13-.11-.19-.13-.32-.25,0-.43,0-.58-.17-.22,0-.19.22-.45.17a3.85,3.85,0,0,1,0-2.35,6.64,6.64,0,0,1-.44-1.16c-.32,0-.58.27-.58.71-.27.37-.34.94-.62,1.29a1.67,1.67,0,0,1,.31.89c-1.28.13-.59-1.57-1-2.09-.2.13-.48,0-.58.05a.93.93,0,0,0-1.07-.4c-.3-.86-.34-1.89-1.29-1.92-.27,0-.45-.23-.71-.35-.22-.59,0-1.23,0-1.83,0-.15-.11-.29-.13-.44-.06-.45.08-.83-.4-.89-.28.26,0,.77-.31,1.11-.68,0-.85-.83-1.2-1.29a1,1,0,0,1,.49.09c.32-.21.81-1.29.13-1.43-.38.21-.81.13-1.07.49.14.22.38.52.31.81-.37-.12-.42,0-.84,0a.86.86,0,0,0-.85-.36c-.12-.11.19-.67.14-.76s-.6-.12-.89,0c-.51-.17,0-1.34-.89-1.15-.22-.34,0-.89-.36-1.12.24-.17.16-.88-.13-.93s-.31.26-.58.53c-1.08-.58.33-2.53-.76-2.93-.09.18.08.44-.09.67a.84.84,0,0,0-.57,0c-.08-.2.15-.57-.05-.71.18-.12.5-.26.71-.09-.12-.42-.11-.78-.4-1-.58.35-.24,1.62-1.29,1.51-.45-.43.17-1.26-.35-1.51a1.32,1.32,0,0,0-.85.71.67.67,0,0,1-.27-.93c.52.1.83-.21,1.34,0a.23.23,0,0,0,.13-.14c0-.29-.23-.45,0-.71-.07-.3-.4-.15-.67-.31a2.42,2.42,0,0,0-.53.62c-1.1.11-1.09-.9-1.92-1.06,0-.29-.36-.31-.49-.45s-.17-.61-.62-.62c-.49-.41-.36-1.45-1-1.69-.11,0-.23,0-.22.13-.26-.2-.23-.83-.27-1.11a5.78,5.78,0,0,0-.67-.53.88.88,0,0,1-.84-.18,2,2,0,0,0-.23-.71c-.07-.11-.35-.22-.4-.32s0-.54,0-.8a1.46,1.46,0,0,0-.4-1c-.08-.37.29-1-.22-1a3.23,3.23,0,0,0-.27.76c-.23.1-.4.28-.62.4-.57-.39-.56-1.27-.71-1.87-.27,0-.46.11-.62,0a10,10,0,0,0-.45-1.87,1.68,1.68,0,0,1-.66,0,4,4,0,0,0-.45-1.24c-.18.07-.22.28-.49.26-.08.07.06.18,0,.27,0-.4-.36-.45-.63-.58.17-.37-.32-.51-.57-.44-.09-.31,0-.84-.14-1.2-.09-.07-.25-.05-.35-.09a3.23,3.23,0,0,0-.36-.72c-.08.05-.24,0-.22.14-.18-.27-1.2-.66-.8-1.07-.19-.28-.61-.31-.85-.53a1.15,1.15,0,0,0-.09-.67.41.41,0,0,0-.31.09c-.58-.3-.53-1.29-1.33-1.56-.1-.72-.86-1.08-.58-1.91a.65.65,0,0,0-.76-.09,2.87,2.87,0,0,1-1.15-1.74c0-.19.19-1.53-.32-1.6-.31,0-.41.49-.8.31-.09-.11,0-.4-.09-.53s-.19,0-.31,0a3.82,3.82,0,0,0-.75-1.25,1,1,0,0,0-.45.05,4.89,4.89,0,0,0-1.82-2.36h-.31c-.16-.2-.42-.43-.36-.71-.12-.35-.52.08-.58-.27-.46.25-.46,1-.89,1.24a.84.84,0,0,1-.44-.22c0-.28,0-.6-.22-.62s-.09.09-.18.09c.28,1-.25,1.48-.36,2.4a3.61,3.61,0,0,0,.94.36c.17.16,0,.31,0,.49,0,.38.32.72.22,1.15-.08.06-.32,0-.4-.09s-.2.22-.31.31-.22-.07-.36-.08a.32.32,0,0,1,0-.27,3,3,0,0,0-.62-.31c0-.67-.74-.81-.76-1.56-.69.11-.32,1,.09,1.07,0,.35-.2.45-.18.71s.4.49.22.93c-.44.11-1,.16-1,.8-.41,0-.64.26-1,.32-.14-.1-.16-.32-.35-.36-.47.05-.24.92-.05,1.11a1.28,1.28,0,0,1,.58-.18c.11.15.2.3.45.32.12.5,1.09,1.18.17,1.55-.21-.06-.24-.32-.49-.35a.22.22,0,0,1-.35.13c-.08.07,0,.26,0,.4-.45.3-.3,1.21-.89,1.38.13-.39-.33-.39-.53-.58-.6.15-.13,1.12-.49,1.47.07.36.49.37.62.67a4.58,4.58,0,0,0,0,.93c-.2.07-.2,0-.36-.09-.27.24-.29.75-.44,1.11-.23.05-.18-.17-.36-.17-.64.25.47.86-.18,1.15-.35-.14-.88-.63-1.24-.22a2,2,0,0,0,1.07,1.07c.12.5,1.09,1.19.17,1.56-.21-.07-.24-.33-.49-.36-.08,0,0,.15-.08.18s-.22-.08-.41-.05a1.67,1.67,0,0,1,.27-.62c-.09-.48-.59-.28-.75-.67-.37,0-.43.35-.54.63-.26,0-.35-.18-.44-.36-.23.13-.22.18-.54.09-.06,0,0,.13-.09.13a3.46,3.46,0,0,1,.63,1.56c.14.47.66.89.49,1.42-.56.06-.58-.3-.8-.49-.17.09,0,.29,0,.45s-.45.12-.54.31c-.68-.24-1.21.64-.71.93.31.19.52-.15.71-.35.41,0,.57.29,1,.31.17.16,0,.31,0,.49,0,.39.33.72.22,1.16a.46.46,0,0,1-.4-.09c-.14.06-.2.21-.31.31s-.22-.08-.35-.09a.32.32,0,0,1,0-.27,4.1,4.1,0,0,0-.63-.31c.17-.66-.64-.57-.62-1.2a6.35,6.35,0,0,0-.27,2.4c0,.64.34,1,.58,1.42a.9.9,0,0,0,.45.32c.13-.09-.08-.24.08-.27.26.23.89.26.81-.18.16.05.29,0,.35.09-.33-.08-.36.4-.44.71-.17,0-.19-.17-.36-.18a1.11,1.11,0,0,0-.13.54c-.27,0-.24-.25-.27-.36-.2.07-.27.3-.44.18-.33.46.36,1.4-.49,1.51,0,.1-.12.15-.09.31-.51,0-.45-.47-.8-.57a1.09,1.09,0,0,0-.63-1.21c-.33,1.13.71,1.81.4,2.85,0,.16.15.15.18.27.51-.13.59.52,1.16.4a.66.66,0,0,1,0,.44c-.1.09-.19-.1-.31-.13-.25.27.13.7-.09,1h-.27c0,.06,0,.12,0,.13.28.21.22.75.44,1-.21,0-.24.2-.49.17,0-.17-.08-.21,0-.4-.38-.42-.47-1.13-.85-1.55-.3.2,0,.73-.18,1.06,0,.18.23.16.32.27-.07.25-.48.14-.58.36s.09.19.22.13c-.05.22-.32.21-.4.4,0,.47.6.58.36,1.16a1.07,1.07,0,0,0-1,.31c0,.2.17.27.35.31-.09.49.12,1.23,0,1.65-.65-.47-1.38-.84-2-1.29-.09.13-.37.31-.49.26s0-.16,0-.26-.15,0-.23.08c-.08-.12,0-.38-.13-.48a4.58,4.58,0,0,0-.89-.32c-.14.39-.27.8-.75.85a.81.81,0,0,0-.67-.85c-.17,0-.09.15-.18.18s.18.14.13.36-.43.07-.53.22.24,0,.27.09-.05.27-.14.35c.16.09.43.06.45.27.13-.1-.13-.42.09-.49a.38.38,0,0,1-.05.58.44.44,0,0,0,.27.18c0,.72.66.8.67,1.51.34.33.77.56.89,1.11a.76.76,0,0,0,.09.76c-.11.16,0,.42,0,.58s-.17.19-.22.35,0,.29,0,.36a1.1,1.1,0,0,1-.76.36c0-.15-.08-.19,0-.36-.5-.36-.33.37-.58.49a3.64,3.64,0,0,0-1.69-.45c-.06,0,0,.12-.05.18-.17-.22-.42-.15-.66,0a.25.25,0,0,1-.23-.26,2.35,2.35,0,0,1-.4-.09c-.06.23.22.42.45.4,0,.57.56.53.62,1,.37-.21.52.11.71.31.35-.18.58,0,.8.18.43-.12.8-.19.89.27-.05.16-.28.16-.44.22.13,1.16-.81.88-1.29,1.29-.28-.17-.29-.6-.58-.76-.3.11-.27.75-.67.62.12.35.52.41.67.72.22.05.22-.29.4-.14,0,.1-.13.23-.22.14.07.06,0,.23,0,.35-.22,0-.3-.08-.44.05a.59.59,0,0,0,.58.58c.06.38.47.64.31,1.11-.14,0-.12-.18-.31-.14s0,.25-.18.41c-.38-.07-.5-.4-.76-.58,0-.18.11-.16.14-.27s-.25-.29-.49-.31c0,.19-.13.26-.18.49.32.21.28.81.22,1.2-.25,0,0-.23-.18-.31s-.18.14-.4.09c-.11-.42.21-.66,0-1.12-.14-.11-.33-.18-.4-.35s.11-.15.13-.27c-.13-.39-.74-.12-.93-.13s-.11-.22-.23-.27c-.27,0-.34,0-.57.05-.47-.26-.93-1.26-1.56-.67a1.85,1.85,0,0,1,.8,1.73c.06.14.22-.06.27,0a1.69,1.69,0,0,1,.17,1.24c-.39,0-.52-.36-.93-.4-.18.06-.17.23-.4.14s-.09.12-.13.17c.2.22.07.5.22.76.16,0,.17-.09.18-.22a2.21,2.21,0,0,1,.75,1.15,4.91,4.91,0,0,0-.89.05.29.29,0,0,1,0-.31c-.1,0-.25-.19-.22-.45a1.3,1.3,0,0,1-.4-.66c0-.17.09-.21.13-.32s-.23-.16-.26,0c0-.11.11-.3.17-.53-.13-.32-.47-.6-.17-1-.31,0-.32.36-.27.58a.7.7,0,0,0,0,1.2c-.45,0-.62,1-.18,1.11a.3.3,0,0,0,.05.36c.65-.26.78.51,1.33.62.2,0,.19-.2.18-.4.43,0,.48.2.89.22.38.57.64,1.21,1.38,1.29,1,.12.53,1.43,1.6,1.56.06.17.2.33.09.53-.4-.05-.53-.31-.94-.26a1.12,1.12,0,0,0-.35-.71.42.42,0,0,0-.4.44c-.34-.24-.42.17-.4.45-.23,0-.15-.16-.14-.36-.14-.09-.39.11-.44-.13-.16.28.32.88,0,1.24-.25,0-.36-.14-.58-.18a.69.69,0,0,0,1,.58,1.34,1.34,0,0,1,.22.31c-.14.29-.45-.07-.62.14a1.53,1.53,0,0,1,.31,1,2,2,0,0,1-1.47-.89c-.17,0-.18.11-.35.09a1.47,1.47,0,0,1-.09-.49c.24-.1.54-.14.66-.36a1.8,1.8,0,0,1-.93-1.16c-.13,0-.06.24-.18.27-.37-.2-.29-.6-.71-.71-.45.29.09.51.22.84s.09.79.23,1.12c-.07-.07-.23,0-.36-.05-.06-.27-.45-.56-.22-.84a.23.23,0,0,0-.27-.18c-.28.29.18.73,0,1-.36-.06-.25-.58-.63-.62,0-.11.1-.11.14-.18-.42-.21-.46-.78-1-.89a.89.89,0,0,0-.27.31,2,2,0,0,0,.53,1.25c.06.22-.13.19-.13.35.1.64.64.37,1.11.4,0,.08,0,.19.09.23-.06.25-.46.16-.49.44s.12.24.27.27a.78.78,0,0,1-.13.67c.32.14.46.48.66.75.67-.11.84-.71,1.43-.93v-.31c.05-.06.21,0,.26-.09a2.3,2.3,0,0,1,1.47,2.09c-.33.21-.68.08-1,.27-.23,0-.27-.21-.45-.27-.51.11-.79-.41-1.24-.05.08-.16-.16-.33-.31-.4-.22.21-.43.62-.89.45-.12-.17,0-.51-.27-.58s-.29.13-.4.22.08.19,0,.36a.65.65,0,0,0-.62-.18c-.29-.28,0-1.06-.62-.89,0-.53-.5-.76-.76-1.33,0-.09-.15-.16-.18-.27s.14-.39-.17-.49-.19.08-.36,0a.4.4,0,0,1-.13-.4.4.4,0,0,0-.36,0c-.14-.28.37-.29.27-.67a.51.51,0,0,0-.49-.22c-.24-.37-.33-.89-.94-.89a7.83,7.83,0,0,1,.23.8c-.15,0-.4,0-.49.13-.48-.19-.3-1-.76-1.24-.61.81.69,1.37,1,2a1.43,1.43,0,0,0,.4,1.25c.06.06.21.07.27.13.2.22.56.88.93,1.29a2,2,0,0,1,.45,1.51s-.08.08,0,.14c-.17.22-.55,0-.62.26-.19,0-.29-.28-.45-.18s.22.5.45.58a2.35,2.35,0,0,1,0,.4c.09.15.31.17.4.32-.08.18-.27,0-.35-.09s-.19.2-.36.22-.28-.17-.4-.27c.06-.2.2-.09.31,0,0-.2,0-.41-.26-.44s-.22.31-.32.53c-.28,0-.65.06-.71-.18s.24,0,.27-.17-.13-.14-.09-.32.21-.14.36-.18c0-.38-.26-.88-.63-.88.08-.35-.13-.41-.26-.54,0-.38.12-.65-.14-.8s-.11.16-.26.13a16.11,16.11,0,0,0-.67-2.49c-.3-.15-.57-.32-.85-.49.18-.33-.15-.59,0-.84.32,0,.29.39.49.53s.19-.2.27-.31c-.55-.34-.14-1.11-.67-1.42,0-.31.32-.36.4-.63.14,0,.21.11.31,0a1.76,1.76,0,0,0-.27-.4c-.19,0-.12.17-.09.27-.18-.17-.18.11-.31.13a.8.8,0,0,1,0-.66,4.69,4.69,0,0,1-1.06-.8c0-.12.08-.09.08-.18-.39-.39-.16-1.41-.8-1.56-.14-.51,0-1.62-.53-1.91.17-.2,0-.29,0-.54.34-.29.33.09.62.27.09.06.29,0,.35.09.23.16.32.51.45.58.22-.35.1-1.05-.4-1.11,0-.15-.07-.38.13-.4,0-.1-.16,0-.22-.05a4.13,4.13,0,0,0-.49-1.91c.16.14.18-.12.27-.18s-.24-.27-.27-.49a.61.61,0,0,1,.71.31,2.08,2.08,0,0,0,.45-1c-.57-.27.24-1.66.17-2.45,0-.24-.2-.48.14-.57-.08-.43.36-.51.18-.89,0-.1.06-.09.13-.09-.15-.21-.48-.51-.27-.8.31-.06.31.19.49.26s.14-.07.22-.09-.09-.14-.13-.22a2.26,2.26,0,0,1,.22-.44c-.33-.68.59-1.14.23-1.56,0-.19.24-.17.17-.45.28.14.28-.16.45-.26-.06-.15-.13-.29-.18-.45s.25-.22.31-.4-.16-.16-.13-.35a2.53,2.53,0,0,0,.84-1.78c-.29-.08-.73,0-.89-.31l.4-.14c0-.27.27-.33.18-.58.52.38.88-.29,1.2-.62a3.83,3.83,0,0,1-.17-.93c.11-.11.21,0,.31.09.08-.3.31-.48.13-.8a.64.64,0,0,1,.45-.32c.06-.11.06-.29.13-.4s.11.07.22.05c.05-.22.05-.35.09-.49s.21,0,.45-.05c0-.37.08-.86.44-.89,0-.37.16-.86-.09-1.2.07-.08.14,0,.22-.09s0-.21,0-.35c-.25-.05-.19.23-.36.27,0-.35.21-1,.67-.89a9.63,9.63,0,0,0,.71-.72c0-.29-.09-.41-.09-.66.23,0,.09.36.31.35.08-.61-.11-.84,0-1.51.9.09,1-.88.89-1.34C127.09,277.7,126.86,277.87,127,277.89ZM228.55,179.8c.12,0,.15-.07.13-.18S228.54,179.68,228.55,179.8Zm-.62,1.78c.09-.14-.06-.24,0-.36C227.76,181.26,227.86,181.46,227.93,181.58Zm-74.78,27.93c0,.11.08.19,0,.27.2-.15.19,0,.44,0v-.22C153.47,209.43,153.24,209.51,153.15,209.51ZM134.6,222.37c-.14,0,.1-.07,0-.18s-.12-.15-.22-.18C134.23,222.15,134.5,222.43,134.6,222.37Zm39.54,9.88c.22,0,.19-.15.18-.32C174.11,231.89,174.14,232.08,174.14,232.25Zm-3.87,5c.18,0,.2-.1.23-.22s-.08-.07-.14-.09S170.35,237.16,170.27,237.27Zm-1.06,1.78c.07,0,0,.18.22.13-.06-.23.13-.22.09-.44C169.33,238.76,169.27,238.91,169.21,239.05Zm.57,1.11c-.17.6-.46,1.23,0,1.74-.06,0-.16,0-.17,0,.36.13.81-.78.53-1.15.05,0,.15-.2,0-.23s0,.09,0,.09A.35.35,0,0,0,169.78,240.16Zm17.67,24.11c0-.18.2-.53,0-.62C187.45,263.93,187.29,264.14,187.45,264.27Zm-37.11,3.16c.19-.26.24-.6-.13-.71C150.08,267,150.25,267.27,150.34,267.43Zm18.73,5.7c.24,0,.17.36.54.26a2.1,2.1,0,0,0,.09-.53A3,3,0,0,0,169.07,273.13Zm-23.17,1.11c-.08.25.32.22.31,0S146,274.19,145.9,274.24Zm.35.13c.25.08.34-.46.05-.4C146.28,274.19,146.21,274.18,146.25,274.37Zm-5.56,8.32c.13.58.18,1.24.76,1.38a.69.69,0,0,0,.4-.49,6.63,6.63,0,0,1-.71-1A.59.59,0,0,0,140.69,282.69ZM200,285.41c0,.16.14.32.14.49s-.23.5-.14.75c-.11.11-.3.14-.4.27-.07.29.13.31.18.49a.63.63,0,0,1-.09.35c-.13.06-.36,0-.44.14a6.68,6.68,0,0,1-.18.71c.05.2.28.22.27.49-.08.07-.26,0-.4,0a2.31,2.31,0,0,0,0,1.25c-.69.16-.38,1.41.13,1.47s1.06-.85,1.16-1.43a7.23,7.23,0,0,0,0-1.87c.17-.16.09-.56.23-.75.13,0,.16,0,.26,0,0-.29.28-.37.49-.49.31-.89-.3-1.83-.31-2.67A.91.91,0,0,0,200,285.41Zm-1.6.13c-.21,0-.54.67-.53.89s.21.37.62.35S199.06,285.46,198.43,285.54Zm9.83,1a.19.19,0,0,0,.36,0C208.49,286.46,208.46,286.54,208.26,286.52Zm-67.39,2.22c.12,0,.11.07.22.05a.5.5,0,0,0-.27-.58C140.72,288.36,140.85,288.57,140.87,288.74Zm49.29,1c.22.14.29.42.71.36.34-.29,0-.81-.22-1C190.47,289.26,190.33,289.51,190.16,289.72Zm-49.07-.36c0,.13.12.18.27.18a.25.25,0,0,0,0-.22C141.28,289.32,141.15,289.3,141.09,289.36Zm-4.85,2.05c.16,0,.15-.21.18-.35h-.13C136.2,291.2,136.3,291.24,136.24,291.41Zm.14,0c0,.12.08.09.08.17a.23.23,0,0,0,.23-.17A.34.34,0,0,0,136.38,291.46Zm55,.17v.14c.36.19.76.09,1.07.35.23-.11.68,0,.75-.26C192.68,291.81,191.76,291.65,191.36,291.63Zm12.41.54c-.17.45,0,.68,0,1-.12.92-1.47,1.42-.89,2.45a.88.88,0,0,0,0,1.24c.53.06.67-.38,1.16-.22.93-.77-.1-2.87,1-3.56.06-.55.22-.87,0-1.38C204.52,291.51,204.23,292.2,203.77,292.17Zm8.85.8a3.18,3.18,0,0,0,.09-1.11c-.16,0-.14.06-.22-.05C212.5,292.1,212.16,292.85,212.62,293ZM217,294.3c0,.43-.18.62-.13,1.07.14.2.42.26.8.22C218.14,295.18,217.72,293.61,217,294.3Zm-19,2.72c-.56.31-.57,1.17-1,1.6.19.33.65,0,1,.22.14-.19.44-.29.63-.58s.06-.38.13-.53.47-.59,0-.76c-.14.09-.31.22-.27.36C198.22,297.38,198.2,297,197.94,297Zm19.4.71c.1.3.41.14.58.35,0-.13.13-.39,0-.44C217.73,297.78,217.54,297.75,217.34,297.73Zm-11.52.8c0,.07.14.07.13.18.2,0,.37,0,.4-.23S205.86,298.25,205.82,298.53Zm.67.44c-.18.09-.55.1-.72.36s0,.27-.09.44c-.15.47-.88,1-.48,1.56a.87.87,0,0,0,1-1.07,3.1,3.1,0,0,0,.67-1.33c-.22,0-.18-.24-.45-.18C206.33,298.86,206.51,298.83,206.49,299Zm-74.16,0c0,.24.28.31.31.58s0-.16,0-.23.2-.15.18-.35-.12-.06-.09-.18A.51.51,0,0,0,132.33,299Zm81,.4a1.18,1.18,0,0,1-1.07.13.73.73,0,0,0-.13.31,4.28,4.28,0,0,1,.71.54c.11-.31.39-.44.58-.67C213.42,299.55,213.25,299.6,213.29,299.42Zm-79.49,1.2c-.09-.27-.06-.66-.32-.76A.68.68,0,0,0,133.8,300.62Zm78.56,1.11c.33.07.28-.28.22-.49a.44.44,0,0,0-.27.05c0,.13,0,.29,0,.35C212.48,301.62,212.45,301.59,212.36,301.73Zm-79.63.4c.11,0,.19,0,.18-.13S132.71,302,132.73,302.13Zm.4,0s.05,0,0,.09C133.44,302.18,133.22,301.87,133.13,302.09Zm72.33.93a.53.53,0,0,1-.75,0,.77.77,0,0,0-.09.62c-.23,0-.28.23-.45.32-.12-.1-.22-.22-.35-.32a1,1,0,0,0-.36.05c-.07.17-.08.62-.18,1a1.51,1.51,0,0,1-.62.31c0,.68-.46,1.3-.36,2.09.38-.05.39-.48.89-.4.09-.14.22-.22.31-.36.65-.18.82-.84,1.56-.93.06.09.23.07.31.13a5.13,5.13,0,0,1,.85-.4,17,17,0,0,1,.18-2.89C205.88,301.61,205.13,302.54,205.46,303Zm-82.3-.09c.25.37.24.75.49,1,0-.3-.3-.65,0-1.07a2.72,2.72,0,0,1-.4-.71c-.21,0-.25-.07-.4-.09C122.54,302.38,123,302.65,123.16,302.93Zm-3.16-.22a1.43,1.43,0,0,0-.75.36,1.24,1.24,0,0,1,.09,1,.62.62,0,0,1,.22.44c.74.14,1,1.07,1.69,1.43.18-.2-.07-.57-.13-.8s.13-.1.17-.18c-.35-.37-.43-.76-.75-1.11.46-.53-.15-1.39-.49-1.78C119.88,302.22,120.06,302.44,120,302.71Zm13.71.05c-.06-.14,0-.16,0-.36h-.18A.33.33,0,0,0,133.71,302.76Zm-6,.08c.16,0,.14-.16.18-.26C127.63,302.31,127.37,302.75,127.7,302.84Zm86.08,1.87c.19-.26-.09-.78-.4-.93a1.41,1.41,0,0,1-.13.67c.3.13.25.79-.05.93,0,0,0,.36.14.45a1.06,1.06,0,0,0,.49-.23v-.26c.13-.17.5-.09.44-.45-.12-.05-.23-.05-.22-.13C214,304.85,213.76,304.81,213.78,304.71Zm.45-.26c.06,0,.09,0,.13,0s.11-.13.09-.27h-.22Zm-95.47.44c.09.17.16.37.35.45C119.47,305.05,119.06,304.44,118.76,304.89Zm8.45,1.6c.68-.34.06-1.1-.09-1.55-.18-.11-.3,0-.4.13C126.91,305.53,127.8,305.93,127.21,306.49Zm79.63-.18c0-.16.24-.14.22-.35-.06,0-.08-.07-.17,0S206.77,306.19,206.84,306.31Zm0,.27c0-.08.13-.08.09-.22h-.13C206.82,306.42,206.74,306.59,206.84,306.58Zm8.68.45c.27-.07.49,0,.71-.14,0-.14-.07-.17-.09-.26C215.83,306.66,215.57,306.74,215.52,307Zm-9,0a.35.35,0,0,0,.22,0v-.18h-.18C206.57,307,206.47,307,206.49,307.07Zm-3.65,0c.39.42-.57.92.09,1.24a7.51,7.51,0,0,0,.4-1.29A.38.38,0,0,0,202.84,307Zm2.49.71c-.38.05-.53.32-.62.66a3.8,3.8,0,0,1,.22.54c.18,0,.23-.07.4-.05.08-.19,0-.39-.05-.66.22-.33.48-.58.4-1C205.34,307.25,205.43,307.49,205.33,307.74Zm-81.46,0c.07-.06,0-.19,0-.31s-.1-.08-.22,0A.22.22,0,0,0,123.87,307.78Zm80.52.09v-.18h-.13C204.25,307.81,204.25,307.92,204.39,307.87Zm-81.23,1.34c.11.08.29.05.4.13s.34.55.58.58.1-.08.22-.05.08.29.27.27-.12-.29-.13-.45,0-.15.09-.31-.41-.16-.31-.53c-.23.11-.38,0-.63,0,.08-.45-.33-.55-.53-.58,0-.18-.17-.28-.18-.49C122.11,307.79,122.72,308.88,123.16,309.21Zm93.07-.45c.14-.24.42-.35.4-.75-.08-.09-.13-.2-.31-.18C216.27,308.15,215.75,308.57,216.23,308.76Zm-95.47.22c.12,0,.19,0,.18-.13S120.75,308.87,120.76,309Zm10.77.85c-.05-.33-.25-.5-.36-.76C130.18,308.85,131,309.87,131.53,309.83Zm93.73.27c.29,0,.43-.46.53-.76C225.31,309.31,225.24,309.75,225.26,310.1Zm-104.81-.05a.33.33,0,0,0-.13-.44C120.14,309.7,120.29,310,120.45,310.05Zm92.17.93c-.08-.05,0-.21,0-.22.21,0,.21.19.45.14.09-.25.18-.74-.18-.8-.26.35-.88.56-.8,1.11C212.38,311.24,212.53,311,212.62,311Zm-85.36-.17c.06-.13.22-.29,0-.36C127.21,310.5,127.16,310.77,127.26,310.81Zm90.17,3.38c.12.23.51.19.62.44a.32.32,0,0,0-.31.18c.1,0,0,.19,0,.27a1.07,1.07,0,0,1-1.15.09,4.12,4.12,0,0,1-.54,1c-.26,0-.42.11-.4.4.05,0,.07.05.09.09.39,0,.46-.37.85-.4s.22,1,.62,1.16a3.38,3.38,0,0,1,.71-.36,3.11,3.11,0,0,1,.45-1.2c0-.08-.08-.12,0-.18s.29-.24.36-.4.12-.66.27-1,.37-.54.4-.8-.15-.51-.18-.8.12-.63.09-1c-.25-.21-.25-.4-.49-.58a1,1,0,0,0,.18,1.29A3.86,3.86,0,0,0,217.43,314.19Zm8.23-1.91c.07-.43-.46-.23-.71-.14s-.15-.24-.31-.26c-.38,0-.47.29-.76.31-.1.12,0,.29-.09.35s-.2-.16-.31-.22c-.36.18-.58,1-1.11.58,0-.24,0-.27,0-.45-.79-.26-.85.58-1,1.07-.45,0-.17.65-.44.67,0,.33-.19.64-.09,1.07-.09.16-.27.23-.22.53a.88.88,0,0,0,.44-.13c-.09-.59.36-.81.8-1v-.36a.36.36,0,0,1-.35-.31,1.26,1.26,0,0,1,.58-.22c.17.28-.14.33-.18.53s.21.17.22.36c.72.05.56-.93.58-1.29.12,0,0,.21.22.18a1.61,1.61,0,0,0,1.11-.32,2.12,2.12,0,0,0,1.47,0c.08-.19-.12-.6.18-.66a6.17,6.17,0,0,1,.67.84c.18,0,.19-.19.4-.18s.25.2.44.23c.67-.38.05-1.64-.35-1.92A.83.83,0,0,1,225.66,312.28Zm-16.77-.45c-.11.34.14.41.18.58,0-.17.08-.13.13-.05a1.27,1.27,0,0,1,0-.62C209.15,311.78,209,311.73,208.89,311.83Zm2.89,1.42a1,1,0,0,0-.53.63c.05,0,.06.05.08.09.3-.1.43-.54.54-.67a.92.92,0,0,0,.67-1.29C212.1,312.21,211.54,312.43,211.78,313.25Zm3.47-.75c.11,0,.1.08.22,0a.6.6,0,0,0,0-.49h-.13C215.31,312.2,215.21,312.28,215.25,312.5Zm-93.2,1.07c0,.41.41,0,0,0Zm89.24,3.91a.46.46,0,0,0,.62.09.48.48,0,0,0-.13-.45c.8-.26.39-1.49,1.42-1.55a8,8,0,0,0,.76-1.38c-.38-.06-.81.34-1,.35-.11.68-1,.77-1,1.43a3.84,3.84,0,0,1-.35.18C211.56,316.67,211.76,317.25,211.29,317.48Zm-.4-2.71a2.14,2.14,0,0,1,.4-.09C211.36,314,210.3,314.38,210.89,314.77Zm.18,1.24a2.23,2.23,0,0,1,.44-.67c-.16-.09-.55.08-.35.14a1.05,1.05,0,0,0-.32.49A.32.32,0,0,0,211.07,316Zm-.71-.13c0,.11.07.14.08.22.19,0,.36.09.4-.13A.52.52,0,0,0,210.36,315.88Zm18.72,3.56a3,3,0,0,1-1,1c0,.29-.05.65-.05.84a3,3,0,0,1,.71.18c0,.45-.43.4-.26.89-.67-.1-.47.86-1,.93-.28,0-.41-.22-.84-.13-.24.21-.32.57-.71.62.1.24,0,.35-.05.58a2,2,0,0,1,1.2.8c.72.18,1.36,0,2.18.13.17-.07.27-.21.45-.26,0-.19-.08-.28-.05-.49a1.45,1.45,0,0,0-.18-2.09v-.63c.44-.2.75-.52,1.21-.71,0-.08.09-.29-.09-.44-.3.12-.78.29-1,.13,0-.36.45-.56.53-.89a2.3,2.3,0,0,0-.13-1c0-.16.24-.12.26-.27-.27-.34-.85-.39-1.2-.66A3.82,3.82,0,0,0,229.08,319.44ZM217.47,321c.12-.16.46-.11.4-.45C217.53,320.4,217.15,320.85,217.47,321Zm10.06.22h.22c0-.18.07-.52,0-.67h-.18A1,1,0,0,0,227.53,321.26Zm-2,.05c-.2.37-.62.45-.36,1a1,1,0,0,1-.09.27c.14,0,.09.12.22.09C225.39,322.37,226.46,321.39,225.53,321.31Zm-8.59,2.22c.18-.06.67-.74.18-.85C216.89,322.78,216.86,323.39,216.94,323.53Zm3.56.18c.25-.08.49-.16.53-.45C220.82,322.81,220.2,323.4,220.5,323.71Zm-1,1.55c0,.09.05.1,0,.18a.87.87,0,0,0,.36,0C219.93,325.2,219.61,325.17,219.48,325.26Zm6.58.76a1.52,1.52,0,0,0-.49.71,1.21,1.21,0,0,0-.71.89,1.45,1.45,0,0,0-.67.71c.34.08.35.48.8.45.37-.36.41-1,.85-1.34a1.12,1.12,0,0,0,.75.05,2.84,2.84,0,0,0,.23-.62C226.59,326.55,226.44,326.18,226.06,326Z"/><path class="cls-3" d="M157.6,218.5a.45.45,0,0,1-.18.18c-.13-.08-.22-.21-.36-.05C156.92,218.35,157.43,218.31,157.6,218.5Z"/><path class="cls-3" d="M203.06,281c.05,0,0,.08,0,.22s-.14-.06-.13-.17S203.05,281,203.06,281Z"/><path class="cls-3" d="M208.62,284c-.1.06-.21.11-.18.31-.1-.07-.21-.12-.18-.31.2,0,.41-.16.54-.09,0,.19-.13.07-.22.22C208.42,284.11,208.7,284.15,208.62,284Z"/><path class="cls-3" d="M135.8,299.15c.17.07.36.33.31.49C136.08,299.42,135.65,299.4,135.8,299.15Z"/><path class="cls-3" d="M134.2,306.67c.13,0,.29.31.35.53-.08,0-.11.1-.22.09a1.48,1.48,0,0,1-.18-.93c.17,0,.26.07.27.22C134.31,306.57,134.28,306.65,134.2,306.67Z"/><path class="cls-3" d="M131.13,314.54s0,0,0,0c0,.19-.16-.47-.4-.58C131.13,313.59,131.3,314.35,131.13,314.54Z"/><path class="cls-3" d="M234.42,315c.32,0,.07.35.14.63-.12.13-.21,0-.32.13s.14.1.09.27C233.9,315.68,234.25,315.42,234.42,315Z"/><path class="cls-3" d="M237.4,317.21a.74.74,0,0,0,.31.49c0,.24-.17.27-.26.4.06.4.43.49.75.63,0,.18.08.21,0,.35-.53-.16-.71.25-1.15.18,0,.49.43.57.62.89a2.05,2.05,0,0,0-.18,1.51c-.17.17-.15.53-.4.62a1.28,1.28,0,0,0,.13.36c0,.17-.24.11-.26.27s.21.2.26.35-.18.2-.4.18a1.36,1.36,0,0,0-.66-.93c-.67.16-1-.23-.8-.85.11-.14.32-.18.31-.44.24-.21.61-.29.71-.67s-.1-.89.22-1.16c-.33-1.05.79-1.06.62-1.95C237,317.75,237.07,317.31,237.4,317.21Zm-.49,5.47c0-.12,0-.29,0-.35s-.26-.06-.27,0A.5.5,0,0,0,236.91,322.68Z"/><path class="cls-3" d="M112.22,315.08c.26.08.26.42.4.62.66.13,1.27.31,1.38,1a.65.65,0,0,0,.31.22c0,.19.09.39.13.58s.21,0,.36.09a.81.81,0,0,0,.27,1.07,5.66,5.66,0,0,0,.66-.23c0,.19.2.1.27.18s.08.2,0,.31c0,.14.14.18.22.27a1,1,0,0,0,.13,1.07c-.09.72.64,1,.4,1.6-.14,0-.14-.19-.26-.22,0,.2-.33.15-.45.26a3.36,3.36,0,0,0,.76,1.56c.12.06.22-.12.26,0,.27.54.81.8,1,1.38-.25.19-.6.23-.49.67-.23,0-.19-.29-.49-.23s-.09.21-.27.18c-.1-.22-.54-.22-.75-.09-.19-.15-.27-.42-.58-.44-.51-.66,0-1.54-.45-2.27-.5,0-.72-.16-1.07-.13-.08.1,0,.37-.08.49-.28,0-.32.22-.67.22-.19-.32.1-.59-.09-.85-.18,0-.08.22-.27.18s-.24-.38-.44-.49-.19,0-.22.09c-.27-.12-.13-.64-.45-.71.11-.2.38-.11.45.09a7.23,7.23,0,0,0,.66-.4c.29.08.43.54.67.53.26-.37-.08-.89.13-1.24,0-.13-.11.05-.22,0-.22-.47-.1-1-.49-1.29,0-.26.29-.27.4-.45-.2-.14-.55-.26-.44-.58-.45-.29-.36-.92-.76-1.2a.66.66,0,0,1,.31-.44C112.29,316,112,315.41,112.22,315.08Zm2.58,6.18c-.09-.06-.13-.17-.27-.18a.31.31,0,0,0,0,.23C114.63,321.31,114.71,321.41,114.8,321.26Zm0,.13c.1,0,.09.17.13.27.13-.05.3-.05.31-.22S114.81,321.22,114.76,321.39Zm0-.89a.25.25,0,0,0,.22,0c0-.17-.1-.17-.18-.22S114.72,320.37,114.76,320.5Zm.62,1.21c.22.23.28.64.49.89C115.74,322.19,115.76,321.68,115.38,321.71Z"/><path class="cls-3" d="M109,329.36c-.08,0-.1.07-.09.18-.19,0-.31-.16-.22-.32-.16,0-.1.29-.18.4-.28-.11-.32-.45-.31-.84.2,0,.25.19.31.36s.2,0,.31-.05c0,.32.56.31.35.71C109,329.75,109.15,329.43,109,329.36Z"/><path class="cls-3" d="M222.19,329.22c-.06-.15-.07,0-.09-.22C222.19,329.05,222.42,329.06,222.19,329.22Z"/><path class="cls-3" d="M108.88,330c.05,0,0,0,0,0,0,.14.13.09.09.23s0,.05,0,.09c-.17,0-.19,0-.31,0C108.65,329.94,108.72,330.17,108.88,330Z"/><path class="cls-3" d="M228.46,332.74c.11-.07.57.09.45.27C228.63,333.05,228.6,332.84,228.46,332.74Z"/><path class="cls-3" d="M196.92,273.22v-.14h.22c0,.08.06.1.05.18S197,273.22,196.92,273.22Z"/><path class="cls-3" d="M116.18,308.27c-.1-.25.18-.49.27-.71a.86.86,0,0,0,.62-.13,3.11,3.11,0,0,1,.4.22c.16,0,.13-.14.27-.14.5.2,0,1.08.62,1.16a.67.67,0,0,1-.09.45c-.14-.65-1-.6-1.25-1.11C116.66,308.29,116.43,308,116.18,308.27Z"/><path class="cls-3" d="M119,313.57c-.06.14-.24.17-.31.31a.36.36,0,0,0,.27.22,1.44,1.44,0,0,0,.26.8c.16,0,.18-.07.32,0,0,.39.29,1,0,1.2.12.3.63.65.84.35.27.06.38.17.58,0a.88.88,0,0,1,.35.8c-.08.07-.23.07-.26.18s.29.12.22.4c-.28.06-.31-.14-.36-.31-.32.1-.43-.26-.71-.18-.11.13.16.17.14.36s-.1.08-.18.09c.36.23.64.74,0,.93-.21,0-.06-.3-.31-.22s-.2.49-.18.62c.57.21,1.19.6,1.07,1.34-.19,0-.23-.21-.36-.09s0,.09-.08.09c.21.17.2.64.49.62a1.38,1.38,0,0,1-.14.53c-.28-.33-.59-.84-1.2-.71a.58.58,0,0,0-.27-.36c-.18.05-.43.26-.49,0,.08,0,.1.05.18,0,0-.51-.41-.78-.49-1.24-.22,0-.25.19-.35.31a.55.55,0,0,1-.09.76c-.14,0-.3-.18-.49-.14,0-.32,0-.42-.13-.58-.25,0-.11.37-.36.36.09-.5-.31-.44-.62-.58v-.53c.53-.34,0-1,0-1.51-.25.07-.31.34-.44.53a1.27,1.27,0,0,1-.67-.62c.09-.27.19-.53.53-.54a1.31,1.31,0,0,1,.49.58c.27-.06.37-.28.36-.62-.06-.15-.24-.18-.4-.22s.1-.22.18-.31c-.08-.54-.55-.67-.63-1.21-.36-.14-.48-.52-.8-.71a1,1,0,0,1,.18-.35c-.18-.33-.67-.34-.71-.8.19-.1.52,0,.62-.4.11,0,.16.1.22.17s.07-.08.14-.09c.06-.24-.12-.23-.14-.4.13-.13.05-.7-.13-1.15a4.07,4.07,0,0,1-.4-1.34c0-.05.18-.09.09-.18.32.14.59.17.8-.08-.15-.28-.56-.3-.53-.76a1.64,1.64,0,0,1,1.6.27,15.93,15.93,0,0,1,.8,1.42c.11.22.13.49.22.62.24.36.78.36.85.8C118.34,312.84,118.93,312.93,119,313.57Zm-3.34-2.85c0,.34.09.53.32.62.07-.15.18-.26.26-.4C116.08,310.67,115.91,310.41,115.64,310.72Zm1.34,6c.14,0,.16-.05.27-.05-.14-.21,0-.28.13-.4a3.64,3.64,0,0,0-.76-.48C116.59,316.11,116.9,316.31,117,316.68Zm2.31.4c0-.17-.15-.11-.09-.31H119C118.93,317,119.12,317.2,119.29,317.08Zm-2.22-.13c0,.22-.08.31,0,.53.28.21.35.1.76.18C117.85,317.26,117.58,316.76,117.07,317Zm2.22.66a.33.33,0,0,0,.23.36c.1-.06.13-.2.31-.18C119.84,317.36,119.5,317.43,119.29,317.61Z"/></g></g></svg>