<?xml version="1.0" encoding="utf-8"?>
<!-- Generator: Adobe Illustrator 16.0.0, SVG Export Plug-In . SVG Version: 6.00 Build 0)  -->
<!DOCTYPE svg PUBLIC "-//W3C//DTD SVG 1.1//EN" "http://www.w3.org/Graphics/SVG/1.1/DTD/svg11.dtd">
<svg version="1.1" id="Capa_1" xmlns="http://www.w3.org/2000/svg" xmlns:xlink="http://www.w3.org/1999/xlink" x="0px" y="0px"
	 width="230px" height="150px" viewBox="10 0 230 150" enable-background="new 10 0 230 150" xml:space="preserve">
<g>
	<g>
		<path fill="#E4428C" d="M115.323,103.414c0,0.939,0.416,1.408,1.258,1.408c0.726,0,1.527-0.326,2.406-0.982
			c0.875-0.658,1.662-1.523,2.368-2.595l0.431,0.225c-0.661,1.174-1.521,2.146-2.586,2.918c-1.058,0.768-2.064,1.153-3.009,1.153
			c-0.609,0-1.09-0.188-1.442-0.555c-0.353-0.374-0.532-0.886-0.532-1.529c0-0.932,0.321-1.727,0.963-2.385
			c0.641-0.662,1.412-0.99,2.316-0.99c0.434,0,0.781,0.102,1.043,0.31c0.265,0.21,0.394,0.489,0.394,0.836
			c0,0.574-0.367,1.085-1.089,1.528C117.109,103.196,116.274,103.414,115.323,103.414z M115.362,102.951
			c0.714-0.033,1.316-0.224,1.822-0.575c0.507-0.35,0.757-0.748,0.757-1.208c0-0.409-0.191-0.611-0.577-0.611
			c-0.463,0-0.886,0.23-1.271,0.696C115.703,101.723,115.458,102.289,115.362,102.951z"/>
		<path fill="#E4428C" d="M123.566,103.725c0.116,0.244,0.173,0.475,0.173,0.699c0,0.487-0.217,0.918-0.648,1.28
			c-0.434,0.364-0.941,0.549-1.519,0.549c-0.347,0-0.635-0.089-0.872-0.251c-0.246-0.169-0.367-0.367-0.367-0.601
			c0-0.25,0.169-0.503,0.502-0.76c0.327-0.257,0.877-0.563,1.648-0.915l-0.404-0.622c-0.496-0.749-0.737-1.342-0.737-1.764
			c0-0.607,0.369-1.099,1.123-1.474c0.456,0.168,0.686,0.381,0.686,0.634c0,0.357-0.294,0.703-0.872,1.031l0.572,1.011l0.456,0.781
			c0.647-0.366,1.127-0.681,1.456-0.941c0.335-0.263,0.746-0.662,1.245-1.208l0.411,0.233
			C125.685,102.329,124.737,103.103,123.566,103.725z M122.706,104.158c-0.994,0.507-1.494,0.9-1.494,1.177
			c0,0.264,0.199,0.397,0.604,0.397c0.294,0,0.537-0.096,0.723-0.289c0.187-0.19,0.283-0.439,0.283-0.738
			C122.823,104.524,122.785,104.345,122.706,104.158z"/>
		<path fill="#E4428C" d="M129.826,105.119l-0.37,1.779c-0.082,0.402-0.121,0.751-0.121,1.049c0,0.19,0.042,0.362,0.127,0.517
			c-0.342,0.104-0.598,0.157-0.776,0.157c-0.281,0-0.423-0.149-0.423-0.452c0-0.232,0.058-0.617,0.168-1.148l1.482-7.062
			c-0.295,0.057-0.541,0.086-0.744,0.086c-0.289,0-0.509-0.066-0.647-0.203c-0.144-0.131-0.259-0.375-0.341-0.744
			c0.25,0.162,0.62,0.239,1.128,0.239c0.624,0,1.224-0.11,1.801-0.329l-0.391,1.858c0.577-0.524,1.174-0.788,1.783-0.788
			c0.54,0,0.988,0.193,1.348,0.579c0.354,0.387,0.53,0.867,0.53,1.445c0,0.901-0.325,1.68-0.979,2.336
			c-0.663,0.652-1.443,0.979-2.347,0.979C130.56,105.418,130.155,105.316,129.826,105.119z M129.98,104.373
			c0.348,0.38,0.765,0.568,1.257,0.568c0.6,0,1.104-0.235,1.523-0.71c0.415-0.476,0.626-1.053,0.626-1.732
			c0-0.492-0.114-0.889-0.354-1.192c-0.235-0.306-0.545-0.457-0.922-0.457c-0.474,0-0.986,0.254-1.538,0.757L129.98,104.373z"/>
		<path fill="#E4428C" d="M139.732,102.482c-0.437,0.849-0.969,1.572-1.598,2.162c-0.633,0.599-1.188,0.896-1.66,0.896
			c-0.361,0-0.648-0.156-0.859-0.455c-0.219-0.308-0.321-0.707-0.321-1.213c0-1.002,0.321-1.888,0.962-2.651
			c0.643-0.76,1.38-1.142,2.219-1.142c0.514,0,1.065,0.148,1.663,0.451c0.091-0.301,0.45-0.449,1.077-0.449
			c0.04,0,0.104,0.002,0.201,0.004c-0.192,0.282-0.348,0.663-0.443,1.148l-0.09,0.405c-0.097,0.459-0.141,0.992-0.141,1.599
			c0,0.705,0.168,1.055,0.514,1.055c0.363,0,0.866-0.29,1.498-0.87c0.632-0.577,1.251-1.316,1.869-2.209l0.397,0.26
			c-0.63,1.058-1.34,1.94-2.148,2.65c-0.802,0.706-1.497,1.058-2.075,1.058c-0.728,0-1.09-0.576-1.09-1.731
			C139.706,103.21,139.715,102.888,139.732,102.482z M139.97,101.33c-0.705-0.44-1.303-0.658-1.771-0.658
			c-0.505,0-0.949,0.291-1.321,0.883c-0.37,0.586-0.555,1.286-0.555,2.093c0,0.648,0.217,0.971,0.666,0.971
			c0.482,0,1.411-1.007,2.776-3.02C139.779,101.57,139.848,101.48,139.97,101.33z"/>
		<path fill="#E4428C" d="M145.018,105.385c-0.235,0.1-0.423,0.156-0.556,0.156c-0.347,0-0.521-0.147-0.521-0.439
			c0-0.143,0.064-0.514,0.187-1.1l0.251-1.195c0.154-0.711,0.235-1.241,0.235-1.586c0-0.184-0.056-0.339-0.173-0.467
			c0.354-0.118,0.642-0.174,0.868-0.174c0.234,0,0.357,0.146,0.357,0.434c0,0.172-0.081,0.642-0.257,1.39l-0.282,1.398
			c0.636-1.177,1.275-2.089,1.924-2.747c0.651-0.648,1.233-0.976,1.759-0.976c0.187,0,0.354,0.048,0.486,0.147
			c0.136,0.105,0.201,0.225,0.201,0.37c0,0.225-0.256,0.521-0.77,0.895c-0.127-0.253-0.31-0.379-0.546-0.379
			c-0.432,0-0.978,0.43-1.645,1.295c-0.407,0.539-0.77,1.099-1.07,1.666c-0.311,0.575-0.457,0.984-0.457,1.229L145.018,105.385z"/>
		<path fill="#E4428C" d="M153.409,103.513c0.097,0.157,0.14,0.295,0.14,0.413c0,0.313-0.284,0.661-0.839,1.043
			c-0.56,0.377-1.073,0.569-1.527,0.569c-0.41,0-0.739-0.173-0.995-0.517c-0.25-0.343-0.378-0.786-0.378-1.329
			c0-0.6,0.169-1.457,0.501-2.573l0.237-0.807h-0.857c-0.36,0-0.641,0.051-0.86,0.147c0.198-0.341,0.359-0.556,0.489-0.64
			c0.125-0.086,0.347-0.127,0.65-0.127h0.764l0.102-0.337c0.156-0.49,0.343-0.831,0.56-1.019c0.217-0.184,0.539-0.276,0.975-0.276
			c0.046,0,0.129,0.005,0.247,0.011c-0.265,0.32-0.543,0.862-0.829,1.622h2.682c0.466,0,0.825-0.06,1.071-0.175
			c-0.085,0.326-0.192,0.543-0.333,0.646c-0.144,0.099-0.406,0.149-0.785,0.149h-2.849c-0.031,0.107-0.065,0.186-0.077,0.235
			c-0.411,1.323-0.614,2.32-0.614,2.995c0,0.742,0.282,1.114,0.847,1.114c0.287,0,0.608-0.115,0.955-0.349
			C153.024,104.073,153.267,103.808,153.409,103.513z"/>
		<path fill="#E4428C" d="M155.333,103.414c0,0.939,0.419,1.408,1.258,1.408c0.725,0,1.524-0.326,2.406-0.982
			c0.871-0.658,1.661-1.523,2.368-2.595l0.428,0.225c-0.661,1.174-1.52,2.146-2.586,2.918c-1.051,0.768-2.06,1.153-3.007,1.153
			c-0.609,0-1.09-0.188-1.444-0.555c-0.353-0.374-0.531-0.886-0.531-1.529c0-0.932,0.319-1.727,0.961-2.385
			c0.641-0.662,1.412-0.99,2.318-0.99c0.435,0,0.783,0.102,1.044,0.31c0.262,0.21,0.392,0.489,0.392,0.836
			c0,0.574-0.365,1.085-1.091,1.528C157.117,103.196,156.282,103.414,155.333,103.414z M155.373,102.951
			c0.708-0.033,1.314-0.224,1.821-0.575c0.504-0.35,0.753-0.748,0.753-1.208c0-0.409-0.19-0.611-0.576-0.611
			c-0.46,0-0.885,0.23-1.269,0.696C155.71,101.723,155.468,102.289,155.373,102.951z"/>
		<path fill="#E4428C" d="M168.529,102.601c-0.525,0.907-1.08,1.618-1.656,2.146c-0.577,0.527-1.092,0.792-1.548,0.792
			c-0.359,0-0.646-0.151-0.86-0.452c-0.209-0.297-0.321-0.7-0.321-1.205c0-1.012,0.321-1.899,0.957-2.664
			c0.637-0.757,1.374-1.138,2.213-1.138c0.506,0,1.054,0.149,1.652,0.454l0.546-2.592c-0.303,0.059-0.546,0.091-0.747,0.091
			c-0.293,0-0.514-0.067-0.646-0.202c-0.146-0.135-0.257-0.384-0.338-0.754c0.24,0.161,0.612,0.24,1.121,0.24
			c0.622,0,1.225-0.111,1.81-0.33l-1.112,5.274c-0.12,0.591-0.184,1.091-0.184,1.509c0,0.552,0.166,0.828,0.498,0.828
			c0.321,0,0.868-0.364,1.62-1.085c0.753-0.723,1.384-1.476,1.893-2.266l0.407,0.251c-0.594,1.046-1.347,1.98-2.251,2.804
			c-0.897,0.824-1.614,1.239-2.155,1.239c-0.679,0-1.026-0.519-1.026-1.561C168.399,103.552,168.441,103.093,168.529,102.601z
			 M168.795,101.33c-0.704-0.44-1.287-0.658-1.747-0.658c-0.508,0-0.952,0.293-1.316,0.887c-0.374,0.589-0.56,1.284-0.56,2.089
			c0,0.648,0.224,0.971,0.673,0.971c0.476,0,1.399-1.007,2.758-3.02C168.63,101.563,168.694,101.474,168.795,101.33z"/>
		<path fill="#E4428C" d="M173.622,103.414c0,0.939,0.422,1.408,1.256,1.408c0.732,0,1.529-0.326,2.405-0.982
			c0.872-0.658,1.668-1.523,2.369-2.595l0.433,0.225c-0.665,1.174-1.523,2.146-2.582,2.918c-1.059,0.768-2.066,1.153-3.016,1.153
			c-0.607,0-1.09-0.188-1.442-0.555c-0.354-0.374-0.528-0.886-0.528-1.529c0-0.932,0.321-1.727,0.956-2.385
			c0.644-0.662,1.412-0.99,2.317-0.99c0.438,0,0.786,0.102,1.048,0.31c0.262,0.21,0.39,0.489,0.39,0.836
			c0,0.574-0.359,1.085-1.091,1.528C175.403,103.196,174.568,103.414,173.622,103.414z M173.665,102.951
			c0.707-0.033,1.316-0.224,1.817-0.575c0.507-0.35,0.754-0.748,0.754-1.208c0-0.409-0.182-0.611-0.568-0.611
			c-0.471,0-0.891,0.23-1.275,0.696C174.001,101.723,173.757,102.289,173.665,102.951z"/>
		<path fill="#E4428C" d="M184.217,103.727c1.221-2.433,2.298-3.647,3.229-3.647c0.411,0,0.608,0.276,0.608,0.84
			c0,0.238-0.084,0.779-0.262,1.62l-0.304,1.459c0.591-1.181,1.207-2.13,1.854-2.848c0.642-0.714,1.191-1.071,1.662-1.071
			c0.512,0,0.77,0.286,0.77,0.852c0,0.209-0.078,0.674-0.23,1.41l-0.155,0.752c-0.095,0.449-0.142,0.785-0.142,1.002
			c0,0.385,0.142,0.58,0.432,0.58c0.648,0,1.642-1.148,2.989-3.432l0.423,0.229c-1.463,2.71-2.744,4.066-3.835,4.066
			c-0.705,0-1.052-0.437-1.052-1.303c0-0.289,0.063-0.749,0.204-1.39l0.143-0.663c0.087-0.45,0.14-0.728,0.14-0.837
			c0-0.139-0.076-0.207-0.225-0.207c-0.365,0-1.02,0.688-1.963,2.063c-0.854,1.252-1.281,1.97-1.281,2.147
			c0,0.021,0.004,0.057,0.017,0.102c-0.043,0.013-0.128,0.028-0.24,0.063c-0.056,0.017-0.131,0.026-0.23,0.026
			c-0.316,0-0.478-0.14-0.478-0.428c0-0.085,0.059-0.349,0.161-0.787c0.032-0.158,0.072-0.322,0.103-0.502l0.218-1.019
			c0.156-0.734,0.229-1.175,0.229-1.321c0-0.218-0.085-0.322-0.244-0.322c-0.365,0-0.904,0.619-1.615,1.86
			c-0.706,1.229-1.06,1.962-1.06,2.198c0,0.067,0.025,0.131,0.074,0.196c-0.181,0.079-0.353,0.118-0.503,0.118
			c-0.353,0-0.526-0.179-0.526-0.541c0-0.043,0.053-0.51,0.148-1.401l0.113-1.019c0.048-0.362,0.064-0.696,0.064-1.003
			c0-0.384-0.082-0.665-0.249-0.845c0.392-0.135,0.674-0.202,0.835-0.202c0.294,0,0.449,0.167,0.449,0.5
			c0,0.12-0.048,0.56-0.121,1.323L184.217,103.727z"/>
		<path fill="#E4428C" d="M199.874,101.48c-0.76,1.271-1.529,2.266-2.314,2.979c-0.776,0.721-1.482,1.078-2.103,1.078
			c-0.379,0-0.683-0.119-0.911-0.354c-0.231-0.231-0.35-0.541-0.35-0.923c0-0.145,0.033-0.376,0.097-0.687l0.118-0.534
			c0.166-0.764,0.252-1.297,0.252-1.604c0-0.184-0.066-0.33-0.182-0.447c0.443-0.096,0.721-0.141,0.827-0.141
			c0.251,0,0.379,0.166,0.379,0.498c0,0.248-0.053,0.6-0.148,1.062l-0.199,0.938c-0.097,0.451-0.147,0.743-0.147,0.879
			c0,0.396,0.179,0.598,0.532,0.598c0.424,0,0.987-0.339,1.695-1.013c0.698-0.676,1.379-1.529,2.037-2.566L199.874,101.48z
			 M195.367,99.057l0.07,0.008c0.225-0.01,0.55-0.121,0.975-0.326c0.432-0.208,0.758-0.418,1.002-0.634
			c-0.153,0.445-0.415,0.817-0.794,1.112c-0.573,0.456-0.962,0.684-1.163,0.684c-0.137,0-0.206-0.076-0.206-0.234
			C195.251,99.439,195.288,99.234,195.367,99.057z"/>
		<path fill="#E4428C" d="M203.776,105.546c0.075-0.279,0.117-0.521,0.117-0.732c0-0.788-0.182-1.665-0.533-2.621
			c-0.359-0.96-0.77-1.686-1.251-2.173c0.297-0.142,0.556-0.213,0.79-0.213c0.371,0,0.75,0.463,1.129,1.392
			c0.385,0.922,0.652,2.041,0.818,3.354c0.594-0.71,1.08-1.447,1.465-2.203c0.385-0.759,0.602-1.407,0.652-1.96
			c0.507,0.191,0.758,0.413,0.758,0.653c0,0.223-0.235,0.713-0.726,1.482c-0.48,0.771-1.007,1.501-1.578,2.186
			c-0.275,0.336-0.506,0.546-0.699,0.643C204.534,105.45,204.219,105.515,203.776,105.546z"/>
		<path fill="#E4428C" d="M214.373,101.48c-0.76,1.271-1.531,2.266-2.315,2.979c-0.782,0.721-1.481,1.078-2.103,1.078
			c-0.378,0-0.688-0.119-0.919-0.354c-0.229-0.231-0.347-0.541-0.347-0.923c0-0.145,0.031-0.376,0.101-0.687l0.113-0.534
			c0.165-0.764,0.252-1.297,0.252-1.604c0-0.184-0.061-0.33-0.177-0.447c0.438-0.096,0.721-0.141,0.828-0.141
			c0.251,0,0.373,0.166,0.373,0.498c0,0.248-0.047,0.6-0.15,1.062l-0.19,0.938c-0.104,0.451-0.148,0.743-0.148,0.879
			c0,0.396,0.174,0.598,0.532,0.598c0.423,0,0.982-0.339,1.69-1.013c0.695-0.676,1.384-1.529,2.036-2.566L214.373,101.48z
			 M209.865,99.057l0.064,0.008c0.231-0.01,0.556-0.121,0.979-0.326c0.426-0.208,0.759-0.418,0.995-0.634
			c-0.146,0.445-0.407,0.817-0.788,1.112c-0.577,0.456-0.961,0.684-1.17,0.684c-0.135,0-0.198-0.076-0.198-0.234
			C209.748,99.439,209.78,99.234,209.865,99.057z"/>
		<path fill="#E4428C" d="M217.428,102.601c-0.526,0.907-1.079,1.618-1.654,2.146c-0.577,0.527-1.092,0.792-1.541,0.792
			c-0.364,0-0.653-0.151-0.865-0.452c-0.214-0.297-0.32-0.7-0.32-1.205c0-1.012,0.32-1.899,0.957-2.664
			c0.635-0.757,1.372-1.138,2.213-1.138c0.505,0,1.053,0.149,1.646,0.454l0.548-2.592c-0.302,0.059-0.548,0.091-0.743,0.091
			c-0.297,0-0.515-0.067-0.647-0.202c-0.144-0.135-0.257-0.384-0.341-0.754c0.245,0.161,0.616,0.24,1.123,0.24
			c0.625,0,1.225-0.111,1.811-0.33l-1.104,5.274c-0.129,0.591-0.188,1.091-0.188,1.509c0,0.552,0.162,0.828,0.496,0.828
			c0.326,0,0.866-0.364,1.615-1.085c0.757-0.723,1.384-1.476,1.894-2.266l0.416,0.251c-0.603,1.046-1.355,1.98-2.256,2.804
			c-0.897,0.824-1.618,1.239-2.155,1.239c-0.683,0-1.025-0.519-1.025-1.561C217.301,103.552,217.343,103.093,217.428,102.601z
			 M217.696,101.33c-0.7-0.44-1.289-0.658-1.751-0.658c-0.503,0-0.949,0.293-1.317,0.887c-0.368,0.589-0.555,1.284-0.555,2.089
			c0,0.648,0.223,0.971,0.673,0.971c0.475,0,1.398-1.007,2.765-3.02C217.53,101.563,217.595,101.474,217.696,101.33z"/>
		<path fill="#E4428C" d="M225.848,102.482c-0.435,0.849-0.969,1.572-1.598,2.162c-0.632,0.599-1.186,0.896-1.657,0.896
			c-0.362,0-0.65-0.156-0.859-0.455c-0.22-0.308-0.323-0.707-0.323-1.213c0-1.002,0.323-1.888,0.963-2.651
			c0.641-0.76,1.379-1.142,2.22-1.142c0.513,0,1.063,0.148,1.661,0.451c0.091-0.301,0.448-0.449,1.078-0.449
			c0.039,0,0.104,0.002,0.201,0.004c-0.194,0.282-0.347,0.663-0.443,1.148l-0.092,0.405c-0.096,0.459-0.141,0.992-0.141,1.599
			c0,0.705,0.169,1.055,0.516,1.055c0.363,0,0.864-0.29,1.497-0.87c0.632-0.577,1.253-1.316,1.869-2.209l0.398,0.26
			c-0.631,1.058-1.342,1.94-2.15,2.65c-0.801,0.706-1.495,1.058-2.072,1.058c-0.723,0-1.092-0.576-1.092-1.731
			C225.822,103.21,225.832,102.888,225.848,102.482z M226.088,101.33c-0.705-0.44-1.303-0.658-1.772-0.658
			c-0.505,0-0.947,0.291-1.321,0.883c-0.37,0.586-0.557,1.286-0.557,2.093c0,0.648,0.225,0.971,0.668,0.971
			c0.481,0,1.413-1.007,2.776-3.02C225.895,101.57,225.966,101.48,226.088,101.33z"/>
	</g>
	<g>
		<path fill="#E4428C" d="M10.008,41.445h3.707v37.889c0,0,0,2.727,2.443,2.727c2.292,0,19.911,0,19.911,0v4.107H14.415
			c0,0-4.415-0.008-4.415-4.896C10,76.442,10.008,41.445,10.008,41.445L10.008,41.445L10.008,41.445z"/>
		<path fill="#E4428C" d="M15.125,41.445h3.695v32.493c0,0-0.263,2.522,2.143,2.516c11.905-0.012,15.089,0,15.089,0v4.063H17.296
			c0,0-2.188-0.168-2.171-2.412C15.141,76.514,15.125,41.445,15.125,41.445L15.125,41.445L15.125,41.445z"/>
		<path fill="#E4428C" d="M20.215,41.445h3.713l0.007,27.488c0,0-0.213,1.871,1.551,1.871c3.149,0,10.583,0,10.583,0l-0.018,4.08
			H21.797c0,0-1.583-0.315-1.583-2.211C20.215,70.938,20.215,41.445,20.215,41.445L20.215,41.445L20.215,41.445z"/>
		<path fill="#E4428C" d="M25.319,41.445h3.72v22.184c0,0-0.237,1.572,1.384,1.572c4.185,0,5.644,0,5.644,0v4.062H27.48
			c-1.531,0-2.161-0.464-2.161-2.027C25.319,65.532,25.319,41.445,25.319,41.445L25.319,41.445L25.319,41.445z"/>
		<path fill="#E4428C" d="M56.452,86.118h-3.71l0.021-37.889c0,0,0-2.727-2.447-2.727c-2.289,0-19.909-0.005-19.909-0.005v-4.119
			l21.656,0.015c0,0,4.412,0.012,4.412,4.896C56.468,51.119,56.452,86.118,56.452,86.118L56.452,86.118L56.452,86.118z"/>
		<path fill="#E4428C" d="M51.331,86.118h-3.695l0.011-32.493c0,0,0.258-2.526-2.147-2.516c-11.894,0.006-15.081-0.018-15.081-0.018
			l0.006-4.05l18.751,0.007c0,0,2.192,0.166,2.176,2.411C51.336,51.048,51.331,86.118,51.331,86.118L51.331,86.118L51.331,86.118z"
			/>
		<path fill="#E4428C" d="M46.244,86.118l-3.721-0.005l0.015-27.483c0,0,0.211-1.871-1.555-1.871
			c-3.153,0-10.583-0.006-10.583-0.006l0.021-4.082l14.253,0.006c0,0,1.586,0.318,1.586,2.21
			C46.257,56.625,46.244,86.118,46.244,86.118L46.244,86.118L46.244,86.118z"/>
		<path fill="#E4428C" d="M41.131,86.113h-3.714l0.016-22.182c0,0,0.23-1.575-1.388-1.575c-4.187,0-5.645,0-5.645,0v-4.061
			l8.589,0.005c1.535,0,2.165,0.462,2.165,2.02C41.152,62.03,41.131,86.113,41.131,86.113L41.131,86.113L41.131,86.113z"/>
		<polygon fill="#E4428C" points="94.084,50.671 97.876,50.671 97.876,54.933 94.084,54.933 		"/>
		<polygon fill="#E4428C" points="94.084,59.969 97.876,59.969 97.876,86.168 94.084,86.168 		"/>
		<polygon fill="#E4428C" points="228.483,50.624 232.284,50.624 232.284,86.168 228.483,86.168 		"/>
		<polygon fill="#E4428C" points="119.051,59.969 111.405,81.057 103.759,59.969 99.431,59.969 108.928,86.168 113.881,86.168 
			123.379,59.969 		"/>
		<path fill="#E4428C" d="M83.379,82.003c-1.277,0-2.245-1.128-2.245-2.532v-28.8h-3.797v29.479c0,3.313,2.39,5.993,5.415,5.993
			h9.954v-4.139L83.379,82.003L83.379,82.003z"/>
		<path fill="#E4428C" d="M155.348,64.191c-1.279,0-2.246,1.129-2.246,2.535v19.542h-3.798V66.034c0-3.301,2.391-5.986,5.412-5.986
			h3.992v4.144H155.348L155.348,64.191z"/>
		<path fill="#E4428C" d="M147.301,73.365V72.56c0-7.555-5.625-13.695-12.534-13.695c-6.908,0-12.521,6.14-12.521,13.695
			c0,7.55,5.613,13.692,12.521,13.692c5.832,0,10.808-4.283,12.177-10.446h-3.678c-1.262,3.948-4.661,6.604-8.499,6.604
			c-4.656,0-8.523-3.836-8.981-9.046L147.301,73.365L147.301,73.365z M126.196,69.514c1.266-4.152,4.747-6.811,8.569-6.811
			c3.826,0,7.301,2.66,8.563,6.811H126.196L126.196,69.514z"/>
		<path fill="#E4428C" d="M213.951,58.714c-4.549,0-8.545,2.63-10.778,6.578c-2.229-3.948-6.222-6.578-10.776-6.578
			s-8.542,2.63-10.77,6.578c-2.236-3.948-6.23-6.578-10.778-6.578c-6.997,0-12.669,6.199-12.669,13.846c0,0.306,0,22.493,0,22.493
			h3.832V82.467c2.278,2.429,5.394,3.93,8.837,3.93c4.548,0,8.542-2.629,10.778-6.576c2.228,3.947,6.215,6.576,10.77,6.576
			s8.548-2.629,10.776-6.576c2.233,3.947,6.229,6.576,10.778,6.576c6.997,0,12.663-6.195,12.663-13.838
			C226.613,64.914,220.948,58.714,213.951,58.714L213.951,58.714z M170.849,82.261c-4.893,0-8.876-4.353-8.876-9.701
			c0-5.353,3.983-9.708,8.876-9.708c4.885,0,8.868,4.354,8.868,9.708C179.717,77.907,175.733,82.261,170.849,82.261L170.849,82.261z
			 M192.396,82.261c-4.889,0-8.87-4.353-8.87-9.701c0-5.353,3.981-9.708,8.87-9.708c4.894,0,8.879,4.354,8.879,9.708
			C201.275,77.907,197.29,82.261,192.396,82.261L192.396,82.261z M213.951,82.261c-4.889,0-8.872-4.353-8.872-9.701
			c0-5.353,3.983-9.708,8.872-9.708c4.896,0,8.878,4.354,8.878,9.708C222.829,77.907,218.844,82.261,213.951,82.261L213.951,82.261z
			"/>
		<path fill="#E4428C" d="M236.965,56.849c-1.672,0-3.021-1.477-3.021-3.318c0-1.826,1.349-3.304,3.021-3.304
			c1.681,0,3.035,1.476,3.035,3.304C240,55.371,238.646,56.849,236.965,56.849L236.965,56.849z M236.965,50.778
			c-1.399,0-2.526,1.235-2.526,2.753c0,1.53,1.129,2.774,2.526,2.774c1.407,0,2.541-1.244,2.541-2.774
			C239.506,52.011,238.372,50.778,236.965,50.778L236.965,50.778z M235.646,51.808h1.436c0.81,0,1.079,0.555,1.079,0.939
			c0,0.577-0.371,0.991-0.932,1.025v0.021c0.283,0.104,0.486,0.405,0.758,0.883l0.398,0.695h-0.642l-0.288-0.557
			c-0.41-0.805-0.566-0.951-0.976-0.951h-0.309v1.508h-0.525V51.808L235.646,51.808z M236.929,53.364
			c0.403,0,0.674-0.169,0.674-0.542c0-0.321-0.239-0.526-0.578-0.526h-0.854v1.067H236.929L236.929,53.364z"/>
	</g>
	<path fill="#E4428C" d="M234.132,100.395c-0.821,0-1.488-0.727-1.488-1.631c0-0.898,0.669-1.627,1.488-1.627
		c0.828,0,1.494,0.729,1.494,1.627C235.625,99.668,234.96,100.395,234.132,100.395L234.132,100.395z M234.132,97.404
		c-0.687,0-1.238,0.609-1.238,1.36c0,0.749,0.552,1.36,1.238,1.36c0.693,0,1.25-0.611,1.25-1.36
		C235.38,98.015,234.824,97.404,234.132,97.404L234.132,97.404z M233.482,97.912h0.705c0.401,0,0.535,0.276,0.535,0.462
		c0,0.282-0.187,0.488-0.456,0.505v0.012c0.134,0.049,0.236,0.2,0.37,0.436l0.191,0.342h-0.313l-0.141-0.277
		c-0.205-0.395-0.284-0.467-0.481-0.467h-0.154v0.744h-0.256V97.912L233.482,97.912z M234.119,98.682
		c0.192,0,0.326-0.089,0.326-0.268c0-0.158-0.115-0.26-0.285-0.26h-0.422v0.527H234.119L234.119,98.682z"/>
</g>
</svg>
