<?xml version="1.0" standalone="no"?>
<!DOCTYPE svg PUBLIC "-//W3C//DTD SVG 1.1//EN" "http://www.w3.org/Graphics/SVG/1.1/DTD/svg11.dtd" >
<svg xmlns="http://www.w3.org/2000/svg" xmlns:xlink="http://www.w3.org/1999/xlink" version="1.1">
<metadata>
Created by FontForge 20170731 at Tue May  8 13:07:04 2007
 By Aleksey,,,
Copyright (c) 1992 Adobe Systems Incorporated.  All Rights Reserved.AG Book Rounded is a trademark of H. Berthold AG.
</metadata>
<defs>
<font id="AGBookRounded-Regular" horiz-adv-x="562" >
  <font-face 
    font-family="AG Book Rounded"
    font-weight="500"
    font-stretch="normal"
    units-per-em="1000"
    panose-1="0 0 0 0 0 0 0 0 0 0"
    ascent="800"
    descent="-200"
    x-height="518"
    cap-height="712"
    bbox="-82 -229 1114 915"
    underline-thickness="50"
    underline-position="-200"
    unicode-range="U+0020-FB02"
  />
<missing-glyph horiz-adv-x="292" 
 />
    <glyph glyph-name=".notdef" horiz-adv-x="292" 
 />
    <glyph glyph-name=".null" horiz-adv-x="0" 
 />
    <glyph glyph-name="nonmarkingreturn" horiz-adv-x="333" 
 />
    <glyph glyph-name="space" unicode=" " horiz-adv-x="292" 
 />
    <glyph glyph-name="exclam" unicode="!" horiz-adv-x="292" 
d="M215 665v-212l-20 -249q-3 -25 -29 -25q-25 0 -28 24l-22 251v211q0 47 50 47q49 0 49 -47zM106 54q0 27 16.5 44t44.5 17q26 0 43 -16t17 -44t-17 -44.5t-44 -16.5q-26 0 -43 16.5t-17 43.5z" />
    <glyph glyph-name="quotedbl" unicode="&#x22;" horiz-adv-x="375" 
d="M306 673v-172q0 -40 -37 -40q-39 0 -39 40v172q0 40 38 40t38 -40zM145 673v-172q0 -40 -37 -40q-39 0 -39 40v172q0 40 38 40t38 -40z" />
    <glyph glyph-name="dollar" unicode="$" horiz-adv-x="583" 
d="M329 625v-218q74 -25 112.5 -47t61.5 -54q32 -46 32 -110v-7q-4 -87 -65 -138q-52 -43 -142 -54v-73q-3 -30 -33 -30q-28 0 -31 30v73q-100 10 -158 67q-28 28 -46.5 64.5t-18.5 58.5q0 23 14.5 36t35.5 13q15 0 25 -7t13.5 -14.5t8.5 -20.5q33 -101 126 -114v246
q-34 11 -53.5 18.5t-49.5 24.5t-46.5 35t-29 48t-12.5 66q0 82 53 131t140 56v72q3 30 32 30q27 0 31 -30v-73q45 -3 81 -19.5t56 -37t33 -44.5t17.5 -39.5t4.5 -23.5q0 -20 -13.5 -31t-32.5 -11q-29 0 -41 29q-10 25 -17.5 39.5t-30.5 33t-57 25.5zM328 302v-223
q110 20 110 110q0 46 -28.5 71.5t-81.5 41.5zM265 429v197q-50 -6 -72 -35.5t-22 -63.5q0 -22 6.5 -37.5t22.5 -27t28.5 -17.5t36.5 -16z" />
    <glyph glyph-name="percent" unicode="%" horiz-adv-x="833" 
d="M340 479q0 -233 -164 -233q-86 0 -128 67q-34 55 -34 159q0 105 35 161q44 69 134 69q157 0 157 -223zM177 309q89 0 89 171q0 78 -20 115q-21 46 -66 46q-92 0 -92 -170q0 -162 89 -162zM820 226q0 -233 -165 -233q-85 0 -128 67q-34 56 -34 160t35 160q44 69 134 69
q158 0 158 -223zM657 56q89 0 89 171q0 76 -20 116q-22 45 -66 45q-93 0 -93 -170q0 -162 90 -162zM572 662l-257 -650q-9 -18 -25 -18q-13 0 -22.5 7.5t-9.5 17.5q0 1 3 13l257 650q7 18 24 18q14 0 23 -7.5t9 -17.5q0 -5 -2 -13z" />
    <glyph glyph-name="ampersand" unicode="&#x26;" horiz-adv-x="646" 
d="M446 61q-84 -64 -186 -64q-110 0 -165.5 61t-55.5 137q0 88 69 153q25 23 78 58q-62 83 -62 152q0 61 42.5 101.5t113.5 40.5q75 0 115 -43t40 -99q0 -29 -9 -52.5t-31.5 -46t-38.5 -35t-51 -37.5q17 -25 74 -100q41 -50 77 -98q29 45 45 108q3 15 6 22.5t12 15t23 7.5
q20 0 36 -12t16 -35q0 -25 -23 -76t-59 -97q22 -21 39 -31.5t26 -12.5t25 -3q35 -2 35 -38q0 -43 -58 -43q-34 0 -63 13t-41 24t-29 30zM393 122q-129 172 -160 217q-98 -63 -98 -137q0 -55 39 -88.5t96 -33.5q65 0 123 42zM257 454q36 26 50 37.5t27.5 31t13.5 39.5
q0 27 -18.5 44.5t-48.5 17.5q-27 0 -46 -18.5t-19 -47.5q0 -26 17 -62q10 -20 24 -42z" />
    <glyph glyph-name="quotesingle" unicode="'" horiz-adv-x="208" 
d="M142 673v-172q0 -40 -37 -40q-39 0 -39 40v172q0 40 38 40t38 -40z" />
    <glyph glyph-name="parenleft" unicode="(" horiz-adv-x="313" 
d="M304 686q0 -7 -6 -17q-25 -36 -40 -62t-38 -76t-35 -111.5t-12 -130.5q0 -107 31.5 -207t84.5 -175q22 -30 22 -41q0 -9 -7.5 -16.5t-18.5 -7.5q-13 0 -40 27q-79 79 -124 186t-45 229q0 81 20 151q33 118 110 213q49 64 69 64q11 0 20 -8t9 -18z" />
    <glyph glyph-name="parenright" unicode=")" horiz-adv-x="313" 
d="M9 -131q0 9 13 29q21 31 35 55t36 72.5t34 110t12 130.5q0 107 -31.5 207t-84.5 175q-22 30 -22 41q0 9 7.5 16t18.5 7q14 0 40 -26q79 -79 124 -186t45 -230q0 -81 -20 -151q-30 -112 -110 -212q-49 -64 -69 -64q-11 0 -19.5 8t-8.5 18z" />
    <glyph glyph-name="asterisk" unicode="*" horiz-adv-x="417" 
d="M261 395l-51 75l-52 -73q-14 -17 -29 -17q-14 0 -29.5 12t-15.5 29q0 7 9 23l52 70l-81 26q-26 12 -26 33q0 14 9.5 30t26.5 16q1 0 16 -3l79 -28l-2 86q3 38 40 38q17 0 27 -7.5t11.5 -14t2.5 -15.5v-85l79 25q15 3 16 3q16 0 26 -15t10 -31q0 -24 -28 -33l-78 -23
l55 -74q9 -14 9 -23q0 -16 -14 -28.5t-31 -12.5q-16 0 -31 17z" />
    <glyph glyph-name="comma" unicode="," horiz-adv-x="208" 
d="M96 -6q-21 -2 -34 8q-19 14 -19 44q0 26 15.5 43.5t41.5 17.5q21 0 38 -12q27 -21 27 -66q0 -61 -32.5 -117.5t-58.5 -56.5q-9 0 -16 9t-7 19q0 11 22 34q24 30 23 77z" />
    <glyph glyph-name="hyphen" unicode="-" horiz-adv-x="313" 
d="M65 372h182q8 0 15.5 -2t16 -12t8.5 -27q0 -20 -10.5 -31t-29.5 -11h-182q-8 0 -15.5 2t-16 12t-8.5 27t8.5 27.5t16 12.5t15.5 2z" />
    <glyph glyph-name="period" unicode="." horiz-adv-x="208" 
d="M48 50q0 25 15.5 41t41.5 16q24 0 40 -15t16 -42q0 -25 -16 -40.5t-41 -15.5q-24 0 -40 15t-16 41z" />
    <glyph glyph-name="slash" unicode="/" horiz-adv-x="354" 
d="M44 45l186 639q8 28 39 28q19 0 31 -10t12 -24q0 -11 -2 -16l-186 -639q-8 -29 -39 -29q-19 0 -31 10.5t-12 24.5q0 4 2 16z" />
    <glyph glyph-name="zero" unicode="0" 
d="M534 354q0 -25 -0.5 -43t-5.5 -59t-14 -71.5t-28 -68.5t-45 -63t-68 -42t-95 -17q-88 0 -146 48q-104 83 -104 308q0 161 55 250q68 109 206 109q94 0 150.5 -52t78.5 -140q16 -64 16 -159zM282 70q22 0 48 8q58 22 82.5 89.5t24.5 192.5q0 267 -151 267
q-161 0 -161 -286q0 -122 30 -187q39 -84 127 -84z" />
    <glyph glyph-name="one" unicode="1" 
d="M271 40v451h-133q-5 0 -6 0.5t-6 1t-7 2t-5.5 4.5t-5 6.5t-3 9.5t-1.5 14q0 16 7 21.5t22 8.5q66 9 101 34.5t55 77.5q7 17 13.5 23.5t22.5 6.5q18 0 27.5 -7.5t11 -13.5t2.5 -16v-624q-3 -46 -48 -46q-43 0 -47 46z" />
    <glyph glyph-name="two" unicode="2" 
d="M225 258l27 23q79 71 112 117.5t33 99.5q0 52 -31.5 88t-93.5 36t-102 -40q-13 -14 -20 -29t-9 -25t-5 -29q-3 -18 -5.5 -28t-14 -21t-29.5 -11q-9 0 -18 2.5t-20 14t-11 31.5q0 26 14 72t48 81q62 65 175 65q108 0 164 -57t56 -143q0 -85 -51.5 -154.5t-179.5 -172.5
q-27 -22 -108 -91h323q42 -3 42 -44q0 -39 -42 -43h-396q-48 0 -48 60q0 28 19 49q73 65 108 94q4 3 30.5 26.5t32.5 28.5z" />
    <glyph glyph-name="three" unicode="3" 
d="M390 370q58 -16 91.5 -60.5t33.5 -106.5q0 -91 -67.5 -152t-187.5 -61q-58 0 -104 16.5t-72 40.5t-43 54t-23 53.5t-6 41.5q0 14 5 22q13 20 47 20q13 0 21.5 -6.5t11.5 -13t8 -20.5q9 -28 16 -43.5t24 -38t46 -33t71 -10.5q76 0 116 38t40 94q0 30 -13 55q-15 30 -46 46
q-15 8 -33 12t-30 5t-49 2q-11 1 -17.5 2.5t-14.5 11.5t-8 28q0 23 11 31t27 10q51 2 65 4q42 8 63.5 36t21.5 65q0 44 -29.5 75.5t-87.5 31.5q-116 0 -140 -92q-6 -21 -9.5 -30t-13.5 -17t-27 -8q-21 0 -34.5 12t-13.5 34q0 25 21.5 66t50.5 66q62 54 165 54
q100 0 157.5 -54.5t57.5 -132.5q0 -52 -28.5 -93.5t-73.5 -54.5z" />
    <glyph glyph-name="four" unicode="4" 
d="M322 40v120h-260q-14 0 -22.5 2.5t-16.5 17t-8 40.5q0 28 11 43l308 421q12 17 38 17q45 0 45 -38v-423h69q40 0 40 -41q0 -40 -39 -40h-70v-119q0 -45 -48 -45q-19 0 -30.5 9t-14 18t-2.5 18zM111 240h211v179q0 91 9 145q-17 -42 -67 -111z" />
    <glyph glyph-name="five" unicode="5" 
d="M468 609h-278l-28 -185q60 44 141 44q94 0 160.5 -62.5t66.5 -171.5q0 -105 -65 -174.5t-183 -69.5q-99 0 -159 48q-33 27 -54 67t-21 63q0 20 16 31.5t37 11.5q30 0 47 -41q17 -47 40 -67q36 -31 96 -31q71 0 111 46t40 112q0 65 -38.5 110.5t-116.5 45.5
q-66 0 -118 -46q-18 -17 -27.5 -22t-24.5 -5q-30 0 -38.5 15.5t-5.5 31.5l42 294q3 21 14 30.5t33 9.5h313q41 0 41 -42q0 -43 -41 -43z" />
    <glyph glyph-name="six" unicode="6" 
d="M316 457q97 0 160.5 -62t63.5 -170t-67 -171.5t-169 -63.5q-54 0 -97 17q-163 66 -163 332q0 111 31 194q29 76 88.5 124t148.5 48q90 0 146 -48q25 -22 44 -56t19 -55q0 -19 -13.5 -30t-33.5 -11q-18 0 -27 9.5t-18 31.5q-7 16 -14 26.5t-20.5 24.5t-36 21.5t-52.5 7.5
q-26 0 -43 -5q-37 -11 -63.5 -41t-38 -61t-18 -71t-7 -57t-0.5 -33v-2q2 5 12 22q19 29 61 54t107 25zM445 223q0 71 -37.5 110.5t-102.5 39.5q-69 0 -107.5 -41.5t-38.5 -105.5q0 -68 41 -111t105 -43q61 0 100.5 41.5t39.5 109.5z" />
    <glyph glyph-name="seven" unicode="7" 
d="M93 695h383q6 -1 9 -1t10.5 -3t11.5 -7.5t7.5 -14.5t3.5 -23q0 -17 -5.5 -26.5t-29.5 -38.5q-54 -66 -78 -102q-61 -94 -99.5 -206t-53.5 -209q-3 -24 -6.5 -36t-15.5 -23t-34 -11q-51 0 -51 47q0 17 4 36q24 119 88.5 268t166.5 257h-311q-18 2 -23 5q-22 9 -22 41
q0 44 45 47z" />
    <glyph glyph-name="eight" unicode="8" 
d="M412 382q51 -21 77 -49q48 -53 48 -131q0 -91 -66.5 -151.5t-183.5 -60.5q-118 0 -190 57t-72 157q0 84 54 136q29 29 78 43q-18 8 -29.5 15t-30 23.5t-28.5 43t-10 61.5q0 45 19 81q52 98 205 98q99 0 158 -44q67 -50 67 -138q0 -68 -44 -110q-20 -19 -52 -31zM442 205
q0 43 -23 75q-41 56 -139 56q-80 0 -119.5 -39.5t-39.5 -92.5q0 -42 22 -72q42 -58 142 -58q51 0 86 16t48.5 41t18 41.5t4.5 32.5zM414 523q0 43 -32 72.5t-98 29.5q-36 0 -62.5 -9t-39.5 -21t-20.5 -28.5t-9 -26t-1.5 -18.5q0 -50 35.5 -77t96.5 -27q45 0 70 12
q61 27 61 93z" />
    <glyph glyph-name="nine" unicode="9" 
d="M429 340q-5 -13 -11 -21q-52 -81 -168 -81q-112 0 -169 69.5t-57 163.5q0 101 64.5 167.5t172.5 66.5q48 0 88 -13.5t66 -36.5t41.5 -43.5t26.5 -43.5q38 -83 38 -211q0 -135 -42 -223q-71 -144 -226 -144q-47 0 -86 14t-61 34t-37.5 43.5t-21 40t-5.5 24.5q0 18 14 31.5
t35 13.5q19 0 28 -9.5t19 -32.5q7 -14 13 -24t20 -24.5t36.5 -22.5t51.5 -8q40 0 70 17q56 30 81 115q9 29 14 63t5.5 54.5t-0.5 20.5zM260 322q70 0 108.5 43.5t38.5 105.5q0 63 -40 107.5t-106 44.5q-57 0 -99.5 -38t-42.5 -111q0 -68 37.5 -110t103.5 -42z" />
    <glyph glyph-name="colon" unicode=":" horiz-adv-x="250" 
d="M89 50q0 25 15.5 41t41.5 16q24 0 40 -15t16 -42q0 -25 -16 -40.5t-41 -15.5q-24 0 -40 15t-16 41zM89 421q0 24 15.5 40t41.5 16q24 0 40 -15t16 -41t-16 -41.5t-41 -15.5q-24 0 -40 15.5t-16 41.5z" />
    <glyph glyph-name="semicolon" unicode=";" horiz-adv-x="250" 
d="M138 -6q-21 -2 -34 8q-19 14 -19 44q0 26 15.5 43.5t41.5 17.5q21 0 38 -12q27 -21 27 -66q0 -61 -32.5 -117.5t-58.5 -56.5q-9 0 -16 9t-7 19q0 11 22 34q24 30 23 77zM86 421q0 24 15.5 40t41.5 16q24 0 40 -15t16 -41t-16 -41.5t-41 -15.5q-24 0 -40 15.5t-16 41.5z
" />
    <glyph glyph-name="question" unicode="?" horiz-adv-x="479" 
d="M384 384l-47 -40q-41 -34 -52 -53t-14 -59q-1 -14 -2 -20t-5 -16t-13 -14t-24 -4q-40 0 -43 41q0 72 11 101t51 62l37 30q24 19 38 33t29 40.5t15 55.5q0 43 -28.5 69.5t-77.5 26.5q-86 0 -102 -78q-3 -15 -5 -21t-7 -14t-13.5 -11t-21.5 -3q-8 0 -16.5 2t-18 13t-9.5 29
q0 12 4 29t16.5 41.5t32.5 44t56.5 34t82.5 14.5q88 0 144 -50.5t56 -132.5q0 -37 -12.5 -67.5t-25 -45.5t-36.5 -37zM168 54q0 27 16.5 44t44.5 17q26 0 43 -16t17 -44t-17 -44.5t-44 -16.5q-26 0 -43 16.5t-17 43.5z" />
    <glyph glyph-name="A" unicode="A" horiz-adv-x="604" 
d="M357 681l234 -627l3 -18q0 -19 -14 -30.5t-34 -11.5q-30 0 -41 29l-70 191h-266l-68 -191q-9 -29 -41 -29q-24 0 -37 13.5t-13 29.5q0 5 4 17l231 627q6 17 17.5 24t39.5 7q27 0 38 -7.5t17 -23.5zM198 295h207l-104 285z" />
    <glyph glyph-name="B" unicode="B" horiz-adv-x="646" 
d="M125 706h162q138 0 185 -17q103 -37 103 -159q0 -54 -24 -92q-31 -49 -87 -62q65 -11 99.5 -58t34.5 -115q0 -123 -98 -173q-61 -30 -192 -30h-183q-15 0 -25.5 4.5t-14.5 13t-5 14.5t-2 15v612q1 26 12 36.5t35 10.5zM173 331v-247h122q47 0 88 4q120 13 120 120
q0 45 -18 69q-29 38 -63 46t-147 8h-102zM173 623v-209h114q69 0 100.5 4t51.5 17q42 25 42 84q0 68 -59 92q-29 12 -143 12h-106z" />
    <glyph glyph-name="C" unicode="C" horiz-adv-x="708" 
d="M383 71q144 0 201 124q10 24 19.5 34.5t29.5 10.5q16 0 33.5 -9.5t17.5 -28.5q0 -31 -36 -85q-85 -127 -265 -127q-169 0 -254 101q-78 94 -78 257q0 172 86 270q88 99 243 99q162 0 241 -95q20 -23 37 -58.5t17 -58.5q0 -18 -16 -29.5t-35 -11.5q-12 0 -20.5 5.5
t-12.5 12t-12 23.5q-34 75 -82.5 101t-115.5 26q-89 0 -145 -49q-84 -75 -84 -235q0 -121 52 -192q62 -85 179 -85z" />
    <glyph glyph-name="D" unicode="D" horiz-adv-x="708" 
d="M284 0h-159q-47 0 -47 47v613q0 47 47 47h181q88 0 151.5 -16t113.5 -69q86 -91 86 -261q0 -183 -91 -276q-29 -29 -64.5 -47.5t-76.5 -26t-70 -9.5t-71 -2zM173 623v-539h71q50 0 76.5 1t62 6t56.5 15t43.5 29t38.5 47q40 68 40 179q0 98 -36 162q-17 30 -39.5 50
t-49 29.5t-46.5 13.5t-47 6q-17 1 -84 1h-86z" />
    <glyph glyph-name="E" unicode="E" horiz-adv-x="604" 
d="M513 619h-340v-216h323q41 0 41 -42q0 -17 -8.5 -27t-16 -12t-16.5 -2h-323v-235h357q41 0 41 -42q0 -43 -41 -43h-405q-45 0 -47 47v612q2 24 12 35.5t35 11.5h388q43 0 43 -44q0 -43 -43 -43z" />
    <glyph glyph-name="F" unicode="F" horiz-adv-x="542" 
d="M496 620h-322v-215h293q8 0 15.5 -2t16 -12.5t8.5 -27.5t-8.5 -27t-16 -12t-15.5 -2h-293v-282q0 -9 -3 -18t-14.5 -18t-30.5 -9q-15 0 -25 5q-23 12 -23 40v620q0 47 47 47h371q42 0 42 -44q0 -18 -8.5 -28.5t-16.5 -12.5t-17 -2z" />
    <glyph glyph-name="G" unicode="G" horiz-adv-x="750" 
d="M678 318v-288q0 -36 -40 -36q-17 0 -26.5 6.5t-11.5 12.5t-3 16q0 34 -3 64q-27 -40 -64 -63q-68 -41 -161 -41q-105 0 -175 48q-70 47 -106.5 129.5t-36.5 182.5q0 70 18 133t55.5 117t104.5 86t155 32q49 0 88 -9q91 -21 146 -85q20 -25 37 -60t17 -58q0 -18 -16 -29.5
t-35 -11.5q-23 0 -38 27q-11 22 -15 32q-56 110 -184 110q-60 0 -103 -20q-39 -18 -66.5 -50.5t-40 -71.5t-17.5 -73t-5 -69q0 -128 62.5 -202.5t169.5 -74.5q86 0 143 53q58 55 68 158h-183q-40 0 -40 39q0 43 40 43h219q22 0 35 -15q12 -12 12 -32z" />
    <glyph glyph-name="H" unicode="H" horiz-adv-x="708" 
d="M536 40v279h-365v-279q0 -46 -47 -46q-12 0 -23 6q-23 12 -23 40v627q0 46 47 46q12 0 24 -6q22 -12 22 -40v-265h365v265q2 16 5 23q11 23 42 23q47 0 47 -46v-627q0 -11 -5 -23q-10 -23 -42 -23q-19 0 -30.5 9.5t-14 18.5t-2.5 18z" />
    <glyph glyph-name="I" unicode="I" horiz-adv-x="250" 
d="M172 666v-626q0 -46 -47 -46q-20 0 -33.5 12t-13.5 34v626q0 10 2.5 18.5t14 18t30.5 9.5q47 0 47 -46z" />
    <glyph glyph-name="J" unicode="J" horiz-adv-x="479" 
d="M306 249v418q0 9 2.5 18t14 18t31.5 9q47 0 47 -45v-445q0 -46 -1.5 -69.5t-13 -56.5t-34.5 -58q-44 -47 -133 -47q-100 0 -148 59q-22 27 -33.5 64.5t-11.5 64.5q0 21 5 26q11 24 41 24t41 -34q6 -30 7 -36q16 -84 96 -84q78 0 88 77q2 17 2 97z" />
    <glyph glyph-name="K" unicode="K" horiz-adv-x="625" 
d="M173 667v-317l344 348q12 14 31 14q20 0 34 -13.5t14 -30.5q0 -16 -14 -30l-227 -225l269 -341q11 -14 11 -28q0 -20 -15 -35t-37 -15q-24 0 -40 20l-257 333l-114 -111v-196q0 -46 -47 -46q-19 0 -30.5 9.5t-14 18t-2.5 18.5v627q0 45 47 45q48 0 48 -45z" />
    <glyph glyph-name="L" unicode="L" horiz-adv-x="542" 
d="M174 667v-580h332q42 0 42 -43q0 -44 -42 -44h-381q-13 0 -22.5 2.5t-17 13.5t-7.5 31v620q0 9 2.5 18t14 18t31.5 9q48 0 48 -45z" />
    <glyph glyph-name="M" unicode="M" horiz-adv-x="833" 
d="M756 665v-627q0 -44 -46 -44q-47 0 -47 44l4 415q0 69 5 106q4 22 5 32q-3 -12 -11 -38q-14 -49 -51 -143l-156 -393q-9 -23 -44 -23q-33 0 -42 23l-160 406q-41 113 -57 175q6 -48 8 -135l6 -425q0 -44 -45 -44q-47 0 -47 43v628q0 20 12 33q15 15 54 15q31 0 44 -8
t18 -23l192 -493q13 -34 20 -65q8 31 21 65l190 493q4 10 8.5 15.5t18 10.5t35.5 5q39 0 52 -13.5t13 -34.5z" />
    <glyph glyph-name="N" unicode="N" horiz-adv-x="708" 
d="M630 669v-630q0 -45 -53 -45q-34 0 -47 21l-282 420q-39 57 -74 119q-1 2 -4 7t-4 8q0 -3 0.5 -10t0.5 -11q3 -30 3 -93l2 -417q0 -44 -46 -44q-48 0 -48 44v627q0 21 8 30q14 18 51 18q31 0 46 -22l297 -442q42 -61 67 -121q-4 42 -5 91q0 13 -1 41t-1 41l-2 368
q0 43 47 43q45 0 45 -43z" />
    <glyph glyph-name="O" unicode="O" horiz-adv-x="771" 
d="M386 717q98 0 176 -44q158 -93 158 -315q0 -53 -10 -100q-24 -117 -110.5 -192.5t-211.5 -75.5q-148 0 -242.5 95t-94.5 268q0 169 96 266.5t239 97.5zM620 362q0 127 -66.5 200t-168.5 73t-168 -75.5t-66 -201.5q0 -134 64 -209.5t169 -75.5q63 0 111 26.5t74 70
t38.5 92t12.5 100.5z" />
    <glyph glyph-name="P" unicode="P" horiz-adv-x="604" 
d="M334 284h-160v-245q0 -45 -47 -45q-49 0 -49 45v621q0 25 10.5 36t36.5 11h190q98 0 146 -18q58 -22 89 -73t31 -120q0 -32 -6 -59q-14 -65 -60 -104q-38 -32 -79 -40.5t-102 -8.5zM174 623v-254h124q64 -1 92.5 3.5t49.5 19.5q46 32 46 104q0 44 -21 75
q-17 24 -52.5 36.5t-60.5 14t-67 1.5h-111z" />
    <glyph glyph-name="Q" unicode="Q" horiz-adv-x="771" 
d="M650 -18l-69 68q-80 -60 -196 -60q-152 0 -242.5 98t-90.5 264q0 106 39 187q38 76 112.5 127t181.5 51q152 0 243 -98t91 -267q0 -60 -12 -109q-18 -72 -62 -131l67 -68q13 -15 13 -29q0 -17 -14.5 -31.5t-31.5 -14.5q-12 0 -29 13zM534 225l43 -45q43 78 43 181
q0 126 -65.5 200.5t-169.5 74.5q-101 0 -167.5 -75.5t-66.5 -206.5q0 -125 62 -203.5t173 -78.5q68 0 131 41l-47 48q-9 9 -9 21q0 17 16.5 34t35.5 17q8 0 21 -8z" />
    <glyph glyph-name="R" unicode="R" horiz-adv-x="667" 
d="M288 294h-117v-255q0 -11 -5 -23q-11 -22 -41 -22q-19 0 -30.5 9t-14 18t-2.5 18v621q0 23 11 35t36 12h218q137 0 195 -48q64 -51 64 -154q0 -94 -67 -143q-26 -19 -63 -27q55 -5 82 -46q19 -29 29 -96l6 -40q11 -60 12 -67q6 -28 6 -44q0 -49 -45 -49q-37 0 -54 57
q-10 35 -20 112q-6 39 -14.5 62.5t-20 38.5t-37.5 21.5t-51.5 8t-76.5 1.5zM171 624v-250h141q80 0 110 7q37 9 60 39t23 80q0 51 -24 80q-25 29 -69.5 36.5t-134.5 7.5h-106z" />
    <glyph glyph-name="S" unicode="S" horiz-adv-x="625" 
d="M282 432l91 -27q40 -11 64.5 -21.5t59 -33.5t52.5 -61t18 -91q0 -46 -16 -82.5t-41.5 -59.5t-60.5 -38t-70 -21.5t-72 -6.5q-122 0 -192 56q-41 33 -60.5 77t-19.5 67q0 26 19 36.5t38 10.5q32 0 40 -29q15 -55 34 -78q12 -14 26 -24q46 -33 124 -33q75 0 113 29
q43 33 43 87q0 48 -37 78q-28 24 -126 53l-75 21q-53 16 -80 28q-88 40 -88 148q0 91 61.5 145.5t178.5 54.5t181 -54q29 -24 48.5 -60t19.5 -58t-14.5 -34t-35.5 -12t-32 17q-1 2 -4.5 8.5t-7.5 15t-5 10.5q-8 15 -15 25.5t-24.5 27t-46.5 25.5t-68 9q-61 0 -96 -25
q-42 -29 -42 -84q0 -39 25 -59q20 -16 93 -37z" />
    <glyph glyph-name="T" unicode="T" horiz-adv-x="542" 
d="M319 621v-581q-3 -46 -48 -46q-47 0 -47 46v581h-177q-41 0 -41 43q0 17 8.5 27.5t16.5 12.5t16 2h447q12 0 20 -4q21 -12 21 -39q0 -17 -8.5 -27.5t-16.5 -12.5t-16 -2h-175z" />
    <glyph glyph-name="U" unicode="U" horiz-adv-x="688" 
d="M609 666v-380q0 -109 -21 -167q-17 -46 -56.5 -76t-85 -41.5t-96.5 -11.5q-152 0 -220 84q-32 37 -42 86.5t-10 118.5v388q0 45 48 45q20 0 31.5 -9t14 -18t2.5 -18v-301q0 -101 4.5 -144t23.5 -79q40 -65 145 -65q57 0 96 22q49 26 61 71t12 140v355q2 29 23 40
q11 6 23 6q20 0 33.5 -12.5t13.5 -33.5z" />
    <glyph glyph-name="V" unicode="V" horiz-adv-x="583" 
d="M580 650l-232 -626q-12 -30 -54 -30q-43 0 -54 30l-236 624q-4 14 -4 22q0 18 15 30t37 12q31 0 43 -31l166 -449q19 -49 34 -106q23 78 53 162l144 394q12 30 42 30q18 0 33.5 -11t15.5 -31q0 -13 -3 -20z" />
    <glyph glyph-name="W" unicode="W" horiz-adv-x="917" 
d="M915 656l-193 -629q-9 -33 -54 -33t-55 33l-120 404q-22 70 -35 156q-10 -77 -31 -153l-111 -405q-3 -10 -6.5 -16.5t-16 -12.5t-33.5 -6q-20 0 -32 6t-15.5 11.5t-6.5 15.5l-203 627q-3 9 -3 18q0 16 14 28t35 12q34 0 44 -31l134 -424q26 -84 31 -132q9 39 12 51
q1 3 3.5 12t4.5 17t2 10l125 463q9 35 54 35t54 -34l128 -443q14 -47 24 -106q2 6 17.5 60t18.5 65l127 426q10 31 41 31q19 0 33.5 -11.5t14.5 -28.5q0 -6 -2 -16z" />
    <glyph glyph-name="X" unicode="X" horiz-adv-x="583" 
d="M541 638l-195 -268l218 -302q10 -13 10 -27q0 -19 -15.5 -33t-34.5 -14q-22 0 -37 21l-179 255q-10 15 -17 27q-1 -2 -3.5 -5.5t-5.5 -8l-7 -10.5l-177 -257q-15 -22 -39 -22q-21 0 -35 14.5t-14 34.5q0 13 9 27l212 298l-193 269q-10 13 -10 29q0 20 16.5 33t34.5 13
q24 0 38 -21l157 -226q6 -9 15 -24q1 2 2.5 4t2.5 4q15 24 26 40l144 203q15 21 35 21t36 -13.5t16 -33.5q0 -13 -10 -28z" />
    <glyph glyph-name="Y" unicode="Y" 
d="M325 285v-246q0 -9 -2.5 -18t-14 -18t-30.5 -9q-11 0 -23 5q-21 10 -23 40v246l-224 356q-8 14 -8 27q0 19 16 31.5t33 12.5q28 0 41 -22l145 -230q26 -39 48 -86q14 30 31 58l161 258q14 22 38 22q18 0 34 -13t16 -32q0 -13 -9 -26z" />
    <glyph glyph-name="Z" unicode="Z" horiz-adv-x="604" 
d="M582 626l-442 -542h395q41 0 41 -42t-41 -42h-468q-24 0 -34 10q-17 14 -17 46q0 23 14 40l433 525h-361q-42 0 -42 43q0 10 5 22q11 21 37 21h453q38 0 38 -44q0 -24 -11 -37z" />
    <glyph glyph-name="bracketleft" unicode="[" horiz-adv-x="333" 
d="M193 634v-711h86q36 0 36 -38q0 -37 -36 -37h-134q-47 0 -47 47v764q0 47 47 47h137q35 0 35 -36t-35 -36h-89z" />
    <glyph glyph-name="bracketright" unicode="]" horiz-adv-x="333" 
d="M52 -79h89v711h-86q-36 0 -36 38q0 37 36 37h134q23 0 35 -10t12 -37v-764q0 -47 -47 -47h-137q-35 0 -35 36t35 36z" />
    <glyph glyph-name="underscore" unicode="_" horiz-adv-x="500" 
d="M510 -75v-50h-520v50h520z" />
    <glyph glyph-name="grave" unicode="`" horiz-adv-x="292" 
d="M175 712l30 -90q2 -8 2 -12q0 -12 -11 -20.5t-24 -8.5q-16 0 -26 15l-53 78q-8 18 -8 26q0 18 16.5 30t35.5 12q12 0 20 -5.5t11 -10t7 -14.5z" />
    <glyph glyph-name="a" unicode="a" horiz-adv-x="521" 
d="M451 334v-300q-4 -40 -40 -40q-30 2 -38 22q-4 11 -4 48q-58 -74 -161 -74q-77 0 -122.5 43.5t-45.5 115.5q0 34 11.5 60t25.5 40.5t39 25.5t38.5 14.5t37.5 8.5l85 18q50 10 61 14q16 5 22 13t6 26q0 85 -104 85q-40 0 -65.5 -13.5t-32 -25t-13.5 -31.5q-2 -9 -4.5 -15
t-12 -11.5t-25.5 -5.5q-47 0 -47 39q0 24 21 58q52 79 179 79q109 0 155 -54q16 -19 24 -45t9 -44t1 -51zM298 249l-52 -12q-29 -5 -51 -13q-60 -20 -60 -76q0 -39 26.5 -61t66.5 -22q70 0 110 53q18 24 22.5 56.5t5.5 93.5q-21 -9 -68 -19z" />
    <glyph glyph-name="b" unicode="b" horiz-adv-x="583" 
d="M159 667v-214q57 75 163 75q51 0 90.5 -18.5t63 -46t38.5 -65t20 -71.5t5 -69q0 -125 -61 -197t-162 -72q-40 0 -73 11.5t-48.5 23.5t-35.5 32q0 -32 -5 -41q-12 -21 -39 -21q-15 0 -24 5q-22 12 -22 39v629q0 11 5 23q11 22 40 22q11 0 23 -5q22 -12 22 -40zM443 257
q0 195 -137 195q-38 0 -69 -16q-79 -43 -79 -175q0 -34 6.5 -65t21 -62.5t45 -50.5t72.5 -19q35 0 62 13q78 38 78 180z" />
    <glyph glyph-name="c" unicode="c" horiz-adv-x="521" 
d="M287 68q32 0 56 8.5t39.5 26t21.5 27.5t15 29q14 39 43 39q15 0 31.5 -9.5t16.5 -32.5q0 -25 -21 -60q-61 -106 -204 -106q-53 0 -95 16t-68.5 42.5t-44.5 62.5t-25.5 73t-7.5 76q0 65 18 116q54 152 228 152q132 0 189 -93q21 -33 21 -52t-14 -31.5t-35 -12.5
q-13 0 -22.5 6.5t-14 13.5t-11.5 22q-35 71 -116 71q-74 0 -110.5 -54t-36.5 -134q0 -36 6.5 -67.5t21.5 -62t45.5 -48.5t73.5 -18z" />
    <glyph glyph-name="d" unicode="d" horiz-adv-x="583" 
d="M514 667v-629q0 -44 -45 -44q-29 0 -40 23q-4 10 -3 45q-19 -23 -42 -39q-50 -33 -118 -33q-111 0 -166.5 78t-55.5 194q0 50 11.5 95.5t36 84.5t68 62.5t100.5 23.5q106 0 165 -77v216q0 11 5 23q11 22 39 22q13 0 23 -5q22 -12 22 -40zM426 258q0 81 -30 129
q-38 63 -119 63q-107 0 -132 -123q-6 -35 -6 -69q0 -192 139 -192q41 0 68 15q80 41 80 177z" />
    <glyph glyph-name="e" unicode="e" 
d="M474 234h-336q3 -74 39 -118q40 -49 115 -49q36 0 63.5 13t38 24.5t23.5 31.5q10 17 14 22.5t11 10t18 4.5q19 0 35.5 -11t16.5 -31q0 -7 -1 -10q-5 -23 -32 -53q-69 -78 -187 -78q-119 0 -182 70q-66 75 -66 195q0 50 14 96.5t42 87t77 65t112 24.5q36 0 65 -7
q73 -18 115 -75q50 -70 50 -167q0 -45 -45 -45zM139 309h286q-3 57 -36 98t-99 41q-60 0 -97 -33q-38 -33 -54 -106z" />
    <glyph glyph-name="f" unicode="f" horiz-adv-x="292" 
d="M168 440v-401q0 -27 -22 -40q-12 -5 -25 -5q-10 0 -23 5q-20 11 -22 40v401h-51q-38 0 -38 39t38 39h51q0 64 2.5 88t14.5 45q33 62 135 62q52 0 52 -39q0 -36 -45 -39q-39 -3 -51 -13t-14.5 -26.5t-2.5 -77.5h74q38 0 38 -39q0 -23 -12.5 -31t-25.5 -8h-73z" />
    <glyph glyph-name="g" unicode="g" 
d="M493 485v-417q0 -83 -11.5 -127.5t-41.5 -71.5q-54 -49 -164 -49q-95 0 -146 38q-25 18 -42 46t-17 49t15 32.5t33 11.5q14 0 24 -7t14 -13t10 -18q13 -26 20 -34q25 -28 95 -28q34 0 58.5 9t36.5 21t19 34.5t8.5 38t2.5 42.5l1 46q-17 -20 -30 -31.5t-46 -25t-75 -13.5
q-106 0 -159.5 70t-53.5 177q0 54 13 103q22 76 76.5 118t134.5 42q46 0 82 -15q40 -18 62 -54q1 38 5 46q10 18 35 18q41 0 41 -38zM409 279q0 15 -1 28.5t-8 42t-19.5 48t-39 35.5t-63.5 16q-70 0 -108 -54q-32 -47 -32 -123q0 -83 32 -126q35 -49 100 -49q34 0 63.5 15
t46.5 40q29 42 29 127z" />
    <glyph glyph-name="h" unicode="h" 
d="M162 667v-208q52 69 159 69q96 0 140 -60q32 -45 32 -151v-278q0 -12 -5 -22q-10 -23 -41 -23q-46 0 -46 45v250q0 84 -14 112q-24 44 -85 44q-63 0 -103 -42q-24 -26 -31 -55t-7 -73v-236q0 -12 -5 -22q-10 -23 -41 -23q-46 0 -46 45v627q0 46 46 46q19 0 30.5 -9.5
t14 -18t2.5 -17.5z" />
    <glyph glyph-name="i" unicode="i" horiz-adv-x="229" 
d="M160 480v-441q0 -12 -5 -22q-10 -23 -40 -23q-21 0 -33.5 12t-12.5 33v441q0 9 2 17.5t13 17.5t30 9t30 -9t13.5 -17.5t2.5 -17.5zM58 655q0 26 16 41.5t40 15.5q23 0 39.5 -15.5t16.5 -41.5q0 -25 -15 -40t-41 -15t-41 15.5t-15 39.5z" />
    <glyph glyph-name="j" unicode="j" horiz-adv-x="229" 
d="M160 482v-478q0 -67 -6 -96.5t-31 -53.5q-40 -39 -112 -39q-49 0 -49 38q0 36 35 42q52 10 62 29t10 102v456q0 42 45 42q46 0 46 -42zM58 655q0 26 16 41.5t40 15.5q23 0 39.5 -15.5t16.5 -41.5q0 -25 -15 -40t-41 -15t-41 15.5t-15 39.5z" />
    <glyph glyph-name="k" unicode="k" horiz-adv-x="479" 
d="M160 667v-376q70 75 76 81l130 138q12 14 28 14q20 0 31.5 -13t11.5 -28q0 -17 -12 -29l-138 -144l169 -242q9 -12 9 -27q0 -21 -15.5 -34t-34.5 -13q-23 0 -36 21l-157 230l-63 -64v-144q0 -43 -44 -43q-46 0 -46 43v630q0 11 5 23q10 22 41 22q13 0 22 -5
q23 -11 23 -40z" />
    <glyph glyph-name="l" unicode="l" horiz-adv-x="229" 
d="M160 668v-629q0 -9 -2.5 -17.5t-13.5 -18t-30 -9.5q-20 0 -33 11.5t-13 33.5v629q0 9 2.5 17.5t13.5 17.5t30 9t30 -9t13.5 -17.5t2.5 -17.5z" />
    <glyph glyph-name="m" unicode="m" horiz-adv-x="854" 
d="M69 39v442q0 28 22 38q25 13 48 0q14 -7 17.5 -19t3.5 -41q57 70 146 70q51 0 86 -20q36 -19 57 -61q67 81 162 81q93 0 138 -53q23 -28 29.5 -59t6.5 -78v-299q0 -46 -47 -46q-12 0 -23 6q-23 10 -23 40v224q0 17 -0.5 42.5t-0.5 31.5q0 110 -94 110q-67 0 -102 -53
q-22 -33 -22 -108v-248q0 -29 -22 -39q-11 -6 -24 -6q-12 0 -24 6q-22 10 -22 39v253q0 56 -2 71q-10 85 -91 85q-69 0 -102 -53q-16 -25 -20 -52t-4 -75v-229q0 -10 -5 -22q-10 -23 -41 -23q-20 0 -31 9.5t-13.5 18t-2.5 17.5z" />
    <glyph glyph-name="n" unicode="n" 
d="M69 39v441q0 27 22 39q24 11 46 0q15 -8 18.5 -20t3.5 -46q56 75 161 75q92 0 138 -57q16 -20 24 -47.5t9.5 -47.5t1.5 -54v-283q0 -45 -46 -45q-11 0 -24 5q-22 12 -22 40v236q0 23 -0.5 39.5t-1 24t-0.5 10.5q0 14 -3 27.5t-11.5 32t-30.5 29.5t-54 11
q-61 0 -92.5 -34.5t-41.5 -79.5q-5 -22 -5 -79v-217q0 -45 -46 -45q-11 0 -24 5q-22 12 -22 40z" />
    <glyph glyph-name="o" unicode="o" horiz-adv-x="583" 
d="M539 264q0 -127 -66 -201q-66 -73 -184 -73t-181 70q-64 70 -64 197q0 126 62 197q67 75 188 75q112 0 178.5 -69.5t66.5 -195.5zM291 64q75 0 116 54q37 48 37 140q0 84 -35 139t-119 55q-77 0 -118 -57q-34 -50 -34 -138q0 -94 37 -142q41 -51 116 -51z" />
    <glyph glyph-name="p" unicode="p" horiz-adv-x="583" 
d="M69 -148v627q0 45 46 45q14 0 24 -5q16 -7 19.5 -20t3.5 -40q58 70 154 70q99 0 161 -72t62 -197q0 -49 -11.5 -95t-35 -86t-66 -64.5t-99.5 -24.5q-39 0 -71 11t-49.5 23.5t-44.5 36.5v-209q0 -46 -47 -46q-11 0 -23 5q-23 13 -23 41zM444 258q0 194 -139 194
q-70 0 -107.5 -50t-37.5 -137q0 -90 37 -145.5t107 -55.5q67 0 106 53q34 46 34 141z" />
    <glyph glyph-name="q" unicode="q" horiz-adv-x="583" 
d="M423 -149v215q-62 -76 -164 -76q-106 0 -163 78q-52 72 -52 194q0 120 59 193t163 73q98 0 156 -69q0 32 5 42q10 23 41 23q12 0 23 -6q23 -10 23 -39v-628q0 -9 -2.5 -17.5t-13.5 -18t-30 -9.5q-11 0 -23 5q-22 12 -22 40zM423 256q0 93 -34 142q-39 56 -110 56
t-106 -52t-35 -140q0 -196 140 -196q69 0 107 50t38 140z" />
    <glyph glyph-name="r" unicode="r" horiz-adv-x="354" 
d="M156 482v-52q14 42 52 68t83 26q55 0 55 -45q0 -37 -42 -43q-51 -8 -78 -25q-31 -21 -46.5 -55t-17.5 -57t-2 -64v-199q0 -42 -46 -42q-45 0 -45 42v446q0 42 44 42q18 0 28.5 -8.5t12.5 -16.5t2 -17z" />
    <glyph glyph-name="s" unicode="s" horiz-adv-x="479" 
d="M231 319l58 -18q30 -9 48 -16.5t46 -24.5t42.5 -45.5t14.5 -66.5q0 -81 -63 -123q-51 -35 -137 -35q-96 0 -151 46q-30 25 -42.5 57t-12.5 51q0 22 16.5 32t32.5 10q23 0 34 -22q16 -44 22 -53q32 -49 107 -49q45 0 74 21.5t29 56.5q0 19 -7 32t-23.5 22.5t-28.5 13.5
t-38 12l-58 17q-23 8 -36.5 13t-36 17t-35 25.5t-22.5 36.5t-10 50q0 12 2 26t12.5 37.5t28.5 41t54 31t85 13.5q48 0 85 -12.5t57 -29.5t33 -37.5t17 -34t4 -21.5q0 -20 -13.5 -29.5t-28.5 -9.5q-11 0 -18 4.5t-11.5 11.5t-13.5 24q-34 64 -115 64q-38 0 -58 -14
q-29 -19 -29 -53q0 -22 13.5 -36.5t28 -20.5t44.5 -15z" />
    <glyph glyph-name="t" unicode="t" horiz-adv-x="292" 
d="M76 147v293h-53q-8 0 -15 2t-15 11.5t-8 25.5q0 39 38 39h54v117q0 43 45 43q46 0 46 -43v-117h62q38 0 38 -39q0 -23 -12.5 -31t-25.5 -8h-62v-254q0 -63 4 -79q5 -20 17.5 -27t35.5 -9q16 -1 24.5 -2.5t16.5 -10.5t8 -25q0 -39 -59 -39q-40 0 -67.5 9.5t-41.5 21
t-21 36t-8 40t-1 46.5z" />
    <glyph glyph-name="u" unicode="u" 
d="M493 478v-440q-2 -28 -22 -39q-22 -10 -46 0q-15 8 -18 20.5t-3 46.5q-32 -42 -68 -59t-91 -17q-86 0 -133 51q-20 22 -30 54t-11.5 52t-1.5 53v278q0 46 46 46q19 0 30.5 -9t14 -18t2.5 -18v-249q0 -89 16 -119q23 -42 82 -42q50 0 87 28.5t48 77.5q5 21 5 84v219
q0 46 46 46q47 0 47 -46z" />
    <glyph glyph-name="v" unicode="v" horiz-adv-x="417" 
d="M93 493l78 -235q26 -79 38 -149q12 70 49 178l67 207q10 30 42 30q26 0 38 -13.5t12 -27.5q0 -9 -3 -18l-158 -443q-11 -28 -48 -28t-48 28l-156 440q-4 14 -4 20q0 19 15 30.5t38 11.5q30 0 40 -31z" />
    <glyph glyph-name="w" unicode="w" horiz-adv-x="688" 
d="M685 466l-143 -441q-11 -31 -52 -31q-44 0 -53 32l-79 273q-13 43 -18 91q-7 -60 -21 -108l-69 -254q-9 -34 -55 -34q-42 0 -53 32l-139 438q-3 9 -3 19q0 16 14 28.5t37 12.5q33 0 43 -34l83 -284q11 -41 18 -92q12 58 20 89l78 289q9 32 50 32t50 -32l75 -281
q16 -57 23 -104q5 31 27 118l76 267q8 32 43 32q24 0 37 -12t13 -28q0 -12 -2 -18z" />
    <glyph glyph-name="x" unicode="x" horiz-adv-x="437" 
d="M402 455l-133 -192l139 -195q9 -12 9 -27q0 -20 -14.5 -33.5t-35.5 -13.5q-22 0 -36 22l-115 174l-111 -175q-13 -21 -37 -21q-20 0 -34 13.5t-14 30.5q0 13 9 26l136 194l-134 193q-9 13 -9 27q0 19 14.5 32.5t34.5 13.5q24 0 38 -22l110 -172l110 173q15 21 35 21
t33.5 -13.5t13.5 -30.5q0 -13 -9 -25z" />
    <glyph glyph-name="y" unicode="y" horiz-adv-x="437" 
d="M94 494l111 -307q14 -39 23 -76q11 45 21 77q1 6 19 65l78 241q10 30 41 30q22 0 36 -12t14 -30q0 -10 -2 -17l-167 -476q-10 -30 -14 -40t-14 -34t-17 -32.5t-20.5 -24t-27.5 -21.5t-34.5 -11t-44.5 -5q-41 0 -59 10t-18 40q0 25 12 32q8 4 17 4q3 0 22 -2.5t23 -2.5
q35 0 60 27q14 16 33 72l-182 460q-4 11 -4 20q0 19 15 31t37 12q32 0 42 -30z" />
    <glyph glyph-name="z" unicode="z" horiz-adv-x="479" 
d="M434 437l-238 -287q-49 -59 -63 -70h280q39 0 39 -40t-39 -40h-347q-43 0 -43 54q0 22 13 39l235 281q20 22 29 33q19 23 31 33h-241q-38 0 -38 39t38 39h318q7 0 12 -1t11.5 -5t10 -14t3.5 -26q0 -21 -11 -35z" />
    <glyph glyph-name="braceleft" unicode="{" horiz-adv-x="354" 
d="M224 515v-34q-1 -47 -1.5 -65.5t-4 -42.5t-10.5 -40t-17 -26.5t-18 -15.5t-30 -15q47 -19 62.5 -47.5t17.5 -94.5q0 -5 0.5 -35t0.5 -36v-30q0 -46 6 -72q8 -29 22.5 -40t40.5 -16q30 -9 30 -34q0 -29 -50 -29q-66 0 -97 42q-33 46 -33 164v40q0 59 -2 75
q-2 26 -10.5 42.5t-16 21.5t-23.5 13q-1 0 -3 1q-24 12 -27 27q-1 4 -1 8q0 16 8 23.5t26 15.5q33 15 40.5 44.5t8.5 106.5v40q0 77 7 103q14 68 75 92q30 11 58 11q41 0 41 -31q0 -18 -17 -27q-1 -1 -29 -9q-19 -6 -30.5 -17.5t-16 -32.5t-5.5 -35t-2 -45z" />
    <glyph glyph-name="braceright" unicode="}" horiz-adv-x="354" 
d="M160 39v34q1 47 1.5 65.5t4 42.5t10.5 40q10 23 23 33t42 23q-47 20 -62.5 48.5t-17.5 94.5q0 5 -0.5 35t-0.5 36v30q0 47 -6 72q-6 20 -16.5 32t-19 15.5t-27.5 8.5q-30 6 -30 32q0 31 43 31q65 0 102 -44q23 -28 29 -61.5t6 -100.5v-40q0 -59 2 -75q2 -26 10.5 -42.5
t16.5 -22t23 -12.5q12 -5 17.5 -8.5t9.5 -10.5t4 -17q0 -16 -7 -23t-27 -16q-33 -15 -41 -45t-8 -106v-40q0 -40 -1.5 -58.5t-6.5 -46t-16.5 -45t-31.5 -31.5q-36 -25 -85 -25q-40 0 -40 31q0 18 17 27q1 1 29 9q35 11 44 41.5t10 88.5z" />
    <glyph glyph-name="exclamdown" unicode="&#xa1;" horiz-adv-x="292" 
d="M176 252v-211q0 -47 -50 -47q-49 0 -49 47v212l20 249q3 25 29 25q25 0 28 -24zM186 652q0 -27 -16 -44t-45 -17q-26 0 -43 16t-17 44t17 44.5t44 16.5q26 0 43 -16t17 -44z" />
    <glyph glyph-name="cent" unicode="&#xa2;" horiz-adv-x="542" 
d="M254 -87v77q-60 5 -103.5 33t-65 69.5t-30.5 82.5t-9 84q0 104 51.5 180.5t156.5 86.5v77q3 29 31 29t31 -29v-76q80 -3 127.5 -52.5t47.5 -90.5q0 -17 -10.5 -27.5t-19.5 -13t-17 -2.5q-17 0 -25.5 9t-21.5 33q-9 16 -15.5 25t-24.5 21.5t-42 18.5l1 -379q24 5 40 15
q29 16 47 52q9 19 12 25t9.5 15t13 11t17.5 2q16 0 31.5 -9t15.5 -31q0 -28 -26 -69q-49 -78 -161 -90v-77q-3 -30 -31 -30q-30 0 -30 30zM253 69v379q-56 -13 -84 -63.5t-28 -125.5q0 -74 24 -122q12 -23 29 -38t28.5 -20t30.5 -10z" />
    <glyph glyph-name="sterling" unicode="&#xa3;" horiz-adv-x="646" 
d="M413 301h-102q16 -48 16 -88q0 -38 -11 -68q41 -24 58 -33t36.5 -16t36.5 -7q59 0 66 82q1 6 1 7t1.5 8t3 9.5t5 8t8 8t11 4.5t14.5 2q21 0 34 -14t13 -35q0 -13 -6 -36t-20.5 -54.5t-47 -53.5t-77.5 -22q-28 0 -58.5 9.5t-50.5 20t-55 30.5q-50 -66 -126 -66
q-48 0 -83.5 30t-35.5 82q0 45 31 74t81 29q35 0 79 -22q-2 66 -22 111h-112q-36 4 -36 37q0 12 4 20t11 11t11 4t10 2h91q-23 74 -23 124q0 96 59.5 147t145.5 51q92 0 139.5 -51.5t47.5 -126.5q0 -52 -44 -52q-17 0 -26.5 7t-11.5 14t-4 22q-2 27 -6 39q-9 32 -34 48.5
t-57 16.5q-50 0 -82 -33.5t-32 -91.5q0 -52 26 -114h123q6 -1 10 -2t11 -4t11 -11t4 -20q0 -34 -36 -37zM216 108q-35 25 -61 25q-19 0 -27.5 -9.5t-8.5 -20.5q0 -13 10.5 -22t28.5 -9q33 0 58 36z" />
    <glyph glyph-name="yen" unicode="&#xa5;" 
d="M232 285l-25 40h-142q-40 4 -40 42q0 37 40 41h90l-143 227q-7 16 -7 26q0 19 16 31.5t33 12.5q24 0 41 -22l140 -223q8 -13 48 -79q16 29 46 76l142 226q18 23 38 23q17 0 33 -13.5t16 -32.5q0 -8 -8 -26l-146 -226h93q41 -4 41 -41q0 -39 -41 -42h-146l-26 -40v-16h172
q41 -4 41 -41q0 -39 -41 -42h-172v-147q-3 -45 -47 -45q-14 0 -23 5q-21 10 -23 40v147h-167q-40 4 -40 42q0 37 40 41h167v16z" />
    <glyph glyph-name="dieresis" unicode="&#xa8;" horiz-adv-x="292" 
d="M199 655q0 26 16 41.5t40 15.5q23 0 39.5 -15.5t16.5 -41.5q0 -25 -15 -40t-41 -15t-41 15.5t-15 39.5zM-18 655q0 26 16 41.5t40 15.5q23 0 39.5 -15.5t16.5 -41.5q0 -25 -15 -40t-41 -15t-41 15.5t-15 39.5z" />
    <glyph glyph-name="copyright" unicode="&#xa9;" horiz-adv-x="833" 
d="M773 354q0 -149 -103 -253t-254 -104q-144 0 -249.5 101t-105.5 255q0 152 104.5 254t250.5 102q153 0 255 -104t102 -251zM416 29q138 0 231.5 94.5t93.5 230.5q0 134 -93 228.5t-230 94.5t-231 -94.5t-94 -229.5q0 -136 94.5 -230t228.5 -94zM557 258l56 -49
q-20 -26 -47 -46q-61 -45 -143 -45q-102 0 -169 66.5t-67 168.5q0 103 67 171t170 68q114 0 189 -90l-56 -53q-60 68 -133 68q-68 0 -113.5 -45.5t-45.5 -116.5t46.5 -116.5t113.5 -45.5q73 0 132 65z" />
    <glyph glyph-name="ordfeminine" unicode="&#xaa;" horiz-adv-x="333" 
d="M292 590l-1 -184q-3 -32 -32 -32q-30 0 -33 31q-39 -34 -91 -34q-50 0 -80.5 28.5t-30.5 77.5q0 28 10 47.5t28.5 30t31 14.5t29.5 7l52 10q42 10 45 12q4 3 4 14q0 45 -57 45q-22 0 -35.5 -7.5t-17 -13.5t-7.5 -17q-8 -25 -33 -25q-36 0 -36 32q0 18 13 39q35 52 117 52
q35 0 60 -9t37 -20.5t18.5 -32t7.5 -32.5t1 -33zM192 531l-33 -7q-23 -6 -33.5 -9.5t-19.5 -13t-9 -25.5q0 -22 14.5 -33t35.5 -11q41 0 61 29q16 22 16 78q-8 -3 -32 -8z" />
    <glyph glyph-name="guillemotleft" unicode="&#xab;" horiz-adv-x="437" 
d="M192 397l-91 -68l91 -69q17 -17 17 -33q0 -19 -13 -31t-29 -12q-13 0 -26 10l-120 100q-12 11 -12 37q0 25 12 36l123 99q14 8 24 8q15 0 28 -12t13 -32q0 -18 -17 -33zM390 397l-91 -68l91 -69q17 -15 17 -33t-13 -30.5t-29 -12.5q-12 0 -25 10l-121 100q-12 12 -12 37
q0 24 12 36l124 99q13 9 23 9q14 0 27.5 -12.5t13.5 -32.5q0 -18 -17 -33z" />
    <glyph glyph-name="registered" unicode="&#xae;" horiz-adv-x="833" 
d="M266 580h146q74 0 105 -10q35 -12 53.5 -41t18.5 -63q0 -83 -92 -107q29 -13 43 -32t21 -62q8 -56 14 -80.5t20 -53.5h-91q-11 21 -18 63q-1 5 -5.5 35t-5.5 34q-9 49 -34 59.5t-95 10.5v-202h-80v449zM347 519v-122h66q55 0 75 16q21 16 21 46q0 39 -32 53q-16 7 -79 7
h-51zM773 354q0 -149 -103 -253t-254 -104q-143 0 -249 101t-106 255q0 152 104.5 254t250.5 102q153 0 255 -104t102 -251zM417 29q137 0 230.5 94.5t93.5 230.5q0 134 -93 228.5t-230 94.5q-136 0 -230.5 -95t-94.5 -229q0 -136 95 -230t229 -94z" />
    <glyph glyph-name="macron" unicode="&#xaf;" horiz-adv-x="292" 
d="M24 684h244q40 -4 40 -41q0 -19 -11 -30.5t-29 -11.5h-244q-40 4 -40 41q0 38 40 42z" />
    <glyph glyph-name="twosuperior" unicode="&#xb2;" horiz-adv-x="354" 
d="M299 253h-244q-37 0 -37 44q0 21 15 36q9 8 32.5 28.5t33.5 29.5q86 74 114 106.5t28 69.5q0 29 -16.5 49t-52.5 20q-35 0 -58 -23q-16 -15 -19 -47q-5 -43 -37 -43q-14 0 -25.5 8.5t-11.5 28.5q0 18 9 47.5t30 51.5q41 42 113 42q69 0 106 -36.5t37 -93.5
q0 -37 -17.5 -71.5t-37 -54.5t-55.5 -52q-8 -7 -86 -72h179q33 -3 33 -34t-33 -34z" />
    <glyph glyph-name="threesuperior" unicode="&#xb3;" horiz-adv-x="354" 
d="M264 489q64 -31 64 -104q0 -59 -44 -98.5t-119 -39.5q-45 0 -79 15.5t-50.5 38.5t-24 43t-7.5 37q0 33 40 33q11 0 18 -5.5t9 -10t5 -13.5q5 -17 9.5 -26.5t14 -22t26 -18t40.5 -5.5q43 0 65.5 21t22.5 52q0 39 -32 56q-18 10 -66 11q-8 1 -13 2t-12 9t-7 22q0 27 31 33
q22 0 25 1q6 0 13.5 1.5t19.5 6.5t19.5 17.5t7.5 30.5q0 23 -15.5 40.5t-49.5 17.5q-19 0 -34 -5q-35 -12 -44 -46q-4 -13 -7 -19.5t-11 -13t-20 -6.5q-15 0 -26 9t-11 26q0 19 14 44q39 78 138 78q66 0 103 -36t37 -86q0 -62 -50 -90z" />
    <glyph glyph-name="acute" unicode="&#xb4;" horiz-adv-x="292" 
d="M199 673l-52 -77q-13 -15 -27 -15q-16 0 -26 9.5t-10 21.5q0 7 2 11l30 89q12 30 42 30q21 0 35.5 -13t14.5 -30q0 -8 -9 -26z" />
    <glyph glyph-name="mu" unicode="&#xb5;" 
d="M493 478v-440q-3 -44 -46 -44q-28 0 -38 22q-5 11 -5 50q-47 -76 -150 -76q-55 0 -92 23v-162q0 -9 -2.5 -17.5t-14 -18t-30.5 -9.5q-11 0 -23 5q-23 11 -23 40v626q0 47 47 47q46 0 46 -45v-249q0 -92 16 -119q24 -42 83 -42q68 0 105 46q22 27 28 58.5t6 85.5v219
q0 46 46 46q47 0 47 -46z" />
    <glyph glyph-name="periodcentered" unicode="&#xb7;" horiz-adv-x="208" 
d="M48 331q0 24 15.5 40t41.5 16q24 0 40 -15t16 -41t-16 -41.5t-41 -15.5q-24 0 -40 15.5t-16 41.5z" />
    <glyph glyph-name="cedilla" unicode="&#xb8;" horiz-adv-x="292" 
d="M194 -145l-44 -72q-7 -12 -22 -12q-14 0 -22.5 7.5t-8.5 15.5t4 15l29 47q-9 2 -13.5 3.5t-14 7t-14.5 16.5t-5 26q0 28 21 43q14 10 41 10q63 0 63 -60q0 -24 -14 -47z" />
    <glyph glyph-name="onesuperior" unicode="&#xb9;" horiz-adv-x="354" 
d="M163 285v270h-74q-29 0 -29 30q0 15 6 19.5t18 6.5q38 5 58.5 19.5t32.5 44.5q10 23 29 23q29 0 32 -30v-383q-3 -35 -37 -35q-33 0 -36 35z" />
    <glyph glyph-name="ordmasculine" unicode="&#xba;" horiz-adv-x="354" 
d="M337 546q0 -77 -40.5 -126t-120.5 -49q-76 0 -117 45q-42 45 -42 127q0 85 44 129.5t118 44.5q72 0 115 -44.5t43 -126.5zM177 431q87 0 87 112t-88 112q-86 0 -86 -112t87 -112z" />
    <glyph glyph-name="guillemotright" unicode="&#xbb;" horiz-adv-x="437" 
d="M245 262l91 68l-90 69q-18 15 -18 33t13.5 30.5t29.5 12.5q12 0 25 -10l121 -99q11 -12 11 -38q0 -25 -12 -36l-123 -99q-14 -8 -23 -8q-15 0 -28.5 12t-13.5 32q0 18 17 33zM47 262l91 68l-91 69q-17 15 -17 33t13 30.5t30 12.5q12 0 25 -10l120 -99q12 -12 12 -38
q0 -25 -12 -36l-123 -99q-14 -8 -23 -8q-15 0 -28.5 12t-13.5 32q0 18 17 33z" />
    <glyph glyph-name="questiondown" unicode="&#xbf;" horiz-adv-x="479" 
d="M95 322l47 40q41 34 52 53t14 59q1 14 2 20t5 16t13 14t24 4q40 0 43 -41q0 -71 -11 -100.5t-51 -62.5l-37 -29q-25 -20 -38 -33t-28.5 -40t-15.5 -56q0 -43 28.5 -69.5t77.5 -26.5q86 0 102 78q3 15 5 21t7 14t13.5 11t21.5 3q8 0 16.5 -2t18 -13t9.5 -29q0 -12 -4 -29
t-16.5 -41.5t-32.5 -44t-56.5 -34t-82.5 -14.5q-89 0 -144.5 50.5t-55.5 132.5q0 37 12.5 67t25.5 45.5t36 36.5zM311 652q0 -27 -16.5 -44t-44.5 -17q-25 0 -42.5 16t-17.5 44t17 44.5t44 16.5q26 0 43 -16.5t17 -43.5z" />
    <glyph glyph-name="Agrave" unicode="&#xc0;" horiz-adv-x="604" 
d="M357 681l234 -627l3 -18q0 -19 -14 -30.5t-34 -11.5q-30 0 -41 29l-70 191h-266l-68 -191q-9 -29 -41 -29q-24 0 -37 13.5t-13 29.5q0 5 4 17l231 627q6 17 17.5 24t39.5 7q27 0 38 -7.5t17 -23.5zM198 295h207l-104 285zM295 880l35 -66q4 -8 4 -15q0 -11 -9.5 -20
t-22.5 -9t-23 10l-53 54q-12 12 -12 26q0 17 13 29t33 12q22 0 35 -21z" />
    <glyph glyph-name="Aacute" unicode="&#xc1;" horiz-adv-x="604" 
d="M357 681l234 -627l3 -18q0 -19 -14 -30.5t-34 -11.5q-30 0 -41 29l-70 191h-266l-68 -191q-9 -29 -41 -29q-24 0 -37 13.5t-13 29.5q0 5 4 17l231 627q6 17 17.5 24t39.5 7q27 0 38 -7.5t17 -23.5zM198 295h207l-104 285zM377 834l-54 -54q-10 -10 -23 -10q-11 0 -21.5 8
t-10.5 20q0 7 4 15l36 67q12 21 34 21q17 0 31.5 -13t14.5 -29q0 -11 -11 -25z" />
    <glyph glyph-name="Acircumflex" unicode="&#xc2;" horiz-adv-x="604" 
d="M357 681l234 -627l3 -18q0 -19 -14 -30.5t-34 -11.5q-30 0 -41 29l-70 191h-266l-68 -191q-9 -29 -41 -29q-24 0 -37 13.5t-13 29.5q0 5 4 17l231 627q6 17 17.5 24t39.5 7q27 0 38 -7.5t17 -23.5zM198 295h207l-104 285zM347 787l-44 67l-52 -69q-13 -15 -29 -15
q-18 0 -30 10.5t-12 25.5q0 9 10 23l44 51q23 23 68 23q46 0 70 -24l39 -49q9 -14 9 -22q0 -15 -11.5 -26.5t-30.5 -11.5q-18 0 -31 17z" />
    <glyph glyph-name="Atilde" unicode="&#xc3;" horiz-adv-x="604" 
d="M357 681l234 -627l3 -18q0 -19 -14 -30.5t-34 -11.5q-30 0 -41 29l-70 191h-266l-68 -191q-9 -29 -41 -29q-24 0 -37 13.5t-13 29.5q0 5 4 17l231 627q6 17 17.5 24t39.5 7q27 0 38 -7.5t17 -23.5zM198 295h207l-104 285zM342 784l-67 22q-27 10 -41 10q-19 0 -21 -22
q-1 -9 -2.5 -14t-7.5 -9t-17 -4q-15 0 -20 10.5t-5 33.5q0 85 57 85q24 0 69 -16l51 -18q26 -8 32 -8q18 0 21 19q2 10 3.5 14.5t7.5 9t16 4.5q24 0 24 -22q0 -38 -7 -59q-11 -44 -53 -44q-14 0 -40 8z" />
    <glyph glyph-name="Adieresis" unicode="&#xc4;" horiz-adv-x="604" 
d="M357 681l234 -627l3 -18q0 -19 -14 -30.5t-34 -11.5q-30 0 -41 29l-70 191h-266l-68 -191q-9 -29 -41 -29q-24 0 -37 13.5t-13 29.5q0 5 4 17l231 627q6 17 17.5 24t39.5 7q27 0 38 -7.5t17 -23.5zM198 295h207l-104 285zM358 831q0 25 17 42.5t44 17.5q26 0 43 -17.5
t17 -43.5t-17 -43t-43 -17t-43.5 17t-17.5 44zM123 831q0 26 17 43t44 17q26 0 43 -17t17 -43q0 -27 -17.5 -44t-43.5 -17q-25 0 -42.5 17t-17.5 44z" />
    <glyph glyph-name="Aring" unicode="&#xc5;" horiz-adv-x="604" 
d="M357 681l234 -627l3 -18q0 -19 -14 -30.5t-34 -11.5q-30 0 -41 29l-70 191h-266l-68 -191q-9 -29 -41 -29q-24 0 -37 13.5t-13 29.5q0 5 4 17l231 627q6 17 17.5 24t39.5 7q27 0 38 -7.5t17 -23.5zM198 295h207l-104 285zM300 915q38 0 65.5 -23t27.5 -67t-27 -69.5
t-64 -25.5q-39 0 -66.5 27t-27.5 66q0 37 24.5 64.5t67.5 27.5zM300 783q18 0 29.5 12t11.5 30t-12 28.5t-28 10.5q-18 0 -29.5 -12t-11.5 -31q0 -18 12.5 -28t27.5 -10z" />
    <glyph glyph-name="AE" unicode="&#xc6;" horiz-adv-x="958" 
d="M431 47v142h-248l-98 -172q-13 -23 -37 -23q-20 0 -34.5 12t-14.5 32q0 12 6 22l359 623q13 24 40 24h465q27 0 38 -21q4 -10 4 -23q0 -14 -4 -22q-11 -22 -38 -22h-346v-218h329q8 0 15.5 -2t16 -12.5t8.5 -27.5q0 -42 -40 -42h-329v-231h362q8 0 16 -2t16.5 -12.5
t8.5 -28.5q0 -43 -41 -43h-407q-47 0 -47 47zM231 273h200v272q0 44 3 81z" />
    <glyph glyph-name="Ccedilla" unicode="&#xc7;" horiz-adv-x="708" 
d="M383 71q144 0 201 124q10 24 19.5 34.5t29.5 10.5q16 0 33.5 -9.5t17.5 -28.5q0 -31 -36 -85q-85 -127 -265 -127q-169 0 -254 101q-78 94 -78 257q0 172 86 270q88 99 243 99q162 0 241 -95q20 -24 37 -59t17 -58q0 -18 -16 -29.5t-35 -11.5q-12 0 -20.5 5.5t-12.5 12
t-12 23.5q-34 75 -82.5 101t-115.5 26q-89 0 -144 -49q-85 -75 -85 -235q0 -121 52 -192q62 -85 179 -85zM307 -191l29 47q-9 2 -13.5 3.5t-14 7t-14.5 16.5t-5 26q0 28 21 43q14 10 41 10q63 0 63 -60q0 -22 -14 -46l-44 -72q-11 -13 -22 -13q-15 0 -23 7.5t-8 16.5
q0 4 4 14z" />
    <glyph glyph-name="Egrave" unicode="&#xc8;" horiz-adv-x="604" 
d="M513 619h-340v-216h323q41 0 41 -42q0 -17 -8.5 -27t-16 -12t-16.5 -2h-323v-235h357q41 0 41 -42q0 -43 -41 -43h-405q-45 0 -47 47v612q2 24 12 35.5t35 11.5h388q43 0 43 -44q0 -43 -43 -43zM305 880l35 -66q4 -8 4 -15q0 -11 -9.5 -20t-22.5 -9t-23 10l-53 54
q-12 12 -12 26q0 17 13 29t33 12q22 0 35 -21z" />
    <glyph glyph-name="Eacute" unicode="&#xc9;" horiz-adv-x="604" 
d="M513 619h-340v-216h323q41 0 41 -42q0 -17 -8.5 -27t-16 -12t-16.5 -2h-323v-235h357q41 0 41 -42q0 -43 -41 -43h-405q-45 0 -47 47v612q2 24 12 35.5t35 11.5h388q43 0 43 -44q0 -43 -43 -43zM377 834l-54 -54q-10 -10 -23 -10q-11 0 -21.5 8t-10.5 20q0 7 4 15l36 67
q12 21 34 21q17 0 31.5 -13t14.5 -29q0 -11 -11 -25z" />
    <glyph glyph-name="Ecircumflex" unicode="&#xca;" horiz-adv-x="604" 
d="M513 619h-340v-216h323q41 0 41 -42q0 -17 -8.5 -27t-16 -12t-16.5 -2h-323v-235h357q41 0 41 -42q0 -43 -41 -43h-405q-45 0 -47 47v612q2 24 12 35.5t35 11.5h388q43 0 43 -44q0 -43 -43 -43zM347 787l-44 67l-52 -69q-13 -15 -29 -15q-18 0 -30 10.5t-12 25.5
q0 9 10 23l44 51q23 23 68 23q46 0 70 -24l39 -49q9 -14 9 -22q0 -15 -11.5 -26.5t-30.5 -11.5q-18 0 -31 17z" />
    <glyph glyph-name="Edieresis" unicode="&#xcb;" horiz-adv-x="604" 
d="M513 619h-340v-216h323q41 0 41 -42q0 -17 -8.5 -27t-16 -12t-16.5 -2h-323v-235h357q41 0 41 -42q0 -43 -41 -43h-405q-45 0 -47 47v612q2 24 12 35.5t35 11.5h388q43 0 43 -44q0 -43 -43 -43zM362 831q0 25 17 42.5t44 17.5q26 0 43 -17.5t17 -43.5t-17 -43t-43 -17
t-43.5 17t-17.5 44zM127 831q0 26 17 43t44 17q26 0 43 -17t17 -43q0 -27 -17.5 -44t-43.5 -17q-25 0 -42.5 17t-17.5 44z" />
    <glyph glyph-name="Igrave" unicode="&#xcc;" horiz-adv-x="250" 
d="M172 666v-626q0 -46 -47 -46q-20 0 -33.5 12t-13.5 34v626q0 10 2.5 18.5t14 18t30.5 9.5q47 0 47 -46zM128 880l35 -66q4 -8 4 -15q0 -11 -9.5 -20t-22.5 -9t-23 10l-53 54q-12 12 -12 26q0 17 13 29t33 12q22 0 35 -21z" />
    <glyph glyph-name="Iacute" unicode="&#xcd;" horiz-adv-x="250" 
d="M172 666v-626q0 -46 -47 -46q-20 0 -33.5 12t-13.5 34v626q0 10 2.5 18.5t14 18t30.5 9.5q47 0 47 -46zM190 834l-54 -54q-10 -10 -23 -10q-11 0 -21.5 8t-10.5 20q0 7 4 15l36 67q12 21 34 21q17 0 31.5 -13t14.5 -29q0 -11 -11 -25z" />
    <glyph glyph-name="Icircumflex" unicode="&#xce;" horiz-adv-x="250" 
d="M172 666v-626q0 -46 -47 -46q-20 0 -33.5 12t-13.5 34v626q0 10 2.5 18.5t14 18t30.5 9.5q47 0 47 -46zM170 787l-44 67l-52 -69q-13 -15 -29 -15q-18 0 -30 10.5t-12 25.5q0 9 10 23l44 51q23 23 68 23q46 0 70 -24l39 -49q9 -14 9 -22q0 -15 -11.5 -26.5t-30.5 -11.5
q-18 0 -31 17z" />
    <glyph glyph-name="Idieresis" unicode="&#xcf;" horiz-adv-x="250" 
d="M172 666v-626q0 -46 -47 -46q-20 0 -33.5 12t-13.5 34v626q0 10 2.5 18.5t14 18t30.5 9.5q47 0 47 -46zM185 831q0 25 17 42.5t44 17.5q26 0 43 -17.5t17 -43.5t-17 -43t-43 -17t-43.5 17t-17.5 44zM-50 831q0 26 17 43t44 17q26 0 43 -17t17 -43q0 -27 -17.5 -44
t-43.5 -17q-25 0 -42.5 17t-17.5 44z" />
    <glyph glyph-name="Eth" unicode="&#xd0;" horiz-adv-x="708" 
d="M78 47v286h-38q-8 0 -15.5 2t-16 12.5t-8.5 27.5t8.5 27t16 12t15.5 2h38v244q0 47 47 47h181q88 0 151.5 -16t113.5 -69q86 -91 86 -262q0 -182 -91 -275q-29 -29 -64.5 -47.5t-76.5 -26t-70 -9.5t-71 -2h-159q-47 0 -47 47zM393 333h-220v-249h71q52 0 77 1t61.5 6
t57 15t43 28.5t38.5 46.5q40 69 40 180q0 149 -79 215q-27 22 -64.5 33t-67 12.5t-91.5 1.5h-86v-207h220q8 0 15.5 -2t16 -12t8.5 -27q0 -42 -40 -42z" />
    <glyph glyph-name="Ntilde" unicode="&#xd1;" horiz-adv-x="708" 
d="M630 669v-630q0 -45 -53 -45q-34 0 -47 21l-282 420q-39 57 -74 119q-1 2 -4 7t-4 8q0 -3 0.5 -10t0.5 -11q3 -30 3 -93l2 -417q0 -44 -46 -44q-48 0 -48 44v627q0 21 8 30q14 18 51 18q31 0 46 -22l297 -442q42 -61 67 -121q-4 42 -5 91q0 13 -1 41t-1 41l-2 368
q0 43 47 43q45 0 45 -43zM394 784l-67 22q-28 10 -41 10q-19 0 -21 -22q-1 -9 -2.5 -14t-7.5 -9t-17 -4q-15 0 -20 10.5t-5 33.5q0 85 57 85q24 0 69 -16l51 -18q26 -8 32 -8q18 0 21 19q2 10 3.5 14.5t7.5 9t16 4.5q24 0 24 -22q0 -38 -7 -59q-11 -44 -53 -44q-14 0 -40 8z
" />
    <glyph glyph-name="Ograve" unicode="&#xd2;" horiz-adv-x="771" 
d="M386 717q98 0 176 -44q158 -93 158 -315q0 -53 -10 -100q-24 -117 -110.5 -192.5t-211.5 -75.5q-148 0 -242.5 95t-94.5 268q0 169 96 266.5t239 97.5zM620 362q0 127 -66.5 200t-168.5 73t-168 -75.5t-66 -201.5q0 -134 64 -209.5t169 -75.5q63 0 111 26.5t74 70
t38.5 92t12.5 100.5zM388 880l35 -66q4 -8 4 -15q0 -11 -9.5 -20t-22.5 -9t-23 10l-53 54q-12 12 -12 26q0 17 13 29t33 12q22 0 35 -21z" />
    <glyph glyph-name="Oacute" unicode="&#xd3;" horiz-adv-x="771" 
d="M386 717q98 0 176 -44q158 -93 158 -315q0 -53 -10 -100q-24 -117 -110.5 -192.5t-211.5 -75.5q-148 0 -242.5 95t-94.5 268q0 169 96 266.5t239 97.5zM620 362q0 127 -66.5 200t-168.5 73t-168 -75.5t-66 -201.5q0 -134 64 -209.5t169 -75.5q63 0 111 26.5t74 70
t38.5 92t12.5 100.5zM450 834l-54 -54q-10 -10 -23 -10q-11 0 -21.5 8t-10.5 20q0 7 4 15l36 67q12 21 34 21q17 0 31.5 -13t14.5 -29q0 -11 -11 -25z" />
    <glyph glyph-name="Ocircumflex" unicode="&#xd4;" horiz-adv-x="771" 
d="M386 717q98 0 176 -44q158 -93 158 -315q0 -53 -10 -100q-24 -117 -110.5 -192.5t-211.5 -75.5q-148 0 -242.5 95t-94.5 268q0 169 96 266.5t239 97.5zM620 362q0 127 -66.5 200t-168.5 73t-168 -75.5t-66 -201.5q0 -134 64 -209.5t169 -75.5q63 0 111 26.5t74 70
t38.5 92t12.5 100.5zM430 787l-44 67l-52 -69q-13 -15 -29 -15q-18 0 -30 10.5t-12 25.5q0 9 10 23l44 51q23 23 68 23q46 0 70 -24l39 -49q9 -14 9 -22q0 -15 -11.5 -26.5t-30.5 -11.5q-18 0 -31 17z" />
    <glyph glyph-name="Otilde" unicode="&#xd5;" horiz-adv-x="771" 
d="M386 717q98 0 176 -44q158 -93 158 -315q0 -53 -10 -100q-24 -117 -110.5 -192.5t-211.5 -75.5q-148 0 -242.5 95t-94.5 268q0 169 96 266.5t239 97.5zM620 362q0 127 -66.5 200t-168.5 73t-168 -75.5t-66 -201.5q0 -134 64 -209.5t169 -75.5q63 0 111 26.5t74 70
t38.5 92t12.5 100.5zM425 784l-67 22q-27 10 -41 10q-19 0 -21 -22q-1 -9 -2.5 -14t-7.5 -9t-17 -4q-15 0 -20 10.5t-5 33.5q0 85 57 85q24 0 69 -16l51 -18q26 -8 32 -8q18 0 21 19q2 10 3.5 14.5t7.5 9t16 4.5q24 0 24 -22q0 -38 -7 -59q-11 -44 -53 -44q-14 0 -40 8z" />
    <glyph glyph-name="Odieresis" unicode="&#xd6;" horiz-adv-x="771" 
d="M386 717q98 0 176 -44q158 -93 158 -315q0 -53 -10 -100q-24 -117 -110.5 -192.5t-211.5 -75.5q-148 0 -242.5 95t-94.5 268q0 169 96 266.5t239 97.5zM620 362q0 127 -66.5 200t-168.5 73t-168 -75.5t-66 -201.5q0 -134 64 -209.5t169 -75.5q63 0 111 26.5t74 70
t38.5 92t12.5 100.5zM444 831q0 25 17 42.5t44 17.5q26 0 43 -17.5t17 -43.5t-17 -43t-43 -17t-43.5 17t-17.5 44zM209 831q0 26 17 43t44 17q26 0 43 -17t17 -43q0 -27 -17.5 -44t-43.5 -17q-25 0 -42.5 17t-17.5 44z" />
    <glyph glyph-name="Oslash" unicode="&#xd8;" horiz-adv-x="771" 
d="M699 652l-52 -56q20 -28 31.5 -47.5t26.5 -74.5t15 -120q0 -152 -82 -250q-94 -114 -255 -114q-128 0 -219 81l-55 -59q-13 -9 -21 -9q-11 0 -20.5 9t-9.5 20q0 9 8 20l58 63q-73 94 -73 236q0 168 96 267t241 99q125 0 217 -78l50 54q11 9 19 9q12 0 22.5 -10.5
t10.5 -21.5q0 -8 -8 -18zM580 525l-354 -389q60 -64 157 -64q62 0 109.5 25t74.5 67.5t40 91.5t13 103q0 98 -40 166zM190 185l352 387q-63 63 -156 63q-105 0 -170.5 -78.5t-65.5 -200.5q0 -96 40 -171z" />
    <glyph glyph-name="Ugrave" unicode="&#xd9;" horiz-adv-x="688" 
d="M609 666v-380q0 -109 -21 -167q-17 -46 -56.5 -76t-85 -41.5t-96.5 -11.5q-152 0 -220 84q-32 37 -42 86.5t-10 118.5v388q0 45 48 45q20 0 31.5 -9t14 -18t2.5 -18v-301q0 -101 4.5 -144t23.5 -79q40 -65 145 -65q57 0 96 22q49 26 61 71t12 140v355q2 29 23 40
q11 6 23 6q20 0 33.5 -12.5t13.5 -33.5zM347 880l35 -66q4 -8 4 -15q0 -11 -9.5 -20t-22.5 -9t-23 10l-53 54q-12 12 -12 26q0 17 13 29t33 12q22 0 35 -21z" />
    <glyph glyph-name="Uacute" unicode="&#xda;" horiz-adv-x="688" 
d="M609 666v-380q0 -109 -21 -167q-17 -46 -56.5 -76t-85 -41.5t-96.5 -11.5q-152 0 -220 84q-32 37 -42 86.5t-10 118.5v388q0 45 48 45q20 0 31.5 -9t14 -18t2.5 -18v-301q0 -101 4.5 -144t23.5 -79q40 -65 145 -65q57 0 96 22q49 26 61 71t12 140v355q2 29 23 40
q11 6 23 6q20 0 33.5 -12.5t13.5 -33.5zM409 834l-54 -54q-10 -10 -23 -10q-11 0 -21.5 8t-10.5 20q0 7 4 15l36 67q12 21 34 21q17 0 31.5 -13t14.5 -29q0 -11 -11 -25z" />
    <glyph glyph-name="Ucircumflex" unicode="&#xdb;" horiz-adv-x="688" 
d="M609 666v-380q0 -109 -21 -167q-17 -46 -56.5 -76t-85 -41.5t-96.5 -11.5q-152 0 -220 84q-32 37 -42 86.5t-10 118.5v388q0 45 48 45q20 0 31.5 -9t14 -18t2.5 -18v-301q0 -101 4.5 -144t23.5 -79q40 -65 145 -65q57 0 96 22q49 26 61 71t12 140v355q2 29 23 40
q11 6 23 6q20 0 33.5 -12.5t13.5 -33.5zM389 787l-44 67l-52 -69q-13 -15 -29 -15q-18 0 -30 10.5t-12 25.5q0 9 10 23l44 51q23 23 68 23q46 0 70 -24l39 -49q9 -14 9 -22q0 -15 -11.5 -26.5t-30.5 -11.5q-18 0 -31 17z" />
    <glyph glyph-name="Udieresis" unicode="&#xdc;" horiz-adv-x="688" 
d="M609 666v-380q0 -109 -21 -167q-17 -46 -56.5 -76t-85 -41.5t-96.5 -11.5q-152 0 -220 84q-32 37 -42 86.5t-10 118.5v388q0 45 48 45q20 0 31.5 -9t14 -18t2.5 -18v-301q0 -101 4.5 -144t23.5 -79q40 -65 145 -65q57 0 96 22q49 26 61 71t12 140v355q2 29 23 40
q11 6 23 6q20 0 33.5 -12.5t13.5 -33.5zM402 831q0 25 17 42.5t44 17.5q26 0 43 -17.5t17 -43.5t-17 -43t-43 -17t-43.5 17t-17.5 44zM167 831q0 26 17 43t44 17q26 0 43 -17t17 -43q0 -27 -17.5 -44t-43.5 -17q-25 0 -42.5 17t-17.5 44z" />
    <glyph glyph-name="Yacute" unicode="&#xdd;" 
d="M325 285v-246q0 -9 -2.5 -18t-14 -18t-30.5 -9q-11 0 -23 5q-21 10 -23 40v246l-224 356q-8 14 -8 27q0 19 16 31.5t33 12.5q28 0 41 -22l145 -230q26 -39 48 -86q14 30 31 58l161 258q14 22 38 22q18 0 34 -13t16 -32q0 -13 -9 -26zM346 834l-54 -54q-10 -10 -23 -10
q-11 0 -21.5 8t-10.5 20q0 7 4 15l36 67q12 21 34 21q17 0 31.5 -13t14.5 -29q0 -11 -11 -25z" />
    <glyph glyph-name="Thorn" unicode="&#xde;" horiz-adv-x="604" 
d="M174 659v-85h141q98 0 146 -18q58 -22 89 -73t31 -119q0 -32 -6 -59q-14 -65 -60 -104q-38 -32 -79 -40.5t-103 -8.5h-159v-112q0 -10 -2.5 -18.5t-14 -18t-30.5 -9.5q-49 0 -49 46v619q0 47 47 47q27 0 38 -11t11 -36zM174 490v-253h124q66 0 94 4t48 19q46 32 46 104
q0 42 -21 74q-22 34 -60 43t-120 9h-111z" />
    <glyph glyph-name="germandbls" unicode="&#xdf;" horiz-adv-x="521" 
d="M69 36v440q1 46 2.5 69t12 57.5t30.5 57.5q50 57 149 57q80 0 126 -39q56 -45 56 -126q0 -67 -34 -110q-17 -23 -54 -40q45 -11 74 -43q46 -57 46 -143q0 -47 -14 -88q-44 -134 -199 -134q-15 0 -23.5 1t-20.5 4t-17.5 12t-5.5 23q0 15 8 26q9 14 29 14h32q118 6 118 142
q0 77 -47 116q-30 23 -88 27q-19 2 -27.5 4t-17 11t-8.5 26q0 14 6 22.5t10.5 10.5t13.5 4q2 0 13.5 1t13.5 1q13 2 20.5 3t25.5 8.5t28.5 18t19.5 31t9 48.5q0 45 -24.5 69.5t-70.5 24.5q-29 0 -49.5 -10t-30 -26.5t-13 -27.5t-4.5 -22q-4 -24 -4 -108v-412q-3 -42 -46 -42
q-42 0 -45 42z" />
    <glyph glyph-name="agrave" unicode="&#xe0;" horiz-adv-x="521" 
d="M451 334v-300q-4 -40 -40 -40q-30 2 -38 22q-4 11 -4 48q-58 -74 -161 -74q-77 0 -122.5 43.5t-45.5 115.5q0 34 11.5 60t25.5 40.5t39 25.5t38.5 14.5t37.5 8.5l85 18q50 10 61 14q16 5 22 13t6 26q0 85 -104 85q-40 0 -65.5 -13.5t-32 -25t-13.5 -31.5q-2 -9 -4.5 -15
t-12 -11.5t-25.5 -5.5q-47 0 -47 39q0 24 21 58q52 79 179 79q109 0 155 -54q16 -19 24 -45t9 -44t1 -51zM298 249l-52 -12q-29 -5 -51 -13q-60 -20 -60 -76q0 -39 26.5 -61t66.5 -22q70 0 110 53q18 24 22.5 56.5t5.5 93.5q-21 -9 -68 -19zM267 712l30 -90q2 -8 2 -12
q0 -12 -11 -20.5t-24 -8.5q-16 0 -26 15l-53 78q-8 18 -8 26q0 18 16.5 30t35.5 12q12 0 20 -5.5t11 -10t7 -14.5z" />
    <glyph glyph-name="aacute" unicode="&#xe1;" horiz-adv-x="521" 
d="M451 334v-300q-4 -40 -40 -40q-30 2 -38 22q-4 11 -4 48q-58 -74 -161 -74q-77 0 -122.5 43.5t-45.5 115.5q0 34 11.5 60t25.5 40.5t39 25.5t38.5 14.5t37.5 8.5l85 18q50 10 61 14q16 5 22 13t6 26q0 85 -104 85q-40 0 -65.5 -13.5t-32 -25t-13.5 -31.5q-2 -9 -4.5 -15
t-12 -11.5t-25.5 -5.5q-47 0 -47 39q0 24 21 58q52 79 179 79q109 0 155 -54q16 -19 24 -45t9 -44t1 -51zM298 249l-52 -12q-29 -5 -51 -13q-60 -20 -60 -76q0 -39 26.5 -61t66.5 -22q70 0 110 53q18 24 22.5 56.5t5.5 93.5q-21 -9 -68 -19zM337 673l-52 -77
q-13 -15 -27 -15q-16 0 -26 9.5t-10 21.5q0 7 2 11l30 89q12 30 42 30q21 0 35.5 -13t14.5 -30q0 -8 -9 -26z" />
    <glyph glyph-name="acircumflex" unicode="&#xe2;" horiz-adv-x="521" 
d="M451 334v-300q-4 -40 -40 -40q-30 2 -38 22q-4 11 -4 48q-58 -74 -161 -74q-77 0 -122.5 43.5t-45.5 115.5q0 34 11.5 60t25.5 40.5t39 25.5t38.5 14.5t37.5 8.5l85 18q50 10 61 14q16 5 22 13t6 26q0 85 -104 85q-40 0 -65.5 -13.5t-32 -25t-13.5 -31.5q-2 -9 -4.5 -15
t-12 -11.5t-25.5 -5.5q-47 0 -47 39q0 24 21 58q52 79 179 79q109 0 155 -54q16 -19 24 -45t9 -44t1 -51zM298 249l-52 -12q-29 -5 -51 -13q-60 -20 -60 -76q0 -39 26.5 -61t66.5 -22q70 0 110 53q18 24 22.5 56.5t5.5 93.5q-21 -9 -68 -19zM332 596l-67 80l-67 -80
q-13 -13 -26 -13q-16 0 -26.5 9.5t-10.5 20.5q0 8 6 20l61 86q22 24 63 24q42 0 64 -24l59 -86q7 -16 7 -20q0 -10 -11 -20t-25 -10t-27 13z" />
    <glyph glyph-name="atilde" unicode="&#xe3;" horiz-adv-x="521" 
d="M451 334v-300q-4 -40 -40 -40q-30 2 -38 22q-4 11 -4 48q-58 -74 -161 -74q-77 0 -122.5 43.5t-45.5 115.5q0 34 11.5 60t25.5 40.5t39 25.5t38.5 14.5t37.5 8.5l85 18q50 10 61 14q16 5 22 13t6 26q0 85 -104 85q-40 0 -65.5 -13.5t-32 -25t-13.5 -31.5q-2 -9 -4.5 -15
t-12 -11.5t-25.5 -5.5q-47 0 -47 39q0 24 21 58q52 79 179 79q109 0 155 -54q16 -19 24 -45t9 -44t1 -51zM298 249l-52 -12q-29 -5 -51 -13q-60 -20 -60 -76q0 -39 26.5 -61t66.5 -22q70 0 110 53q18 24 22.5 56.5t5.5 93.5q-21 -9 -68 -19zM291 604l-54 28q-24 12 -36 12
q-25 0 -25 -30q0 -29 -23 -29q-16 0 -20 9.5t-4 26.5q0 44 16 75.5t52 31.5q20 0 44 -12l59 -31q20 -10 30 -10q18 0 27 35q4 25 24 25q24 0 24 -34q0 -32 -10 -61q-16 -49 -60 -49q-15 0 -44 13z" />
    <glyph glyph-name="adieresis" unicode="&#xe4;" horiz-adv-x="521" 
d="M451 334v-300q-4 -40 -40 -40q-30 2 -38 22q-4 11 -4 48q-58 -74 -161 -74q-77 0 -122.5 43.5t-45.5 115.5q0 34 11.5 60t25.5 40.5t39 25.5t38.5 14.5t37.5 8.5l85 18q50 10 61 14q16 5 22 13t6 26q0 85 -104 85q-40 0 -65.5 -13.5t-32 -25t-13.5 -31.5q-2 -9 -4.5 -15
t-12 -11.5t-25.5 -5.5q-47 0 -47 39q0 24 21 58q52 79 179 79q109 0 155 -54q16 -19 24 -45t9 -44t1 -51zM298 249l-52 -12q-29 -5 -51 -13q-60 -20 -60 -76q0 -39 26.5 -61t66.5 -22q70 0 110 53q18 24 22.5 56.5t5.5 93.5q-21 -9 -68 -19zM316 655q0 26 16 41.5t40 15.5
q23 0 39.5 -15.5t16.5 -41.5q0 -25 -15 -40t-41 -15t-41 15.5t-15 39.5zM99 655q0 26 16 41.5t40 15.5q23 0 39.5 -15.5t16.5 -41.5q0 -25 -15 -40t-41 -15t-41 15.5t-15 39.5z" />
    <glyph glyph-name="aring" unicode="&#xe5;" horiz-adv-x="521" 
d="M451 334v-300q-4 -40 -40 -40q-30 2 -38 22q-4 11 -4 48q-58 -74 -161 -74q-77 0 -122.5 43.5t-45.5 115.5q0 34 11.5 60t25.5 40.5t39 25.5t38.5 14.5t37.5 8.5l85 18q50 10 61 14q16 5 22 13t6 26q0 85 -104 85q-40 0 -65.5 -13.5t-32 -25t-13.5 -31.5q-2 -9 -4.5 -15
t-12 -11.5t-25.5 -5.5q-47 0 -47 39q0 24 21 58q52 79 179 79q109 0 155 -54q16 -19 24 -45t9 -44t1 -51zM298 249l-52 -12q-29 -5 -51 -13q-60 -20 -60 -76q0 -39 26.5 -61t66.5 -22q70 0 110 53q18 24 22.5 56.5t5.5 93.5q-21 -9 -68 -19zM265 753q43 0 69 -27t26 -66
q0 -42 -26.5 -70.5t-68.5 -28.5q-40 0 -68.5 27.5t-28.5 69.5q0 40 27.5 67.5t69.5 27.5zM306 658q0 16 -10 29t-32 13q-23 0 -33 -13.5t-10 -29.5q0 -19 12.5 -30.5t31.5 -11.5t30 13t11 30z" />
    <glyph glyph-name="ae" unicode="&#xe6;" horiz-adv-x="875" 
d="M785 235h-325q16 -165 148 -165q37 0 64.5 14t37 26t23.5 35q15 30 39 30q18 0 33 -12t15 -31q0 -24 -22 -52.5t-48 -46.5q-59 -43 -143 -43q-44 0 -78.5 10.5t-57.5 30t-34 32t-23 31.5q-21 -44 -59 -69q-52 -35 -137 -35q-95 0 -136.5 46.5t-41.5 105.5q0 43 18 75
q13 25 35.5 42t43 26t56.5 14t57.5 6.5t63.5 2.5l57 1q-1 57 -6 77q-15 69 -104 69q-29 0 -52 -7q-18 -6 -28.5 -15t-15 -17t-13.5 -27q-5 -13 -8 -19.5t-13 -13t-25 -6.5q-20 0 -32.5 11t-12.5 30q0 26 21 57q54 81 181 81q79 0 124 -33q31 -24 43 -66q25 39 55 61
q54 38 125 38q156 0 205 -154q16 -51 16 -91q0 -49 -46 -49zM368 233q-109 0 -153.5 -6.5t-65.5 -34.5q-15 -20 -15 -46q0 -27 21 -53t73 -26q64 0 100 38q37 38 40 128zM464 310h268q-2 44 -18 75q-36 64 -112 64q-110 0 -138 -139z" />
    <glyph glyph-name="ccedilla" unicode="&#xe7;" horiz-adv-x="521" 
d="M287 68q32 0 56.5 9t39.5 25.5t21.5 28t14.5 28.5l9 19.5t12 13t22 6.5q15 0 31.5 -9.5t16.5 -32.5q0 -25 -21 -60q-61 -106 -204 -106q-53 0 -95 16t-68.5 42.5t-44.5 62.5t-25.5 73t-7.5 76q0 65 18 116q54 152 228 152q132 0 189 -93q21 -33 21 -52t-14 -31.5
t-35 -12.5q-13 0 -22.5 6.5t-14 13.5t-11.5 22q-35 71 -116 71q-74 0 -110.5 -54t-36.5 -134q0 -36 6.5 -67.5t21.5 -62t45.5 -48.5t73.5 -18zM214 -191l29 47q-9 2 -13.5 3.5t-14 7t-14.5 16.5t-5 26q0 28 21 43q14 10 41 10q63 0 63 -60q0 -22 -14 -46l-44 -72
q-11 -13 -22 -13q-15 0 -23 7.5t-8 16.5q0 4 4 14z" />
    <glyph glyph-name="egrave" unicode="&#xe8;" 
d="M474 234h-336q3 -74 39 -118q40 -49 115 -49q36 0 63.5 13t38 24.5t23.5 31.5q10 17 14 22.5t11 10t18 4.5q19 0 35.5 -11t16.5 -31q0 -7 -1 -10q-5 -23 -32 -53q-69 -78 -187 -78q-119 0 -182 70q-66 75 -66 195q0 50 14 96.5t42 87t77 65t112 24.5q36 0 65 -7
q73 -18 115 -75q50 -70 50 -167q0 -45 -45 -45zM139 309h286q-3 57 -36 98t-99 41q-60 0 -97 -33q-38 -33 -54 -106zM287 712l30 -90q2 -8 2 -12q0 -12 -11 -20.5t-24 -8.5q-16 0 -26 15l-53 78q-8 18 -8 26q0 18 16.5 30t35.5 12q12 0 20 -5.5t11 -10t7 -14.5z" />
    <glyph glyph-name="eacute" unicode="&#xe9;" 
d="M474 234h-336q3 -74 39 -118q40 -49 115 -49q36 0 63.5 13t38 24.5t23.5 31.5q10 17 14 22.5t11 10t18 4.5q19 0 35.5 -11t16.5 -31q0 -7 -1 -10q-5 -23 -32 -53q-69 -78 -187 -78q-119 0 -182 70q-66 75 -66 195q0 50 14 96.5t42 87t77 65t112 24.5q36 0 65 -7
q73 -18 115 -75q50 -70 50 -167q0 -45 -45 -45zM139 309h286q-3 57 -36 98t-99 41q-60 0 -97 -33q-38 -33 -54 -106zM357 673l-52 -77q-13 -15 -27 -15q-16 0 -26 9.5t-10 21.5q0 7 2 11l30 89q12 30 42 30q21 0 35.5 -13t14.5 -30q0 -8 -9 -26z" />
    <glyph glyph-name="ecircumflex" unicode="&#xea;" 
d="M474 234h-336q3 -74 39 -118q40 -49 115 -49q36 0 63.5 13t38 24.5t23.5 31.5q10 17 14 22.5t11 10t18 4.5q19 0 35.5 -11t16.5 -31q0 -7 -1 -10q-5 -23 -32 -53q-69 -78 -187 -78q-119 0 -182 70q-66 75 -66 195q0 50 14 96.5t42 87t77 65t112 24.5q36 0 65 -7
q73 -18 115 -75q50 -70 50 -167q0 -45 -45 -45zM139 309h286q-3 57 -36 98t-99 41q-60 0 -97 -33q-38 -33 -54 -106zM357 596l-67 80l-67 -80q-13 -13 -26 -13q-16 0 -26.5 9.5t-10.5 20.5q0 8 6 20l61 86q22 24 63 24q42 0 64 -24l59 -86q7 -16 7 -20q0 -10 -11 -20
t-25 -10t-27 13z" />
    <glyph glyph-name="edieresis" unicode="&#xeb;" 
d="M474 234h-336q3 -74 39 -118q40 -49 115 -49q36 0 63.5 13t38 24.5t23.5 31.5q10 17 14 22.5t11 10t18 4.5q19 0 35.5 -11t16.5 -31q0 -7 -1 -10q-5 -23 -32 -53q-69 -78 -187 -78q-119 0 -182 70q-66 75 -66 195q0 50 14 96.5t42 87t77 65t112 24.5q36 0 65 -7
q73 -18 115 -75q50 -70 50 -167q0 -45 -45 -45zM139 309h286q-3 57 -36 98t-99 41q-60 0 -97 -33q-38 -33 -54 -106zM342 655q0 26 16 41.5t40 15.5q23 0 39.5 -15.5t16.5 -41.5q0 -25 -15 -40t-41 -15t-41 15.5t-15 39.5zM125 655q0 26 16 41.5t40 15.5q23 0 39.5 -15.5
t16.5 -41.5q0 -25 -15 -40t-41 -15t-41 15.5t-15 39.5z" />
    <glyph glyph-name="igrave" unicode="&#xec;" horiz-adv-x="229" 
d="M160 480v-441q0 -11 -5 -23q-11 -22 -40 -22q-21 0 -33.5 12t-12.5 33v440q0 45 45 45q19 0 30 -9t13.5 -17.5t2.5 -17.5zM121 712l30 -90q2 -8 2 -12q0 -12 -11 -20.5t-24 -8.5q-16 0 -26 15l-53 78q-8 18 -8 26q0 18 16.5 30t35.5 12q12 0 20 -5.5t11 -10t7 -14.5z" />
    <glyph glyph-name="iacute" unicode="&#xed;" horiz-adv-x="229" 
d="M160 480v-441q0 -11 -5 -23q-11 -22 -40 -22q-21 0 -33.5 12t-12.5 33v440q0 45 45 45q19 0 30 -9t13.5 -17.5t2.5 -17.5zM191 673l-52 -77q-13 -15 -27 -15q-16 0 -26 9.5t-10 21.5q0 7 2 11l30 89q12 30 42 30q21 0 35.5 -13t14.5 -30q0 -8 -9 -26z" />
    <glyph glyph-name="icircumflex" unicode="&#xee;" horiz-adv-x="229" 
d="M160 480v-441q0 -11 -5 -23q-11 -22 -40 -22q-21 0 -33.5 12t-12.5 33v440q0 45 45 45q19 0 30 -9t13.5 -17.5t2.5 -17.5zM180 596l-67 80l-67 -80q-13 -13 -26 -13q-16 0 -26.5 9.5t-10.5 20.5q0 8 6 20l61 86q22 24 63 24q42 0 64 -24l59 -86q7 -16 7 -20
q0 -10 -11 -20t-25 -10t-27 13z" />
    <glyph glyph-name="idieresis" unicode="&#xef;" horiz-adv-x="229" 
d="M160 480v-441q0 -11 -5 -23q-11 -22 -40 -22q-21 0 -33.5 12t-12.5 33v440q0 45 45 45q19 0 30 -9t13.5 -17.5t2.5 -17.5zM165 655q0 26 16 41.5t40 15.5q23 0 39.5 -15.5t16.5 -41.5q0 -25 -15 -40t-41 -15t-41 15.5t-15 39.5zM-52 655q0 26 16 41.5t40 15.5
q23 0 39.5 -15.5t16.5 -41.5q0 -25 -15 -40t-41 -15t-41 15.5t-15 39.5z" />
    <glyph glyph-name="eth" unicode="&#xf0;" horiz-adv-x="583" 
d="M380 670l61 16q9 3 19 3q16 0 24 -11t8 -22q0 -12 -9 -23q-6 -6 -53 -21q110 -131 110 -336q0 -91 -28 -153q-60 -133 -220 -133q-120 0 -184 70q-64 71 -64 194q0 128 62 200q67 75 172 75q58 0 100 -31q4 -3 20 -19q0 1 -20 41q-19 35 -48 66l-135 -38q-10 -2 -14 -2
q-14 0 -24 10t-10 24q0 17 8 23.5t24 11.5l88 26q-21 26 -21 41q0 24 15.5 34t32.5 10q18 0 33.5 -11t52.5 -45zM292 64q76 0 116 54q37 49 37 140q0 39 -7 71.5t-24 61.5t-48.5 45t-75.5 16q-77 0 -117 -57q-35 -49 -35 -138q0 -95 38 -142q39 -51 116 -51z" />
    <glyph glyph-name="ntilde" unicode="&#xf1;" 
d="M69 39v441q0 27 22 39q24 11 46 0q15 -8 18.5 -20t3.5 -46q56 75 161 75q92 0 138 -57q16 -20 24 -47.5t9.5 -47.5t1.5 -54v-283q0 -45 -46 -45q-11 0 -24 5q-22 12 -22 40v236q0 23 -0.5 39.5t-1 24t-0.5 10.5q0 14 -3 27.5t-11.5 32t-30.5 29.5t-54 11
q-61 0 -92.5 -34.5t-41.5 -79.5q-5 -22 -5 -79v-217q0 -45 -46 -45q-11 0 -24 5q-22 12 -22 40zM311 604l-54 28q-24 12 -36 12q-25 0 -25 -30q0 -29 -23 -29q-16 0 -20 9.5t-4 26.5q0 44 16 75.5t52 31.5q20 0 44 -12l59 -31q20 -10 30 -10q18 0 27 35q4 25 24 25
q24 0 24 -34q0 -32 -10 -61q-16 -49 -60 -49q-15 0 -44 13z" />
    <glyph glyph-name="ograve" unicode="&#xf2;" horiz-adv-x="583" 
d="M539 264q0 -127 -66 -201q-66 -73 -184 -73t-181 70q-64 70 -64 197q0 126 62 197q67 75 188 75q112 0 178.5 -69.5t66.5 -195.5zM291 64q75 0 116 54q37 48 37 140q0 84 -35 139t-119 55q-77 0 -118 -57q-34 -50 -34 -138q0 -94 37 -142q41 -51 116 -51zM299 712l30 -90
q2 -8 2 -12q0 -12 -11 -20.5t-24 -8.5q-16 0 -26 15l-53 78q-8 18 -8 26q0 18 16.5 30t35.5 12q12 0 20 -5.5t11 -10t7 -14.5z" />
    <glyph glyph-name="oacute" unicode="&#xf3;" horiz-adv-x="583" 
d="M539 264q0 -127 -66 -201q-66 -73 -184 -73t-181 70q-64 70 -64 197q0 126 62 197q67 75 188 75q112 0 178.5 -69.5t66.5 -195.5zM291 64q75 0 116 54q37 48 37 140q0 84 -35 139t-119 55q-77 0 -118 -57q-34 -50 -34 -138q0 -94 37 -142q41 -51 116 -51zM369 673
l-52 -77q-13 -15 -27 -15q-16 0 -26 9.5t-10 21.5q0 7 2 11l30 89q12 30 42 30q21 0 35.5 -13t14.5 -30q0 -8 -9 -26z" />
    <glyph glyph-name="ocircumflex" unicode="&#xf4;" horiz-adv-x="583" 
d="M539 264q0 -127 -66 -201q-66 -73 -184 -73t-181 70q-64 70 -64 197q0 126 62 197q67 75 188 75q112 0 178.5 -69.5t66.5 -195.5zM291 64q75 0 116 54q37 48 37 140q0 84 -35 139t-119 55q-77 0 -118 -57q-34 -50 -34 -138q0 -94 37 -142q41 -51 116 -51zM358 596l-67 80
l-67 -80q-13 -13 -26 -13q-16 0 -26.5 9.5t-10.5 20.5q0 8 6 20l61 86q22 24 63 24q42 0 64 -24l59 -86q7 -16 7 -20q0 -10 -11 -20t-25 -10t-27 13z" />
    <glyph glyph-name="otilde" unicode="&#xf5;" horiz-adv-x="583" 
d="M539 264q0 -127 -66 -201q-66 -73 -184 -73t-181 70q-64 70 -64 197q0 126 62 197q67 75 188 75q112 0 178.5 -69.5t66.5 -195.5zM291 64q75 0 116 54q37 48 37 140q0 84 -35 139t-119 55q-77 0 -118 -57q-34 -50 -34 -138q0 -94 37 -142q41 -51 116 -51zM323 604l-54 28
q-24 12 -36 12q-25 0 -25 -30q0 -29 -23 -29q-16 0 -20 9.5t-4 26.5q0 44 16 75.5t52 31.5q20 0 44 -12l59 -31q20 -10 30 -10q18 0 27 35q4 25 24 25q24 0 24 -34q0 -32 -10 -61q-16 -49 -60 -49q-15 0 -44 13z" />
    <glyph glyph-name="odieresis" unicode="&#xf6;" horiz-adv-x="583" 
d="M539 264q0 -127 -66 -201q-66 -73 -184 -73t-181 70q-64 70 -64 197q0 126 62 197q67 75 188 75q112 0 178.5 -69.5t66.5 -195.5zM291 64q75 0 116 54q37 48 37 140q0 84 -35 139t-119 55q-77 0 -118 -57q-34 -50 -34 -138q0 -94 37 -142q41 -51 116 -51zM339 655
q0 26 16 41.5t40 15.5q23 0 39.5 -15.5t16.5 -41.5q0 -25 -15 -40t-41 -15t-41 15.5t-15 39.5zM122 655q0 26 16 41.5t40 15.5q23 0 39.5 -15.5t16.5 -41.5q0 -25 -15 -40t-41 -15t-41 15.5t-15 39.5z" />
    <glyph glyph-name="oslash" unicode="&#xf8;" horiz-adv-x="583" 
d="M539 466l-41 -41q42 -70 42 -160q0 -130 -68 -203q-67 -72 -185 -72q-60 0 -97 15t-70 43l-41 -41q-12 -8 -17 -8q-12 0 -20.5 9t-8.5 20q0 8 7 18l45 46q-41 64 -41 167q0 124 64.5 197t183.5 73q54 0 96 -15t75 -46l37 37q10 7 18 7q11 0 19.5 -8.5t8.5 -19.5
q0 -8 -7 -18zM431 357l-251 -248q36 -46 109 -46q78 0 120 56q38 51 38 138q0 57 -16 100zM151 159l251 247q-37 47 -108 47q-76 0 -117.5 -53.5t-41.5 -135.5q0 -57 16 -105z" />
    <glyph glyph-name="ugrave" unicode="&#xf9;" 
d="M493 478v-440q-2 -28 -22 -39q-22 -10 -46 0q-15 8 -18 20.5t-3 46.5q-32 -42 -68 -59t-91 -17q-86 0 -133 51q-20 22 -30 54t-11.5 52t-1.5 53v278q0 46 46 46q19 0 30.5 -9t14 -18t2.5 -18v-249q0 -89 16 -119q23 -42 82 -42q50 0 87 28.5t48 77.5q5 21 5 84v219
q0 46 46 46q47 0 47 -46zM287 712l30 -90q2 -8 2 -12q0 -12 -11 -20.5t-24 -8.5q-16 0 -26 15l-53 78q-8 18 -8 26q0 18 16.5 30t35.5 12q12 0 20 -5.5t11 -10t7 -14.5z" />
    <glyph glyph-name="uacute" unicode="&#xfa;" 
d="M493 478v-440q-2 -28 -22 -39q-22 -10 -46 0q-15 8 -18 20.5t-3 46.5q-32 -42 -68 -59t-91 -17q-86 0 -133 51q-20 22 -30 54t-11.5 52t-1.5 53v278q0 46 46 46q19 0 30.5 -9t14 -18t2.5 -18v-249q0 -89 16 -119q23 -42 82 -42q50 0 87 28.5t48 77.5q5 21 5 84v219
q0 46 46 46q47 0 47 -46zM357 673l-52 -77q-13 -15 -27 -15q-16 0 -26 9.5t-10 21.5q0 7 2 11l30 89q12 30 42 30q21 0 35.5 -13t14.5 -30q0 -8 -9 -26z" />
    <glyph glyph-name="ucircumflex" unicode="&#xfb;" 
d="M493 478v-440q-2 -28 -22 -39q-22 -10 -46 0q-15 8 -18 20.5t-3 46.5q-32 -42 -68 -59t-91 -17q-86 0 -133 51q-20 22 -30 54t-11.5 52t-1.5 53v278q0 46 46 46q19 0 30.5 -9t14 -18t2.5 -18v-249q0 -89 16 -119q23 -42 82 -42q50 0 87 28.5t48 77.5q5 21 5 84v219
q0 46 46 46q47 0 47 -46zM346 596l-67 80l-67 -80q-13 -13 -26 -13q-16 0 -26.5 9.5t-10.5 20.5q0 8 6 20l61 86q22 24 63 24q42 0 64 -24l59 -86q7 -16 7 -20q0 -10 -11 -20t-25 -10t-27 13z" />
    <glyph glyph-name="udieresis" unicode="&#xfc;" 
d="M493 478v-440q-2 -28 -22 -39q-22 -10 -46 0q-15 8 -18 20.5t-3 46.5q-32 -42 -68 -59t-91 -17q-86 0 -133 51q-20 22 -30 54t-11.5 52t-1.5 53v278q0 46 46 46q19 0 30.5 -9t14 -18t2.5 -18v-249q0 -89 16 -119q23 -42 82 -42q50 0 87 28.5t48 77.5q5 21 5 84v219
q0 46 46 46q47 0 47 -46zM333 655q0 26 16 41.5t40 15.5q23 0 39.5 -15.5t16.5 -41.5q0 -25 -15 -40t-41 -15t-41 15.5t-15 39.5zM116 655q0 26 16 41.5t40 15.5q23 0 39.5 -15.5t16.5 -41.5q0 -25 -15 -40t-41 -15t-41 15.5t-15 39.5z" />
    <glyph glyph-name="yacute" unicode="&#xfd;" horiz-adv-x="437" 
d="M94 494l111 -307q14 -39 23 -76q11 45 21 77q1 6 19 65l78 241q10 30 41 30q22 0 36 -12t14 -30q0 -10 -2 -17l-167 -476q-10 -30 -14 -40t-14 -34t-17 -32.5t-20.5 -24t-27.5 -21.5t-34.5 -11t-44.5 -5q-41 0 -59 10t-18 40q0 25 12 32q8 4 17 4q3 0 22 -2.5t23 -2.5
q35 0 60 27q14 16 33 72l-182 460q-4 11 -4 20q0 19 15 31t37 12q32 0 42 -30zM296 673l-52 -77q-12 -15 -27 -15q-16 0 -26 9.5t-10 21.5q0 7 2 11l30 89q13 30 42 30q21 0 35.5 -13t14.5 -30q0 -8 -9 -26z" />
    <glyph glyph-name="thorn" unicode="&#xfe;" horiz-adv-x="583" 
d="M162 668v-209q58 70 154 70q99 0 161 -72t62 -197q0 -49 -11.5 -95t-35 -86t-66 -64.5t-99.5 -24.5q-39 0 -71 11t-49.5 23.5t-44.5 36.5v-209q0 -46 -47 -46q-11 0 -23 5q-23 13 -23 41v816q0 9 2.5 17.5t13.5 18t30 9.5t30.5 -9t14 -18t2.5 -18zM444 258
q0 194 -139 194q-70 0 -107.5 -50t-37.5 -137q0 -90 37 -145.5t107 -55.5q67 0 106 53q34 46 34 141z" />
    <glyph glyph-name="ydieresis" unicode="&#xff;" horiz-adv-x="437" 
d="M94 494l111 -307q14 -39 23 -76q11 45 21 77q1 6 19 65l78 241q10 30 41 30q22 0 36 -12t14 -30q0 -10 -2 -17l-167 -476q-10 -30 -14 -40t-14 -34t-17 -32.5t-20.5 -24t-27.5 -21.5t-34.5 -11t-44.5 -5q-41 0 -59 10t-18 40q0 25 12 32q8 4 17 4q3 0 22 -2.5t23 -2.5
q35 0 60 27q14 16 33 72l-182 460q-4 11 -4 20q0 19 15 31t37 12q32 0 42 -30zM270 655q0 26 16 41.5t40 15.5q23 0 39.5 -15.5t16.5 -41.5q0 -25 -15 -40t-41 -15t-41 15.5t-15 39.5zM53 655q0 26 16 41.5t40 15.5q23 0 39.5 -15.5t16.5 -41.5q0 -25 -15 -40t-41 -15
t-41 15.5t-15 39.5z" />
    <glyph glyph-name="dotlessi" unicode="&#x131;" horiz-adv-x="229" 
d="M160 480v-441q0 -11 -5 -23q-11 -22 -40 -22q-21 0 -33.5 12t-12.5 33v440q0 45 45 45q19 0 30 -9t13.5 -17.5t2.5 -17.5z" />
    <glyph glyph-name="Lslash" unicode="&#x141;" horiz-adv-x="542" 
d="M174 667v-303l155 117q12 9 24 9q18 0 30.5 -14.5t12.5 -29.5q0 -19 -17 -31l-205 -154v-174h332q42 0 42 -43q0 -44 -42 -44h-381q-13 0 -22.5 2.5t-17 13.5t-7.5 31v142q-25 -18 -36 -18q-17 0 -29.5 14.5t-12.5 29.5q0 19 17 31l61 46v375q0 9 2.5 18t14 18t31.5 9
q48 0 48 -45z" />
    <glyph glyph-name="lslash" unicode="&#x142;" horiz-adv-x="229" 
d="M68 39v258q-17 -11 -28 -11q-17 0 -28.5 15t-11.5 30q0 23 20 34l48 28v275q0 9 2.5 17.5t13.5 17.5t30 9t30 -9t13.5 -17.5t2.5 -17.5v-221q18 11 28 11q17 0 29 -15t12 -30q0 -20 -21 -33l-48 -29v-312q0 -9 -2.5 -17.5t-13.5 -18t-30 -9.5q-27 0 -36.5 14.5t-9.5 30.5
z" />
    <glyph glyph-name="OE" unicode="&#x152;" horiz-adv-x="1146" 
d="M628 47v61q-31 -56 -96.5 -87t-146.5 -31q-88 0 -154.5 31.5t-104.5 84.5t-56.5 114.5t-18.5 129.5q0 72 19.5 136t59 116.5t105.5 83.5t152 31q98 0 170 -43q38 -23 68 -59v45q0 47 47 47h386q43 0 43 -44q0 -18 -9 -28.5t-17 -12.5t-17 -2h-343v-219h322q8 0 15.5 -2
t16 -12.5t8.5 -27.5q0 -41 -40 -41h-322v-231h357q8 0 16 -2t17 -12.5t9 -28.5q0 -44 -42 -44h-397q-47 0 -47 47zM623 351q0 183 -116 253q-51 31 -120 31q-39 0 -72 -10q-67 -20 -109 -75q-54 -72 -54 -195q0 -131 61 -204q64 -78 175 -78q118 0 176.5 79t58.5 199z" />
    <glyph glyph-name="oe" unicode="&#x153;" horiz-adv-x="958" 
d="M870 238h-335q0 -80 42 -123q41 -45 116 -45q76 0 115 61q11 18 15.5 24.5t13.5 12t21 5.5q20 0 34 -11.5t14 -28.5q0 -7 -3 -16q-2 -6 -7 -15.5t-23 -31t-40 -38t-61 -29.5t-84 -13q-41 0 -75 8.5t-58.5 24.5t-38.5 30t-30 33q-35 -42 -55 -57q-57 -40 -137 -40
q-135 0 -199 87q-51 70 -51 178q0 130 67 202q67 73 181 73q129 0 197 -98q29 37 58 57q62 41 138 41q83 0 141 -44q50 -39 69.5 -99.5t19.5 -102.5q0 -20 -8.5 -30.5t-16.5 -12.5t-20 -2zM538 313h278q-3 39 -17.5 67t-30.5 41.5t-37.5 20.5t-31 8t-17.5 1
q-27 0 -53.5 -9.5t-54.5 -42.5t-36 -86zM437 249q0 48 -8 84q-25 118 -141 118q-76 0 -116 -58q-32 -48 -32 -141q0 -86 38 -136t113 -50q35 0 61.5 11t41.5 31t24.5 39t13 43.5t4.5 35.5t1 23z" />
    <glyph glyph-name="Scaron" unicode="&#x160;" horiz-adv-x="625" 
d="M282 432l91 -27q40 -11 64.5 -21.5t59 -33.5t52.5 -61t18 -91q0 -46 -16 -82.5t-41.5 -59.5t-60.5 -38t-70 -21.5t-72 -6.5q-122 0 -192 56q-41 33 -60.5 77t-19.5 67q0 26 19 36.5t38 10.5q32 0 40 -29q15 -55 34 -78q12 -14 26 -24q46 -33 124 -33q75 0 113 29
q43 33 43 87q0 48 -37 78q-28 24 -126 53l-75 21q-53 16 -80 28q-88 40 -88 148q0 91 61.5 145.5t178.5 54.5t181 -54q29 -24 48.5 -60t19.5 -58t-14.5 -34t-35.5 -12t-32 17q-1 2 -4.5 8.5t-7.5 15t-5 10.5q-8 15 -15 25.5t-24.5 27t-46.5 25.5t-68 9q-61 0 -96 -25
q-42 -29 -42 -84q0 -39 25 -59q20 -16 93 -37zM267 884l44 -66l52 68q11 15 27 15t29.5 -10.5t13.5 -25.5q0 -7 -10 -23l-44 -51q-23 -23 -68 -23q-47 0 -69 24l-40 49q-8 16 -8 23q0 15 12 26t29 11t32 -17z" />
    <glyph glyph-name="scaron" unicode="&#x161;" horiz-adv-x="479" 
d="M231 319l58 -18q30 -9 48 -16.5t46 -24.5t42.5 -45.5t14.5 -66.5q0 -81 -63 -123q-51 -35 -137 -35q-96 0 -151 46q-30 25 -42.5 57t-12.5 51q0 22 16.5 32t32.5 10q23 0 34 -22q16 -44 22 -53q32 -49 107 -49q45 0 74 21.5t29 56.5q0 19 -7 32t-23.5 22.5t-28.5 13.5
t-38 12l-58 17q-23 8 -36.5 13t-36 17t-35 25.5t-22.5 36.5t-10 50q0 12 2 26t12.5 37.5t28.5 41t54 31t85 13.5q48 0 85 -12.5t57 -29.5t33 -37.5t17 -34t4 -21.5q0 -20 -13.5 -29.5t-28.5 -9.5q-11 0 -18 4.5t-11.5 11.5t-13.5 24q-34 64 -115 64q-38 0 -58 -14
q-29 -19 -29 -53q0 -22 13.5 -36.5t28 -20.5t44.5 -15zM180 729l66 -80l67 80q11 13 26 13q16 0 26.5 -9.5t10.5 -20.5q0 -8 -6 -20l-61 -86q-22 -24 -63 -24q-43 0 -64 25l-59 85q-6 14 -6 20q0 11 10.5 20.5t26.5 9.5q13 0 26 -13z" />
    <glyph glyph-name="Ydieresis" unicode="&#x178;" 
d="M325 285v-246q0 -9 -2.5 -18t-14 -18t-30.5 -9q-11 0 -23 5q-21 10 -23 40v246l-224 356q-8 14 -8 27q0 19 16 31.5t33 12.5q28 0 41 -22l145 -230q26 -39 48 -86q14 30 31 58l161 258q14 22 38 22q18 0 34 -13t16 -32q0 -13 -9 -26zM336 831q0 25 17 42.5t44 17.5
q26 0 43 -17.5t17 -43.5t-17 -43t-43 -17t-43.5 17t-17.5 44zM101 831q0 26 17 43t44 17q26 0 43 -17t17 -43q0 -27 -17.5 -44t-43.5 -17q-25 0 -42.5 17t-17.5 44z" />
    <glyph glyph-name="Zcaron" unicode="&#x17d;" horiz-adv-x="604" 
d="M582 626l-442 -542h395q41 0 41 -42t-41 -42h-468q-24 0 -34 10q-17 14 -17 46q0 23 14 40l433 525h-361q-42 0 -42 43q0 10 5 22q11 21 37 21h453q38 0 38 -44q0 -24 -11 -37zM267 884l44 -66l52 68q11 15 27 15t29.5 -10.5t13.5 -25.5q0 -7 -10 -23l-44 -51
q-23 -23 -68 -23q-47 0 -69 24l-40 49q-8 16 -8 23q0 15 12 26t29 11t32 -17z" />
    <glyph glyph-name="zcaron" unicode="&#x17e;" horiz-adv-x="479" 
d="M434 437l-238 -287q-49 -59 -63 -70h280q39 0 39 -40t-39 -40h-347q-43 0 -43 54q0 22 13 39l235 281q20 22 29 33q19 23 31 33h-241q-38 0 -38 39t38 39h318q7 0 12 -1t11.5 -5t10 -14t3.5 -26q0 -21 -11 -35zM180 729l66 -80l67 80q11 13 26 13q16 0 26.5 -9.5
t10.5 -20.5q0 -8 -6 -20l-61 -86q-22 -24 -63 -24q-43 0 -64 25l-59 85q-6 14 -6 20q0 11 10.5 20.5t26.5 9.5q13 0 26 -13z" />
    <glyph glyph-name="florin" unicode="&#x192;" horiz-adv-x="292" 
d="M45 -15l51 448h-51q-34 3 -34 32q0 16 7 27q10 17 36 19h50q9 70 14 91.5t19 41.5q40 62 142 62q48 0 48 -33q0 -42 -50 -45q-39 -3 -52 -13t-17.5 -27t-11.5 -77h74q34 -3 34 -32q0 -16 -7 -27q-11 -17 -35 -19h-74l-51 -444q-10 -79 -29 -108q-41 -61 -142 -61
q-48 0 -48 33q0 29 23 39q11 6 42 7q36 3 46.5 21t15.5 65z" />
    <glyph glyph-name="circumflex" unicode="&#x2c6;" horiz-adv-x="292" 
d="M213 596l-67 80l-67 -80q-13 -13 -26 -13q-16 0 -26.5 9.5t-10.5 20.5q0 8 6 20l61 86q22 24 63 24q42 0 64 -24l59 -86q7 -16 7 -20q0 -10 -11 -20t-25 -10t-27 13z" />
    <glyph glyph-name="caron" unicode="&#x2c7;" horiz-adv-x="292" 
d="M79 729l66 -80l67 80q11 13 26 13q16 0 26.5 -9.5t10.5 -20.5q0 -8 -6 -20l-61 -86q-22 -24 -63 -24q-43 0 -64 25l-59 85q-6 14 -6 20q0 11 10.5 20.5t26.5 9.5q13 0 26 -13z" />
    <glyph glyph-name="breve" unicode="&#x2d8;" horiz-adv-x="292" 
d="M142 579q-39 0 -68.5 12t-44 30t-21.5 34t-7 28q0 16 9.5 26.5t24.5 10.5q18 0 31 -21q26 -39 75 -39q31 0 47.5 8.5t34.5 30.5q17 21 35 21q13 0 23 -8.5t10 -25.5q0 -32 -38.5 -69.5t-110.5 -37.5z" />
    <glyph glyph-name="dotaccent" unicode="&#x2d9;" horiz-adv-x="292" 
d="M90 655q0 26 16.5 41.5t39.5 15.5t39.5 -15.5t16.5 -41.5q0 -25 -15 -40t-41 -15t-41 15t-15 40z" />
    <glyph glyph-name="ring" unicode="&#x2da;" horiz-adv-x="292" 
d="M147 753q43 0 69 -27t26 -66q0 -42 -26.5 -70.5t-68.5 -28.5q-40 0 -68.5 27.5t-28.5 69.5q0 40 27.5 67.5t69.5 27.5zM188 658q0 16 -10 29t-32 13q-23 0 -33 -13.5t-10 -29.5q0 -19 12.5 -30.5t31.5 -11.5t30 13t11 30z" />
    <glyph glyph-name="ogonek" unicode="&#x2db;" horiz-adv-x="292" 
d="M136 13h68q-53 -71 -58 -89q-3 -8 -3 -16q0 -29 40 -31q17 -1 24.5 -2.5t16 -8.5t8.5 -20q0 -49 -75 -49q-44 0 -70.5 20.5t-26.5 56.5q0 21 10.5 43.5t23 40t42.5 55.5z" />
    <glyph glyph-name="tilde" unicode="&#x2dc;" horiz-adv-x="292" 
d="M170 604l-54 28q-24 12 -36 12q-25 0 -25 -30q0 -29 -23 -29q-16 0 -20 9.5t-4 26.5q0 44 16 75.5t52 31.5q20 0 44 -12l59 -31q20 -10 30 -10q18 0 27 35q4 25 24 25q24 0 24 -34q0 -32 -10 -61q-16 -49 -60 -49q-15 0 -44 13z" />
    <glyph glyph-name="hungarumlaut" unicode="&#x2dd;" horiz-adv-x="292" 
d="M15 624l30 88q9 30 42 30q21 0 35.5 -12.5t14.5 -29.5q0 -14 -9 -27l-52 -77q-9 -15 -27 -15q-16 0 -26 9.5t-10 21.5q0 6 2 12zM157 624l30 88q10 30 41 30q21 0 35.5 -12.5t14.5 -29.5q0 -13 -9 -27l-51 -77q-9 -15 -28 -15q-16 0 -25.5 9.5t-9.5 21.5q0 6 2 12z" />
    <glyph glyph-name="endash" unicode="&#x2013;" 
d="M65 372h432q8 0 15.5 -2t16 -12t8.5 -27q0 -20 -10.5 -31t-29.5 -11h-432q-8 0 -15.5 2t-16 12.5t-8.5 27.5t8.5 27t16 12t15.5 2z" />
    <glyph glyph-name="emdash" unicode="&#x2014;" horiz-adv-x="667" 
d="M65 372h537q8 0 15.5 -2t16 -12t8.5 -27q0 -19 -11 -30.5t-29 -11.5h-537q-8 0 -15.5 2t-16 12.5t-8.5 27.5t8.5 27t16 12t15.5 2z" />
    <glyph glyph-name="quoteleft" unicode="&#x2018;" horiz-adv-x="208" 
d="M112 574q21 2 34 -8q18 -14 18 -44q0 -26 -15.5 -43.5t-40.5 -17.5q-21 0 -38 12q-27 21 -27 66q0 62 32.5 118t58.5 56q9 0 16 -9t7 -19q0 -11 -22 -34q-24 -30 -23 -77z" />
    <glyph glyph-name="quoteright" unicode="&#x2019;" horiz-adv-x="208" 
d="M96 599q-21 -2 -34 8q-19 14 -19 44q0 26 15.5 43.5t41.5 17.5q21 0 38 -12q27 -21 27 -66q0 -61 -32.5 -117.5t-56.5 -56.5q-11 0 -18 9t-7 19q0 11 22 34q24 30 23 77z" />
    <glyph glyph-name="quotesinglbase" unicode="&#x201a;" horiz-adv-x="208" 
d="M96 -6q-21 -2 -34 8q-19 14 -19 44q0 26 15.5 43.5t41.5 17.5q21 0 38 -12q27 -21 27 -66q0 -62 -32.5 -118t-58.5 -56q-9 0 -16 9t-7 19q0 11 22 34q24 30 23 77z" />
    <glyph glyph-name="quotedblleft" unicode="&#x201c;" horiz-adv-x="375" 
d="M112 574q21 2 34 -8q19 -14 19 -44q0 -26 -15.5 -43.5t-41.5 -17.5q-21 0 -38 12q-27 21 -27 66q0 62 32.5 118t58.5 56q10 0 16.5 -9t6.5 -19q0 -11 -22 -34q-24 -30 -23 -77zM279 574q21 2 34 -8q18 -13 18 -44q0 -26 -15.5 -43.5t-40.5 -17.5q-21 0 -38 12
q-27 21 -27 66q0 61 32.5 117.5t58.5 56.5q9 0 16 -9t7 -19q0 -11 -22 -34q-24 -30 -23 -77z" />
    <glyph glyph-name="quotedblright" unicode="&#x201d;" horiz-adv-x="375" 
d="M263 599q-21 -2 -34 8q-19 14 -19 44q0 26 15.5 43.5t41.5 17.5q21 0 38 -12q27 -21 27 -66q0 -62 -32.5 -118t-57.5 -56q-24 0 -24 28q0 11 22 34q24 30 23 77zM96 599q-21 -2 -34 8q-19 14 -19 44q0 26 15.5 43.5t41.5 17.5q21 0 38 -12q27 -21 27 -66
q0 -62 -32.5 -118t-57.5 -56q-11 0 -17.5 8.5t-6.5 19.5t22 34q24 30 23 77z" />
    <glyph glyph-name="quotedblbase" unicode="&#x201e;" horiz-adv-x="375" 
d="M263 -6q-21 -2 -34 8q-19 14 -19 44q0 26 15.5 43.5t41.5 17.5q21 0 38 -12q27 -21 27 -66q0 -62 -32.5 -118t-58.5 -56q-10 0 -16.5 9t-6.5 19q0 11 22 34q24 30 23 77zM96 -6q-21 -2 -34 8q-19 14 -19 44q0 26 15.5 43.5t41.5 17.5q21 0 38 -12q27 -21 27 -66
q0 -62 -32.5 -118t-58.5 -56q-9 0 -16 9t-7 19q0 11 22 34q24 30 23 77z" />
    <glyph glyph-name="bullet" unicode="&#x2022;" horiz-adv-x="333" 
d="M297 353q0 -54 -35.5 -92t-92.5 -38q-58 0 -95 38.5t-37 91.5q0 52 37.5 91t94.5 39q54 0 91 -37t37 -93z" />
    <glyph glyph-name="ellipsis" unicode="&#x2026;" horiz-adv-x="1000" 
d="M110 50q0 25 15.5 41t41.5 16q24 0 40 -15t16 -42q0 -25 -16 -40.5t-41 -15.5q-24 0 -40 15t-16 41zM443 50q0 25 15.5 41t41.5 16q24 0 40 -15t16 -42q0 -25 -16 -40.5t-41 -15.5q-24 0 -40 15t-16 41zM776 50q0 25 15.5 41t41.5 16q24 0 40 -15t16 -42q0 -25 -16 -40.5
t-41 -15.5q-24 0 -40 15t-16 41z" />
    <glyph glyph-name="guilsinglleft" unicode="&#x2039;" horiz-adv-x="250" 
d="M198 397l-91 -68l90 -69q17 -15 17 -33t-13 -30.5t-29 -12.5q-12 0 -25 10l-121 100q-12 12 -12 37q0 24 13 36l123 99q16 9 23 9q14 0 27.5 -12.5t13.5 -32.5q0 -17 -16 -33z" />
    <glyph glyph-name="guilsinglright" unicode="&#x203a;" horiz-adv-x="250" 
d="M52 262l91 68l-90 69q-17 15 -17 33t13 30.5t29 12.5q12 0 25 -10l121 -99q11 -12 11 -38q0 -25 -12 -36l-123 -99q-14 -8 -23 -8q-15 0 -28 12t-13 32q0 19 16 33z" />
    <glyph glyph-name="trademark" unicode="&#x2122;" horiz-adv-x="688" 
d="M636 706v-332h-57l2 206q0 25 3 67q-4 -15 -16 -56l-68 -217h-51l-69 217q-1 3 -2 7.5t-5 17t-9 30.5q1 -10 1.5 -22.5t1.5 -25.5t1 -18l2 -206h-56v332h79l83 -262l81 262h79zM181 657v-283h-58v283h-107v49h270v-49h-105z" />
    <glyph glyph-name="fi" unicode="&#xfb01;" horiz-adv-x="521" 
d="M76 39v401h-51q-38 3 -38 39t38 39h50q1 69 3.5 91t14.5 42q33 62 135 62q52 0 52 -39q0 -36 -45 -39q-39 -3 -51 -13t-14.5 -26.5t-2.5 -77.5h75q38 -3 38 -39t-38 -39h-74v-401q-2 -28 -22 -40q-12 -5 -25 -5q-10 0 -23 5q-20 11 -22 40zM452 479v-441q-2 -16 -5 -22
q-11 -22 -40 -22q-21 0 -33.5 11.5t-12.5 32.5v441q3 45 45 45q43 0 46 -45zM350 655q0 26 16 41.5t40 15.5q23 0 39.5 -15.5t16.5 -41.5q0 -25 -15 -40t-41 -15t-41 15.5t-15 39.5z" />
    <glyph glyph-name="fl" unicode="&#xfb02;" horiz-adv-x="521" 
d="M76 39v401h-51q-38 3 -38 39t38 39h50q1 69 3.5 91t14.5 42q33 62 135 62q52 0 52 -39q0 -36 -45 -39q-39 -3 -51 -13t-14.5 -26.5t-2.5 -77.5h75q37 -3 37 -39t-37 -39h-74v-401q-2 -28 -22 -40q-12 -5 -25 -5q-10 0 -23 5q-20 11 -22 40zM452 668v-629q-4 -45 -46 -45
q-20 0 -33 11.5t-13 33.5v628q3 45 46 45q42 0 46 -44z" />
    </font>
</defs>
</svg>
