<svg xmlns="http://www.w3.org/2000/svg" viewBox="0 0 246.27 18.62"><defs><style>.cls-1{fill:#e40c31;}.cls-2{fill:none;}</style></defs><title>Barra-peinados</title><g id="Capa_2" data-name="Capa 2"><g id="Capa_31" data-name="Capa 31"><path class="cls-1" d="M11.14,13.49c0,2.93-2.2,4.54-5.42,4.54H0V.73H4.84C8.06.73,10.7,2.2,10.7,4.84s-1.9,4-4.84,4.1c3.08.15,5.28,1.76,5.28,4.55M2.2.88V8.94H4.84c2.64,0,3.66-2,3.66-4A3.66,3.66,0,0,0,4.84,1H2.2Zm3.08,17c2.64,0,3.66-2.49,3.66-4.39,0-2.06-1-4.4-3.66-4.4H2.2v8.79Z"/><path class="cls-1" d="M14.07,18,20.82.29h.29L27.85,18H25.51l-2.06-5.72H16.56L14.37,18Zm2.49-5.86h6.75L19.94,3.52Z"/><path class="cls-1" d="M43.24,18H41l-1.17-7a2.21,2.21,0,0,0-2.2-1.75H34.3V18H32.1V.73h5C40.31.73,43,2.2,43,5c0,2.35-1.61,3.82-4.25,4.26a3.77,3.77,0,0,1,3.52,3.07Zm-6.3-8.94c2.64,0,3.66-2.35,3.66-4.11S39.58,1,36.94,1H34.15V9.09Z"/><path class="cls-1" d="M59.22,18H57l-1.17-7a2.23,2.23,0,0,0-2.2-1.75H50.28V18h-2.2V.73h5C56.29.73,58.93,2.2,58.93,5c0,2.35-1.61,3.82-4.25,4.26a3.77,3.77,0,0,1,3.52,3.07ZM53.06,9.09c2.64,0,3.67-2.35,3.67-4.11S55.7,1,53.06,1H50.28V9.09Z"/><path class="cls-1" d="M62.45,18,69.19.29h.29L76.23,18H73.88l-2-5.72H64.94L62.74,18Zm2.49-5.86h6.74L68.31,3.52Z"/><path class="cls-1" d="M100.56,7.62c0,4.55-3.08,7.19-6.89,7.19h-4V.44h4c3.81,0,6.89,2.64,6.89,7.18m-7,7c2.79,0,5.13-2.64,5.13-7s-2.2-7-5.13-7h-2V14.66Z"/><polygon class="cls-1" points="106.13 0.59 106.13 7.48 110.38 7.48 110.38 7.62 106.13 7.62 106.13 14.66 113.17 14.66 113.17 14.8 104.37 14.8 104.37 0.44 113.17 0.44 113.17 0.59 106.13 0.59"/><line class="cls-2" x1="89.27" y1="18.62" x2="113.9" y2="18.62"/><rect class="cls-1" x="89.27" y="18.47" width="24.63" height="0.15"/><path class="cls-1" d="M137.5,5c0,2.94-2.2,4.4-5.42,4.4h-3.23v8.36h-2.2V.59h5.28c3.22,0,5.57,1.61,5.57,4.39m-6,4.26c2.64,0,3.66-2.35,3.66-4.26s-1-4.25-3.66-4.25H128.7V9.24Z"/><polygon class="cls-1" points="144.1 0.73 144.1 8.94 149.08 8.94 149.08 9.23 144.1 9.23 144.1 17.74 152.6 17.74 152.6 17.88 141.9 17.88 141.9 0.59 152.6 0.59 152.6 0.73 144.1 0.73"/><rect class="cls-1" x="157.58" y="0.59" width="2.2" height="17.3"/><polygon class="cls-1" points="178.25 0.59 178.25 18.03 177.96 18.03 165.79 1.47 165.79 17.88 165.5 17.88 165.5 0.59 167.84 0.59 177.96 14.51 177.96 0.59 178.25 0.59"/><path class="cls-1" d="M181.62,17.88,188.37.15h.29l6.74,17.73h-2.34l-2.2-5.71H184l-2.2,5.71ZM184.11,12h6.75l-3.37-8.65Z"/><path class="cls-1" d="M212.7,9.24c0,5.42-3.81,8.64-8.36,8.64h-4.69V.59h4.69c4.55,0,8.36,3.22,8.36,8.65m-8.65,8.5c3.52,0,6.16-3.23,6.16-8.5S207.57.73,204.05.73h-2.34v17Z"/><path class="cls-1" d="M231.46,9.24c0,5-3.22,9.08-7.47,9.08s-7.48-4.1-7.48-9.08S219.74.15,224,.15s7.47,4.1,7.47,9.09m-2.34,0c0-4.11-1.62-9-5.13-9-3.67,0-5.13,4.84-5.13,9s1.61,8.94,5.13,8.94,5.13-4.84,5.13-8.94"/><path class="cls-1" d="M240.55,7.62c2.79.74,5.72,1.32,5.72,5.28,0,2.93-2.64,5.28-5.87,5.28a6.25,6.25,0,0,1-5-2.35l.15-.15A6.1,6.1,0,0,0,240.26,18c2.64,0,4.84-1.61,4.84-4,0-2.78-2.64-3.52-5.14-4.1-2.63-.73-5.13-1.32-5.13-5a5.35,5.35,0,0,1,5.43-5,6,6,0,0,1,4.54,2.05l-.14.15A5.45,5.45,0,0,0,240.4.15c-2.63,0-4.69,1.61-4.69,3.66,0,2.64,2.35,3.23,4.84,3.81"/></g></g></svg>