<svg xmlns="http://www.w3.org/2000/svg" viewBox="0 0 44.3 170.3"><defs><style>.cls-1{fill:#1e1e1c;}.cls-2{fill:#5a5a59;}</style></defs><title>color-niu</title><g id="Capa_2" data-name="Capa 2"><g id="Capa_1-2" data-name="Capa 1"><path class="cls-1" d="M5.14,61.32a5.25,5.25,0,0,1-2.36.59A2.6,2.6,0,0,1,0,59.3a2.66,2.66,0,0,1,2.78-2.71,2.07,2.07,0,0,1,1.86.85l0,.61,0,.62H3.88v-.34c0-.79-.4-1.06-1.17-1.06A1.86,1.86,0,0,0,.79,59.22a1.91,1.91,0,0,0,2,2,4.81,4.81,0,0,0,2.06-.53Z"/><path class="cls-1" d="M9.67,59.25a2.65,2.65,0,1,1,2.65,2.66A2.6,2.6,0,0,1,9.67,59.25Zm4.51,0a1.86,1.86,0,1,0-1.86,2A1.87,1.87,0,0,0,14.18,59.25Z"/><path class="cls-1" d="M22.51,61.09h2v.68H19.49v-.68h2.27V54.85a8.67,8.67,0,0,1-1.25.12l-.71,0-.12-.67h.78c.38,0,1.09,0,1.36-.34.1-.11.17-.19.33-.19.37,0,.36.37.36.64Z"/><path class="cls-1" d="M29.11,59.25a2.65,2.65,0,1,1,2.65,2.66A2.6,2.6,0,0,1,29.11,59.25Zm4.51,0a1.86,1.86,0,1,0-1.86,2A1.87,1.87,0,0,0,33.62,59.25Z"/><path class="cls-1" d="M40.88,61.09h2.2v.68h-4v-.68h1.06V57.43l-.89.12-.11-.62a1.64,1.64,0,0,0,1.07-.33c.1-.11.17-.2.33-.2.35,0,.35.34.35.6v.65a3.8,3.8,0,0,1,2.19-1.06,1.3,1.3,0,0,1,1.23,1l-.76.31c-.09-.26-.22-.61-.54-.61-.62,0-1.65.86-2.12,1.29Z"/><path class="cls-2" d="M38.55,10.3a.73.73,0,0,0-.73-.73H33.29l4.5-4.78a2.85,2.85,0,0,0-4-4l-9.35,8.8H8.68A.73.73,0,0,0,8,10.3a15.31,15.31,0,0,0,8.79,13.84h0a.73.73,0,0,0,0,1.46H29.81a.73.73,0,0,0,0-1.46h0A15.31,15.31,0,0,0,38.55,10.3ZM34.76,1.83a1.42,1.42,0,0,1,1.94,0,1.42,1.42,0,0,1,0,1.93L31.29,9.57H26.53ZM23.25,24.14A13.86,13.86,0,0,1,9.43,11H37.08A13.87,13.87,0,0,1,23.25,24.14Z"/><path class="cls-1" d="M10.89,169.47h.82v.68H9.31v-.68h.82V165.8l-.89.12-.1-.62A1.62,1.62,0,0,0,10.2,165c.1-.11.18-.2.33-.2.36,0,.36.34.36.6v.19a4.53,4.53,0,0,1,1.93-.59,1.61,1.61,0,0,1,1.49.77,3.27,3.27,0,0,1,.21,1.46v2.27h.83v.68H12.94v-.68h.83v-2.25c0-.74,0-1.57-.95-1.57a3.76,3.76,0,0,0-1.93.69Z"/><path class="cls-1" d="M19.63,169.47h2.42v-3.65a5.26,5.26,0,0,1-1.25.13l-1-.06-.13-.67,1.11.07a1.9,1.9,0,0,0,1.36-.34.4.4,0,0,1,.33-.18c.38,0,.36.36.36.63v4.07h2.14v.68H19.63Zm2.68-5.6a.76.76,0,1,1,.77-.76A.77.77,0,0,1,22.31,163.87Z"/><path class="cls-1" d="M33.19,169.85a4.41,4.41,0,0,1-1.76.45c-1.17,0-1.85-.62-1.85-2.08V165.8l-.89.12-.1-.62a1.66,1.66,0,0,0,1.07-.33.4.4,0,0,1,.32-.2c.36,0,.36.34.36.6V168c0,1.25.27,1.64,1.08,1.64a4.21,4.21,0,0,0,1.77-.51V165.8l-.89.12-.11-.62a1.63,1.63,0,0,0,1.07-.33c.1-.11.17-.2.33-.2.36,0,.36.34.36.6v4.1h1v.68H33.19Z"/><path class="cls-2" d="M38.21,125.63a21.41,21.41,0,0,0-.61-2.42v0s0,0,0,0a44.7,44.7,0,0,0-2.22-5.52v0c-1.26-2.72-3.6-7.77-2.84-11.85a.71.71,0,0,0-.57-.83.72.72,0,0,0-.83.57c-.84,4.52,1.62,9.85,2.94,12.71l0,0A48.25,48.25,0,0,1,36,122.89a50.09,50.09,0,0,1-25.5,0,45.66,45.66,0,0,1,1.94-4.67v0c1.32-2.86,3.79-8.19,2.94-12.71a.71.71,0,1,0-1.4.26c.76,4.08-1.58,9.13-2.83,11.85l0,0a44.29,44.29,0,0,0-2.22,5.53v0h0a24.66,24.66,0,0,0-.61,2.43A26.76,26.76,0,0,0,8.64,138a.7.7,0,0,0,.68.52.64.64,0,0,0,.2,0,.71.71,0,0,0,.49-.88,24.59,24.59,0,0,1-.57-10.16,14,14,0,0,1,12.3,8.63l-.22,1.63a.72.72,0,0,0,.62.8h.09a.72.72,0,0,0,.71-.62l.16-1.2h.3l.17,1.2a.7.7,0,0,0,.7.62h.1a.71.71,0,0,0,.61-.8l-.22-1.63a14,14,0,0,1,12.31-8.63,24.55,24.55,0,0,1-.58,10.16.72.72,0,0,0,.49.88.69.69,0,0,0,.2,0,.7.7,0,0,0,.68-.52,26.63,26.63,0,0,0,.35-12.41Zm-9.27,3.15a15.57,15.57,0,0,0-5.39,6.53H23a15.48,15.48,0,0,0-13.29-9.24,1.16,1.16,0,0,1,0-.18c.1-.55.23-1.1.38-1.64a51.28,51.28,0,0,0,26.34,0c.15.54.28,1.09.39,1.64l0,.18a15.39,15.39,0,0,0-7.9,2.71Z"/><path class="cls-2" d="M20.55,122.48a.75.75,0,1,0-.53-.22.75.75,0,0,0,.53.22Z"/></g></g></svg>