<svg xmlns="http://www.w3.org/2000/svg" viewBox="0 0 58.4 232.32"><defs><style>.cls-1{fill:#595957;}.cls-2{fill:#1d1d1b;}</style></defs><title>corte</title><g id="Capa_2" data-name="Capa 2"><g id="texto_rockero" data-name="texto rockero"><path class="cls-1" d="M50.7,34.31a7.31,7.31,0,0,0-7.06-5.43,7.54,7.54,0,0,0-1.89.25,7.4,7.4,0,0,0-4.2,3l-3.9-14.56,1-3.73C37.17,4.44,36.26,1.25,36.15.92A1.26,1.26,0,0,0,35,.08a1.21,1.21,0,0,0-1.19.76L30.62,8.46,27.38.76A1.21,1.21,0,0,0,26.18,0a1.24,1.24,0,0,0-1.12.87c-.11.34-1,3.59,1.54,13l1,3.73L23.69,32.15a7.38,7.38,0,0,0-4.19-3,7.62,7.62,0,0,0-1.9-.25,7.32,7.32,0,0,0-1.89,14.39,7.62,7.62,0,0,0,1.9.25,7.32,7.32,0,0,0,7-5.35L28.44,24l2.18-.67,2.19.67,3.76,14.05a7.33,7.33,0,0,0,7.07,5.43,7.61,7.61,0,0,0,1.89-.25,7.32,7.32,0,0,0,5.17-9Zm-5.81,6.56A4.83,4.83,0,1,1,48.31,35,4.83,4.83,0,0,1,44.89,40.87ZM32.36,12.8l-.12-.45a1,1,0,0,0-.05-.16L32,11.67l1.4-3.34C33.12,9.7,32.78,11.2,32.36,12.8ZM29,13.22c-.47-1.76-.84-3.4-1.12-4.9l2,4.73,2.19,8.16-1-.31Zm1.93,7.9,0,.06,0-.06ZM22.33,37.53h-.18v0A4.8,4.8,0,0,1,17.55,41a4.6,4.6,0,0,1-1.22-.17,4.83,4.83,0,0,1,1.27-9.5,5.11,5.11,0,0,1,1.25.32A5,5,0,0,1,22.33,37.53Z"/><path class="cls-2" d="M6.77,85.66a6.88,6.88,0,0,1-3.1.78A3.43,3.43,0,0,1,0,83a3.5,3.5,0,0,1,3.67-3.57,2.69,2.69,0,0,1,2.44,1.12l0,.8,0,.82h-1v-.45c0-1-.53-1.39-1.54-1.39A2.46,2.46,0,0,0,1,82.89,2.52,2.52,0,0,0,3.7,85.55a6.22,6.22,0,0,0,2.72-.71Z"/><path class="cls-2" d="M12.74,82.94a3.49,3.49,0,1,1,3.48,3.5A3.43,3.43,0,0,1,12.74,82.94Zm5.93,0a2.45,2.45,0,1,0-2.45,2.61A2.46,2.46,0,0,0,18.67,82.94Z"/><path class="cls-2" d="M28.24,85.35h2.9v.9H25.86v-.9h1.39V80.54l-1.17.16-.14-.82a2.22,2.22,0,0,0,1.4-.43c.13-.15.23-.27.44-.27.46,0,.46.44.46.8v.84a5,5,0,0,1,2.88-1.39,1.71,1.71,0,0,1,1.62,1.3l-1,.4c-.13-.34-.29-.8-.72-.8-.82,0-2.17,1.13-2.79,1.69Z"/><path class="cls-2" d="M41.23,79.62H45v.9H41.23v3.2c0,.83-.09,1.83,1,1.83a11,11,0,0,0,2.8-.53l.32.85a13.37,13.37,0,0,1-3.22.57c-1.2,0-1.92-.7-1.92-2.27V80.52H37.93v-.9h2.31V77.85h1Z"/><path class="cls-2" d="M52.25,83.32c.1,1.39,1.19,2.23,2.9,2.23a7.3,7.3,0,0,0,3-.76l.29.82a8,8,0,0,1-3.38.83c-2.89,0-3.81-1.92-3.81-3.36a3.53,3.53,0,0,1,3.57-3.65,3,3,0,0,1,3.27,3.22,3.79,3.79,0,0,1-.06.67ZM57,82.43a2.14,2.14,0,0,0-2.24-2.1,2.64,2.64,0,0,0-2.55,2.1Z"/><path class="cls-2" d="M12.88,222.36v.9H11.71a2.5,2.5,0,0,1-2.16,4l-.54,0c-.19.1-.8.61-.8.8s.56.11.8.11h2.45c1.42,0,2.27.56,2.27,1.73,0,2-2.35,2.5-4,2.5-1.25,0-3.35-.18-3.35-1.86a2.17,2.17,0,0,1,1.07-1.73.78.78,0,0,1-.33-.67c0-.45.48-.85.86-1.2a2.28,2.28,0,0,1-1.28-2.11,2.61,2.61,0,0,1,2.55-2.58,5.08,5.08,0,0,1,1.28.19Zm-.19,7.57c0-.87-.69-.94-1.39-.94H8.59c-.51.35-1.13.74-1.13,1.43,0,1,1.52,1,2.22,1C10.74,231.42,12.69,231.23,12.69,229.93Zm-3.15-6.86a1.63,1.63,0,0,0-1.75,1.6,1.6,1.6,0,0,0,1.79,1.66,1.44,1.44,0,0,0,1.57-1.58A1.56,1.56,0,0,0,9.54,223.07Z"/><path class="cls-2" d="M23.25,228.09h2.67v.9H19.26v-.9h3v-8.21a10.13,10.13,0,0,1-1.65.16l-.93,0-.16-.88h1c.5,0,1.44,0,1.8-.45a.52.52,0,0,1,.43-.24c.49,0,.48.48.48.83Z"/><path class="cls-2" d="M31.93,225.68a3.49,3.49,0,1,1,3.49,3.5A3.44,3.44,0,0,1,31.93,225.68Zm5.94,0a2.45,2.45,0,1,0-2.45,2.61A2.46,2.46,0,0,0,37.87,225.68Z"/><path class="cls-2" d="M46.64,222.36v.9H45.5l1.32,4.61,1.23-3.76h.61l1.28,3.76,1.28-4.61H50v-.9H53v.9h-.84l-1.58,5.92H49.42l-1.07-3.12-1,3.12H46.21l-1.64-5.92H43.5v-.9Z"/><path class="cls-1" d="M47.68,146.79a1,1,0,0,0-1.44-.14l-1.53,1.26a46.64,46.64,0,0,0-20.37-5.29,1,1,0,0,0-1.05.93l0,.41L20,143.67a1,1,0,0,0-1.1.93l-.38,4.28a1,1,0,0,0,.93,1.11l3.26.29,0,.4a.62.62,0,0,0,0,.13,11.79,11.79,0,0,1-8.57,10.29,1,1,0,0,0,.27,2l.27,0A13.81,13.81,0,0,0,24.58,152a45.9,45.9,0,0,1,4.68,1.33v3h-.71a1,1,0,0,0-1,1v3.89a13.8,13.8,0,0,0-1.9,24.51H25.2a1,1,0,1,0,0,2H40.48a1,1,0,0,0,0-2h-.42a13.8,13.8,0,0,0-1.9-24.51v-3.89a1,1,0,0,0-1-1h-.72v-.58h.19a4.67,4.67,0,0,0,2.9-.95l6-4.89,0,0,2-1.68a1,1,0,0,0,.14-1.44Zm-27,1.25.2-2.24,2.24.2-.2,2.24Zm15.47,10.37V161H29.57v-2.54ZM44.6,174a11.76,11.76,0,1,1-15.87-11h3.09v5.91H25.17a1,1,0,0,0-.9.54,9.72,9.72,0,0,0,8.57,14.29,9.6,9.6,0,0,0,5.86-2,9.77,9.77,0,0,0,3.46-5,1,1,0,0,0-2-.58A7.67,7.67,0,1,1,25.81,171h6v7.67a1,1,0,0,0,2,0V171h6a7.69,7.69,0,0,1,.59,2.16,1,1,0,0,0,1.13.9,1,1,0,0,0,.9-1.14,9.68,9.68,0,0,0-1.08-3.43,1,1,0,0,0-.9-.54H33.86V163H37a11.8,11.8,0,0,1,7.64,11ZM31.31,156.36v-4.84a1.54,1.54,0,1,1,3.07,0v4.84Zm6.9-3.11a2.75,2.75,0,0,1-1.79.49v-2.22a3.58,3.58,0,0,0-3.58-3.58h-.42l-.11,0h-.07l-.1,0h-.07l-.1,0H31.9l-.09,0-.08,0-.09,0-.07,0-.08,0-.08,0-.08,0-.07,0-.08,0-.07,0-.08.05-.06,0-.08.05-.06,0-.08.06-.06,0-.08.06-.05,0-.09.08,0,0-.12.12h0l-.1.11,0,0-.07.08-.05.06-.06.07,0,.06a.35.35,0,0,0-.05.08l-.05.06a.35.35,0,0,1-.05.08l0,.07a.22.22,0,0,0-.05.08l0,.06,0,.08,0,.08,0,.08,0,.07,0,.09,0,.07,0,.09a.19.19,0,0,0,0,.07l0,.09s0,.05,0,.08a.29.29,0,0,0,0,.09s0,0,0,.08,0,.06,0,.09,0,.05,0,.08,0,.06,0,.1,0,0,0,.07h0c-1.68-.54-3.19-.95-4.5-1.23l.46-5.24A44.46,44.46,0,0,1,43,149.33Z"/></g></g></svg>