<svg xmlns="http://www.w3.org/2000/svg" viewBox="0 0 345.89 345.89"><defs><style>.cls-1{fill:#e80d31;}</style></defs><title>facebook3</title><g id="Capa_2" data-name="Capa 2"><g id="Layer_1" data-name="Layer 1"><path class="cls-1" d="M326.8,0H19.09A19.09,19.09,0,0,0,0,19.09V326.8a19.08,19.08,0,0,0,19.09,19.09H184.75V212H139.68V159.74h45.07V121.25c0-44.68,27.29-69,67.14-69a371,371,0,0,1,40.28,2.06V101H264.53c-21.67,0-25.87,10.3-25.87,25.42v33.32h51.69L283.62,212h-45V345.89H326.8a19.09,19.09,0,0,0,19.09-19.09V19.09A19.09,19.09,0,0,0,326.8,0Z"/></g></g></svg>