<svg xmlns="http://www.w3.org/2000/svg" viewBox="0 0 116.3 117.48"><defs><style>.cls-1{fill:#fce2df;}.cls-1,.cls-10,.cls-11,.cls-12,.cls-13,.cls-14,.cls-15,.cls-16,.cls-17,.cls-18,.cls-19,.cls-2,.cls-20,.cls-21,.cls-22,.cls-23,.cls-24,.cls-25,.cls-26,.cls-27,.cls-28,.cls-29,.cls-3,.cls-30,.cls-31,.cls-32,.cls-33,.cls-34,.cls-35,.cls-36,.cls-37,.cls-38,.cls-39,.cls-4,.cls-5,.cls-6,.cls-7,.cls-8,.cls-9{fill-rule:evenodd;}.cls-2{fill:#fce5e2;}.cls-3{fill:#fdf0ee;}.cls-4{fill:#fdeeec;}.cls-5{fill:#fde8e5;}.cls-6{fill:#fdf2f0;}.cls-7{fill:#fff8f6;}.cls-8{fill:#fcdcd9;}.cls-9{fill:#fbdad7;}.cls-10{fill:#fbd6d3;}.cls-11{fill:#fce4e1;}.cls-12{fill:#fce6e3;}.cls-13{fill:#fbdad6;}.cls-14{fill:#fcdfdc;}.cls-15{fill:#fbd6d2;}.cls-16{fill:#fcdeda;}.cls-17{fill:#fcdedb;}.cls-18{fill:#fbd8d5;}.cls-19{fill:#fcddda;}.cls-20{fill:#fdebe8;}.cls-21{fill:#fde9e5;}.cls-22{fill:#fdece9;}.cls-23{fill:#fff5f3;}.cls-24{fill:#fce1dd;}.cls-25{fill:#facbc8;}.cls-26{fill:#facdca;}.cls-27{fill:#fad0cd;}.cls-28{fill:#fbd3d0;}.cls-29{fill:#facecb;}.cls-30{fill:#fad1cd;}.cls-31{fill:#fbd5d2;}.cls-32{fill:#faccc9;}.cls-33{fill:#fbd2cf;}.cls-34{fill:#facac7;}.cls-35{fill:#f9c7c5;}.cls-36{fill:#f9c5c2;}.cls-37{fill:#f9c4c1;}.cls-38{fill:#f9c3c0;}.cls-39{fill:#f9c0be;}.cls-40{fill:#d19991;}</style></defs><title>Recurso 1</title><g id="Capa_2" data-name="Capa 2"><g id="d"><path class="cls-1" d="M95.82,43l.08.12.1.11c0,.61.75.85.75,1.46h0c0,.5.59.69.55,1.19h0c0,.5.59.7.54,1.2h0c.24,1,1.31,1.46,1.53,2.45h0c.25,1,1.3,1.46,1.54,2.45h0c.48,1.34,1.85,2.09,2.32,3.44h0c.06.71.9,1,1,1.7h0c0,.62.74.84.74,1.45l.08.12.1.11c0,.39.42.58.36,1h0c-.07.38.42.57.34.95h0c0,.26.19.45.16.7h0c.08.58.4,1.08.48,1.65h0c0,.25.19.45.16.7h0c.34,1.68,1.4,3.23,1,5.06a1.33,1.33,0,0,0-.3,1.45,7.25,7.25,0,0,1-.76,5,25.7,25.7,0,0,0-1.84,4.87,4.49,4.49,0,0,1-.74,1.56c-.32.43-.71.88-1.2.14,0-.26-.13-.55,0-.78,1.06-2.2.68-4.77,1.86-6.92.4-.72-.15-.78-.59-1-1-.36-2.16-.46-2.39-1.92-.44,1-1.32,1.63-1.69,2.63-.46,1.27-1.46.21-2.25.4-.12.68.44,1,.74,1.46a4.33,4.33,0,0,1,.81,1.53c.07.37.12.8-.2,1s-.71-.11-1-.39c.11.86.79,1.37,1.14,2.07a.83.83,0,0,0,1.18.43c1.54-.61,1.8-.45,2.43,1.35-1.56,1.62-1.93,4-3.68,5.53-.48.41.11.91,0,1.52a7.84,7.84,0,0,0,2.42-1.27,13.88,13.88,0,0,0,2.34-2.06c.74-.64,1.06-1.66,1.93-2.18.57.06.37.42.3.73h0c0,.26-.27.4-.3.65h0c-.11.61-.91.65-1,1.25h0a2.57,2.57,0,0,1-1.1,1.29c-2.17,1.65-4.2,3.46-6.8,4.5a5.91,5.91,0,0,0-2.51,2.09h0c0,.39-.53.46-.55.85h0a13,13,0,0,1-5.25,4.88,17.92,17.92,0,0,0-3.72,2.94,5.75,5.75,0,0,1-2.48,1.63c-1,.25-1.48,1-2.21,1.5A61.09,61.09,0,0,1,68,112.12c-1.3-.28-2.16,1.09-3.43.92a1.94,1.94,0,0,0-1.69-.13c-1.51.63-3.15.28-4.69.71a1.35,1.35,0,0,1-1.55-.54c-.8-1.14-1.92-1.11-3.15-.84.27.93,1.34,1.08,1.67,1.89a.61.61,0,0,1,0,.42.53.53,0,0,1-.4.14,1.48,1.48,0,0,1-.41-.12,2.25,2.25,0,0,1-.38-.19,8.06,8.06,0,0,0-1.28-.72,2.31,2.31,0,0,1-.36-.25c-1.61-1.49-3.14-3.1-5.27-3.87a1.26,1.26,0,0,1-.65-.45c-1.33-2-3.23-3.49-4.54-5.49.32-.87,1-.54,1.57-.41a30.49,30.49,0,0,0,4,.59l.43,0,.44,0c2.23.46,4.53.21,6.75.76l.6.12.6.08.62,0c.22,0,.44,0,.66.07,3.68.94,7,1,10.59-1.17s6.75-5.23,10.23-7.68a3.6,3.6,0,0,0,1.24-2c.07-1.16-.17-2.41,1-3.26.72-.64,1.5-.89,2.19-.06s1.51.61,2.24,0c.42-.33.85-.85,1.36-.63,2,.88,2.44-.81,3.22-1.92.12-.17.19-.37.3-.55,2.63-5.7,4.92-11.49,4.77-17.93,0-.64.08-1.27.12-1.9l0-.44a2.26,2.26,0,0,1,0-.45c.56-1.84.1-3.72.2-5.59a1.83,1.83,0,0,1,.94-1.19,3.3,3.3,0,0,0,1.48-4.57c-1.51-2.35-2.27-5.14-4.25-7.21a6.39,6.39,0,0,1-.58-1.34c.17-2.58-1.15-4.69-2-7-.94-2.47-2.59-4.38-4-6.5a2.82,2.82,0,0,0-1.73-1,15.73,15.73,0,0,1-2.15-.54,8.14,8.14,0,0,1-2.6-2.49A50.79,50.79,0,0,0,70.92,21a2.36,2.36,0,0,1-.76-.78c-.14-.58.23-.6.61-.52s.77.31,1.16.42h0a21.46,21.46,0,0,1,6.61,3.17,33.83,33.83,0,0,1,6.19,5.76l.39.48A8.57,8.57,0,0,1,87,31.66q4,5,8,10C95.29,42.09,95.74,42.43,95.82,43Z"/><path class="cls-2" d="M25.44,32.73l.25-.19a.32.32,0,0,1,.23.41c-.31.76-1,1.13-1.58,1.63-3.47,2-5.38,5.29-7.2,8.67a.9.9,0,0,0,.29,1.36,2.88,2.88,0,0,1,.86.91c.86,1.4,1.33,2.78-.17,4.09a1.16,1.16,0,0,0,1.09,0c.91-.29,1.25,0,1.21,1A6.45,6.45,0,0,0,21.71,55a2.35,2.35,0,0,1,.62,2.63,3.22,3.22,0,0,0,.51,3.54,1.83,1.83,0,0,1,.41,1.64c-.42,1.17.23,1.77,1.08,2.33a1.56,1.56,0,0,1,.22.4,1.75,1.75,0,0,1,0,.46,3.43,3.43,0,0,1-.09.44,3.11,3.11,0,0,0,2.82,2.71.84.84,0,0,0,.88-.73,3.84,3.84,0,0,1,1.23-2,.77.77,0,0,1,.45,0,3,3,0,0,1-.12,4.2c.43.47,1.74.17,1.46,1.06-.4,1.28-.55,2.8-1.88,3.62-.53.33-1,.28-1.27-.38,0-1.08-1.11-1.32-1.72-1.88-.4-.36-1.06.07-1.41.64-.81,1.32-1,1.35-2.1.18a1,1,0,0,0-1.25-.32C20,74.1,19.81,74,19,72.34a2.64,2.64,0,0,1,3.13-1.93,5.6,5.6,0,0,0,1.58.09,2.27,2.27,0,0,0,1.17-.4c-1.36-.57-1.93-2.28-3.68-2.11a.47.47,0,0,1-.38-.26c-.78-2.22-3.22-3.83-2.48-6.61a1.46,1.46,0,0,0-.66-1.89,1.13,1.13,0,0,1-.53-.57c-.51-1.55-1.32-2-2.8-1a.8.8,0,0,1-1.25-.52,5.45,5.45,0,0,1,2.21-2.62c.76-.57.91-1.12.13-1.77-.16-.14-.46-.29-.45-.43.14-1.74-1.34-1.51-2.29-1.9-1.14-.48-1.39-1-.74-2.07,1.28-2.11,2.4-4.32,3.79-6.37a1.85,1.85,0,0,0,.11-.42h0c.06-.5.73-.55.8-1h0c.21-.69,1.09-.76,1.3-1.45h0c.28-.77,1.26-.88,1.55-1.64h0A39,39,0,0,1,25.44,32.73Z"/><path class="cls-3" d="M54.66,114.39c.07.08.14.15.2.23a.7.7,0,0,0,.32-.05l.16,0h.32l.16,0,.32,0h.16l.32,0h.15l.33,0h.16l.51-.06a2,2,0,0,1,.55,0,1,1,0,0,1,.52.24.41.41,0,0,1,.07.37.63.63,0,0,1-.53.23h0l-.45,0h0c-.25-.05-.45.18-.7.14h0l-.44,0h0a3.44,3.44,0,0,0-.45,0h0c-.15,0-.3,0-.45-.06h0l-.44,0h0l-.45-.05h0l-.45,0h0c-.5-.18-1-.23-1.54-.4h0a11.65,11.65,0,0,0-3.31-2c-1.82-.65-2-.61-3,1-2.3,1.81-4,2.21-5.38.89-1.17-1.17-2.69-1.83-3.81-3-.57-.15-.73-.81-1.27-1l-.2-.24c-.26,0-.39-.3-.64-.31l-.2-.24c-.5-.08-.54-.74-1-.8h0c-.38,0-.45-.54-.85-.55s-.45-.53-.84-.55l-.2-.25c-.59-.14-.64-.91-1.24-1.05l-.4-.49c-.49-.08-.53-.73-1-.8h0a73.93,73.93,0,0,1-4.82-5.79,17.52,17.52,0,0,1-3.06-3.86c.21-.64.24-.64,1.33,0,.53.4,1,.83,1.57,1.26.29.29.59.57.87.87,1.8,3.45,5.12,5.21,8.11,7.35a27.71,27.71,0,0,0,4.69,2.63c1,.47,2,1.25,3.36.35.78-.51,1.75.51,2.69.58a26.42,26.42,0,0,1,8.34,4.65h0c.52.23,1,.64,1.49.84h0Z"/><path class="cls-4" d="M9,68.22c-.06-.09-.13-.17-.19-.25s0-.3,0-.45l-.18-.24,0-.46h0c.05-.25-.18-.44-.14-.69h0c0-.26-.18-.45-.15-.7h0c0-.25-.18-.45-.14-.7h0c0-.15,0-.3,0-.45h0c0-.15,0-.3.05-.45h0A47.69,47.69,0,0,1,8.55,58h0c0-.15,0-.3,0-.45h0c0-.15,0-.3.05-.44h0c0-.15,0-.3,0-.45h0a.36.36,0,0,1,.15-.25c.08-.07.12-.09.14-.07a2.29,2.29,0,0,1,1.4,3.83,3.33,3.33,0,0,0-.74,2c-.45,3.67.44,7.15,1.59,10.57.38,1.1.74,2.21,1.18,3.29.83,2.06,1.77,2.24,3.37.65.15-.15.35-.27.44-.46,1.13-2.31,3.16-2.31,5.28-2,.74.1,1.24.39.72,1.26A8,8,0,0,0,21,79.81c0,.21.09,0,0,.15a10.37,10.37,0,0,0-1.46,2.8c-.26.72-1,.54-1.8.42-1-.17-1.74-1.32-2.9-.72a.5.5,0,0,1-.43-.08.72.72,0,0,1-.14-.44,2.35,2.35,0,0,0-.19-.25c.07-.38-.41-.56-.35-1h0c.05-.51-.58-.7-.54-1.2h0c.05-.5-.58-.69-.55-1.19-.13-.17-.26-.33-.38-.5.06-.38-.42-.56-.36-.94a2.35,2.35,0,0,0-.19-.25c0-.25-.2-.44-.16-.7a2.23,2.23,0,0,0-.19-.24c.07-.39-.41-.57-.34-1h0c.07-.39-.42-.57-.36-1l-.19-.24c.06-.26-.2-.45-.15-.7-.06-.08-.12-.17-.19-.25,0-.25-.19-.44-.15-.7h0c0-.25-.19-.44-.15-.69-.06-.09-.13-.17-.19-.25,0-.25-.2-.45-.15-.7h0c0-.14,0-.29,0-.44a2.35,2.35,0,0,0-.19-.25c.05-.25-.19-.45-.15-.7h0C9.17,68.66,8.93,68.47,9,68.22Z"/><path class="cls-5" d="M16,41.85c-.76,1.23-.94,2.81-2.26,3.7C13.63,46.94,12.66,47.9,12,49c-.3.5,0,1,.57,1a2.92,2.92,0,0,1,1.47.51c.68.51.7-.74,1.39-.42.24.15,0,.4-.06.63-.14.7-.75,1.49.57,1.81.43.1.22.92,1,1.17a23.53,23.53,0,0,0-3.75,3.4,1.36,1.36,0,0,1-.45,0c-.9-.18-1.23-.64-1-1.58A2.81,2.81,0,0,0,11,52.41c-.78-.68-.49-1.52-.23-2.33l.06-.44h0c0-.25.28-.39.29-.65h0c0-.25.29-.39.31-.64h0c0-.25.28-.39.3-.65h0a12.6,12.6,0,0,1,1.15-2.14h0c.13-.71.8-1.08,1.09-1.69h0c.14-.6.92-.66,1.06-1.25a1.43,1.43,0,0,0,.23-.2A.8.8,0,0,1,16,41.85Z"/><path class="cls-6" d="M20.88,94.92l-.2-.25c-.26,0-.39-.29-.65-.3h0c-.39,0-.46-.53-.85-.55h0c-1.76-.6-2.48-2.4-3.92-3.39l-.19-.24a.53.53,0,0,1-.33-.17,1,1,0,0,0-.64-.34,1.31,1.31,0,0,1-.35-.46,2.67,2.67,0,0,1,0-.4l0-.2a2.9,2.9,0,0,1,.06-.41,1.35,1.35,0,0,1,.19-.38c1-.93,2.19-.26,3.31-.28a22.24,22.24,0,0,1,2.33,4.29c.18.84.85,1.37,1.27,2a1.56,1.56,0,0,1,.25.71A.32.32,0,0,1,20.88,94.92Z"/><path class="cls-6" d="M24.89,99.46l-.25.19a2.43,2.43,0,0,0-.2-.25,10.1,10.1,0,0,1-2.38-3l-.78-1a.23.23,0,0,1,.1-.22c.08,0,.12-.06.13,0a.29.29,0,0,1,.21.3Q23.31,97.46,24.89,99.46Z"/><path class="cls-7" d="M14.43,89.89l-.19-.25a.66.66,0,0,1,.64.3.21.21,0,0,1-.12.19c-.08,0-.12,0-.13,0Z"/><path class="cls-8" d="M66.71,18.14a19.44,19.44,0,0,1,3.43,1.75,60.69,60.69,0,0,1,6.23,5,38.54,38.54,0,0,1,3.29,3.57A15.45,15.45,0,0,0,83,32c-1.12.41-2.3.53-3.15-.4a3.38,3.38,0,0,0-3.4-1,26.89,26.89,0,0,1-4.43-1A2.72,2.72,0,0,1,71,28.91a1.14,1.14,0,0,1-.1-1.59c.4-.51.86-.19,1.26.07s.57.43.88.63a32,32,0,0,1-4-4.39c-1-1.22-1.41-1.33-2.45-.21s-1.18,1.26-2.31-.15a3.83,3.83,0,0,0-.73-.6,1.88,1.88,0,0,1-.78-2.23c.29-.88,1-1.1,1.91-1.1S66.54,19.41,66.71,18.14Z"/><path class="cls-9" d="M95.07,67.58A38.9,38.9,0,0,1,95,73.09c-.44,2.73-.78,5.53-2.11,8a6.12,6.12,0,0,0-.57,2,4.75,4.75,0,0,1-1,2.59c-.54.62-.31,1.69-1.18,2.14-1.2,1.73-1.2,1.74-2.9.77-.09,0-.06-.19-.08-.11s0,.23-.09.29a15.84,15.84,0,0,1-2,1.51c-1,.73-2.06.3-2.91-.55,0-.66.55-1,1-1.39.1-.11.33,0,.36-.16s-.23,0-.28-.18a2.45,2.45,0,0,1-.43-1.82c.47-1.18,1.92-1.32,2.52-2.37a1,1,0,0,1,.67-.63c2.25-.33,3.34-2,4.45-3.7A2.1,2.1,0,0,0,90.82,78a1,1,0,0,1,.65-1.16c1-.31,1-1.07.93-1.9,0-.14,0-.29-.05-.44-.17-1.09-.49-2.2,1-2.72.53-.18.3-.73,0-1.07C92.13,69.09,92.78,67.94,95.07,67.58Z"/><path class="cls-10" d="M95.07,67.58c-.34.28-.55.65-1.11.75-.9.15-1.09.69-.68,1.49A6.83,6.83,0,0,0,94.1,71c.38.48.34,1-.22,1.13-1.6.26-1.29,1.33-1.16,2.38a1.57,1.57,0,0,1,0,.3c.36.64,0,1.36.27,2-.49.15-.88.29-1.28.39s-.74.56-.54,1c.36.69-.05,1.05-.41,1.51s-.91.87-.55,1.63c.11.22-.17.59-.45.4-.63-.42-.73-.11-1,.42-.34.7-.75,1.43-1.83,1.25a1.93,1.93,0,0,0-1.6.59l-.19-.11a.58.58,0,0,1,0-.43,18.36,18.36,0,0,0,1.47-2.9c.69-.88.25-1.81.13-2.74-.17-1.29-.09-1.37,1.21-1.37.42,0,.37-.31.44-.51a6.7,6.7,0,0,0,.67-2.4c0-1.52,1.36-2.32,2-3.52.28-.55.88-1,.59-1.7-.09-1.27.39-2.49.35-3.76a24,24,0,0,1,1.69-4c.32-.54.6-1,1.31-.88.89.59.11,1.47.37,2.17a14.28,14.28,0,0,1-.16,5.41A2.3,2.3,0,0,0,95.07,67.58Z"/><path class="cls-11" d="M102.73,81.8,101.31,80c-.4.39-.66.86-1.19,1s-.87.12-1-.24c-.4-1.13-1.64-1.81-1.63-3.14a.6.6,0,0,1,.24-.62c.41.26.44.91,1,1.09.24-1,.23-1-.5-2a9.19,9.19,0,0,1-1.4-2c.61-.37,1.11-.79,1.82-.13.4.37.87.41,1-.36a2,2,0,0,1,.92-1.43c.25-.19.51-.41.39-.78-.3-.93.47-.82.91-.85.61,0,.42.44.33.79a.78.78,0,0,0,.59,1c.6.18,1.19.39,1.79.58.8.25,1.17.61.7,1-1.21,1.08-1.07,2.42-1,3.79a1,1,0,0,1-.1.62c-.94,1-.76,2.37-1.38,3.46Z"/><path class="cls-12" d="M52.73,113.48c-2-1.09-3.91-2.21-5.88-3.27-.78-.43-1.64-.72-2.46-1.07a29.11,29.11,0,0,1-5.68-2.73c-.44-.3-1.09-.54-1.21-1-.41-1.65-1.79-1.75-3-2.22a4.53,4.53,0,0,1-3-2.4c.44-.87,1.17-.5,1.77-.34A20,20,0,0,1,36.91,102a6.88,6.88,0,0,0,3.35.78c.57.14,1.28,0,1.61.67a9.93,9.93,0,0,0,2.66,2.51,1.22,1.22,0,0,1,.61.71,3.86,3.86,0,0,0,2.78,2.82c.65.22,1.25.88,2,1,.1,0,.26.07.27.13C50.5,112,52.21,112.26,52.73,113.48Z"/><path class="cls-13" d="M76.43,30.37a2.75,2.75,0,0,1,3.57.92,1.37,1.37,0,0,0,1.5.6c.55-.14,1,.15,1.53.14,1-.24,2,.36,2.93.48a1.21,1.21,0,0,1,.83.68,13,13,0,0,0,2.28,2.88,1.88,1.88,0,0,1,.41,1c.08.3.11.63.44.8a1.38,1.38,0,0,1,.77,1.57c0,.2,0,.5.09.6,1.21,1,1,2.67,2,3.8A2.1,2.1,0,0,1,93,45.39,4.32,4.32,0,0,0,92.88,47a.28.28,0,0,1-.38.21c-1-1.07-1.11-2.55-1.58-3.86-1.36-3.72-3-7.26-6-9.95a3.41,3.41,0,0,0-2.6-.13,2,2,0,0,1-2.62-.71c-.46-.5-.79-1.33-1.88-.86.38.7,1.19,1,1.45,1.79-.07,1.45-.74,1.9-1.93,1.24a7.71,7.71,0,0,1-2.76-3.12c-.2-.54.08-.81.57-.83A2.52,2.52,0,0,0,76.43,30.37Z"/><path class="cls-14" d="M108,71.54c0,1.39.06,2.79.05,4.18a1.78,1.78,0,0,1-.45,1.44l-.21-.08-.13-.18c-.09-.26,0-.53-.18-1a3.68,3.68,0,0,0-.85,1.68c-.4,2.79-1.84,5.11-3.36,7.41a5.19,5.19,0,0,0-1.28,3c-.67.51-1.5.73-2.18,1.24-.48.36-.84,0-.79-.58.07-.87.07-.87-.63-1.43,1.89-.28,2.2-1.92,2.75-3.22a3.65,3.65,0,0,1,2-2.22h0c.49.28.73.06,1-.39.73-1.29.87-2.8,1.55-4.11.57-1.09.81-2.33,1.44-3.42a3.76,3.76,0,0,0,.34-2.6c-.1-.62-.19-1.24-.31-1.85s.15-.77.68-.68h0A20.81,20.81,0,0,1,108,71.54Z"/><path class="cls-15" d="M55.28,104.94c-2.37-.38-4.8-.19-7.15-.81-.15,0-.3,0-.45,0h0c-1.45-.66-3.17-.64-4.46-1.72a.74.74,0,0,1-.11-.41l.12-.17a.79.79,0,0,1,.39-.13,1.76,1.76,0,0,1,.4.06,1.93,1.93,0,0,0,.79.13,5.5,5.5,0,0,1,3.4.26,2,2,0,0,1,.4.17,1.6,1.6,0,0,0,2.4-.34,4.9,4.9,0,0,0,.57-.54c.85-1.33,1.81-1.46,3.11-.52a4.75,4.75,0,0,1,1.61,1.67c.4.86-.82,1.29-.73,2.12A.36.36,0,0,1,55.28,104.94Z"/><path class="cls-16" d="M95.28,61.72c-.55-.62.11-1.48-.44-2.09a2,2,0,0,1-.21-1.83c.07-.2-.08,0,.05-.15,2.12-2.45.48-4.63-.44-6.89-.34-.84-1.44-1.47-.82-2.61a14.15,14.15,0,0,1,3,5,2.84,2.84,0,0,0,.78,1.18A5.06,5.06,0,0,1,98.32,57a1.39,1.39,0,0,1-.23,1.21,3.83,3.83,0,0,0-.67,1.43c-.12.51-.47.93-1,.88C95.48,60.43,95.5,61.16,95.28,61.72Z"/><path class="cls-17" d="M55.11,114.43A9.6,9.6,0,0,0,53.28,113c-.38-.29-.6-.6-.39-1.06s.53-.44.9-.2.49,0,.75,0a1.91,1.91,0,0,1,2.27,1,1.07,1.07,0,0,0,1.39.6,11.88,11.88,0,0,1,3.26-.31c.58,0,1.12-.52,1.76-.53.4,0,.94-.39,1.14.33,0,.23-.14.34-.31.43s-.35.13-.51.22a1.39,1.39,0,0,1-.51.2,2,2,0,0,0-.66.27A2.06,2.06,0,0,1,62,114a2.19,2.19,0,0,1-.36,0l-.17,0a1.85,1.85,0,0,0-.5.17,2.52,2.52,0,0,1-.47.22,2.16,2.16,0,0,1-.49.11,1.91,1.91,0,0,1-.33.06,3.94,3.94,0,0,0-.47.1,1.63,1.63,0,0,1-.31,0l-.32,0-.15,0-.31,0-.16,0a.67.67,0,0,0-.44.09.61.61,0,0,1-.44.15h0l-.45,0h0l-.45,0h0l-.45,0h0l-.44,0h0C55.15,114.66,55.09,114.58,55.11,114.43Z"/><path class="cls-9" d="M80.05,94.17a5.53,5.53,0,0,1-2.73,3.25,29.31,29.31,0,0,0-2.35,2c-1.27.94-2.48,2-3.72,2.94a1.69,1.69,0,0,1-.37.29c-2.07.92-3.91,2.26-6,3.12a24.49,24.49,0,0,1-2.77.61c-.82.23-1.15-.6-1.84-.74-.45-.1-.78-.52-1.15.09a.36.36,0,0,1-.64.07c-.37-.47-.93-.47-1.4-.69a.62.62,0,0,1,.18-.36c.64-.37,1.35-.06,2-.19a3,3,0,0,1,.42,0,3.24,3.24,0,0,1,.44,0l.22,0a3,3,0,0,1,.66.2,3.41,3.41,0,0,0,3.75-.28,14.74,14.74,0,0,1,3-1.36c3.21-1.33,5.51-3.85,8.17-5.91a15.14,15.14,0,0,0,2.41-2.19A1.89,1.89,0,0,1,80.05,94.17Z"/><path class="cls-10" d="M80.05,94.17c-1.48,1.06-2.48,2.65-4,3.61-.48-.66.14-1,.48-1.25a4.9,4.9,0,0,0,2-3.59,1.81,1.81,0,0,1,.29-.89c.58-.85,1-1.67.24-2.68-.21-.28,0-.7.23-1a5.73,5.73,0,0,1,3.24-2.07l.26,0,.69,1.9a3.25,3.25,0,0,1-1.29,1.43c-.13.76-1.14.71-1.3,1.44a1.88,1.88,0,0,0-.75,2.32C80.19,93.62,80.07,93.91,80.05,94.17Z"/><path class="cls-9" d="M93.42,48.15a7.66,7.66,0,0,0,1.3,2.6,5.52,5.52,0,0,1,.69,1.56,6.19,6.19,0,0,0,.69,1.87c.59,1.09.5,1.56-.47,2.4-.48.41-.31,1.12-.84,1.46-.61-.37-.54-1-.73-1.6-.41-1.59-.39-3.27-1-4.83-.12-1.3-.81-2.45-1-3.74,0-.32.13-.63.51-.72l.25-.2Z"/><path class="cls-18" d="M43.17,102a8.86,8.86,0,0,0,3.56,1.24,1,1,0,0,1,1,.86,14.39,14.39,0,0,1-4.13-.51,3.55,3.55,0,0,0-1.68-.16l-1.54-.4a5.52,5.52,0,0,0-3.23-2.36,2,2,0,0,1-1.21-1.35A1.85,1.85,0,0,0,34.82,98c-.57-.42-1.26-.8-.54-1.64a4.54,4.54,0,0,1,2.59,1.85c.8,1.14,2.14,1.6,3.36,2.18C41.2,101,42.25,101.34,43.17,102Z"/><path class="cls-16" d="M80.85,91.09c.08-.8.86-1,1.3-1.44a10.76,10.76,0,0,0,1.47.54c.73.23,1.36,0,1.55-.58.29-.92,1.5-.42,1.75-1.31,0-.17.23,0,.34.12,1.21.86,1.21.86,2.3-.18.15-.15.33-.27.49-.41A3.56,3.56,0,0,1,88.84,90a4.21,4.21,0,0,0-.76,1.2,13.91,13.91,0,0,0-1.43-.64c-.39-.12-.85-.21-1.12.28a1.53,1.53,0,0,1-1.26.81A1.65,1.65,0,0,1,83,91.49c-.16-.14-.39-.21-.5-.37C82,90.29,81.42,90.56,80.85,91.09Z"/><path class="cls-18" d="M106.72,82.25a.76.76,0,0,0-.29.65l-.44.4c-.66.73-.9,1.8-1.87,2.28A5.72,5.72,0,0,1,102,87.31a7,7,0,0,1,1.71-3.77c1.37-1.64,1.85-3.57,2.46-5.49.19-.59.06-1.61,1.24-1.15h0c.12,1.61-.57,3.1-.74,4.67C106.65,81.8,106.69,82,106.72,82.25Z"/><path class="cls-9" d="M107.36,76.9c-.8-.08-.83.63-.86,1-.13,1.73-1.33,3-1.67,4.69a1,1,0,0,1-.44.62,3.37,3.37,0,0,0-1.53,2.44c-.09.43-.33.74-.46,1.25l1.72-1.37c-.46,1.22-1.73,1.58-2.54,2.43-.54-.3-.62-.51-.26-1.18,1.37-2.55,3.38-4.76,4.18-7.62.34-1.2.36-2.51,1.18-3.56.2-.25.29-.57.78-.53A2.22,2.22,0,0,1,107.36,76.9Z"/><path class="cls-12" d="M59.63,114.49l.25-.2c.15,0,.3,0,.44,0l.51-.39c.25,0,.44-.19.69-.15h0l.45,0,.24-.19c.26.06.45-.19.7-.15l.5-.39a3.42,3.42,0,0,0,.44,0l.51-.39a2.9,2.9,0,0,0,1.85-.67c.44-.34.87-.61,1.43-.31-2.8,1.43-5.56,2.93-8.76,3.3-.06-.08-.13-.16-.19-.25a1.77,1.77,0,0,1,0-.2h.2l.25-.19C59.33,114.47,59.48,114.47,59.63,114.49Z"/><path class="cls-12" d="M54.22,114.32a1.82,1.82,0,0,1-1.49-.84A1.85,1.85,0,0,1,54.22,114.32Z"/><path class="cls-15" d="M57.32,104.94l-.25.2-.45,0a.23.23,0,0,1-.15-.32C56.81,104.52,57.12,104.47,57.32,104.94Z"/><path class="cls-9" d="M95.07,67.58c0-.15,0-.3.05-.45C95.1,67.28,95.08,67.43,95.07,67.58Z"/><path class="cls-12" d="M54.66,114.39l-.44-.07Z"/><path class="cls-12" d="M55.11,114.43l.2.25-.45-.06Z"/><path class="cls-18" d="M47.68,104.08l.45,0Z"/><path class="cls-9" d="M56.18,105.05l-.45-.06s0-.11,0-.16l.15-.09.17,0,.12.12A.91.91,0,0,0,56.18,105.05Z"/><path class="cls-9" d="M56.42,104.84l.2.25-.44,0h0a1.05,1.05,0,0,1,0-.19Z"/><path class="cls-9" d="M55.28,104.94l.25-.2.19.05a1.34,1.34,0,0,1,0,.2h0Z"/><path class="cls-19" d="M25.9,32.75c1.08-.84,2.16-1.68,3.23-2.53l.45,0a.3.3,0,0,1,.24.32,1.28,1.28,0,0,1-.76.75,2.12,2.12,0,0,0-1.19,2.75c.3,1.09.08,1.74-1,2a1.09,1.09,0,0,0-.54.31c-.34.37-1.05.72-.72,1.25s1,0,1.29-.28c1.53-1.48,2.15.25,3.1.81a1.26,1.26,0,0,1,.22.39c.14,1.06.31,2.13-1.38,1.84-.35-.06-.5.33-.71.57-.76.89-.92,2.25-2.13,2.81a.34.34,0,0,0-.14.28,4.26,4.26,0,0,0,1.71,3c.78.56,1.61,1.24,2.53.29a7.53,7.53,0,0,1,3.2-1.93,3.17,3.17,0,0,0,2.13-2.15A6.78,6.78,0,0,1,38,39.89a4.31,4.31,0,0,0,2.13-4.27,1.06,1.06,0,0,1,0-.47c.23-.76,3.91-3.29,4.74-3.27a1,1,0,0,1,.91.53,1.26,1.26,0,0,1-.29,1.6c-1.4.72-1.46,2.12-1.89,3.39.75-1.26,2.36-1.14,3.27-2.26.72-.86,1-1.6.34-2.49-1.24-1.65-1-2.28,1.1-2.45,1.21-.11,2.47.38,3.65-.35.21-.13.46.17.59.42a2.07,2.07,0,0,1,.1.43c0,.14,0,.29,0,.44a3.11,3.11,0,0,1,0,.43,2.45,2.45,0,0,1-.1.66,1.89,1.89,0,0,0-.18.92c.6,2.36-.58,4.4-1.11,6.56a1.73,1.73,0,0,1-1.25,1.08q-2.55.68-5.06,1.5c-1.59.53-3,1.5-4.67,1.81a3.17,3.17,0,0,1-.41.21,6.11,6.11,0,0,0-1.22.68c-.56.3-1.15.57-1.73.86a8.47,8.47,0,0,0-2,1.41c-2,1.64-4.22,2.91-6,4.77-.87.89-2,1.51-1.77,3.06,0,.28-.3.54-.57.7a1,1,0,0,1-.48.12l.23.19a4.39,4.39,0,0,0,1.14.86,1.1,1.1,0,0,1,.6,1.34c-.51,1.19,0,1.46,1.06,1.83.81.29,2,.1,2.38,1.26A3.14,3.14,0,0,1,30,62.88c-.77.43-1-.09-1.16-.71-.11.54-.28,1-1,.9a3.37,3.37,0,0,1-2.43-3c0-.1.09-.28.06-.29-1.91-.86-.71-2.76-1.36-4a1,1,0,0,1,.13-.45c1.11-1.84,1.11-1.84-.37-3.27-.32-.3-.68-.65-.56-1.07.26-.92.08-1.4-.95-1.36-.15,0-.35-.19-.31-.31.41-1-.5-1.77-.53-2.68A11.46,11.46,0,0,0,20.08,41c-.13-.26-.2-.6,0-.74,1.12-.83,1.29-2.36,2.49-3.16.92-.61.63-2,1.35-2.76Z"/><path class="cls-20" d="M10.56,50.28l.48-.4a1.18,1.18,0,0,1-.1.92,1,1,0,0,0,.38,1.41,2.58,2.58,0,0,1,.86,3.38c-.44,1.15.19,1.09.79,1.31,0,.57.09,1.16-.41,1.34.72-.33,1.36-.22,1.58,1,.18,1,.93,1.89,1,3a.59.59,0,0,0,.21.41C17.21,64,17.94,66,18.89,68c.31.63.95,1,1.43,1.46s.68,1.07-.21,1.44a1.32,1.32,0,0,0-1,1.44l.69.86c.43.51.94.81,1.44.19.34-.43.78-.17,1.15-.35a.45.45,0,0,1,.69.38c0,.9.58,1,1.3,1.09,0-.78.18-1.48,1-1.81a3.25,3.25,0,0,1,1.38-.11c0,1.15,1.32.94,1.67,1.7.11.24-.16.47-.35.66l-.2.09c-1.15.21-2.19.79-3.37.9-.8.07-1.13.58-1.25,1.38-.43,2.95-2.32,5-4.46,6.83A1.64,1.64,0,0,1,16.77,84a4.6,4.6,0,0,0-1.7-.81,1.18,1.18,0,0,1-.37-.26.63.63,0,0,1-.09-.44,4.86,4.86,0,0,1,.51-.79c.32-.31.74-.32.89.14a.88.88,0,0,0,1.19.69.74.74,0,0,1,.6.1c.53.68.92.59,1.49,0,.74-.82-.16-1-.41-1.5a.43.43,0,0,1,0-.16c.07-.07.14-.2.21-.21,1.5-.11,1.61-.12,1.53-1.58-.1-1.7.86-2.93,1.57-4.3A1.12,1.12,0,0,0,21,74.57a1.76,1.76,0,0,1-.91.08c-.54-.12-1.11-.57-1.66-.12a6.37,6.37,0,0,0-1.69,1.63,3.76,3.76,0,0,1-2.58,2,1.21,1.21,0,0,1-1.36-.53,4.91,4.91,0,0,1-.63-1.09c-.7-2-1.57-4-2.11-6.13a20.18,20.18,0,0,1-.63-9.52c.12-.54.19-1,.84-1.17s.69-.65.36-1.25c-.45-.8-.53-1.86-1.7-2.05a13.73,13.73,0,0,1,.62-3.31,2.17,2.17,0,0,0,.1-.91,1.14,1.14,0,0,0,.6-1.29A.67.67,0,0,0,10.56,50.28Z"/><path class="cls-1" d="M23.91,34.37c.08.84-.58,1.57-.32,2.44a.44.44,0,0,1-.35.48c-.93.11-1.12,1-1.67,1.49a.82.82,0,0,0-.33.82c.13.62.05.95-.69.66a.26.26,0,0,0-.34.23c0,.14.05.39.13.41,1.3.37,1.1,1.46,1.12,2.4,0,.38-.09.81.24,1,.81.51.87,1.06.28,1.78a.79.79,0,0,0,.12,1.25c1.12.62.49,1.28.15,1.93a.59.59,0,0,0,.75,0,.79.79,0,0,1,1,.1c.37.4,0,.65-.22.94-.47.61-.21,1.07.31,1.48,2.2,1.73,2.21,1.92.1,3.84a11.3,11.3,0,0,0,1.05,6,.75.75,0,0,0,.56.49,3,3,0,0,1,.76.2c.79.49,2,.92,2,1.83,0,1.09-1.27.77-2,1s-1.34.67-2.12.42a2.28,2.28,0,0,0-.86-.67c-.94-.41-1.15-.76-.84-1.68a2.17,2.17,0,0,0-.46-2.24c-.56-.8-1.44-1.95-.41-3.25a1.78,1.78,0,0,0-.22-2.33c-.69-.82-1.66-1.56-1.22-2.88,0-.11-.11-.31-.22-.41-.71-.62-.56-1.23-.05-1.9.1-.14.09-.4-.22-.65-.58.79-1.51.39-2.4.66a5.06,5.06,0,0,1,1-2c.41-.46.63-1-.06-1.48-.13-.08-.29-.21-.31-.34a2.15,2.15,0,0,0-1.4-1.82c-.5-.19-.63-.74-.22-1.33A31.09,31.09,0,0,0,19,39.18a8.16,8.16,0,0,1,2.34-2.74Z"/><path class="cls-21" d="M19.14,72.31c-.61-1.35.77-1.44,1.36-2-.14-.59-.65-.76-1-1-.7-.61-1.35-1.17-1.26-2.2,0-.36-.26-.6-.48-.78a2.88,2.88,0,0,1-1.31-2.23.67.67,0,0,0-.71-.7c-.86.11-1-.43-1-1A4.59,4.59,0,0,0,13.89,60c-.28-.37-.22-1-.32-1.52-.49-.29-.89.32-1.39.05L13,56.9l.2.25a.85.85,0,0,0,1.26.18,12.43,12.43,0,0,1,2.18-1.17c.21,1.25.5,2.42,1.78,3,.4.2.85.78.56,1.18-.62.89,0,1.87-.38,2.73-.2.48-.07.83.49.94,1,.18,1.27.71,1.13,1.7-.11.82.54,1.39,1,2,.06.06.24.11.29.07,1.13-.89,1.3.21,1.84.79a9.26,9.26,0,0,0,1.9,1.27c.14.08.28.12.3.29a.41.41,0,0,1-.36.45c-.92.13-1.78.59-2.78.31C21,70.46,20,70.91,19.14,72.31Z"/><path class="cls-17" d="M24.43,65.67a17.6,17.6,0,0,1,4-1.3c-1-.55-1.37-1.87-2.77-1.69-.51.07-.83-.44-.87-1a4.27,4.27,0,0,0-1-2.44.87.87,0,0,1-.25-.88c.29-.64.56-1.15-.08-1.83-.27-.29.43-.6.7-.9a1.79,1.79,0,0,1,.55,1.87c-.24.76-.27,1.49.7,1.78.38.11.3.34.24.61a1.75,1.75,0,0,0,1.22,2.16,7.33,7.33,0,0,1,1.15.75c.51-.24.36-.86.73-1.17.58.15.28.75.68,1.19l2-1.61a3.63,3.63,0,0,1,.3-1.07c.35-.64.39-1.61,1.51-1.39a9.07,9.07,0,0,1,.46,3.29c-.19.95.84,1.29.86,2.09-.54.81-1.44.73-2.25.92a2.16,2.16,0,0,1,.48,1.07,1.49,1.49,0,0,0,1,1.57,1.19,1.19,0,0,1,.59,1.94c-.87,1.06-.9,2.31-1.14,3.54-.19,1-.15,2-1.18,2.61a1.77,1.77,0,0,1-1-2.7c.67-1.51,1.34-3.06,0-4.57a1.77,1.77,0,0,1-.23-1.37c0-1.18-.44-1-1.12-.47l-.2-.24c-.56.07-.85.55-1.26.86a2.38,2.38,0,0,1-3.9-1.23c0-.14,0-.29.05-.44Z"/><path class="cls-1" d="M29.74,66.72c.27-.45.1-1.37.89-1.28s.66,1.12.6,1.53a2,2,0,0,0,1.05,2.2c.37.21.22.44.11.77-.22.7-.77,1.39-.13,2.17.18.21,0,.44-.19.65-1.22,1.17-1.2,1.86,0,3.06L32,76l-.18.12-.22,0a33.28,33.28,0,0,0-4.46.28c-.36-1,0-1.44,1-1.55h0c.27.25.58.61.93.22.54-.61,1.57-1,1.06-2.17-.17-.39.22-.65.6-.8a.43.43,0,0,0,.27-.63.52.52,0,0,0-.53-.28l-.47.06c-.46,0-.86-.07-1-.59s.24-.75.74-.73c.29,0,.62-.1.59-.39A7.22,7.22,0,0,0,29.74,66.72Z"/><path class="cls-1" d="M24.38,66.11a3.69,3.69,0,0,0,1.28,1.14,1.72,1.72,0,0,0,2.47-.37c.39-.39.73-1,1.41-.4-.09,1-1.28,1.5-1.05,2.64.05.27-.5.34-.79.41-1.19.3-3.54-1.31-3.8-2.51C23.8,66.54,24.11,66.36,24.38,66.11Z"/><path class="cls-1" d="M24.43,65.67c0,.15,0,.3-.05.44C24.39,66,24.41,65.82,24.43,65.67Z"/><path class="cls-22" d="M31.55,100.66c1.42,1.45,2.94,2.71,5.16,2.56.52,0,.64.42.6.76-.11.91.5,1.29,1.09,1.74a41.58,41.58,0,0,0,4.78,2.7,3.48,3.48,0,0,1,1.21.72,2.05,2.05,0,0,1-1.51-.33c-.72-.3-1.33-.58-1.85.31a.67.67,0,0,1-.87.17c-2.7-1.44-5.6-2.52-7.94-4.61a11.51,11.51,0,0,0-2.39-1.51c-2.2-1.17-3.43-3.15-4.54-5.25l.14-.18c1.09-.12,1.79.72,2.67,1.1,1.09.47,2.22.85,3.28,1.41A.53.53,0,0,1,31.55,100.66Z"/><path class="cls-12" d="M28.13,74.92c-.56.45-1.25.85-.65,1.73l0,.22c-.27.46,0,.92,0,1.38-.06.65-.12,1.31-1.13.81-.81-.4-1.55.18-2.08.68a32,32,0,0,0-2.5,2.57c-1.21,1.11-1.2,3-2.64,4-.61.45-.1,1.53.09,2.25s-.33,1.57,1,1.63c.7,0,.92,1,.93,1.69a2.21,2.21,0,0,0,1.12,1.92c.52.36.44.39.3,1.39,0,.19.56.4.47.84-.57.1-.72-.7-1.29-.61a2.25,2.25,0,0,0-.21-.24l-.38-.49-.39-.5c-.17-.91-1.17-1.3-1.35-2.19q-1.2-2.3-2.42-4.58a8.78,8.78,0,0,1-2.19-3.82.92.92,0,0,1,.22-.71,1.9,1.9,0,0,1,1.94.71,1.46,1.46,0,0,0,2-.11c1.1-1,2.34-2,2.76-3.57,0-.17.3-.27.41-.44a2.71,2.71,0,0,0,.76-2.08,1.47,1.47,0,0,1,1.51-1.91,12.89,12.89,0,0,0,2.71-.73C27.51,74.71,27.83,74.55,28.13,74.92Z"/><path class="cls-1" d="M23,96.07c0-.35-.92-.49-.22-1,.23-.17-.08-.37-.21-.48-.4-.34-.81-.66-1.24-1s-1.26-.58-.43-1.34c-.34-.52-.18-1.23-.66-1.69-.14-.14-.24-.26-.51-.15-.68.27-1.1.08-.95-.44.27-1-.3-1.74-.32-2.63s0-1.29.71-1.68c.41-.21.92-.52.9-1,0-1.23.81-1.84,1.57-2.53l.23,0a1,1,0,0,1,.28.35,1.14,1.14,0,0,1,0,.45c-.89,1-.63,2.14-.25,3.23.54,1.56,1.56,3,1.44,4.74,0,.43.37.59.57.88a5.55,5.55,0,0,1,1,5,1.82,1.82,0,0,1-.14.39.32.32,0,0,1-.35.15C24,96.93,23.34,96.66,23,96.07Z"/><path class="cls-23" d="M43.18,115.79l-.45-.05-.44,0a.67.67,0,0,0-.65-.3.64.64,0,0,0-.64-.3c-1-1.35-2.51-2.32-3.42-3.78,1.15,1.14,2.83,1.58,3.8,3,.66,1,2.84.89,4.13,0,.39-.27.74-.58,1.11-.88-.32,1-1.38,1.34-2,2A1.15,1.15,0,0,0,43.18,115.79Z"/><path class="cls-22" d="M24.45,97.36l.25-.19a.65.65,0,0,1,.59.74h0C24.86,98,24.67,97.63,24.45,97.36Z"/><path class="cls-12" d="M57.1,114.88l.49-.39.2,0v.21A.65.65,0,0,1,57.1,114.88Z"/><path class="cls-12" d="M55.31,114.68l.44,0Z"/><path class="cls-12" d="M58.24,114.79l-.45-.05h0a.22.22,0,0,1,.12-.19c.08,0,.12,0,.13,0h0l.2,0Z"/><path class="cls-12" d="M58.69,114.83l-.45,0h0a.21.21,0,0,1,.12-.19.2.2,0,0,1,.13,0h0a.23.23,0,0,1,.2.25Z"/><path class="cls-12" d="M55.75,114.73l.45,0Z"/><path class="cls-12" d="M56.2,114.78l.45,0Z"/><path class="cls-12" d="M56.65,114.83l.45,0Z"/><path class="cls-7" d="M15,83.38c.55,1.42,1.6,2.59,2,4.08-.2.6-.69.6-1.11.38a1.52,1.52,0,0,0-1.92.41l-.2-.25a.67.67,0,0,0,.3-.65,1.11,1.11,0,0,0,.6-1.29c0-.9-.77-1.28-1.14-1.94,0-.15,0-.29.05-.44s0-.3,0-.45c.27-.23.61-.41.55-.84l.25-.2.21.25.18.24C14.74,82.94,15,83.13,15,83.38Z"/><path class="cls-8" d="M52.38,30.81c-.13-.37-.16-1-.77-.56-.83.6-1.5.95-2.55.27-.61-.39-1.51.2-2.24.44-.46.15-.31.93.09,1,1.7.29.68,1.88,1.34,2.67.19.22-.38.75-.67.72-1-.07-1,.45-.77,1.14,0,.06-.1.16-.16.25-.56.14-.95-.43-1.6-.35,0,1.13-1.15,1.09-1.8,1.62a.43.43,0,0,1-.53-.66,1.81,1.81,0,0,0,.79-2.29c-.14-.46.67-.62,1.05-.77a1.36,1.36,0,0,0,.94-1.13c.07-.33.16-.63-.16-.85a.75.75,0,0,0-.89,0A29.57,29.57,0,0,0,42,33.9a11.15,11.15,0,0,1-1,.75c-.49.28-.86.66-.37,1.26.32.4.17.69-.05,1.12-.58,1.11-.9,2.45-2.09,3s-1.62,1.59-2.34,2.46a1.76,1.76,0,0,0-.43.82c-.14.85-.29,1.69-1.34,1.92-.74.16-1.15,1.13-2.07.86-.3-.09-.47.1-.67.3-.39.42-.84.79-1.27,1.19-.94.87-1.09.73-2.28.26-.78-.3-1.05-1.14-1.85-1.29-.25-.05-.26-.29-.19-.51.33-1-.41-.79-1-.71,0-.61.5-1,.47-1.53,0-.19.06-.52.19-.57.63-.28,1.21-.41,1.3-1.36,0-.56.89-.95,1-1.69.08-.39.52-.47.93-.35s.47.47.86.24c.4-.5-.16-1.14.3-1.65.29,0,.14.24.17,0h-.09c-.21,0-.18.19-.15,0h.07c-.63-.24-1.3-.23-1.51-1.05a.5.5,0,0,0-1-.11c-.29.5-.88.5-1.2,1s-.95.22-1.27-.05a.84.84,0,0,1,0-1.27c.67-.42.84-1.5,2-1.34.63.08.75-.47.59-1-.68-2.26-.44-2.78,1.71-3.83a3.39,3.39,0,0,0,.39-.27C31.13,29,33,28.41,34.89,28c.77-.18,1.52-.38,2.28-.63A2.34,2.34,0,0,0,39,24.61a1.82,1.82,0,0,1,.7-1.65,10.63,10.63,0,0,1,4.83-3c1-.62,2.22-.61,3.31-1a12.47,12.47,0,0,0,2.56-1.21,12.06,12.06,0,0,1,4.77-2c.62-.07,1.22-.31,1.84-.4a8.34,8.34,0,0,1,5,.45.61.61,0,0,1-.21.38c-1.39.37-2.77-.5-4.19,0a15.18,15.18,0,0,1-1.55.26l-.64.13-.44.08c-.37.12-1,0-1,.54,0,.4.53.51.88.53,1.08.06,1.78,1,2.85,1.2s.35,1.46.22,2.16-.73.28-1.13,0-.78-.69-1.26-.38-.16.88.06,1.25c.48.83-.1,1.23-.72,1.71A7.9,7.9,0,0,0,56,23.63c1.46.13,1.92.71,1,1.73s.1,1.74-.21,2.55c-.38.58-1,.56-1.58.65l-.42.05a1.22,1.22,0,0,0-1,.47c-.07.11-.15.21-.23.32a3,3,0,0,0-.44.86,2.37,2.37,0,0,1-.19.35A.61.61,0,0,1,52.38,30.81Z"/><path class="cls-9" d="M56.56,27.89c.13-.3.25-.59-.11-.82s-.7-.25-.91-.75a2.62,2.62,0,0,0,1.58-2.11,4.31,4.31,0,0,0-2.77,0c.48-.37.24-1.2,1-1.31.24,0,.16-.33,0-.52S55,22,55,21.73c0-.47-.74-1,0-1.39a1.45,1.45,0,0,1,1.76.12c.26.24.39.64.94.71.23-.48-.37-1.19.32-1.63.23-.14-.14-.54-.37-.45a1.22,1.22,0,0,1-1.88-.77c-.09-.21-.47-.15-.74-.15-.86,0-1.4-.54-2.11-1.13.8-.47,1.39-1,2.26-.63,2.77.72,5.73,0,8.68,1.47C63.26,16.69,62,17,61.75,16a2.43,2.43,0,0,0,.25-.2l.25-.18a36,36,0,0,1,4.46,2.49l.7,1c-1,.3-1.89.8-2.91.59a1.21,1.21,0,0,0-1.5.83,1.59,1.59,0,0,0,.85,1.84c.73.22,1.09.56,1,1.33,0,.24.15.38.38.43a.43.43,0,0,0,.5-.29,3.25,3.25,0,0,1,1.33-1.53,1.16,1.16,0,0,1,1.91.5,6.61,6.61,0,0,0,1,1.4c.62.75,1.48,1.26,1.92,2.24a2.64,2.64,0,0,0,1.74,1.24c.48.13.43.57.2.91a.47.47,0,0,1-.8,0,10.65,10.65,0,0,0-1.72-1.35c-.58,1.11-.58,1.12.23,1.59a3.48,3.48,0,0,0,2.5.72c.84-.16,1.44.85,2.35.75-.18.45-.42.79-1,.69a4.52,4.52,0,0,0-.9,0c-1.27.42-1.88-.85-2.88-1.11A2.92,2.92,0,0,0,70,29.48c-1,0-1.63.28-1.74,1.38-.08.72-.18,1.5-1.07,1.76-1,.07-1.45-.94-2.3-1.17l-.4-.11-.2,0a3.82,3.82,0,0,0-1.81,0l-.4.13c-1.11.52-1.71.07-1.86-1s-.63-1.29-1.56-1.35A2.49,2.49,0,0,1,56.56,27.89Z"/><path class="cls-24" d="M44.56,20c-.26.18-.49.48-.77.53-1.86.37-2.9,1.87-4.18,3a.83.83,0,0,0-.24,1c.4,1.63-.09,2.35-1.58,3.06s-3.46.75-5.07,1.51a12.08,12.08,0,0,0-2.94,1.47l-.2-.25a17.2,17.2,0,0,0,3.5-3.15,1.35,1.35,0,0,1,.48-.41c2.09-1,3.65-2.82,5.74-3.85a7.43,7.43,0,0,0,1.75-1.33A5.63,5.63,0,0,1,44.56,20Z"/><path class="cls-3" d="M19.39,92c.43.74,1.34,1.18,1.35,2.19C20.31,93.48,19.39,93,19.39,92Z"/><path class="cls-7" d="M13.89,88.69a2.43,2.43,0,0,1-.2-.25l.25-.19C13.92,88.39,13.9,88.54,13.89,88.69Z"/><path class="cls-7" d="M13.64,88.89l.25-.2c0,.15,0,.3-.05.45Z"/><path class="cls-9" d="M106.62,81.57c-.18-1.62.46-3.12.74-4.67a2.85,2.85,0,0,1,.23.26,5.21,5.21,0,0,1-.32,2.31,3.58,3.58,0,0,0-.21,1.69Z"/><path class="cls-1" d="M108,71.54a5.64,5.64,0,0,1-.59-2.8A3.54,3.54,0,0,1,108,71.54Z"/><path class="cls-10" d="M85.29,83.9c.1.24.58.64.18.71-1.19.2-1.82,1.15-2.72,1.71h0c0-1.24.84-2,2.54-2.42Z"/><path class="cls-10" d="M90.92,80.38c.09,0,.21-.1.27-.07s.06.18.09.27-.22.1-.27.06S91,80.47,90.92,80.38Z"/><path class="cls-10" d="M87.38,84.11s0-.1,0-.11a.29.29,0,0,1,.13,0s0,.1,0,.11A.29.29,0,0,1,87.38,84.11Z"/><polygon class="cls-10" points="83.44 88.22 83.59 88.19 83.58 88.27 83.44 88.22"/><path class="cls-25" d="M86.78,80.67a5.79,5.79,0,0,1-1.68,3c-1.09,1.16-2.12,2.5-4,1.3-1.66.65-2.74-1.07-4.25-1-.55,0-.55-.53-.74-1-.32.53.22,1.15-.24,1.5s-1,0-1.42-.29c-.7-.46-1.72.64-2.23-.51-.16.1,0,.14,0,.2-.44,1.23,0,2.63-.9,3.82-.67.83-1.1.79-1.79.2a12.31,12.31,0,0,1-1.73-2.26c-1.25-1.65-1.31-1.71-3.31-1-1.21.4-2.27.52-3-.75-1.36-2-1.84-4.39-3.39-6.25A2.31,2.31,0,0,1,57.43,76c.89-.37,1.62.57,2.49.32a.9.9,0,0,1,.31.56,2.1,2.1,0,0,1,0,.43c0,.65.45.37.78.36,1.76-.11,1.74-.06,2.45,1.72.17.43.41-.28.67-.37a.85.85,0,0,1,.41-.15c1.12,0,1.52.8,1.9,1.63.28.63.67,1.1,1.44.92s.53-.88.5-1.41a2,2,0,0,1,.41-1.64c.47-.47,1-.87,1.59-.15s1.38.89,2-.07c.27-.4.61-.61,1-.15a1.78,1.78,0,0,1,0,.46c.09-.12,0-.26,0-.39.4-.8.9-1.2,1.71-.48.19.17.39.52.64.35,1.41-1,1.9.4,2.68,1,.46.36.64.83,1.52.67s.65,1.06.88,1.84c.11-1.29.21-2.42,1.7-2.78.64-.15.9-1,1.39-1.47.64-.6,1.2-1.35,2.2-1.39C86.35,77.44,87.45,79,86.78,80.67Z"/><path class="cls-26" d="M62,83.74c.56.71,1.11,1.43,2,.32.57.25.93-.07,1.3-.43a.51.51,0,0,1,.72,0c.12.1.23.25.37.28.94.21.87.27,1.31.73,1,1.09,1.46,2.71,2.94,3.44.57-.44.35-1.34,1.08-1.69.43-.19.15-.54,0-.78-.36-.44-.41-.94.05-1.24s.28-.47.15-.83a1,1,0,0,1,.26-1.12c.48.23.19.68.34,1a.72.72,0,0,0,.89.46A2.46,2.46,0,0,1,75.2,84c.09,0,.15.16.24.21a1.18,1.18,0,0,0,.27.06c0-.1.13-.22.1-.29-.52-1.37-.52-1.37,1.09-1.7.39.5-.42.66-.31,1.07l1.64.28c.25,0,.64,0,.67.28.11,1.21.87.79,1.49.61s1-.32,1.48.33,1.17.32,1.73-.06,1-.78,1.5-1.17c.06.08.12.17.19.25-.81.85-2.09,1.21-2.54,2.42a20.51,20.51,0,0,0-3.43,2.33c-.36.58-.75.88-1.37.27s-1.85-1-2.69-1.65-1.42-.52-1.53.64-1.12,1.5-1.61,2.31-1.5.52-2-.46a14.77,14.77,0,0,0-2.32-3c-.44-.48-1.73.13-2.26,1-.8,1.33-1,1.33-1.72,0-.55-1-1.22-1.86-1.72-2.85C61.89,84.58,61.41,84.19,62,83.74Z"/><path class="cls-27" d="M93.27,51.52a2.72,2.72,0,0,1,.62,1.6c.15,1.09.28,2.19.41,3.28,0,.31.07.69-.23.87a2.7,2.7,0,0,0-1.16,2.57c0,.6-.25,1.07-.93,1-1.62-.2-1,.83-.72,1.43a7.32,7.32,0,0,1,1,2.28,17.3,17.3,0,0,1-.4,3.58,1.58,1.58,0,0,1-1.24,1.24c-1-.41-.4-1-.12-1.46,1.11-1.9,1.08-2.91-.17-4.61a11.11,11.11,0,0,0-1.6-1.76A3.18,3.18,0,0,1,87.6,59a2.07,2.07,0,0,1,1.21-2.08c1-.4,1.32.59,2,1.25C91.63,55.87,92,53.5,93.27,51.52Z"/><path class="cls-28" d="M90.34,69.3l1.5-1.18c.26.34.55.68.12,1.1-.81.8-1.14,2-2,2.72a1.61,1.61,0,0,0-.6,1.56c.3,1.13-.51,1.9-.77,2.83-.19.69-.48.65-1,0-.09-.1-.28-.09-.59-.18.28.82,0,1.55.32,2.34a1.79,1.79,0,0,1-.46,2.17A6.22,6.22,0,0,0,86,77.16c-.32-.53.29-.85.22-1.31C87,73.29,87.48,70.55,90.34,69.3Z"/><path class="cls-28" d="M92.24,64.54c-.71-.57-.83-1.53-1.47-2.2-.47-.49.11-1.31-.15-2,.7-.26,1.25.49,1.88.09.23-.44-.1-.92,0-1.38.23-.76.1-1.72,1.25-1.91.31,0,.36-.49.52-.75A4.72,4.72,0,0,1,94.79,58c0,.53,0,1.06,0,1.59-.21.22-.63.18-.72.54-.21.8-1.07,1.48-1,2.11C93.12,63.26,92.15,63.68,92.24,64.54Z"/><path class="cls-9" d="M92.13,75c0-.11,0-.19,0-.26a3,3,0,0,1,.43,0c.18,0,.18.09,0,.14Z"/><path class="cls-16" d="M31.55,100.66l-.2-.24c-.6-.35-1.28-.61-1.46-1.39-.24-.93-1.43-1.16-1.58-2.16.42-1,1.2-.59,1.88-.44,1.65.35,3.2,1.06,4.84,1.46.69-.18,1,.16,1,.79a2.49,2.49,0,0,0,2.33,2.14,1.83,1.83,0,0,1,1.78,1.92c0,.1.1.18.15.27a4.62,4.62,0,0,1-3.32-.58c-1.12-.56-2.31-1-3.46-1.48A3.47,3.47,0,0,0,31.55,100.66Z"/><path class="cls-29" d="M64.8,31.09c1.09-.06,1.44,1.13,2.33,1.39.52-.1,1.18.14,1.24-.8.15-2.28.53-2.55,2.78-2.23.2,0,.4.12.61.17l2.77,1.45c.63.78,1.27,1.54,1.87,2.34a4.09,4.09,0,0,0,1.33,1.09.92.92,0,0,0,1.16-.13c.3-.31.14-.69-.09-1,0-.66-1.26-1.29-.29-1.88.8-.5,1,.65,1.44,1.05s.57.62.88.89a1.83,1.83,0,0,0,1.92.94l.42,0a4,4,0,0,0,1.25-.12c1.29-.37,1.72.22,1.67,1.41-.08.43-.4.5-.76.51,0,0-.11-.05-.13,0a.3.3,0,0,1,.22.19c-.59,1.28-1.47.55-2.24.29-.43-.14-.61-.78-1.27-.62.72.25,1.09,1,1.91,1,.43,0,.5.51.36.9a.87.87,0,0,1-1.09.68,5.51,5.51,0,0,1-1.55-.78c-.91-.56-1.77-1.18-3-.74-.47.17-.82,0-.89-.6a1.28,1.28,0,0,0-.7-1.15c0,.9.31,1.86-.77,2.3-.31.12-.11.43-.09.69a2,2,0,0,1-2.22,2.24,1.3,1.3,0,0,1-.34-.28A4.17,4.17,0,0,0,72,38.67l-.33-.18-.35-.12-.35-.1a1.68,1.68,0,0,0-.74,0c-1.24.3-2.46.63-3.7.93-.84.2-1.47.41-1.75,1.49s-1.08-.14-1.65,0a.82.82,0,0,0-.35,0c0,1.09.42,1.67,1.64,1.44.72-.14,1.41,0,.8,1s-.11,2,.69,2.79a5.29,5.29,0,0,1,1.54,5.23c-.79.35-1.43-.31-2.17-.29a7.85,7.85,0,0,1-1.63-.56,4.26,4.26,0,0,0-4.31.62,5.19,5.19,0,0,1-.77.42,4,4,0,0,0-1.69,1.28,2.28,2.28,0,0,1-.5.43,4.43,4.43,0,0,0-.68.62,19.73,19.73,0,0,0-2.28,2.38,19.36,19.36,0,0,1-4.81,3.24,1,1,0,0,1-.49,0L48,59.14c-.1-1.71.17-2.1,1.83-2.2a2.38,2.38,0,0,0,2-1.09,14.5,14.5,0,0,1,3.58-3.54A3.94,3.94,0,0,0,57.15,50c.15-.8.7-.37,1.12-.37.71,0,1.3-.25.74-1-1-1.33-1.4-2.64-.49-4.15,0-.06-.09-.18-.24-.32-.57,1-1.23,1.83-2.56,1.25-.28-.12-.44.2-.65.34-1.31.84-1.85.58-2-1A7.25,7.25,0,0,1,52.93,43c.19-1.48.86-2,2.35-1.82.79.11,1.58.37,2.18-.41,2-.59,3.72-1.72,5.81-2,1.12-.14.6-1.17.24-1.55a13.83,13.83,0,0,1-2.38-2.88c-.37-.68-1.36-.44-1.82.07-1.84,2.11-4.1.73-6.17.81-.38,0-.68-.3-.43-.78A31,31,0,0,1,60,32.25c.59,0,1.24.3,1.48-.61a.87.87,0,0,1,.82-.61h0c.68-.08,1.36.11,2,0h0C64.5,31.06,64.65,31.06,64.8,31.09Z"/><path class="cls-30" d="M86,35.76a1.05,1.05,0,0,1-.26-1.29c-1,0-1.87.43-2.76,0a2.79,2.79,0,0,1,2-1.58c.44,0,.64.31.89.58a22.75,22.75,0,0,1,3.76,5.43,17.9,17.9,0,0,1,1.66,3.92,35.06,35.06,0,0,0,1.36,4.29c-.1.22-.2.43-.29.65a9.74,9.74,0,0,1-2.48-5c-.18-1.71-1.58-2.68-2.39-4C86.87,37.81,85.74,37.13,86,35.76Z"/><path class="cls-31" d="M85,32.93a9.75,9.75,0,0,1-2,1.58c-.73.15-1.31-.4-2-.45-.53-.66-1-1.33-1.58-2-.19-.23-.38-.63-.74-.42s-.24.63,0,1a.86.86,0,0,1,.16.74c-.4-.84-1.64-1-1.79-2.09a2.08,2.08,0,0,1,2.86.83c.87,1.22.95,1.14,2.32.64A4.54,4.54,0,0,1,85,32.93Z"/><path class="cls-28" d="M48.33,102.34c-.1,0-.23.08-.3,0-1.13-.63-2.35-.13-3.52-.25-.26,0-.39-.29-.65-.3l-.44,0a3.09,3.09,0,0,1-2.15-1.72c-.26-.73-1.18-.67-1.6-1.23-.25-.6-.11-1.28-.38-1.88a2.24,2.24,0,0,1-.07-.44c-.07-1.33-.27-2.31-2.07-2.42-2-.13-3.32-1.85-4.86-3a.86.86,0,0,1,0-1.18c.6-.83.44-1.78.61-2.68s-.18-1.23-.93-1.45a2,2,0,0,1-.78-3.59,4.49,4.49,0,0,1,1.44-.94c.13-.08.41.07.39-.2s.09,0-.13,0a.6.6,0,0,1-.25-.49,1,1,0,0,1,.22-.35,1.8,1.8,0,0,0,1-1.93,4,4,0,0,1,.44-2.24.89.89,0,0,1,.28-.3c.36-.13.72-.26.85-.68a1.62,1.62,0,0,0,.1-.18,2.06,2.06,0,0,1,.3-.29,1.9,1.9,0,0,1,.37-.2c.47-.13.92-.6,1.41-.07-.21,1.74.14,3.51-.41,5.23-.11.32-.14.6-.52.67-1.19.21-1,1-.75,1.81.65,2.14,1.53,2.55,3.67,2.09a32.61,32.61,0,0,0,6.26-2.08,2,2,0,0,1,2.47.32c.35.8,1.19,1.27,1.47,2.13.2.6.71.22,1.07.28s.67-.19.64-.66,0-.9.49-1.05.74.18,1,.52c1.31,1.45,1.31,1.52-.58,2.52-.41.21-.77.6-1.28.5-.11-.16.14-.17,0-.07s0,.14.11.09A2.09,2.09,0,0,1,53,89.23c-.1,1.09-.81,1.94-1.07,3a.44.44,0,0,1-.64.27c-.53-.23-1-.75-.76-1.21.55-.94,0-1.33-.61-1.73-.85-.59-1.08-1.6-1.73-2.33.37.47.51,1.08.9,1.54s1,.82.47,1.45-1.15.1-1.75-.22c-.14.38.19.79,0,1.16-.09.13-.32.31-.3.34.28.43,1.58.62.4,1.34a7.68,7.68,0,0,0-1.46,1.32,4,4,0,0,0,0,5.79c.57.55,1.28.93,1.8,1.54A1,1,0,0,1,48.33,102.34Z"/><path class="cls-28" d="M48.33,102.34a.65.65,0,0,1-.14-.7c1.21-.64,1.86-2.23,3.6-2,.55.07.64-.6.81-1s.14-.9.72-.92.63.45.83.82.18,1.38,1.05.9a.94.94,0,0,0,.19-1.61c-.94-.91-.5-1.56.3-2.22a3.14,3.14,0,0,0,1.14-1.28c-.24-.47-1.19-.35-1-1s.94-.75,1.56-.82a3.42,3.42,0,0,0,1.94-.57.82.82,0,0,1,1.15,0c.36.28.7.46,1.11.06.83-.83,1.38-.45,1.81.44a2.77,2.77,0,0,0,1.27,1.37.72.72,0,0,1,.44,1c-.19.45-.57.54-1,.51-1.64-.12-1.81.1-1.28,1.58a2.33,2.33,0,0,1-1.39,3.23c-.18.08-.6,0-.56.14.74,1.79-2,2.65-1.18,4.45-.72.55-1.53,0-2.28.19a1.13,1.13,0,0,0-.9-.1h0a2.12,2.12,0,0,1-.44,0,2.3,2.3,0,0,1-.45-.05h0c-.36-.18-.67-.43-.34-.85a12,12,0,0,1,1-1c-.62-.38-.65-1.27-1.4-1.51a7.23,7.23,0,0,1-1.75-1c-.67.68-1.08,1.53-2,1.85A6.34,6.34,0,0,1,48.33,102.34Z"/><path class="cls-31" d="M39.7,98.64c.43.17.86.35,1.31.5.25.09.57.21.58.46,0,1.05.71,1.39,1.55,1.66.13,0,.19.34.28.52l-.25.2c-1.23.11-2-.81-3-1.25a18.41,18.41,0,0,1-2.08-1.86c-.37-.43-.87-.83-.46-1.51A2.58,2.58,0,0,1,39.7,98.64Z"/><path class="cls-28" d="M48.33,102.34c.9-.27,1.79-.72,2.74-.14C50.31,103.33,49.33,103.38,48.33,102.34Z"/><path class="cls-31" d="M43.86,101.83a.67.67,0,0,1,.65.3A.65.65,0,0,1,43.86,101.83Z"/><path class="cls-31" d="M43.42,101.78l.44,0Z"/><path class="cls-1" d="M61.52,113.8a.66.66,0,0,1-.69.15A.63.63,0,0,1,61.52,113.8Z"/><path class="cls-1" d="M62.91,113.5a.67.67,0,0,1-.7.15A.67.67,0,0,1,62.91,113.5Z"/><path class="cls-1" d="M58,114.53l-.25.2-.2-.24Z"/><path class="cls-1" d="M58.49,114.58l-.25.2-.2-.25Z"/><path class="cls-1" d="M58.69,114.83a2.43,2.43,0,0,1-.2-.25l.44,0Z"/><path class="cls-1" d="M59.63,114.49l-.45,0Z"/><path class="cls-1" d="M60.32,114.34l-.44,0Z"/><path class="cls-1" d="M63.85,113.15l-.44,0Z"/><path class="cls-1" d="M62,113.84l-.45,0Z"/><path class="cls-30" d="M59.6,104.75c-.91-.7-.21-1.63-.31-2.45,0-.21.31-.44.59-.43,1.1.06.72-.59.55-1.12a3.39,3.39,0,0,0-.34-.53c-.12-.19-.19-.41,0-.56s.36-.13.44-.06c.79.68,1.31-.12,1.68-.47a1.72,1.72,0,0,0,.26-1.93,5.8,5.8,0,0,1-.37-.69c-.15-.48-.63-1.07.38-1.23.11,0,.14-.56.2-.85.56-.09.82.44,1.27.58s.75.11.91-.32-.13-.57-.49-.6a1,1,0,0,1-1-.82,9.8,9.8,0,0,1-.75-1.56c-.33.18-.56.29-.78.42s0,.85-.59.77a1.3,1.3,0,0,1-.93-.55c-.4-.62-.55-.3-1,.05a1.72,1.72,0,0,1-1.42.43,2,2,0,0,0-2,.52c.45.54,1.22.16,1.79.64a9.78,9.78,0,0,1-2.12,2.14c-.61.45-.76.88,0,1.3.54.3.59.76.57,1.34,0,.74-.88.77-1,1.42,0,.24-1-.32-1.23-.88s0-1.16-.63-1.48c-.57.35,0,1-.45,1.32s-.17.86-.56,1.1-.77-.13-1.13-.32-.6-.13-.67.17c-.31,1.24-1.42,1.23-2.32,1.54-1.23-.46-2-1.57-3-2.28A.71.71,0,0,1,45,98.5a1.23,1.23,0,0,0-.21-1.19.75.75,0,0,1,0-.9,3.65,3.65,0,0,0,.57-1.94c.07-.45,0-1.08.82-.62.27.16.36-.08.36-.3s-.17-.62,0-.92c.51-.18,1.2.48,1.57-.46-.33-.38-.86.09-1.23-.13s-.41-.7-.12-.72c1.28-.1.68-.84.59-1.43a.44.44,0,0,1,.08-.45c.7.06,1.46,1.17,2,.47s-.7-1.22-1.06-1.87c-.19-.35-.65-.54-.91-.86a.44.44,0,0,1,.13-.68c.47-.21,1.73.69,1.6,1.2s.1.77.47,1c.73.5,1.23,1.29,2.14,1.62-1.24,1-1.24,1-.16,2,.18-.38-.14-.76.3-1.19,1-1,.68-2.4.5-3.69,0-.26-.26-.25-.47-.29a1.79,1.79,0,0,1-1.09-.59c1.21-.3,2-1.24,3.11-1.82-.22-.32-.48-.18-.72-.14-.66.09-.66-.24-.56-.76s-.29-.53-.61-.48-.32.37-.27.64a1.4,1.4,0,0,0,.2.43c.36.61,0,.76-.51.81-.75.07-1.52-.16-2.19.23-.31-.48,0-.67.19-.89s.08-.43,0-.39c-1.42.45-.6-1-1.14-1.32-.09,0-.13-.16-.2-.24a2.6,2.6,0,0,1,1-3.47,1.24,1.24,0,0,1,1.81.39c.63.89-.67.81-.85,1.32-.2.11.13.29,0,.14s0-.08.1-.12A34.65,34.65,0,0,0,57.2,77.4a1.6,1.6,0,0,1,1.23-.17,12.33,12.33,0,0,1,2,3.5,14.68,14.68,0,0,0,1.59,3c-.05,1,.83,1.53,1.19,2.33s1.11,1.65,1.59,2.57c.14-2,1.93-2,2.88-2.87.46.22.15.72.42.85,1.12.57,1.25,2.08,2.49,2.53.28.1.3.3.09.61s.17.81.47.62a2,2,0,0,1,1.21-.47c.07-.62-.74-.52-.67-1,1.75,0,1.79-.07,1.68-2.13a2.13,2.13,0,0,1,2.53.43c.42.4.88.93,1.64.78a.5.5,0,0,1,.57.43c.21,1.06.78.37,1.24.28.1.35-.37.87.32,1,.85.22.56.84.29,1.23a6.37,6.37,0,0,0-1.2,3.16,3.81,3.81,0,0,1-1.62,2.44c-.43.36-1,.57-1.1,1.26A58.63,58.63,0,0,0,71.15,102a2.18,2.18,0,0,1-1.11.56c-1.4.36-2.4,1.58-3.89,1.72a1.46,1.46,0,0,0-1,.54c-.8.9-1.92.79-2.93,1-.74.13-1.22-.5-1.77-.89a3.44,3.44,0,0,0-.45,0h0a2.32,2.32,0,0,0-.45-.06Z"/><path class="cls-28" d="M59.6,104.75l.45.06Z"/><path class="cls-28" d="M60.05,104.81l.45,0Z"/><path class="cls-32" d="M86,35.76A6.06,6.06,0,0,0,87.4,38c.94.94,1.51,2.15,2.42,3.13a1.73,1.73,0,0,1,.43,2c-.23.48.07.56.38.9a8.26,8.26,0,0,1,1.11,2.29c.21.48.4,1,.6,1.45.33.94.65,1.88,1,2.81a1.07,1.07,0,0,1,0,.91c-.25.4,0,.84-.14,1.24s.07,1-.61,1.14a.4.4,0,0,0-.32.48c.3,1.13-.73,1.95-.66,3a1.84,1.84,0,0,1-.33.87c-.18.34-.43.66-.86.56s-.33-.45-.32-.77a.86.86,0,0,0-.85-1c-.53,0-.7.37-.9.75a2.66,2.66,0,0,0,.59,3.3A11.4,11.4,0,0,1,90.6,63c-1.27.21-1.95-.83-2.88-1.36-1.87-.16-3.21-1.35-4.65-2.35a1.73,1.73,0,0,0-2.29-.16,2.82,2.82,0,0,1-.42.22l-.23.06a1,1,0,0,1-.46,0,3.08,3.08,0,0,1-1.84-2,13.67,13.67,0,0,0-1.44-2.55c-1.15-1.78-3-1.56-4.59-2.26-1.75-.79-1.79-.89-.68-2.42l.09-.13c1.36-1.86,1.36-1.87-.38-3.39a1.26,1.26,0,0,1-.51-.77c-.16-1.49.72-2.75.94-4.19.11-.8,1.42-1.26,2.46-1.39.34.16,1,.33,1,.12.19-.69,1-.7,1.22-1.34s-.46-.84-.77-1.2c.18-.37.56-.27.82-.43.53-.33,1.15-.62.5-1.41a1,1,0,0,1,0-.92c.16-.47.66-.57.85-.25.35.6,1.08,1.11.6,2.21a2.62,2.62,0,0,1,3.43.31,7.53,7.53,0,0,0,1.64.94c.23.12.5.23.7-.06A.82.82,0,0,0,84,37.5a.4.4,0,0,0-.64-.21c-.53.36-.67-.11-.81-.4-.22-.47-.41-.76-.87-.22a.2.2,0,0,1-.35-.08.63.63,0,0,1,0-.61,1,1,0,0,1,1.62,0,2.1,2.1,0,0,0,2.15.61c.28-.06.11-.32,0-.5A2.27,2.27,0,0,1,86,35.76Z"/><path class="cls-9" d="M35,97.89a2,2,0,0,1-1.94-.18c-.86-.38-1.79-.43-2.62-.76a3.9,3.9,0,0,0-2.09-.27,3.66,3.66,0,0,1-2.53-3.29,2,2,0,0,0-.14-.94c-.85-1.38-.57-2.49.52-3.68.86-.94.51-2.21.14-3.32a2,2,0,0,1,.34-2,7.32,7.32,0,0,0,1.54-3.38c0-.15,0-.3,0-.45s0-.14,0-.22a4.5,4.5,0,0,1,.07-.63c.14-.77-.24-1.64.28-2.31s1.47-.11,2.21-.12c.39,0,.66-.35,1-.31h0a.2.2,0,0,0,.22-.07c0-.06,0-.11,0-.13h0a11.1,11.1,0,0,0,1.1-4.37,2,2,0,0,1,.66-1.53c.41-.33.8-.8.49-1.35-.19-.34-.66-.5-.94-.81s-.62.34-1,.09c.29-1.28.24-1.51-.56-3a9.32,9.32,0,0,0,2.69-.72,7.91,7.91,0,0,1,2.56-.44.48.48,0,0,1,.17.39c-.57,1.19-1.69,2.34-.16,3.65.37.31,0,.62-.22.93-.69,1.15-1.84,2-2,3.46-.1.3-.51.58-.39.83,1,2.09-.62,3.13-1.89,3.93a6.25,6.25,0,0,0-2.46,3.65,7.1,7.1,0,0,1-.95,2.15,2.51,2.51,0,0,0-.11,2.58,6.47,6.47,0,0,1,.5,4.15c0,.16-.12.38,0,.46,1.33,1.18,1.2,2.61.87,4.16-.14.69.4,1,1.1,1.3.93.35,2.18,0,2.76,1.14C34,97.18,34.59,97.5,35,97.89Z"/><path class="cls-18" d="M34.29,96.44a13.69,13.69,0,0,0-3.13-.79c-.72-.14-1.15-.38-1.11-1.21s-.39-1.4.37-2c.31-.24-.27-1.57-.89-1.84s-.7-.67-.42-1.24a3.87,3.87,0,0,0-.24-3.54,6.39,6.39,0,0,1-.39-2.74.55.55,0,0,1,.16-.43c1.36-1,.87-3,2-4.11-.19-1,.33-1.14,1.18-1.49.68-.27,1.73-.75,1.9-1.85.08-.52.45-.78,1.09-.8-.22-.6-1.08-.76-.88-1.56.14-.54.62-.52.9-.79a3.49,3.49,0,0,1,1.53,1.08c.54.54.73,1.18-.24,1.56l-.25.19c-.11,0-.18,0-.22.07s0,.11,0,.13c-.25.37-.46.79-1,.8h0A12.41,12.41,0,0,1,33,77.46c-1.28.85-.73,2.06-.32,3.18-.34,1-1.13.06-1.57.37.48.36.42.63,0,1-1.53,1.5-1.73,1.94-.63,3.65.93,1.44.37,3.13,1.19,4.51A5.47,5.47,0,0,0,32.05,92a2.92,2.92,0,0,1,.14.38,1.46,1.46,0,0,0,.57.77,2,2,0,0,1,.3.28,5,5,0,0,0,2.74,2.62,12.54,12.54,0,0,1,1.53.83.66.66,0,0,1,.23.61c.25,1,1.18,1.42,1.77,2.11.31.36.54.75.81,1.12-1.16-.2-2-1-3-1.48-.1,0-.24-.1-.25-.17C36.53,97.67,35.14,97.32,34.29,96.44Z"/><path class="cls-15" d="M55.53,104.74l.45.05-.25.2Z"/><path class="cls-15" d="M56,104.79l.44,0-.24.2Z"/><path class="cls-8" d="M33.33,59c-1-.07-.88,1-1.29,1.44-1-1.09-.8-2.42-.53-3.64.16-.76.42-1.51.58-2.28A2.56,2.56,0,0,1,35,52.39a5.77,5.77,0,0,1,2.88.7c.76.58,1.25-.4,2.11-.17a17.18,17.18,0,0,1-2-3.4,3,3,0,0,1,1-4.09c.47-.38,1.55-.45,1.1-1.53.58-.44,1.07-1.07,2-.72.29.12.45-.16.61-.38.27-.41.69-.9,1.11-.8,1.19.29,2-.51,2.89-.89a24.14,24.14,0,0,1,3.09-.62,2.61,2.61,0,0,0,1.48-1c.4.18.47.58.63.92.26.71.9,1.27.8,2.12a2.42,2.42,0,0,1-1.93,2c-1.38.29-1.31,1.67-1.39,2.71-.1,1.21-.23,2.42-.24,3.63A56.89,56.89,0,0,1,48.31,57,3.58,3.58,0,0,0,48,59.07h0a8.51,8.51,0,0,1-4.69,3.64,6.92,6.92,0,0,1-1.65.48c-.72,0-1.41.35-2.13.13A.63.63,0,0,1,39.3,63c-.58-1.16-.71-2.52-1.75-3.48-.46-.43-.22-1.12-.12-1.68.18-1.12-.27-1.18-1.13-.77a4.84,4.84,0,0,0-2.06,1.42A.91.91,0,0,1,33.33,59Z"/><path class="cls-13" d="M40,43.9l.88.34a8,8,0,0,1-2,1.71,2.22,2.22,0,0,0-.62,3.27c.06.09.19.16.19.24,0,1.27,1,2,1.63,2.91a1,1,0,0,1,.3.85c-.06.27-.16.56-.5.24s-.53-.3-.86.21-1,.1-1.48-.2c-.69-.46-3.05-1-3.65-.68a2.56,2.56,0,0,0-1.53,1.84c-.11.78.13,1.69-.69,2.28a.45.45,0,0,0-.1.44c.54,1-.1,2.1.42,3.07.05.44-.28.62-.55.84-1.2-.2-2.25-.91-3.49-1-.63,0-.82-.4-.68-1a4.38,4.38,0,0,1,.31-.7c.34-.83.27-1.26-.52-1.45s-1-.66-1.12-1.3l.74-.59c.16-.13.35-.36.1-.48-1-.47-.28-.83,0-1.28a5.76,5.76,0,0,1,1.4-1.47A8.22,8.22,0,0,0,30.39,50a1.57,1.57,0,0,1,.72-.6,16.22,16.22,0,0,0,3.6-2.5c.56-.17,1.12.32,1.73,0-.22-.24-.75.07-.72-.27.06-.64.63-.87,1.17-1.05a5.9,5.9,0,0,1,1.7-.94c.5,0,.69-.59,1.19-.55Z"/><path class="cls-33" d="M51.51,40.45a2.13,2.13,0,0,1-.34-1c-.28-1.22.58-2.18.84-3.27a4.37,4.37,0,0,0,.09-1.93A2.46,2.46,0,0,1,52.48,32a.46.46,0,0,1,.3.26,9.16,9.16,0,0,1,.09,2.28c-.09.33.05.53.38.48.9-.13,1.78.26,2.67.05a1.4,1.4,0,0,1,.91.21c.45.21.62.13,1.07-.3.78-.74,1.73-1.64,3.11-1.3.34.08.57.13.65.51a2.85,2.85,0,0,0,1.84,2.32,1.64,1.64,0,0,1,.76,1.75c-.07.33.06.6,0,1a9.33,9.33,0,0,0-4.59,1.19,3.08,3.08,0,0,1-2.1.53c-.84-.84-1.56-1.32-2.9-.5C53.93,40.86,52.59,40.23,51.51,40.45Z"/><path class="cls-34" d="M52.67,32.2c-.06-.08-.13-.16-.19-.25s0-.3.05-.45c0-.4.29-.7.34-1.09h0a6.91,6.91,0,0,1,.61-1.29h0c.25-.69.87-.66,1.44-.74h0a2.38,2.38,0,0,1,1.39.21,6.67,6.67,0,0,1,1.33,1.09c1.12,1.32.87,2.26-.69,3a6.12,6.12,0,0,1-3.12.83C52.87,33.38,52.67,33,52.67,32.2Z"/><path class="cls-8" d="M36.89,45.58c-.29.29-.71.45-.92.87.39.18.52-.23.77-.31s.53-.08.66.21,0,.37-.18.55c-.84,1-1.67.44-2.51,0C35.45,46.5,35.89,45.57,36.89,45.58Z"/><path class="cls-8" d="M39.78,44.09c-.37.24-.64.7-1.19.55C39,44.4,39.23,43.94,39.78,44.09Z"/><path class="cls-33" d="M52.87,30.41a.94.94,0,0,1-.34,1.09l-.2-.24a2.3,2.3,0,0,0,.05-.45h0Z"/><path class="cls-17" d="M25.45,56.06c0-.11,0-.19,0-.26a3.1,3.1,0,0,1,.43,0c.17,0,.17.09,0,.14Z"/><path class="cls-8" d="M52.38,30.81c0,.15,0,.3-.05.45C52.35,31.11,52.36,31,52.38,30.81Z"/><path class="cls-4" d="M15,83.38a.67.67,0,0,1-.16-.7l.21.25C15,83.08,15,83.23,15,83.38Z"/><path class="cls-24" d="M33.33,59a5.93,5.93,0,0,1,3.1-2.45,2.42,2.42,0,0,1,1.47-.24c.23.8-.21,1.59-.21,2.4,0,.33-.08.66.26.82,1.43.67.93,2.3,1.66,3.31,0,0-.11.17-.17.25-.85,0-1.49.68-2.34.64-.81.36-1.6.86-2.53.39s-1.68-1.27-1-2.52c.06-.13.09-.4,0-.44C32.66,60.49,33.23,59.71,33.33,59Z"/><path class="cls-17" d="M31.85,76c-.47.6-.87,1-1.79.49s-1.44-.17-1.36,1a4.31,4.31,0,0,1-.18,2c-1.31-.6-1.06-1.76-1-2.84h0a1,1,0,0,1,1-.78A13.43,13.43,0,0,1,31.85,76Z"/><path class="cls-17" d="M32.1,75.82c0,.24,0,.3-.25.2Z"/><path class="cls-1" d="M30.16,98.92c.19.66.81,1,1.19,1.5a17.26,17.26,0,0,1-4.78-2,2.69,2.69,0,0,0-1.28-.53l-.59-.74h0c1.47-.69,2.73.3,4.05.62A2.28,2.28,0,0,1,30.16,98.92Z"/><path class="cls-1" d="M27.48,76.65c.43.92.3,2,1,2.84l-.15.41c-.76,2.79-1.72,3.64-4.4,3.66-.7,0-1.65.08-1.92-1h0a.4.4,0,0,0-.4-.49c-.13-.24-.24-.69,0-.65.86.12,1.14-.65,1.38-1,.71-1.18,1.94-1.52,3-2.15.87-.52.28.75.9.71.55-.7.19-1.26-.43-1.7C26.76,76.83,27.22,76.93,27.48,76.65Z"/><path class="cls-14" d="M22.05,82.61c1.21.63,1.32.65,2.75.19.26-.08.36.16.55.17a1.82,1.82,0,0,0,2-1.69c.06-.54,0-1.07.82-1a3.8,3.8,0,0,0,.14-.57c.15,0,.22.09.2.25.26.34.52.65.13,1.11s-1.08,1.17-1,2.07c0,.25-.21.34-.39.45-.82.48-.75,1.09-.47,1.93.49,1.43.82,2.9-.69,4.09-.81.64-.81,1.19-.33,2.1.12.23.48.45.44.61-.46,2.06,1,3.14,2.18,4.38A4.43,4.43,0,0,0,29.6,97.9a.86.86,0,0,1,.56,1c-.51-.22-1.12-.24-1.47-.79-.1-.17-.32-.25-.47-.38-.53-.5-1.16,1-1.7-.12-.39-.79-1.25-.17-1.82-.46-.16-.68.5-1.27.1-2A7.68,7.68,0,0,1,24.26,93c-.11-.55-.28-1-.93-1.12s-.63-.5-.44-1a2,2,0,0,0-.33-2.08c-.3-.4-.27-.93-.49-1.32A25.28,25.28,0,0,1,21,84.34c-.18-.42-.27-.7.26-.83S21.86,83,22.05,82.61Z"/><path class="cls-12" d="M21.65,82.11c.39,0,.52.12.4.49C21.92,82.44,21.79,82.27,21.65,82.11Z"/><path class="cls-28" d="M61.75,16c1,.48,2.11.61,2.94,1.76-1,.06-1.9.75-2.68-.24a.88.88,0,0,0-.89-.21c-1.1.22-2.26-.78-3.32.17a.29.29,0,0,1-.27,0c-.55-.83-1.39-.55-2.15-.6-.26,0-.31-.24-.23-.47l.24-.19c.15,0,.3,0,.45,0A7.13,7.13,0,0,1,60.68,16,1.7,1.7,0,0,0,61.75,16Z"/><path class="cls-33" d="M56,28.73l-1.09-.35c.46-.44,1.17-.05,1.64-.49,1,.31,1.94,1,3.14.77.37-.08.64.33.76.69a4.91,4.91,0,0,1,.08.78c.2,1.22.25,1.25,1.47.88a.84.84,0,0,1,.31,0c-.28.23-.64.44-.62.84a.81.81,0,0,1-.54.94c-.56.24-.65-.42-1-.44-.2-.17-.45-.32-.53-.57C59,30.06,57.36,29.58,56,28.73Z"/><path class="cls-19" d="M27.24,45.06c-.95-.29-1-.69-.54-1.31A2.3,2.3,0,0,1,27.24,45.06Z"/><path class="cls-19" d="M30.08,38.4c.34-.19.63-.28.91-.06s.08.25,0,.36-.5.39-.73,0C30.16,38.61,29.87,38.54,30.08,38.4Z"/><path class="cls-19" d="M29.21,40.86c.21-.08.42-.08.52.14a.36.36,0,0,1-.19.51.32.32,0,0,1-.4-.13A.33.33,0,0,1,29.21,40.86Z"/><path class="cls-33" d="M54.92,28.38c-.45.32-1.06.32-1.44.74C53.64,28.25,54.17,28.11,54.92,28.38Z"/><path class="cls-33" d="M53.48,29.12a1.73,1.73,0,0,1-.61,1.29C52.7,29.81,53,29.44,53.48,29.12Z"/><path class="cls-9" d="M55.84,16.26l-.45,0Z"/><polygon class="cls-19" points="27.75 44.31 27.78 44.46 27.7 44.45 27.75 44.31"/><polygon class="cls-19" points="27.75 44.31 27.73 44.16 27.81 44.17 27.75 44.31"/><path class="cls-28" d="M71.76,29.62c-.74,0-1.47.08-2.21.09s-1,.51-1,1.16a1.23,1.23,0,0,0,.1.46c.23.51.35,1.09-.11,1.46s-1-.15-1.45-.31c.63-.36.67-1,.76-1.61.2-1.47.66-1.87,2.14-1.78C70.63,29.13,71.3,29.06,71.76,29.62Z"/><path class="cls-33" d="M64.35,31a2.23,2.23,0,0,1-2,0A2.23,2.23,0,0,1,64.35,31Z"/><path class="cls-33" d="M64.8,31.09,64.35,31Z"/><path class="cls-29" d="M58.43,77.23a18.5,18.5,0,0,0-3.28,1.84,34.58,34.58,0,0,1-5.7,2.38c.13-.91.75-1.24,1.69-1.49l-1.53-.79c-.77.39-.84,1.4-1.64,1.84-.3.16.08.8.44,1.16s-.18.32-.33.45a2.06,2.06,0,0,0-2.14-.2,22.18,22.18,0,0,1-4,1.67c-1,.2-2,.34-3,.63-.29.09-.6,0-.81.33s-.42.25-.66,0a8,8,0,0,1-2.3-3.63c-.22-.67.71-1,.39-1.68-.06-.11.32-.13.49,0a.8.8,0,0,0,.74.2c.44-.64-.57-.65-.44-1.35.11-.36.82,0,1.07-.48,0,0,0-.12,0-.14-1.32-1.22,0-2.42,0-3.63a1,1,0,0,0,.21-.73.55.55,0,0,0-.3-.35c-.89-.43,1-1.08-.2-1.74-.65-.36.06-1.56.17-2.37.1-.64.84-.74,1.26-1.11A8.31,8.31,0,0,1,40.53,67c.66.63.52,1.28.36,2.12-.11.59,1.35.26,1.54,1.23s.54,1.76-.53,2.32c2.76-.3,4.72-2.53,7.4-3.11,1.52-.33,3-.85,4.57-.1,1.35,1.56,2.34,3.37,3.58,5a1.17,1.17,0,0,1,.24,1.32C57.55,76.46,58.16,76.76,58.43,77.23Z"/><path class="cls-35" d="M87.88,61.1c.7.93,1.84,1.24,2.72,1.89,1.53,1.93,1.54,3.39,0,5.3a1.12,1.12,0,0,0-.26,1c-.39.35-.51.94-1,1.19a4.23,4.23,0,0,0-1.93,3,5.14,5.14,0,0,1-1.21,2.32,11.34,11.34,0,0,0-2.82,2.75,1.57,1.57,0,0,1-.53.56,2.43,2.43,0,0,0-1.55,1.9c-.09.34,0,.79-.4,1a1,1,0,0,1-.61,0c-.16,0-.15-.22-.11-.39a2.75,2.75,0,0,0,0-1.81c-.44,0-.38.61-.87.69a26.53,26.53,0,0,0-2.53-2.68c-.41,0-.4.47-.64.6-.47.25-1.08.79-1.14-.4,0-.29-.43-1-.91-.14-.11.19-.43.27-.66.4-.49-.48-.72-.23-.84.3s-.31.8-.68.78a11.17,11.17,0,0,1-1.63-.2c-.4-.08,0-.84-.53-1.06-1.91.77-.7,2.31-.79,3.5-.1.07-.18.17-.27.18-2,.24-2,.26-2.83-1.6-.33-.78-.94-.91-1.57-1.13l0-.11-.11,0,.08.08c-.07.6-.11,1.21-1,.79a11.15,11.15,0,0,0-1.07-.36c.27-.55.83,0,1.08-.38a2,2,0,0,0-2.52-1c-.35.1-.68.71-1.06.16-.23-.34.13-.68.25-1l-.15-.7c.22-1,1.09-1.2,1.79-1.65a1.34,1.34,0,0,1,.66,0c.49.16,1,.56,1.49.05a.65.65,0,0,1,.41.1c.29.26.3.67.52.94s.29-.13.13,0a1.69,1.69,0,0,1,0-2.39c.57-.22.78.24,1,.58,1,1.87,3,1.81,4.65,2.23,1.27.31,1.49-.89,2-1.55,1.17-1.41,2.09-1.48,3.21,0,.55.72.65.43,1.26,0,1.07-.72,1.75-1.89,3-2.4a.88.88,0,0,0,.56-.7c.06-.34-.07-.85.4-.92s.65.43.84.81c.81,1.62.77,1.36,2.47.65,1.32-.55,1-2.31,2.44-2.51.09,0,.1-.32,0-.44-.87-1.2.63-2.28.18-3.46-.1-.25.13-.52.43-.56a1,1,0,0,1,1.16.61,2.1,2.1,0,0,0,1,1.4c-1.11-.76-1-1.51-.14-2.3.62-.53.76-1.08-.19-1.38a2.34,2.34,0,0,1-1.62-2.29A.3.3,0,0,1,87.88,61.1Z"/><path class="cls-36" d="M61.86,74.9c-.49.74-1.39,1-2,1.58-1.21.49-1.21.49-2.18-.7a5.81,5.81,0,0,0-.64-1.24c-1.39-1.58-2.34-3.47-3.62-5.13a1,1,0,0,1-.64-.61,1.76,1.76,0,0,1,2-.36c1.91.71,4,.94,5.71,2.17.17.13.52.3.48.37-.91,1.58,1.41,2.28,1,3.71A1.8,1.8,0,0,1,61.86,74.9Z"/><path class="cls-35" d="M73.48,78.23c.14.36.74.33.64.83a.26.26,0,0,1-.36.2C73.12,79.09,73.34,78.66,73.48,78.23Z"/><path class="cls-25" d="M77.71,84.4c.45.27.44.68.54,1a.57.57,0,0,1-.59.74c-.48,0-.6-.36-.53-.75A1.44,1.44,0,0,1,77.71,84.4Z"/><path class="cls-37" d="M87.63,61.3c.35.35.41.85.65,1.26s.43.84,1,.64.63.31.9.57c.51.5.56.91-.11,1.22s-.75.83-1.17,1.14c.32.6,1,.42,1.25.85s.29.57,0,.84a.58.58,0,0,1-.85.06,3.25,3.25,0,0,1-1-1.58.92.92,0,0,0-.65-.76.69.69,0,0,0-.45,0,.27.27,0,0,0,0,.42c.75.71.56,1.24-.28,1.7-.27.15-.23.47,0,.69s.16.84.34,1.2c.33.61-.07.74-.48.87-1.11.35-1.12.34-.81,1.41a.43.43,0,0,1,0,.46.79.79,0,0,1-.87.07c-.49-.18-.64-.06-.61.45,0,.29-.21.26-.45.25-.7,0-1.49-.18-1.77,1-.06-1.31-.82-2.11-.94-3.33a1.14,1.14,0,0,0-.26,1.13.69.69,0,0,1-.76.92c-.82-.13-.89.51-1.22.91a1.75,1.75,0,0,0-.16.44c-.26.75-1,.15-1.35.46s-.12,1.09-.72,1.29a.8.8,0,0,1-1.12-.55c-.2-.52-.24-1.33-1.26-.76-.6.32-.11-.76-.78-.78.07,1.19-1.66,1.38-1.5,2.7a.14.14,0,0,1-.21.15c-.88-.34-1.86.66-2.7-.23a.87.87,0,0,0-.59-.21c-1.7.09-2.55-1-3.26-2.3-.06-.12-.23-.19-.34-.28l-.21-.11a.55.55,0,0,1,.09-.43c2.84-1.6,5.65-3.27,8.52-4.81a15.7,15.7,0,0,1,2.76-.69,2.22,2.22,0,0,0,1.69-2.38c0-.94-.48-1.62-1.49-1.29-.7.24-1.31-.5-2.06,0-.28.21-.66-.52-.74-1-.22-1.43-.51-2.87-.59-4.33.32-.52,1-.72,1.17-1.39a1.57,1.57,0,0,1,.24-.37c.33-.35.68-.69.34-1.23-.5,1.36-1.17,1.53-2.36.61-.6-.48-1-1.41-2-.62-.19.15-.57,0-.71-.2-.82-1.12-2.22-1.47-3.26-2.28a24.48,24.48,0,0,0-2.95-1.87.94.94,0,0,1-.58-.7c.85-1,1.68.47,2.53,0,.76-.29,1.31.34,2,.45,2.6,1,5.22,2,7.89,2.79a3.34,3.34,0,0,1,2,2.08c.59,1.31.82,3.12,2.79,3.35h0c.11,0,.18,0,.22-.06s0-.11,0-.13l.24-.2c1.52-1,2.68,0,3.62.88A4.65,4.65,0,0,0,87.63,61.3Z"/><path class="cls-25" d="M79.93,59.29c-.23.19-.19,1.06-.79.32-.09-.12-.15-.39-.22-.39-1.06,0-1.38-.57-1.19-1.56,0-.13-.21-.38-.38-.47a1.07,1.07,0,0,1-.67-1.25,1.61,1.61,0,0,0-1.46-1.77,47,47,0,0,1-5.55-1.74,5.37,5.37,0,0,1-2.39-1.36s.11-.09.11-.12c-.28-1.71-.21-3.54-1.8-4.78-1.37-1.06-1.5-2.49-.4-3.57-.07-.18-.22-.15-.37-.17-.58,0-1.1.82-1.59.32a5.21,5.21,0,0,1-1.11-2c-.17-.57.22-.77.72-.34a1.55,1.55,0,0,1,1.65.56c0-1.58,0-1.58,1.52-2l4.59-1.12c.25,0,.39.29.64.3l.45.05c.74.61,1.75,1,2,2a5.05,5.05,0,0,1-1.28.92c-1,.34-1.43.76-.82,1.83.16.3.14.81-.52,1.08s-.28,1.18-.45,1.79c-.09.32.33.49.65.55.71.14,1,.74,1.38,1.23.64.86.58,1.21-.4,1.73-.43.23-.68.44-.72.91,0,.26,0,.56-.37.61s-.68.06-.59.52.42.45.71.54c1.12.32,2.13,1.11,3.43.68a.72.72,0,0,1,.82.58c0,.71.56.85.91,1.19,1.14,1.11,1.32,1.06,1.65,2.45A4,4,0,0,0,79.93,59.29Z"/><path class="cls-27" d="M51.51,40.45a2.19,2.19,0,0,1,2.62-.28c.19.11.49.22.54,0,.29-1.08,1-.68,1.74-.65,1,0,.87.82,1.16,1.35-.49.92-.92,1.11-2,.88-1.93-.41-2.49.07-2.2,2,.06.43,0,.84,0,1.25s0,.94.39.9,1.08.1,1.14-.67.46-.74.94-.32c.31.27.68.78,1,.28s1.29-.4.77-1.27a.37.37,0,0,1,.18-.53.48.48,0,0,1,.57.16c.34.39.65.8.94,1.17-.08.39-.42.36-.6.54-.67.63-.78,1.2-.12,1.88.48.5.44,1.25,1.09,1.69.4.28.19,1-.4,1.08s-1.28.61-2-.52A2.42,2.42,0,0,1,56.42,52c-.75.59-1.51,1.16-2.23,1.79a10.1,10.1,0,0,0-1.85,2c-.52.76-1.18,1.91-2.64,1.46-.76-.24-1.26.29-1.48,1.17,0,.21-.12.41-.18.61-.71-.68-.14-1.36,0-2,.42-1.33.51-2.79,1.51-3.9.28-.31.37-.64,0-1-1.28-1.13-.44-2.48-.28-3.7.11-.81,1.41-.84,2.41,0,.75.58,1.32,1.37,2.12,2a1.46,1.46,0,0,1,1.44-1.8,6.44,6.44,0,0,0-3.38-2.41c-1.39-.54-1.44-.85-.28-1.78a3,3,0,0,0,.82-1.83C52.48,41.71,51.39,41.33,51.51,40.45Z"/><path class="cls-27" d="M40.57,67.05c-.41.68-1.2.87-1.74,1.38,0,0-.14,0-.15,0a11.86,11.86,0,0,1,.77-4.88,12.94,12.94,0,0,0,1.83-.68,9.45,9.45,0,0,0,4.66-2.08c.67-.59,1.4-1.13,2.1-1.68l.2.25a1.74,1.74,0,0,1,0,.22,4.36,4.36,0,0,0,.46,2.6,4.2,4.2,0,0,1,.5,2.44,1.38,1.38,0,0,1-1.72,1.24c-2.15-.54-4,.35-5.89,1.06A1.88,1.88,0,0,1,40.57,67.05Z"/><path class="cls-36" d="M48.24,59.32c1.38-1.2,3.15-1.84,4.46-3.15.33-.32.8-.57,1-1a4.74,4.74,0,0,1,2.25-2h.22c1.82-.87,2.18-.81,3.18.42a1,1,0,0,1,.25,1.15,1.17,1.17,0,0,0-.09,1.2c.59,1-.19,1.48-.87,1.84-1,.54-.94-.38-1.11-.94-.09-.27-.27-.49-.58-.35s-.14.38-.1.64c.22,1.22-1.11,2.11-2.06,2.52-1.45.63-2.66.06-4,0a8.86,8.86,0,0,0-2.3,0,.51.51,0,0,1-.27-.34Z"/><path class="cls-29" d="M56,28.73a1,1,0,0,1,1.12.39.81.81,0,0,0,1.07.36c.56-.23,1,0,1,.62,0,.92,1,1.35.94,2.27-.32.14-.39.9-1,.38a.48.48,0,0,0-.59-.1c-1.71,1.19-3.8,1.23-5.7,1.84a2.45,2.45,0,0,1-.2-2.29c.3.23.2,1,.53.85.9-.33,1.9.54,2.71-.29a1.87,1.87,0,0,1,1.5-.7c.67,0,.63-.38.58-.82a2.43,2.43,0,0,0-1-1.7A4.34,4.34,0,0,1,56,28.73Z"/><path class="cls-35" d="M65.3,50.62a1,1,0,0,1-1.15.09,2,2,0,0,0-1.34-.15,6.24,6.24,0,0,0-2.4,1c-.61.58-1,.17-1.23-.49a3.23,3.23,0,0,1,0-.44,4.6,4.6,0,0,1,5.36-.23A3.15,3.15,0,0,0,65.3,50.62Z"/><path class="cls-30" d="M81,34.06c.79-.45,1.33.27,2,.45C82.11,35.23,81.58,34.54,81,34.06Z"/><path class="cls-36" d="M56.7,52.58a1.86,1.86,0,0,1,1.74-1.39c0,.07.05.14.07.21-.08,1-.9,1-1.6,1.24Z"/><path class="cls-32" d="M73.72,40.25c-.49-.87-1.49-1.22-2-2C72.68,38.57,73.59,39,73.72,40.25Z"/><path class="cls-27" d="M59.88,47.76c.09.05.22.08.24.15s-.08.16-.13.24-.22-.08-.24-.15S59.84,47.84,59.88,47.76Z"/><path class="cls-36" d="M59.19,50.6l.2.25c-.19.45-.41.82-1,.35h0Z"/><path class="cls-32" d="M71.24,38.16a.65.65,0,0,1-.64-.3A.66.66,0,0,1,71.24,38.16Z"/><path class="cls-36" d="M56.2,53l.5-.39h0c.41.56.06.62-.4.61A1.47,1.47,0,0,0,56.2,53Z"/><path class="cls-36" d="M56,53.17c-.05-.23,0-.3.25-.2h0c0,.13,0,.2-.1.21s-.12,0-.14,0Z"/><polygon class="cls-32" points="85.06 36.1 84.91 36.13 84.92 36.05 85.06 36.1"/><path class="cls-32" d="M71.69,38.21l-.45-.05Z"/><path class="cls-31" d="M37.56,97.5l-.39-.5c-.92-1.14-1.76-2.34-3.44-2.51-.54,0-.46-1-1.12-1.18a2.29,2.29,0,0,1-.6-.75l-.2-.24c0-.32,0-.64,0-1,0-.11-.11-.22-.17-.33a1,1,0,0,1-.07-.56c-.52-.68-1.23-1.24-.72-2.33a1.56,1.56,0,0,0-.43-1.6c-.66-.59-.41-1.63-1.17-2.14a.39.39,0,0,1,0-.57c.6-.66.65-1.78,1.71-2.06a.26.26,0,0,0,.21-.35c-.66-1.64.27-.92.93-.64.21.09.4,0,.58-.14l.4.5c-.32.67-1.09.78-1.59,1.25A2.22,2.22,0,0,0,31,85.06c.12.23.28.49.61.3a.66.66,0,0,1,.74,0,5.61,5.61,0,0,1,1.19.76c.51.53-.19.8-.36,1.19,0,0-.07.12,0,.14.86,1.17-.27,1.9-.62,2.81-.15.38-.14.86.35.84a1.14,1.14,0,0,1,1.24.93,1.07,1.07,0,0,0,.52.58c1.29.38,2.33,1.74,3.91,1a.46.46,0,0,1,.64.31c.06,1,.86,1.85.18,2.85h0c-.09,0-.18,0-.27-.09s0,.06.27.09a1.41,1.41,0,0,1,.39,1.86C38.77,98.66,38.39,97.66,37.56,97.5Z"/><path class="cls-31" d="M39.58,63.76c-.58.7-.94,1.42-.1,2.16.44.38.05.6,0,.92-.15.56-1.12.8-.61,1.59-1.39.38-1.15,1.7-1.52,2.65-.12.32.06.59.48.63a1.45,1.45,0,0,1,1.1.73c-.23.54-.54.07-.79.1s-.73-.19-.71.31.47.25.75.29a1.63,1.63,0,0,1,.39.18c-.38.36-.24,1.11-1.06,1.07-.53-.23-.86.53-1.39.3.54-.56.58-1.12-.17-1.46a2.19,2.19,0,0,1-1.12-1.18c-.19-.3-.58-.62-.22-1a6.93,6.93,0,0,0,1.75-2.56c.1-.27.59-.2.71-.5-.18-.38-.47-.24-.71-.26-.58-.06-.78-.44-.49-.87a2.08,2.08,0,0,0,.33-1.63c-.15-.88.74-.88,1.14-1.31l.16-.1a2.29,2.29,0,0,1,.37-.12l.19-.06C38.55,63.55,39.1,63,39.58,63.76Z"/><path class="cls-31" d="M32.68,80.64a9.35,9.35,0,0,0-.74-.8c-.22-.18-.42-.41-.31-.65.4-.84.24-2.09,1.53-2.28.69-.11.62-1.15,1.42-1a9.11,9.11,0,0,0-.39,3.21C34.29,80.08,33.42,80.34,32.68,80.64Z"/><path class="cls-31" d="M34.58,75.88c.34-.26.46-.79,1-.8C35.56,76.08,35.56,76.08,34.58,75.88Z"/><path class="cls-30" d="M50.29,86.34c-.09-.12-.14-.28,0-.39s.34,0,.42.17.08.28.12.43A.55.55,0,0,1,50.29,86.34Z"/><path class="cls-31" d="M35.24,77.91s-.11,0-.12,0a.29.29,0,0,1,0-.13s.1,0,.11,0A.75.75,0,0,1,35.24,77.91Z"/><polygon class="cls-31" points="33.08 81.14 33.23 81.11 33.22 81.2 33.08 81.14"/><path class="cls-31" d="M35.58,75.08c0-.23,0-.3.25-.2Z"/><path class="cls-28" d="M47.11,96.27c-.16,0-.23,0-.25-.08a1.4,1.4,0,0,1,0-1.29.35.35,0,0,1,.28,0C47.59,95.39,47.2,95.81,47.11,96.27Z"/><path class="cls-25" d="M87.63,61.3A3.23,3.23,0,0,1,83.94,60a3,3,0,0,0-3.51-1.07A1.72,1.72,0,0,1,83,58.73c.8.69,1.92.92,2.5,1.89a.88.88,0,0,0,1,.33,2.18,2.18,0,0,1,1.4.15Z"/><path class="cls-25" d="M80.19,59.1c0,.23,0,.3-.26.19Z"/><path class="cls-8" d="M37.1,63.71c.36-.73,1.34-.5,1.77-1.13l.57.49h0a9.08,9.08,0,0,1-1.7.94A3.29,3.29,0,0,0,37.3,64h0Z"/><path class="cls-17" d="M28.47,79.94l-.2-.25a2.43,2.43,0,0,1,.25-.2C28.5,79.64,28.48,79.79,28.47,79.94Z"/><path class="cls-31" d="M32.61,93.31c.5,0,.69.39,1,.69s.47.48.8.28c.53-.32.83-.24,1,.37s1.25.17,1.38.78-.13,1.13.38,1.57c-1.55-.18-2.55-1.43-3.89-2-.19-.08-.24-.33-.23-.55A1.46,1.46,0,0,0,32.61,93.31Z"/><path class="cls-31" d="M32.16,91.22c.06.42-.2.74-.35,1.1-.2-.6-.8-1.15-.24-1.85.13.17.26.34.4.5C31.94,91.13,32,91.21,32.16,91.22Z"/><path class="cls-31" d="M32,92.56a.87.87,0,0,1,.6.75Q31.83,93.32,32,92.56Z"/><path class="cls-28" d="M52.4,42.58a1.65,1.65,0,0,1-.9,2.21c-.24.12-.54.16-.47.51a.56.56,0,0,0,.58.45c1.08,0,1.84.72,2.67,1.21a3.52,3.52,0,0,1,1.66,2c-.5.44-1.48-.43-1.81.68-.24.78.64.74.68,1.25-1,.06-1.67-.24-2.63-1.47a3.59,3.59,0,0,0-1.78-1.2c-.54-.18-.84,0-1,.46-.18.76,0,1.56-.28,2.32-.08.29.22.59.48.77s.77.37.87.8c-.69,1.06-1.69,1.88-1.71,3.29,0,.39-.48.78-.75,1.17a3,3,0,0,1,.09-1.57c.65-2.16.37-4.4.7-6.59.17-1.13,0-2.3.4-3.43.35-.86.64-1.58,1.77-1.34a.65.65,0,0,0,.75-.44A2.61,2.61,0,0,1,52.4,42.58Z"/><path class="cls-9" d="M37.74,64a3.3,3.3,0,0,1,1.7-.94c.65.24,1.2-.37,1.84-.24a5.74,5.74,0,0,1-1.7.93C38.89,63.26,38.39,64.19,37.74,64Z"/><path class="cls-25" d="M48.24,59.32l.2.25.11.19c.16.43.29.88.42,1.32a11.23,11.23,0,0,0,2.79,5.56,2.78,2.78,0,0,1,1.08,2c.19.25.39.5.59.74a12.79,12.79,0,0,0-4.29.63,25.79,25.79,0,0,1-2.52.87c-.09,0-.27,0-.3,0-.94,1.65-2.79,1.56-4.24,2.23a1.6,1.6,0,0,1-.44.17c-.27,0-.54,0-.63-.32a.4.4,0,0,1,.36-.57c.7-.08,1.19-.46.91-1.12s-.05-1.47-1.17-1.52-1.07-.2-.4-1.1a.31.31,0,0,0,0-.4c-.24-.39,0-.84-.18-1.24.45-.52,1.34-.39,1.66-1.13a.3.3,0,0,1,.39-.18c1,.38,1.72-.27,2.56-.57a3.66,3.66,0,0,1,2.13.19c1,.29,1.65-.23,1.53-1.3a6.82,6.82,0,0,0-.73-2.4A1.88,1.88,0,0,1,48.24,59.32Z"/><path class="cls-36" d="M64.75,73.42l.2.24c-.53,1.16-.25,2.1,1.1,2.94-1.52,0-1.63-1.08-2.15-1.7,0,.64-.27.92-.93.65a1.9,1.9,0,0,1-.66-.6,2.34,2.34,0,0,1,0-.26A2.72,2.72,0,0,1,64.75,73.42Z"/><path class="cls-37" d="M83.17,73.7c.32-.16.56.07.81.23s.12.27,0,.38c-.33.26-.56,0-.76-.2A.29.29,0,0,1,83.17,73.7Z"/><path class="cls-25" d="M64.34,79c-.33-.17-.75-.46-.36-.76s.3.28.41.47S64.36,78.93,64.34,79Z"/><path class="cls-37" d="M90.08,66.17c.08,0,.19,0,.24.1s0,.17.06.26-.2,0-.25-.1S90.09,66.26,90.08,66.17Z"/><path class="cls-25" d="M60.16,77.16c.09,0,.23.07.24.14s0,.18-.17.09a2.08,2.08,0,0,1-.21-.21Z"/><path class="cls-25" d="M67.32,80.43s-.1,0-.11,0a.29.29,0,0,1,0-.13s.1,0,.11,0A.34.34,0,0,1,67.32,80.43Z"/><path class="cls-36" d="M62.31,75l-.45,0h0c.18-.24.33-.22.45,0Z"/><path class="cls-38" d="M62.31,75l-.45,0a3,3,0,0,1-.28-.73c-.11-.83-.47-1.4-1.36-1.5-.34,0-.64-.09-.59-.54s.37-.46.7-.46a.54.54,0,0,0,.58-.38,14.67,14.67,0,0,0-4.25-1.85,5.35,5.35,0,0,1-1.06-.29c-.57-.23-1-.73-1.75-.22-.18.13-.67-.16-1-.26-.76-1-1.45-2-2.28-2.83-1.37-1.46-1.71-3.28-2-5.13,0-.39-.09-.76-.09-1.14.34-.11.74-.1,1-.45.35-.51.46-.19.58.15,0,.17.21.28.35.15,1-1,1.69,0,2.43.46L53,60a.66.66,0,0,0,.41-.45c.31-.82.81-.77,1.5-.43.89.45.92.41,1-.68,0-.24-.18-.56.31-.49.29,0,.56-.07.55-.41s-.34-.32-.58-.42a4.88,4.88,0,0,1-.49-.29c.53-.55,1-1.07,1.79-.89,1,.23.14,1.21.55,1.69.48.11.46-.4.74-.52.77-.32,1.25-.64.07-1.1-.33-.12-.23-.4-.06-.65s.43-.71.63-1.06c-.07-.52-.62-.56-.85-.91-.45-.69-1-1-1.57-.14-.37.51-.72.23-1-.1L56.2,53c.37.12.54,0,.5-.4.68-.33,1.51-.48,1.74-1.38.41.15.67-.14,1-.35l.45.75c.83-.83,1.69-1.61,3-1,1.28.31,1.85,1.65,3,2.19,0-.33,0-.68.1-.79.3-.24.45.09.57.32s.36.75.53,1.14c.09.19.2.49.4.42,1.1-.41,1.42.62,2,1.1s.81.47,1.3.07a5.64,5.64,0,0,1,1.14-.52c-.14.68.21,1,.63,1.48s1,.42,1.5.6c.26-.49-.17-.9.12-1.3.15-.22.23-.49.55-.48s.26.36.27.59c0,.43.53.5.7.93l-1.36,1c.2.88-.35,1.13-1,1.24s-1,.82-1.75.42c-.35-.19-.6,0-.75.35s-.24.56.07.84c1.13,1,.35,2.25.2,3.31-.13.91-2,1.08-3.24.43a2,2,0,0,1-.93-.83c0,.4.45.52.64.81a.81.81,0,0,1,0,1,.79.79,0,0,1-1.14.06A1.34,1.34,0,0,1,66,64.6c-.41-.52-.9-.23-1.29,0s-.13.63-.08,1c.12.85.87,2.14-1.1,1.52-.43-.13-.76.29-1,.65s-.08.63-.34.87-1.26.33-1.08,1a2.51,2.51,0,0,0,1.66,1.35,2.48,2.48,0,0,1,2,2.54h0C64,74.09,63,74.21,62.31,75Z"/><path class="cls-39" d="M64.75,73.41c-.56-.66-.57-1.83-1.61-2-.79-.14-1.22-.77-1.89-1-.39-.16-.84-.56-.72-.94s.41-.92,1-.94.76-.17.49-.74c-.13-.26,0-.45.31-.62,1.16-.73,1.15-.74,2.28-.12A8.48,8.48,0,0,0,64,64.74c-.19-.47-.08-.88.6-.68.2.06.44.19.6,0,.75-.84,1-.25,1.22.42.16.44.53.56.87.27s.2-.52-.11-.77c-.47-.37-.6-1.12-1.69-1.07.66-.44,1-.33,1.31-.15s.84.63,1.28.91.79-.3,1.38.11c.74.52,1.59-.31,1.47-1.25,0-.42-.44-.75-.3-1.2.23-.71.25-.75-.34-1s-.6-.52-.19-.79.32-.6.39-.94.5-.58.7-.37c.61.64,1.13.28,1.71,0,.08,0,.25.16.38.24-.49.69.6.91.45,1.27s-.39.85-.18,1.31a3.42,3.42,0,0,1,.41,2.24c0,.17.17.38.39.46.51-.13.12-.81.69-1,.26.75.58,1.27,1.51.56.51-.38,1.68.61,1.77,1.36.22,1.88-.48,2.85-2.32,3.32a5.76,5.76,0,0,1-2,.39c-.19,0-.53.08-.58.2-.34,1-1.37.94-2.06,1.25-1.58.72-2.92,1.79-4.43,2.6C66.22,72.85,65.47,73.11,64.75,73.41Z"/><polygon class="cls-29" points="62.84 40.37 62.87 40.52 62.78 40.51 62.84 40.37"/><path class="cls-31" d="M38.76,96.79c0-.1,0-.28,0-.36.22-.24.35,0,.45.15s.36.15.08.3A.39.39,0,0,1,38.76,96.79Z"/><path class="cls-18" d="M32.16,91.22c-.23,0-.3,0-.19-.25Z"/><path class="cls-9" d="M37.3,64l.44.05Z"/><path class="cls-36" d="M48.44,59.57a1,1,0,0,1,.09,1.14A1,1,0,0,1,48.44,59.57Z"/><polygon class="cls-35" points="63.9 74.9 63.87 74.75 63.96 74.76 63.9 74.9"/><polygon class="cls-37" points="74.28 57.29 74.13 57.32 74.14 57.23 74.28 57.29"/><path class="cls-40" d="M31.34,61.89V62H25.2a11.1,11.1,0,0,1-3.1-.38,8.7,8.7,0,0,1-4.94-4.11,6.84,6.84,0,0,1-.85-3.26,7.13,7.13,0,0,1,1.07-3.63,8.11,8.11,0,0,1,3-2.94,8.8,8.8,0,0,1,4.48-1.13,12.92,12.92,0,0,1,4.75,1l.63,1.76h-.16A5.85,5.85,0,0,0,28,47.66,6.88,6.88,0,0,0,24.88,47a6,6,0,0,0-4.83,2.22,8.23,8.23,0,0,0-1.88,5.5,8.7,8.7,0,0,0,.31,2.44,6.08,6.08,0,0,0,1.16,2.11,5.84,5.84,0,0,0,1.83,1.53,7.79,7.79,0,0,0,2.19.68,11.12,11.12,0,0,0,1.92.17l.82,0a4.69,4.69,0,0,0,1.73-.26c.23-.14.35-.49.35-1V58a1.11,1.11,0,0,0-.28-.9,1.09,1.09,0,0,0-.8-.21v-.15h3.94v.15a1.15,1.15,0,0,0-.88.26,1.56,1.56,0,0,0-.22,1v2.4a2,2,0,0,0,.19,1,.74.74,0,0,0,.7.32Z"/><path class="cls-40" d="M38.11,62v-.15q.72,0,.93-.27a1.54,1.54,0,0,0,.21-.92V48.24a2.1,2.1,0,0,0-.16-1c-.11-.19-.45-.3-1-.31v-.16h4.09V47a1.67,1.67,0,0,0-.8.14.74.74,0,0,0-.3.34,3.31,3.31,0,0,0-.07.89V59A2.43,2.43,0,0,0,41.67,61a3.47,3.47,0,0,0,2.26.57h1.86a2.58,2.58,0,0,0,2-.67,3.91,3.91,0,0,0,.69-2.49h.16V62Z"/><path class="cls-40" d="M64.73,46.59A7.31,7.31,0,0,1,70,48.53a6.47,6.47,0,0,1,2,4.87,9,9,0,0,1-2.36,6.32,8.09,8.09,0,0,1-6.26,2.56,7,7,0,0,1-7.19-7,9.32,9.32,0,0,1,1-4,8.07,8.07,0,0,1,7.56-4.65Zm-.07,14.88a6.41,6.41,0,0,0,3.11-.84,6.25,6.25,0,0,0,2.41-2.32,5.94,5.94,0,0,0,.87-3,7.19,7.19,0,0,0-1.18-4,8.34,8.34,0,0,0-3.07-2.83,7.33,7.33,0,0,0-3.49-1A5.91,5.91,0,0,0,59.2,49.1a5.54,5.54,0,0,0-1.84,4.24A8.14,8.14,0,0,0,59.61,59,6.72,6.72,0,0,0,64.66,61.47Z"/><path class="cls-40" d="M94.32,62.28h-.26l-4.2-11.61L85.73,62.28H85.5l-5-13.6a5.13,5.13,0,0,0-.64-1.27,1.2,1.2,0,0,0-1-.44v-.16h3.6V47c-.35,0-.52.13-.52.38a2.28,2.28,0,0,0,.16.69l4,11.08,3.31-9.36-.32-.89a4.11,4.11,0,0,0-.81-1.53,1.23,1.23,0,0,0-.88-.37v-.16h3.56V47c-.34,0-.51.15-.51.44a3.33,3.33,0,0,0,.21.72l4,11,4-11.23a.06.06,0,0,1,0,0l.15-.53c0-.25-.18-.38-.54-.38v-.16h2.22V47c-.6,0-1.08.5-1.43,1.48Z"/><path class="cls-40" d="M58.15,109.15A49.83,49.83,0,1,1,108,59.33,49.88,49.88,0,0,1,58.15,109.15Zm0-98.92a49.1,49.1,0,1,0,49.1,49.1A49.15,49.15,0,0,0,58.15,10.23Z"/><path class="cls-40" d="M3.8,41.68A2.15,2.15,0,0,1,5.55,44.4a2.11,2.11,0,0,1-2.81,1.35A2.19,2.19,0,0,1,1,43,2.1,2.1,0,0,1,3.8,41.68Zm-.9,3.45a1.63,1.63,0,0,0,2.19-.9c.26-.9-.43-1.65-1.43-1.94a1.65,1.65,0,0,0-2.2.9C1.19,44.14,1.93,44.86,2.9,45.13Z"/><path class="cls-40" d="M3.13,37.21a6.19,6.19,0,0,1,.36-1.08,1.88,1.88,0,0,1,.87-1.07,1.14,1.14,0,0,1,.94,0A1.21,1.21,0,0,1,6,36.33h0a1.14,1.14,0,0,1,1.11-.25,6.64,6.64,0,0,0,1.3.17l-.24.57a6.8,6.8,0,0,1-1.13-.16c-.64-.12-.95,0-1.18.5l-.22.51,1.82.79L7.29,39Zm2.15.28.24-.55a.91.91,0,0,0-.39-1.3c-.54-.23-1,.06-1.21.63a3.23,3.23,0,0,0-.18.56Z"/><path class="cls-40" d="M11.63,30a4,4,0,0,1-.5,1.34,2.35,2.35,0,0,1-1.39,1.18,2.36,2.36,0,0,1-1.8-.31,2.31,2.31,0,0,1-.79-3.35A2.83,2.83,0,0,1,7.91,28l.35.37a2.49,2.49,0,0,0-.69.78,1.71,1.71,0,0,0,.67,2.52,1.68,1.68,0,0,0,2.49-.59,1.87,1.87,0,0,0,.29-.74l-1.18-.7-.47.81L9,30.21l.76-1.31Z"/><path class="cls-40" d="M13.2,25.61l.85,1.26-.38.48-2.67-4,.44-.57L16,24.32l-.39.5-1.44-.5Zm.56-1.48-1.32-.45c-.3-.1-.56-.22-.81-.33h0c.17.23.35.46.51.7l.78,1.17Z"/><path class="cls-40" d="M18.34,21.72,15.1,18.47l.45-.46,2.69.61a12.4,12.4,0,0,1,1.63.47h0c-.47-.4-.88-.78-1.38-1.29l-1.36-1.36.4-.4,3.24,3.26-.42.42-2.68-.62A14.71,14.71,0,0,1,16,18.61v0c.43.38.83.76,1.37,1.3l1.38,1.4Z"/><path class="cls-40" d="M21.28,12.84l2.87,3.58-.46.37-2.87-3.58Z"/><path class="cls-40" d="M29.87,12.25a3,3,0,0,1-.91.84,2.14,2.14,0,0,1-3.16-.72A2.29,2.29,0,0,1,26.5,9a2.37,2.37,0,0,1,1-.42l.14.48a2.28,2.28,0,0,0-.88.34A1.72,1.72,0,0,0,26.31,12a1.67,1.67,0,0,0,2.49.59,2.45,2.45,0,0,0,.71-.68Z"/><path class="cls-40" d="M36.58,8.2a2.15,2.15,0,0,0,1.1-.11c.56-.23.78-.65.6-1.08s-.47-.54-1.14-.54-1.37-.16-1.6-.76A1.32,1.32,0,0,1,36.46,4a2.14,2.14,0,0,1,1-.16l0,.51a1.76,1.76,0,0,0-.89.12c-.58.23-.67.66-.55,1s.49.49,1.17.48c.84,0,1.34.2,1.59.83s0,1.42-1,1.82a2.43,2.43,0,0,1-1.2.16Z"/><path class="cls-40" d="M42.11,2.18l.69,2.63c.26,1,.81,1.3,1.4,1.15s1-.72.71-1.7l-.68-2.64.58-.15.67,2.59c.36,1.37-.21,2.12-1.18,2.37S42.57,6.32,42.21,5l-.68-2.62Z"/><path class="cls-40" d="M49.73,5.2,49.16.65l.65-.08,1.74,2.12a12.36,12.36,0,0,1,1,1.38h0c-.12-.6-.21-1.15-.29-1.86L52,.29l.56-.07.56,4.56-.6.08L50.82,2.72a15.39,15.39,0,0,1-1-1.41h0c.11.57.19,1.12.28,1.88l.24,1.95Z"/><path class="cls-40" d="M56.9,0h.59l.07,4.1,2,0v.5L57,4.6Z"/><path class="cls-40" d="M65.58,2.9l-1.77-.19-.18,1.64,2,.22-.06.49L63,4.78,63.48.22l2.46.27,0,.49L64,.78l-.16,1.44,1.77.19Z"/><path class="cls-40" d="M69.15,4.94a2.06,2.06,0,0,0,1,.53c.59.13,1-.1,1.11-.56s-.09-.71-.64-1.08-1-.9-.9-1.54a1.33,1.33,0,0,1,1.72-.89,2.1,2.1,0,0,1,.94.45l-.26.43a1.88,1.88,0,0,0-.8-.4c-.62-.14-.93.17-1,.48s.13.69.7,1.07,1,.91.84,1.57S71,6.17,70,5.94a2.39,2.39,0,0,1-1.08-.55Z"/><path class="cls-40" d="M75.19,6.52a2.2,2.2,0,0,0,.9.63c.58.2,1,0,1.17-.43s0-.71-.52-1.14S75.81,4.56,76,4a1.31,1.31,0,0,1,1.81-.69,2.2,2.2,0,0,1,.89.54l-.32.41a1.8,1.8,0,0,0-.75-.5.76.76,0,0,0-1,.37c-.14.41.06.7.58,1.14s.88,1,.66,1.66S76.92,8,75.9,7.6a2.5,2.5,0,0,1-1-.66Z"/><path class="cls-40" d="M87.16,8.13,86,7.44,86.2,7l2.94,1.7-.25.43-1.21-.7-2,3.55-.52-.3Z"/><path class="cls-40" d="M90.65,13.48l-1.24.88-.5-.36,4-2.78.57.42L92,16.27l-.51-.37L92,14.44Zm1.49.52.41-1.34c.1-.3.21-.56.31-.81h0c-.22.18-.44.36-.68.53L91,13.18Z"/><path class="cls-40" d="M94.67,18.51l3.18-3.32.46.45-.54,2.69A11.56,11.56,0,0,1,97.34,20h0c.39-.48.76-.9,1.26-1.41l1.33-1.39.4.38-3.17,3.32-.44-.41.56-2.69a14.23,14.23,0,0,1,.44-1.71h0c-.38.44-.75.85-1.28,1.4L95.08,18.9Z"/><path class="cls-40" d="M99.74,23.69l3.58-2.88.4.5-.88,2.61a13.34,13.34,0,0,1-.65,1.57h0c.44-.43.87-.79,1.42-1.24l1.5-1.2.35.43-3.58,2.88-.37-.46.9-2.6a15.37,15.37,0,0,1,.65-1.63h0c-.43.39-.86.74-1.45,1.22l-1.53,1.23Z"/><path class="cls-40" d="M108.28,27.55,104.41,30l-.32-.5L108,27.06Z"/><path class="cls-40" d="M106.38,33.35l4.11-2.06.29.58-1.42,2.35a13.7,13.7,0,0,1-1,1.41h0c.53-.32,1-.59,1.66-.91l1.72-.86.25.5-4.11,2.06-.27-.54,1.44-2.35a14.66,14.66,0,0,1,1-1.45v0c-.51.29-1,.55-1.68.9l-1.75.88Z"/><path class="cls-40" d="M110.72,43.18a4.57,4.57,0,0,1-.7-1.25,2.17,2.17,0,0,1,1.43-3,2.3,2.3,0,0,1,3,1.59,2.84,2.84,0,0,1,.18,1.15l-.51,0a2.3,2.3,0,0,0-.14-1,1.72,1.72,0,0,0-2.35-1.14,1.69,1.69,0,0,0-1.18,2.28,2,2,0,0,0,.38.71l1.29-.45-.3-.88.45-.16.49,1.43Z"/><path class="cls-40" d="M115.62,59.33a57.47,57.47,0,1,1-114-10.39H1a58.15,58.15,0,1,0,114.41,0h-.69A58.27,58.27,0,0,1,115.62,59.33Z"/><polygon class="cls-40" points="44.28 70.95 46.76 70.95 46.76 78.5 47.33 78.5 47.33 70.95 49.77 70.95 49.77 70.43 44.28 70.43 44.28 70.95"/><polygon class="cls-40" points="57.52 70.43 54.33 78.5 54.95 78.5 55.76 76.46 55.77 76.46 55.98 75.92 55.97 75.92 57.76 71.41 59.46 75.76 59.49 75.76 60.26 77.82 60.26 77.82 60.52 78.5 61.13 78.5 58 70.43 57.52 70.43"/><polygon class="cls-40" points="70.75 70.4 70.75 77.33 66.21 70.4 65.68 70.4 65.68 78.47 66.26 78.47 66.26 71.51 70.83 78.5 71.33 78.5 71.33 70.4 70.75 70.4"/></g></g></svg>