<svg xmlns="http://www.w3.org/2000/svg" viewBox="0 0 15.56 129.87"><defs><style>.cls-1{fill:#3c3c3b;}</style></defs><title>iax-logo</title><g id="Capa_2" data-name="Capa 2"><g id="Capa_1-2" data-name="Capa 1"><path class="cls-1" d="M7.31,29.91H6.08c-.29,0-.43-.17-.43-.51V.51c0-.34.14-.51.43-.51H7.31c.31,0,.47.17.47.51V29.4C7.78,29.74,7.62,29.91,7.31,29.91Z"/><path class="cls-1" d="M8.76,77.83H6a5.85,5.85,0,0,1-4.36-1.61A6.06,6.06,0,0,1,.08,71.79V62.18a6.06,6.06,0,0,1,1.59-4.43A5.89,5.89,0,0,1,6,56.14h9c.29,0,.43.17.43.51V77.32c0,.34-.14.51-.43.51H13.82c-.31,0-.47-.17-.47-.51v-1.7h-.17C12.44,77.1,11,77.83,8.76,77.83Zm4.59-6.08V58.43c0-.25-.14-.38-.42-.38H6.2a3.83,3.83,0,0,0-3,1.11,4.35,4.35,0,0,0-1,3.1v9.45a4.35,4.35,0,0,0,1,3.1,3.83,3.83,0,0,0,3,1.11H9a4.55,4.55,0,0,0,3.21-1.08A4,4,0,0,0,13.35,71.75Z"/><path class="cls-1" d="M1.92,129.87H.34c-.37,0-.44-.18-.21-.52L6.3,118.8.43,108.68q-.34-.51.21-.51H2.17a.8.8,0,0,1,.73.51l4.8,8.68h.17l4.6-8.68a.85.85,0,0,1,.72-.51h1.53c.37,0,.44.17.22.51l-5.75,10,6.26,10.63c.19.34.12.52-.22.52h-1.7c-.23,0-.42-.18-.59-.52l-5.07-9.1H7.7l-5.06,9.1A.87.87,0,0,1,1.92,129.87Z"/></g></g></svg>