<svg xmlns="http://www.w3.org/2000/svg" xmlns:xlink="http://www.w3.org/1999/xlink" viewBox="0 0 33.6 33.6"><defs><style>.cls-1{fill:none;}.cls-2{clip-path:url(#clip-path);}.cls-3{fill:#68748b;}</style><clipPath id="clip-path" transform="translate(0 0)"><rect class="cls-1" width="33.6" height="33.59"/></clipPath></defs><title>instagram</title><g id="Capa_2" data-name="Capa 2"><g id="Capa_31" data-name="Capa 31"><g class="cls-2"><path class="cls-3" d="M16.8,0c-4.56,0-5.13,0-6.92.1A12.44,12.44,0,0,0,5.8.88a8.33,8.33,0,0,0-3,1.94,8.24,8.24,0,0,0-1.94,3A12.43,12.43,0,0,0,.1,9.87C0,11.67,0,12.24,0,16.8s0,5.14.1,6.93a12.44,12.44,0,0,0,.78,4.08,8.41,8.41,0,0,0,1.94,3,8.3,8.3,0,0,0,3,1.93,12.18,12.18,0,0,0,4.08.78c1.79.09,2.36.11,6.92.11s5.14,0,6.93-.11a12.18,12.18,0,0,0,4.08-.78,8.49,8.49,0,0,0,4.91-4.91,12.16,12.16,0,0,0,.79-4.08c.08-1.79.1-2.36.1-6.93s0-5.13-.1-6.93a12.15,12.15,0,0,0-.79-4.07,8.08,8.08,0,0,0-1.93-3,8.33,8.33,0,0,0-3-1.94A12.44,12.44,0,0,0,23.73.1C21.94,0,21.37,0,16.8,0m0,3c4.49,0,5,0,6.79.1a9.35,9.35,0,0,1,3.13.57A5.55,5.55,0,0,1,29.9,6.89,9.2,9.2,0,0,1,30.48,10c.08,1.78.1,2.31.1,6.79s0,5-.1,6.79a9.15,9.15,0,0,1-.58,3.12,5.11,5.11,0,0,1-1.25,1.93,5.17,5.17,0,0,1-1.93,1.26,9.28,9.28,0,0,1-3.13.58c-1.77.08-2.3.1-6.79.1s-5,0-6.79-.1a9.26,9.26,0,0,1-3.12-.58A5.17,5.17,0,0,1,5,28.64a5.11,5.11,0,0,1-1.25-1.93,9.15,9.15,0,0,1-.58-3.12c-.08-1.77-.1-2.3-.1-6.79s0-5,.1-6.79a9.2,9.2,0,0,1,.58-3.12A5.27,5.27,0,0,1,5,5,5.3,5.3,0,0,1,6.89,3.7,9.33,9.33,0,0,1,10,3.13C11.79,3,12.32,3,16.8,3" transform="translate(0 0)"/></g><path class="cls-3" d="M16.8,22.4a5.6,5.6,0,1,1,5.61-5.6,5.6,5.6,0,0,1-5.61,5.6m0-14.23a8.63,8.63,0,1,0,8.63,8.63A8.63,8.63,0,0,0,16.8,8.17" transform="translate(0 0)"/><path class="cls-3" d="M27.79,7.83a2,2,0,1,1-2-2,2,2,0,0,1,2,2" transform="translate(0 0)"/></g></g></svg>