<svg xmlns="http://www.w3.org/2000/svg" viewBox="0 0 93.88 173.84"><defs><style>.cls-1{fill:#1e1e1c;}.cls-2{fill:#5a5a59;}</style></defs><title>maquillaje</title><g id="Capa_2" data-name="Capa 2"><g id="Capa_1-2" data-name="Capa 1"><path class="cls-1" d="M11.14,166.58l-1.09.15-.11-.62c.39-.07,1,0,1.27-.35.1-.11.17-.21.33-.21.35,0,.35.34.35.61v2.56a3.42,3.42,0,0,1,1.49-.37,2.42,2.42,0,0,1,2.45,2.6,2.59,2.59,0,0,1-4,2.28,3.51,3.51,0,0,1-.39.61l-.63-.32c.3-.42.36-.43.36-.94Zm.75,5.9A1.87,1.87,0,0,0,15,171a1.78,1.78,0,0,0-1.66-2,2.31,2.31,0,0,0-1.49.52Z"/><path class="cls-1" d="M24.13,173.16a5.71,5.71,0,0,1-2.21.51c-.89,0-1.7-.41-1.7-1.4s.76-1.35,1.6-1.54a10.9,10.9,0,0,1,2.31-.24v-.32c0-.69.11-1.14-.81-1.14a3.09,3.09,0,0,0-1.73.47v.72h-.75v-1.17a4.83,4.83,0,0,1,2.37-.7c1.24,0,1.67.32,1.67,1.52v3h1v.68H24.13Zm0-2a11.16,11.16,0,0,0-2.1.24c-.5.12-1,.29-1,.9s.46.72.94.72a5.23,5.23,0,0,0,2.18-.6Z"/><path class="cls-1" d="M32.1,172.84h2.2v.68h-4v-.68h1.06v-3.65l-.89.12-.11-.62a1.77,1.77,0,0,0,1.07-.33c.09-.11.17-.21.33-.21.35,0,.35.34.35.61v.64a3.85,3.85,0,0,1,2.19-1.05,1.28,1.28,0,0,1,1.22,1l-.75.31c-.1-.26-.22-.61-.55-.61-.62,0-1.64.86-2.11,1.29Z"/><path class="cls-1" d="M40.3,166.58l-1.1.15-.1-.62c.38-.07,1,0,1.27-.35.1-.11.17-.21.33-.21.35,0,.35.34.35.61v2.56a3.34,3.34,0,0,1,1.48-.37A2.43,2.43,0,0,1,45,171a2.55,2.55,0,0,1-2.6,2.72,2.6,2.6,0,0,1-1.44-.44,3,3,0,0,1-.38.61l-.64-.32c.31-.42.37-.43.37-.94Zm.75,5.9A1.94,1.94,0,1,0,42.53,169a2.31,2.31,0,0,0-1.48.52Z"/><path class="cls-1" d="M50.33,171.3c.08,1.06.9,1.69,2.2,1.69a5.59,5.59,0,0,0,2.25-.57L55,173a6.19,6.19,0,0,1-2.56.63,2.57,2.57,0,0,1-2.9-2.55,2.68,2.68,0,0,1,2.71-2.77,2.29,2.29,0,0,1,2.48,2.44,2.21,2.21,0,0,1,0,.51Zm3.64-.68a1.62,1.62,0,0,0-1.7-1.59,2,2,0,0,0-1.94,1.59Z"/><path class="cls-1" d="M61.26,172.84h2.2v.68h-4v-.68H60.5v-3.65l-.89.12-.1-.62a1.74,1.74,0,0,0,1.06-.33c.1-.11.18-.21.33-.21.36,0,.36.34.36.61v.64a3.83,3.83,0,0,1,2.18-1.05,1.28,1.28,0,0,1,1.23,1l-.75.31c-.1-.26-.22-.61-.55-.61-.62,0-1.64.86-2.11,1.29Z"/><path class="cls-1" d="M69.16,172.84h2.42V169.2a5.76,5.76,0,0,1-1.25.12l-1-.06-.12-.67,1.1.07a1.85,1.85,0,0,0,1.36-.34.4.4,0,0,1,.33-.18c.38,0,.37.37.37.63v4.07h2.14v.68H69.16Zm4.32-6.6L71,167.87l-.45-.53,2.29-1.84Z"/><path class="cls-1" d="M82.44,173.16a5.71,5.71,0,0,1-2.21.51c-.89,0-1.7-.41-1.7-1.4s.77-1.35,1.6-1.54a11,11,0,0,1,2.31-.24v-.32c0-.69.11-1.14-.81-1.14a3.09,3.09,0,0,0-1.73.47v.72h-.75v-1.17a4.83,4.83,0,0,1,2.37-.7c1.24,0,1.68.32,1.68,1.52v3h1v.68H82.44Zm0-2a11.26,11.26,0,0,0-2.1.24c-.5.12-1,.29-1,.9s.46.72,1,.72a5.23,5.23,0,0,0,2.17-.6Z"/><path class="cls-1" d="M1.75,64.46h.5v.68h-2v-.68H1V60.79l-.89.12L0,60.29A1.64,1.64,0,0,0,1.07,60c.1-.11.17-.2.33-.2.35,0,.35.34.35.6A2.06,2.06,0,0,1,2.87,60a1,1,0,0,1,.91.5,2.37,2.37,0,0,1,1.4-.5,1,1,0,0,1,1,.73,3.37,3.37,0,0,1,.09,1v2.82H7v.68H5v-.68h.5V61.64c0-.36.07-1-.45-1A1.88,1.88,0,0,0,4,61.15v3.31h.5v.68H2.77v-.68h.5V61.64c0-.32,0-1-.43-1a2,2,0,0,0-1.09.51Z"/><path class="cls-1" d="M14.41,64.78a5.71,5.71,0,0,1-2.21.51c-.89,0-1.7-.42-1.7-1.4s.76-1.35,1.6-1.55a11.6,11.6,0,0,1,2.31-.24v-.31c0-.7.11-1.15-.81-1.15a3.1,3.1,0,0,0-1.73.48v.71h-.75V60.67A4.74,4.74,0,0,1,13.49,60c1.24,0,1.67.33,1.67,1.52v3h1v.68H14.41Zm0-2a10.39,10.39,0,0,0-2.1.24c-.5.12-1,.29-1,.9s.46.72.94.72a5.23,5.23,0,0,0,2.18-.6Z"/><path class="cls-1" d="M25,66.85H26v.68H22.87v-.68H24.2V65.21l-.58.05a4.09,4.09,0,0,1-.6,0,2.41,2.41,0,0,1-2.57-2.62A2.57,2.57,0,0,1,23,60a2.72,2.72,0,0,1,1.35.35l.26-.65.65.27A2.11,2.11,0,0,0,25,61ZM24.2,61A2.34,2.34,0,0,0,23,60.64a1.88,1.88,0,0,0-1.75,2.09c0,1.32.77,1.88,2,1.88a5,5,0,0,0,.95-.08Z"/><path class="cls-1" d="M34.13,64.84a4.49,4.49,0,0,1-1.76.45c-1.17,0-1.85-.62-1.85-2.08V60.79l-.89.12-.11-.62A1.64,1.64,0,0,0,30.59,60c.1-.11.17-.2.33-.2.35,0,.35.34.35.6V63c0,1.26.28,1.65,1.08,1.65a4.16,4.16,0,0,0,1.78-.52v-3.3l-.89.12-.11-.62A1.64,1.64,0,0,0,34.2,60c.1-.11.17-.2.33-.2.35,0,.35.34.35.6v4.1h1v.68H34.13Z"/><path class="cls-1" d="M40,64.46h2.41V60.81a4.74,4.74,0,0,1-1.25.12l-1-.06L40,60.21l1.1.07a2,2,0,0,0,1.37-.34.38.38,0,0,1,.32-.18c.38,0,.37.36.37.63v4.07h2.14v.68H40Zm2.67-5.6a.76.76,0,1,1,.78-.76A.77.77,0,0,1,42.68,58.86Z"/><path class="cls-1" d="M52.6,64.46h2v.68H49.58v-.68h2.27V58.22a8.54,8.54,0,0,1-1.25.13l-.71,0-.12-.67h.78c.38,0,1.1,0,1.36-.34a.4.4,0,0,1,.33-.18c.38,0,.36.36.36.63Z"/><path class="cls-1" d="M62.32,64.46h2v.68h-5v-.68h2.27V58.22a8.68,8.68,0,0,1-1.25.13l-.71,0-.12-.67h.78c.38,0,1.09,0,1.36-.34a.4.4,0,0,1,.33-.18c.38,0,.36.36.36.63Z"/><path class="cls-1" d="M72.72,64.78a5.71,5.71,0,0,1-2.21.51c-.89,0-1.7-.42-1.7-1.4s.77-1.35,1.6-1.55a11.67,11.67,0,0,1,2.31-.24v-.31c0-.7.11-1.15-.81-1.15a3.1,3.1,0,0,0-1.73.48v.71h-.75V60.67A4.74,4.74,0,0,1,71.8,60c1.24,0,1.68.33,1.68,1.52v3h1v.68H72.72Zm0-2a10.48,10.48,0,0,0-2.1.24c-.5.12-1,.29-1,.9s.46.72,1,.72a5.23,5.23,0,0,0,2.17-.6Z"/><path class="cls-1" d="M82.55,65.1a5.54,5.54,0,0,1-.13,1.63,1.44,1.44,0,0,1-1.5.94,4.81,4.81,0,0,1-2.55-.73l.49-.61a3.66,3.66,0,0,0,2,.66c1,0,.92-.88.92-1.62V60.81a4.78,4.78,0,0,1-1.25.12l-1-.06-.12-.66,1.11.07a2,2,0,0,0,1.36-.34.4.4,0,0,1,.33-.18c.37,0,.36.36.36.63Zm-.35-6.24A.76.76,0,1,1,83,58.1.77.77,0,0,1,82.2,58.86Z"/><path class="cls-1" d="M89.21,62.92c.07,1,.9,1.69,2.2,1.69A5.69,5.69,0,0,0,93.66,64l.22.62a6.1,6.1,0,0,1-2.57.64,2.56,2.56,0,0,1-2.89-2.56A2.68,2.68,0,0,1,91.13,60a2.31,2.31,0,0,1,2.48,2.45,2.21,2.21,0,0,1,0,.51Zm3.63-.68a1.63,1.63,0,0,0-1.7-1.6,2,2,0,0,0-1.93,1.6Z"/><path class="cls-2" d="M53.14,1.34A8.21,8.21,0,0,0,48.62,0h-.26a8.22,8.22,0,0,0-4.53,1.34,4.32,4.32,0,0,0-2,3.59,10.42,10.42,0,0,0,1.9,5.39,12.91,12.91,0,0,0,1.43,1.78,5.74,5.74,0,0,0,.57.52l-.22,17.45c0,1.28,1.3,2.27,3,2.27s2.95-1,2.95-2.28l-.22-17.44a4.8,4.8,0,0,0,.57-.52,12.91,12.91,0,0,0,1.43-1.78,10.42,10.42,0,0,0,1.9-5.39A4.32,4.32,0,0,0,53.14,1.34ZM48.49,31.09c-1,0-1.7-.54-1.7-1L47,15.5h3l.19,14.57C50.19,30.55,49.49,31.09,48.49,31.09ZM47,14.24l0-1.3h3l0,1.3Zm3.43-2.58.92-2.15A.63.63,0,0,0,51,8.68a.62.62,0,0,0-.82.33S49,11.67,49,11.68H47.94S46.8,9,46.8,9A.63.63,0,0,0,46,8.68a.64.64,0,0,0-.33.83l.92,2.15c-.7-.49-3.46-3.66-3.46-6.73a3.11,3.11,0,0,1,1.45-2.56,7,7,0,0,1,3.83-1.11h.21a7,7,0,0,1,3.83,1.11,3.11,3.11,0,0,1,1.45,2.56C53.87,8,51.12,11.17,50.41,11.66Z"/><path class="cls-2" d="M64,139.53a3.44,3.44,0,0,0,.28-1.55c-.52-13-5-26.36-6.89-31.49a3.51,3.51,0,0,0-4.27-2.19l-2.44.68a3.54,3.54,0,0,0-2.2,5c3.18,6.08,5.65,15.18,7.18,21.9l-9-4.46.39-.7a2.47,2.47,0,0,0,.19-1.92A2.44,2.44,0,0,0,46,123.4l-14.68-7a2.43,2.43,0,0,0-3.09.88,4.84,4.84,0,0,0,1.89,6.9l26.79,13.49c.08.41.16.81.23,1.19a3.62,3.62,0,0,0,5.26,2.49,3.59,3.59,0,0,0,.82-.6c4.38,2,4.92,4.68,4.93,4.7a.7.7,0,0,0,.7.61h.1a.74.74,0,0,0,.47-.28.71.71,0,0,0,.13-.53C69.5,145.09,69,141.86,64,139.53ZM62.85,138a2.19,2.19,0,0,1-3.13,2.09,2.14,2.14,0,0,1-1.21-1.56c-1.43-7.35-4.46-20.92-8.78-29.2a2.12,2.12,0,0,1,1.32-3l2.44-.68a2.32,2.32,0,0,1,.58-.08,2.1,2.1,0,0,1,2,1.39C57.93,112.05,62.34,125.24,62.85,138Zm-32.6-20.48a1.12,1.12,0,0,1,.43.1l14.67,7a1,1,0,0,1,.53.6,1,1,0,0,1-.08.79l-.75,1.35A.77.77,0,0,0,45,128a.7.7,0,0,0,.37.42l10.69,5.29c.17.75.32,1.48.47,2.18l-25.79-13A3.44,3.44,0,0,1,29,120.75,3.39,3.39,0,0,1,29.4,118,1,1,0,0,1,30.25,117.56Z"/></g></g></svg>