<svg xmlns="http://www.w3.org/2000/svg" viewBox="0 0 149.21 45.57"><defs><style>.cls-1{fill:#565870;}.cls-2{fill:#b3b3b3;}</style></defs><title>niupurple</title><g id="Capa_2" data-name="Capa 2"><g id="d"><path class="cls-1" d="M15.77,20.69v9.36a1.64,1.64,0,0,1-.49,1.28,1.9,1.9,0,0,1-1.35.45,1.81,1.81,0,0,1-1.31-.47,1.64,1.64,0,0,1-.49-1.26V20.87a5,5,0,0,0-.88-3.28,3.43,3.43,0,0,0-2.75-1A4.67,4.67,0,0,0,5,17.92a5,5,0,0,0-1.33,3.67v8.46a1.68,1.68,0,0,1-.49,1.26,1.81,1.81,0,0,1-1.31.47A1.9,1.9,0,0,1,.5,31.31,1.65,1.65,0,0,1,0,30.05V15.4a1.63,1.63,0,0,1,.52-1.25,1.88,1.88,0,0,1,1.32-.48,1.7,1.7,0,0,1,1.26.47,1.65,1.65,0,0,1,.46,1.22v1.48A5.88,5.88,0,0,1,6,14.42a7.28,7.28,0,0,1,3.49-.82Q15.77,13.6,15.77,20.69Z"/><path class="cls-1" d="M31.72,3.56a2,2,0,0,1-.62-1.51A1.92,1.92,0,0,1,31.72.56,2.34,2.34,0,0,1,33.37,0,2.4,2.4,0,0,1,35,.56a1.89,1.89,0,0,1,.63,1.49A2,2,0,0,1,35,3.56a2.3,2.3,0,0,1-1.66.58A2.26,2.26,0,0,1,31.72,3.56Zm.34,27.78a1.56,1.56,0,0,1-.52-1.29V15.43a1.63,1.63,0,0,1,.52-1.31,1.93,1.93,0,0,1,1.31-.45,1.89,1.89,0,0,1,1.3.45,1.69,1.69,0,0,1,.5,1.31V30.05a1.61,1.61,0,0,1-.5,1.29,1.93,1.93,0,0,1-1.3.44A2,2,0,0,1,32.06,31.34Z"/><path class="cls-1" d="M66,14.14a1.72,1.72,0,0,1,.49,1.29V30.08A1.58,1.58,0,0,1,66,31.31a1.89,1.89,0,0,1-1.33.47,1.69,1.69,0,0,1-1.22-.45,1.58,1.58,0,0,1-.47-1.21V28.75a5.66,5.66,0,0,1-2.29,2.31,6.8,6.8,0,0,1-3.26.79q-6.41,0-6.4-7.06V15.43a1.71,1.71,0,0,1,.48-1.29,1.85,1.85,0,0,1,1.35-.47,1.77,1.77,0,0,1,1.31.47,1.68,1.68,0,0,1,.49,1.29v9.33a4.72,4.72,0,0,0,.87,3.13,3.31,3.31,0,0,0,2.66,1,4.44,4.44,0,0,0,3.4-1.37,5.13,5.13,0,0,0,1.28-3.64V15.43a1.73,1.73,0,0,1,.5-1.28,1.86,1.86,0,0,1,1.34-.48A1.77,1.77,0,0,1,66,14.14Z"/><path class="cls-1" d="M31.72,45a2,2,0,0,1-.62-1.51,1.92,1.92,0,0,1,.62-1.5,2.34,2.34,0,0,1,1.65-.56A2.4,2.4,0,0,1,35,42a1.9,1.9,0,0,1,.63,1.5A2,2,0,0,1,35,45a2.34,2.34,0,0,1-1.66.57A2.3,2.3,0,0,1,31.72,45Z"/><path class="cls-2" d="M90.82,31.88H84.56a.35.35,0,0,1-.4-.39v-.83c0-.24.13-.36.4-.36h6.08q3.24,0,3.24-2.52v-.86a2.93,2.93,0,0,0-2-3.06l-4.5-1.73a6.25,6.25,0,0,1-2.62-1.69,4.27,4.27,0,0,1-.77-2.7q0-4.21,4.64-4.22h5.84a.35.35,0,0,1,.39.4v.83q0,.36-.39.36H88.8a3.22,3.22,0,0,0-2.21.65,2,2,0,0,0-.74,1.51v.83a2.18,2.18,0,0,0,.56,1.58,4.28,4.28,0,0,0,1.71,1l4.5,1.8a4.07,4.07,0,0,1,2.5,1.82,7.38,7.38,0,0,1,.63,3.37,4,4,0,0,1-1.2,3.2A5.59,5.59,0,0,1,90.82,31.88Z"/><path class="cls-2" d="M110.8,37.25h-1c-.24,0-.36-.13-.36-.4V14c0-.29.12-.44.36-.44h1c.26,0,.4.15.4.44V15.4h.14a3.86,3.86,0,0,1,3.74-1.88h2.45a4.86,4.86,0,0,1,3.64,1.37,5.13,5.13,0,0,1,1.33,3.75v8.13a5.15,5.15,0,0,1-1.33,3.75,4.85,4.85,0,0,1-3.64,1.36h-2.45A3.86,3.86,0,0,1,111.34,30h-.14v6.84A.35.35,0,0,1,110.8,37.25Zm4.11-7h2.37a3.37,3.37,0,0,0,2.54-.91,3.69,3.69,0,0,0,.88-2.65v-8a3.67,3.67,0,0,0-.88-2.65,3.38,3.38,0,0,0-2.54-.92h-2.37a3.84,3.84,0,0,0-2.72.92,3.38,3.38,0,0,0-1,2.61v8.07a3.41,3.41,0,0,0,1,2.61A3.84,3.84,0,0,0,114.91,30.26Z"/><path class="cls-2" d="M143.53,31.88h-2.31a5,5,0,0,1-3.69-1.36,5.12,5.12,0,0,1-1.35-3.75V18.64a5.1,5.1,0,0,1,1.35-3.75,5,5,0,0,1,3.69-1.37h7.63c.24,0,.36.15.36.44V31.45c0,.29-.12.43-.36.43h-1c-.27,0-.4-.14-.4-.43V30h-.14C146.64,31.26,145.4,31.88,143.53,31.88Zm3.88-5.14V15.47q0-.33-.36-.33h-5.68a3.3,3.3,0,0,0-2.53.94,3.75,3.75,0,0,0-.86,2.63v8a3.77,3.77,0,0,0,.86,2.63,3.29,3.29,0,0,0,2.53.93h2.34a3.83,3.83,0,0,0,2.71-.91A3.41,3.41,0,0,0,147.41,26.74Z"/></g></g></svg>