<svg xmlns="http://www.w3.org/2000/svg" xmlns:xlink="http://www.w3.org/1999/xlink" viewBox="0 0 234.46 34.25"><defs><style>.cls-1{fill:none;}.cls-2{clip-path:url(#clip-path);}.cls-3{fill:#68748b;}.cls-4{clip-path:url(#clip-path-2);}.cls-5{fill:#575756;}.cls-6{fill:#fff;}</style><clipPath id="clip-path" transform="translate(0)"><rect class="cls-1" x="47.59" y="0.32" width="33.6" height="33.59"/></clipPath><clipPath id="clip-path-2" transform="translate(0)"><rect class="cls-1" width="234.46" height="34.25"/></clipPath></defs><title>niuspa-mexico</title><g id="Capa_2" data-name="Capa 2"><g id="Capa_31" data-name="Capa 31"><g class="cls-2"><path class="cls-3" d="M64.39.33c-4.56,0-5.13,0-6.93.1a12.17,12.17,0,0,0-4.07.78,8.19,8.19,0,0,0-3,1.94,8.29,8.29,0,0,0-1.94,3,12.44,12.44,0,0,0-.78,4.08c-.08,1.79-.1,2.36-.1,6.93s0,5.13.1,6.92a12.56,12.56,0,0,0,.78,4.09,8.62,8.62,0,0,0,4.92,4.91,12.43,12.43,0,0,0,4.07.78c1.8.08,2.37.1,6.93.1s5.14,0,6.93-.1a12.44,12.44,0,0,0,4.08-.78,8.33,8.33,0,0,0,3-1.94,8.13,8.13,0,0,0,1.93-3,12.3,12.3,0,0,0,.78-4.09c.09-1.79.11-2.36.11-6.92s0-5.14-.11-6.93a12.18,12.18,0,0,0-.78-4.08A8.56,8.56,0,0,0,75.4,1.21,12.18,12.18,0,0,0,71.32.43C69.53.34,69,.33,64.39.33m0,3c4.49,0,5,0,6.79.1A9.15,9.15,0,0,1,74.3,4a5,5,0,0,1,1.93,1.26,5,5,0,0,1,1.26,1.93,9.15,9.15,0,0,1,.58,3.12c.08,1.77.1,2.3.1,6.79s0,5-.1,6.79A9.15,9.15,0,0,1,77.49,27a5.61,5.61,0,0,1-3.19,3.19,9.21,9.21,0,0,1-3.12.57c-1.77.09-2.3.1-6.79.1s-5,0-6.79-.1a9.33,9.33,0,0,1-3.12-.57A5.3,5.3,0,0,1,52.55,29,5.15,5.15,0,0,1,51.3,27a9.15,9.15,0,0,1-.58-3.12c-.09-1.77-.1-2.31-.1-6.79s0-5,.1-6.79a9.15,9.15,0,0,1,.58-3.12,5,5,0,0,1,1.25-1.93A5.17,5.17,0,0,1,54.48,4a9.26,9.26,0,0,1,3.12-.58c1.78-.08,2.31-.1,6.79-.1" transform="translate(0)"/></g><g class="cls-4"><path class="cls-3" d="M64.39,22.73A5.6,5.6,0,1,1,70,17.13a5.6,5.6,0,0,1-5.61,5.6m0-14.23A8.63,8.63,0,1,0,73,17.13,8.62,8.62,0,0,0,64.39,8.5" transform="translate(0)"/><path class="cls-3" d="M75.38,8.16a2,2,0,1,1-2-2,2,2,0,0,1,2,2" transform="translate(0)"/><path class="cls-5" d="M229,24.38a3.14,3.14,0,0,1-2.6-1.13,5.07,5.07,0,0,1-.91-3.25,5.06,5.06,0,0,1,.92-3.24,3.51,3.51,0,0,1,5.18,0A5.06,5.06,0,0,1,232.5,20a5.11,5.11,0,0,1-.9,3.26,3.16,3.16,0,0,1-2.6,1.12M229,26a5.54,5.54,0,0,0,2.87-.73,4.84,4.84,0,0,0,1.92-2.08,7.08,7.08,0,0,0,.67-3.14,7,7,0,0,0-.67-3.14,4.87,4.87,0,0,0-1.92-2.09A5.64,5.64,0,0,0,229,14a5.58,5.58,0,0,0-2.86.73,4.84,4.84,0,0,0-1.91,2.09,6.92,6.92,0,0,0-.67,3.14,6.94,6.94,0,0,0,.67,3.14,4.82,4.82,0,0,0,1.91,2.08A5.48,5.48,0,0,0,229,26m-11.3,0a6.66,6.66,0,0,0,1.87-.27,5.55,5.55,0,0,0,1.59-.72,2.12,2.12,0,0,0,.61-.55,1,1,0,0,0,.17-.55.8.8,0,0,0-.18-.54.53.53,0,0,0-.43-.22.89.89,0,0,0-.4.12l-.5.28a6.4,6.4,0,0,1-1.16.64,3.62,3.62,0,0,1-1.38.24,3.31,3.31,0,0,1-2.67-1.13,4.82,4.82,0,0,1-1-3.21,4.94,4.94,0,0,1,1-3.23,3.25,3.25,0,0,1,2.67-1.17,3.36,3.36,0,0,1,1.35.24,8.51,8.51,0,0,1,1.17.63l.17.12a1.93,1.93,0,0,0,.32.19.86.86,0,0,0,.35.09.56.56,0,0,0,.46-.21.8.8,0,0,0,.18-.54,1.06,1.06,0,0,0-.18-.6,1.92,1.92,0,0,0-.6-.55,4.76,4.76,0,0,0-1.54-.72A6.75,6.75,0,0,0,217.8,14a5.41,5.41,0,0,0-2.88.76A5.15,5.15,0,0,0,213,16.91a6.89,6.89,0,0,0-.69,3.13,6.82,6.82,0,0,0,.67,3.11,4.83,4.83,0,0,0,1.9,2.07,5.46,5.46,0,0,0,2.84.73m-9.23-14.33a1.28,1.28,0,0,0,.92-.33,1.12,1.12,0,0,0,.36-.87,1.1,1.1,0,0,0-.36-.85,1.43,1.43,0,0,0-1.83,0,1.1,1.1,0,0,0-.36.85,1.12,1.12,0,0,0,.36.87,1.27,1.27,0,0,0,.91.33m0,14.29a1,1,0,0,0,.69-.24.92.92,0,0,0,.26-.71V15a.9.9,0,0,0-.26-.69.93.93,0,0,0-.69-.25,1,1,0,0,0-.69.25.87.87,0,0,0-.27.69V25a.91.91,0,0,0,.27.7,1,1,0,0,0,.69.25m-3.73-1.58-3.91-4.4,3.74-4.26a.94.94,0,0,0,.28-.69.81.81,0,0,0-.26-.61.83.83,0,0,0-.61-.26.91.91,0,0,0-.68.33l-3.65,4.19L196,14.44a.91.91,0,0,0-.68-.33.91.91,0,0,0-.87.9,1,1,0,0,0,.28.66l3.74,4.26-3.9,4.4a.93.93,0,0,0-.28.66.8.8,0,0,0,.27.63.85.85,0,0,0,.62.26.91.91,0,0,0,.68-.33l3.79-4.35,3.81,4.35a.93.93,0,0,0,.69.33.87.87,0,0,0,.61-.26A.83.83,0,0,0,205,25a1,1,0,0,0-.28-.68m-16.91-8.8a2.93,2.93,0,0,1,2.31.93,4,4,0,0,1,.87,2.67h-6.66a4.32,4.32,0,0,1,1.07-2.66,3.19,3.19,0,0,1,2.41-.94m4.12,7.6a2.33,2.33,0,0,0-.82.35,9.82,9.82,0,0,1-1.41.67,4.4,4.4,0,0,1-1.58.25c-2.41,0-3.7-1.35-3.84-4h7.58a.78.78,0,0,0,.61-.21,1,1,0,0,0,.19-.68,5.67,5.67,0,0,0-1.32-4A4.54,4.54,0,0,0,187.81,14a5.21,5.21,0,0,0-2.81.76,5.07,5.07,0,0,0-1.92,2.1A6.89,6.89,0,0,0,182.4,20a6,6,0,0,0,1.54,4.36,5.61,5.61,0,0,0,4.2,1.57,7.44,7.44,0,0,0,1.84-.24,7.32,7.32,0,0,0,1.78-.75c.56-.33.83-.69.83-1.08a.76.76,0,0,0-.19-.54.57.57,0,0,0-.45-.21M175.79,14a4.34,4.34,0,0,0-2.31.62A3.73,3.73,0,0,0,172,16.3a3.35,3.35,0,0,0-3.5-2.26,4.1,4.1,0,0,0-2.12.54,3.76,3.76,0,0,0-1.44,1.56V15a.85.85,0,0,0-.26-.67.89.89,0,0,0-.66-.25,1,1,0,0,0-.69.26A.9.9,0,0,0,163,15V25a.91.91,0,0,0,.27.7,1,1,0,0,0,.69.25,1,1,0,0,0,.69-.25.94.94,0,0,0,.26-.7V19.22a3.82,3.82,0,0,1,.83-2.61,2.85,2.85,0,0,1,2.25-1,2.17,2.17,0,0,1,1.79.71,3.7,3.7,0,0,1,.56,2.28V25a.94.94,0,0,0,.26.7,1,1,0,0,0,.68.25,1,1,0,0,0,.7-.25.91.91,0,0,0,.27-.7V19.22a3.87,3.87,0,0,1,.82-2.61,2.83,2.83,0,0,1,2.26-1,2.14,2.14,0,0,1,1.77.71,3.7,3.7,0,0,1,.56,2.28V25a.91.91,0,0,0,.27.7,1,1,0,0,0,.7.25,1,1,0,0,0,.68-.25.94.94,0,0,0,.26-.7V18.59q0-4.54-3.81-4.55M154.46,24.45a2.44,2.44,0,0,1-1.68-.6,2,2,0,0,1-.67-1.52,1.51,1.51,0,0,1,.46-1.21,2.93,2.93,0,0,1,1.54-.59,20.6,20.6,0,0,1,3.15-.18h.43V21a3.43,3.43,0,0,1-.91,2.46,3,3,0,0,1-2.32,1M155.24,14a8.25,8.25,0,0,0-2.08.27,7.17,7.17,0,0,0-1.87.75,2.32,2.32,0,0,0-.65.5.87.87,0,0,0-.2.58.76.76,0,0,0,.19.54.59.59,0,0,0,.47.21,2.09,2.09,0,0,0,.89-.4,6.92,6.92,0,0,1,3.25-.87,2.38,2.38,0,0,1,1.87.66,3.12,3.12,0,0,1,.58,2.07v.78h-.52a21.61,21.61,0,0,0-4.19.31,4.08,4.08,0,0,0-2.17,1,2.86,2.86,0,0,0-.65,2,3.05,3.05,0,0,0,.54,1.77,3.58,3.58,0,0,0,1.47,1.24,4.58,4.58,0,0,0,2,.45,4,4,0,0,0,2.12-.55,3.39,3.39,0,0,0,1.37-1.57V25a.91.91,0,0,0,.26.69.93.93,0,0,0,.68.26.9.9,0,0,0,.67-.26,1,1,0,0,0,.25-.69v-6.4q0-4.51-4.31-4.52m-13,10.34a3.1,3.1,0,0,1-2.58-1.15,5.11,5.11,0,0,1-.91-3.23,5.09,5.09,0,0,1,.91-3.23,3.48,3.48,0,0,1,5.17,0,5.11,5.11,0,0,1,.91,3.23,5,5,0,0,1-.91,3.21,3.17,3.17,0,0,1-2.59,1.13M142.62,14a4.57,4.57,0,0,0-2.34.59,3.79,3.79,0,0,0-1.52,1.67V15a1,1,0,0,0-.24-.68,1.07,1.07,0,0,0-1.4,0,.89.89,0,0,0-.26.68V29.22a.86.86,0,0,0,.26.66,1.09,1.09,0,0,0,1.4,0,.9.9,0,0,0,.24-.67V23.69a3.74,3.74,0,0,0,1.52,1.67,4.47,4.47,0,0,0,2.34.59,4.87,4.87,0,0,0,2.68-.73,4.78,4.78,0,0,0,1.77-2.06,7,7,0,0,0,.64-3.12,7.22,7.22,0,0,0-.64-3.14,4.92,4.92,0,0,0-1.79-2.1,4.69,4.69,0,0,0-2.66-.76M129.42,26a5.53,5.53,0,0,0,3.3-.9A2.82,2.82,0,0,0,134,22.66a3,3,0,0,0-.37-1.56,3,3,0,0,0-1.26-1,12.32,12.32,0,0,0-2.49-.78,10.17,10.17,0,0,1-1.65-.48,2,2,0,0,1-.83-.57,1.34,1.34,0,0,1-.25-.83,1.56,1.56,0,0,1,.68-1.32,2.88,2.88,0,0,1,1.77-.49,3.89,3.89,0,0,1,1.46.23,8,8,0,0,1,1.25.66,1.74,1.74,0,0,0,.85.4.56.56,0,0,0,.44-.21.73.73,0,0,0,.19-.52A1.55,1.55,0,0,0,133,15a5.42,5.42,0,0,0-1.52-.69,6.52,6.52,0,0,0-1.77-.25,5.52,5.52,0,0,0-2.28.45,3.93,3.93,0,0,0-1.56,1.22,3,3,0,0,0-.57,1.79,2.52,2.52,0,0,0,.9,2.05,7,7,0,0,0,3,1.2,11.48,11.48,0,0,1,1.86.51,2.14,2.14,0,0,1,.9.56,1.3,1.3,0,0,1,.26.84,1.45,1.45,0,0,1-.71,1.29,3.67,3.67,0,0,1-2,.45,5.1,5.1,0,0,1-1.73-.25,7.74,7.74,0,0,1-1.4-.67,1.78,1.78,0,0,0-.82-.35.57.57,0,0,0-.46.2.71.71,0,0,0-.18.5,1,1,0,0,0,.18.6,2.16,2.16,0,0,0,.6.53,6,6,0,0,0,1.73.73,7.7,7.7,0,0,0,2.06.26m-8.35-11.86a1,1,0,0,0-.71.26.93.93,0,0,0-.26.68V20.8a3.65,3.65,0,0,1-.92,2.58,3.16,3.16,0,0,1-2.42,1,2.4,2.4,0,0,1-1.93-.72,3.37,3.37,0,0,1-.61-2.24V15a1,1,0,0,0-.25-.68.94.94,0,0,0-.69-.26,1,1,0,0,0-.71.26.89.89,0,0,0-.26.68v6.4a4.84,4.84,0,0,0,1,3.38A3.94,3.94,0,0,0,116.43,26a4.48,4.48,0,0,0,2.2-.54,3.74,3.74,0,0,0,1.52-1.58V25a.9.9,0,0,0,.24.65,1,1,0,0,0,.68.25.92.92,0,0,0,.69-.26A1,1,0,0,0,122,25V15a1,1,0,0,0-.25-.68.92.92,0,0,0-.69-.26m-13.21-2.47a1.3,1.3,0,0,0,.92-.33,1.12,1.12,0,0,0,.35-.87,1.09,1.09,0,0,0-.35-.85,1.3,1.3,0,0,0-.92-.33,1.31,1.31,0,0,0-.92.33,1.12,1.12,0,0,0-.35.85,1.15,1.15,0,0,0,.35.87,1.31,1.31,0,0,0,.92.33m0,14.29a1,1,0,0,0,.68-.24.89.89,0,0,0,.26-.71V15a.87.87,0,0,0-.26-.69.92.92,0,0,0-.68-.25,1,1,0,0,0-.69.25.87.87,0,0,0-.27.69V25a.91.91,0,0,0,.27.7,1,1,0,0,0,.69.25M99.29,14a4.69,4.69,0,0,0-2.3.56,3.83,3.83,0,0,0-1.58,1.61V15a.89.89,0,0,0-.25-.66.87.87,0,0,0-.67-.26.94.94,0,0,0-.7.26.93.93,0,0,0-.26.68V25a.94.94,0,0,0,.26.7,1,1,0,0,0,1.65-.7V19.22a3.56,3.56,0,0,1,.94-2.61,3.34,3.34,0,0,1,2.51-1,2.48,2.48,0,0,1,2,.73,3.55,3.55,0,0,1,.63,2.33V25a.91.91,0,0,0,.26.7.94.94,0,0,0,1.64-.7V18.59q0-4.54-4.12-4.55" transform="translate(0)"/><rect class="cls-3" width="34.25" height="34.25" rx="1.89" ry="1.89"/><path class="cls-6" d="M23.63,34.25V21h4.45l.67-5.16H23.63v-3.3c0-1.5.42-2.52,2.56-2.52h2.74V5.38a34.25,34.25,0,0,0-4-.21c-4,0-6.65,2.41-6.65,6.83v3.82H13.83V21h4.46V34.25Z" transform="translate(0)"/></g></g></g></svg>