<svg xmlns="http://www.w3.org/2000/svg" viewBox="0 0 84.19 175.91"><defs><style>.cls-1{fill:#1e1e1c;}.cls-2{fill:#5a5a59;}</style></defs><title>peinado</title><g id="Capa_2" data-name="Capa 2"><g id="Capa_1-2" data-name="Capa 1"><path class="cls-1" d="M12.09,66.85h1.17v.68H10.61v-.68h.72V60.79l-.88.12-.11-.62A1.77,1.77,0,0,0,11.41,60c.1-.11.17-.21.33-.21.35,0,.35.34.35.61v.13A2.42,2.42,0,0,1,13.53,60a2.43,2.43,0,0,1,2.36,2.64,2.61,2.61,0,0,1-2.46,2.68,5,5,0,0,1-1.34-.23Zm0-2.55a2.32,2.32,0,0,0,1.15.3,1.9,1.9,0,0,0,1.86-2,1.76,1.76,0,0,0-1.58-2,1.85,1.85,0,0,0-1.43.8Z"/><path class="cls-1" d="M21.18,62.91c.07,1.06.89,1.69,2.2,1.69A5.58,5.58,0,0,0,25.62,64l.22.62a6,6,0,0,1-2.56.63,2.56,2.56,0,0,1-2.89-2.55A2.68,2.68,0,0,1,23.1,60a2.3,2.3,0,0,1,2.48,2.44,2.94,2.94,0,0,1,0,.51Zm3.63-.68a1.62,1.62,0,0,0-1.7-1.59,2,2,0,0,0-1.93,1.59Z"/><path class="cls-1" d="M30.29,64.46h2.42V60.81a5.33,5.33,0,0,1-1.26.12l-1-.06-.12-.67,1.11.08a1.92,1.92,0,0,0,1.36-.35.41.41,0,0,1,.32-.18c.38,0,.37.37.37.63v4.08H35.6v.68H30.29ZM33,58.85a.77.77,0,0,1-.79-.75.79.79,0,0,1,1.57,0A.77.77,0,0,1,33,58.85Z"/><path class="cls-1" d="M41,64.46h.82v.68H39.4v-.68h.82V60.79l-.88.12-.11-.62A1.77,1.77,0,0,0,40.3,60c.09-.11.17-.21.33-.21.35,0,.35.34.35.61v.18A4.56,4.56,0,0,1,42.91,60a1.64,1.64,0,0,1,1.5.76,3.43,3.43,0,0,1,.2,1.46v2.28h.83v.68H43v-.68h.83V62.21c0-.74,0-1.57-1-1.57a3.84,3.84,0,0,0-1.93.68Z"/><path class="cls-1" d="M53.29,64.77a5.58,5.58,0,0,1-2.22.51c-.88,0-1.7-.41-1.7-1.4s.77-1.34,1.61-1.54a10.83,10.83,0,0,1,2.31-.24v-.32c0-.69.11-1.14-.82-1.14a3.06,3.06,0,0,0-1.72.47v.72H50V60.66a4.86,4.86,0,0,1,2.37-.7c1.24,0,1.68.33,1.68,1.52v3h1v.68H53.29Zm0-2a11.27,11.27,0,0,0-2.11.25c-.49.12-1,.29-1,.89s.46.72,1,.72A5.46,5.46,0,0,0,53.29,64Z"/><path class="cls-1" d="M63,64.94a3.13,3.13,0,0,1-1.34.34,2.54,2.54,0,0,1-2.46-2.62A2.59,2.59,0,0,1,61.64,60a5.11,5.11,0,0,1,1.34.25v-2l-1.09.14-.11-.62c.39-.07,1,0,1.27-.35.1-.11.17-.21.33-.21.35,0,.35.34.35.61v6.69h1v.68H63Zm0-4a2.28,2.28,0,0,0-1.17-.34,1.86,1.86,0,0,0-1.84,2,1.83,1.83,0,0,0,1.72,1.93A2.21,2.21,0,0,0,63,64.16Z"/><path class="cls-1" d="M68.92,62.62a2.65,2.65,0,1,1,2.65,2.66A2.6,2.6,0,0,1,68.92,62.62Zm4.51,0a1.86,1.86,0,1,0-1.86,2A1.87,1.87,0,0,0,73.43,62.62Z"/><path class="cls-2" d="M62.58,8.11,56.92,2.45,55,.56A1.9,1.9,0,0,0,53.68,0h0a1.9,1.9,0,0,0-1.35.56L25.22,27.69a2.73,2.73,0,0,0,0,3.85,2.7,2.7,0,0,0,1.92.8,2.74,2.74,0,0,0,1.93-.8l10.28-10.3,5,5.06a.85.85,0,1,0,1.2-1.2l-5.05-5.05,1.63-1.64,5,5.05a.85.85,0,0,0,1.2,0,.84.84,0,0,0,0-1.19l-5-5.06L45,15.58l5.05,5a.85.85,0,0,0,1.2,0,.84.84,0,0,0,0-1.19l-5-5.06,1.63-1.63,5,5.05a.85.85,0,0,0,1.2,0,.84.84,0,0,0,0-1.19L49,11.55l1.63-1.63L55.73,15a.84.84,0,1,0,1.19-1.19L51.87,8.72,53.5,7.08l5.06,5.06a.84.84,0,0,0,1.19,0,.85.85,0,0,0,0-1.2l-5.06-5,1.64-1.64,5.06,5.06a.84.84,0,0,0,1.19,0,.85.85,0,0,0,0-1.2ZM52.94,5.25s0,0,0,0,0,0,0,0L50.12,8.07l0,0,0,.06-2.71,2.71-.07.06-.07.07-2.68,2.69a.27.27,0,0,0-.08.07l-.08.08-2.66,2.67a.34.34,0,0,0-.09.08l-.08.09-2.65,2.65-.1.09a.41.41,0,0,0-.09.1L27.87,30.34a1,1,0,0,1-.73.3,1,1,0,0,1-.73-1.75L53.53,1.75a.22.22,0,0,1,.3,0l1.3,1.31Z"/><path class="cls-1" d="M1.75,172.84h.5v.68h-2v-.68H1v-3.67l-.89.12L0,168.67a1.64,1.64,0,0,0,1.07-.33c.1-.11.17-.2.33-.2.35,0,.35.34.35.6a2.06,2.06,0,0,1,1.12-.4,1,1,0,0,1,.91.5,2.37,2.37,0,0,1,1.4-.5,1,1,0,0,1,1,.73,3.37,3.37,0,0,1,.09,1v2.82H7v.68H5v-.68h.5V170c0-.37.07-1-.45-1a1.88,1.88,0,0,0-1.07.51v3.31h.5v.68H2.77v-.68h.5V170c0-.32,0-1-.43-1a2,2,0,0,0-1.09.51Z"/><path class="cls-1" d="M14.41,173.15a5.54,5.54,0,0,1-2.21.52c-.89,0-1.7-.42-1.7-1.4s.76-1.35,1.6-1.55a11.6,11.6,0,0,1,2.31-.24v-.32c0-.69.11-1.14-.81-1.14a3.1,3.1,0,0,0-1.73.48v.71h-.75v-1.16a4.74,4.74,0,0,1,2.37-.71c1.24,0,1.67.33,1.67,1.52v3h1v.68H14.41Zm0-2a11.17,11.17,0,0,0-2.1.25c-.5.12-1,.29-1,.9s.46.71.94.71a5.22,5.22,0,0,0,2.18-.59Z"/><path class="cls-1" d="M21.54,172.84h.83v.68H20v-.68h.83v-3.67l-.89.12-.11-.62a1.64,1.64,0,0,0,1.07-.33c.1-.11.17-.2.33-.2.35,0,.35.34.35.6v.18a4.56,4.56,0,0,1,1.93-.58,1.62,1.62,0,0,1,1.5.77,3.24,3.24,0,0,1,.2,1.46v2.27H26v.68H23.59v-.68h.83v-2.25c0-.74,0-1.57-1-1.57a3.84,3.84,0,0,0-1.93.68Z"/><path class="cls-1" d="M30.29,172.84h2.42v-3.65a4.86,4.86,0,0,1-1.26.12l-1-.06-.12-.67,1.11.08a2,2,0,0,0,1.36-.34.38.38,0,0,1,.32-.18c.38,0,.37.36.37.63v4.07H35.6v.68H30.29Zm2.67-5.6a.76.76,0,1,1,0-1.52.76.76,0,1,1,0,1.52Z"/><path class="cls-1" d="M40.83,170.21v-.68H44v.68Z"/><path class="cls-1" d="M51,175.23h1.17v.68H49.48v-.68h.73v-6.06l-.89.12-.11-.62a1.64,1.64,0,0,0,1.07-.33c.1-.11.17-.2.33-.2.35,0,.35.34.35.6v.14a2.4,2.4,0,0,1,1.45-.54A2.44,2.44,0,0,1,54.77,171a2.62,2.62,0,0,1-2.47,2.69,4.72,4.72,0,0,1-1.34-.24Zm0-2.55a2.28,2.28,0,0,0,1.16.3A1.9,1.9,0,0,0,54,171a1.77,1.77,0,0,0-1.58-2,1.9,1.9,0,0,0-1.44.8Z"/><path class="cls-1" d="M60.05,171.3c.07,1,.9,1.68,2.2,1.68a5.59,5.59,0,0,0,2.25-.57l.22.62a6.1,6.1,0,0,1-2.57.64,2.56,2.56,0,0,1-2.89-2.56A2.68,2.68,0,0,1,62,168.34a2.47,2.47,0,0,1,2.43,3Zm3.64-.69A1.63,1.63,0,0,0,62,169a2,2,0,0,0-1.93,1.59Z"/><path class="cls-1" d="M72.7,173.33a3.28,3.28,0,0,1-1.34.34A2.54,2.54,0,0,1,68.9,171a2.58,2.58,0,0,1,2.46-2.7,5.13,5.13,0,0,1,1.34.26v-2l-1.09.15-.11-.62c.38-.08,1,0,1.27-.36.1-.11.17-.2.33-.2.35,0,.35.34.35.6v6.69h1v.68H72.7Zm0-4a2.38,2.38,0,0,0-1.17-.34,1.87,1.87,0,0,0-1.84,2A1.82,1.82,0,0,0,71.41,173a2.27,2.27,0,0,0,1.29-.43Z"/><path class="cls-1" d="M78.88,172.84H81.3v-3.65a4.78,4.78,0,0,1-1.25.12l-1-.06-.13-.67,1.11.08a2,2,0,0,0,1.36-.34.4.4,0,0,1,.33-.18c.38,0,.36.36.36.63v4.07h2.14v.68H78.88Zm2.68-5.6a.76.76,0,1,1,0-1.52.76.76,0,1,1,0,1.52Z"/><path class="cls-2" d="M57.59,136.52l-.56-8a9.51,9.51,0,0,0-2.36-5.18V113.08a2.23,2.23,0,0,0-2.22-2.23H50.74a2.23,2.23,0,0,0-2.23,2.23v10.14s0,.06,0,.09a9.43,9.43,0,0,0-2.36,5.18l-.56,8a2.74,2.74,0,0,0,.58,2.13,2.66,2.66,0,0,0,2,.71H55a2.66,2.66,0,0,0,2-.71A2.72,2.72,0,0,0,57.59,136.52ZM56,137.68a1.29,1.29,0,0,1-.94.25H48.16a1.28,1.28,0,0,1-.94-.25,1.51,1.51,0,0,1-.2-1.06l.55-8s0-.27.1-.6h7.84c.07.33.1.55.11.6l.55,8A1.51,1.51,0,0,1,56,137.68Zm-6-24.6a.81.81,0,0,1,.81-.81h1.71a.81.81,0,0,1,.81.81v9.43H49.93Zm2.37,13.53v-2.68h.92a6.1,6.1,0,0,1,1.88,2.68ZM50,123.93h.92v2.68h-2.8A5.94,5.94,0,0,1,50,123.93Z"/><path class="cls-2" d="M42.49,126.9a8.53,8.53,0,0,0-2.77-3.5v-8.52a2.39,2.39,0,0,0-2.38-2.38H35.46a2.39,2.39,0,0,0-2.38,2.38v8.49a7.53,7.53,0,0,0-2.82,3.53,8.92,8.92,0,0,0-.61,3.23,8.36,8.36,0,0,0,1.85,5.34,2.64,2.64,0,0,0,0,.28,2,2,0,0,0,1.95,1.95h5.89a2,2,0,0,0,2-1.95,2.64,2.64,0,0,0,0-.28,8.36,8.36,0,0,0,1.85-5.34A8.92,8.92,0,0,0,42.49,126.9ZM40,134.81a.7.7,0,0,0-.14.74.48.48,0,0,1,0,.2.53.53,0,0,1-.53.53H33.43a.53.53,0,0,1-.53-.53.48.48,0,0,1,0-.2.7.7,0,0,0-.14-.74,7,7,0,0,1-1.73-4.68,7.31,7.31,0,0,1,.37-2.31h4.25V134a.71.71,0,0,0,1.42,0v-6.19h4.2a7.31,7.31,0,0,1,.37,2.31A7,7,0,0,1,40,134.81ZM34.5,114.88a1,1,0,0,1,1-1h1.88a1,1,0,0,1,1,1v8.36H34.5Zm6.16,11.52H37.11v-1.74H39A5.63,5.63,0,0,1,40.66,126.4Zm-5-1.74v1.74h-3.6a5.63,5.63,0,0,1,1.62-1.74Z"/></g></g></svg>