<svg xmlns="http://www.w3.org/2000/svg" viewBox="0 0 112.29 180.48"><defs><style>.cls-1{fill:#1e1e1c;}.cls-2{fill:#5a5a59;}</style></defs><title>tratamientos</title><g id="Capa_2" data-name="Capa 2"><g id="Capa_1-2" data-name="Capa 1"><path class="cls-1" d="M29.46,177.77a2.65,2.65,0,1,1,2.65,2.66A2.61,2.61,0,0,1,29.46,177.77Zm4.51,0a1.86,1.86,0,1,0-1.86,2A1.88,1.88,0,0,0,34,177.77Z"/><path class="cls-1" d="M41.38,175.25h2.83v.68H41.38v2.43c0,.63-.07,1.39.78,1.39a8.42,8.42,0,0,0,2.13-.4l.24.64a9.87,9.87,0,0,1-2.44.44c-.92,0-1.46-.54-1.46-1.73v-2.77H38.88v-.68h1.75V173.9h.75Z"/><path class="cls-1" d="M51,179.6h2.2v.68h-4v-.68H50.2v-3.66l-.89.12-.11-.61a1.77,1.77,0,0,0,1.07-.33c.1-.11.17-.21.33-.21.35,0,.35.34.35.61v.64a3.9,3.9,0,0,1,2.19-1.06,1.31,1.31,0,0,1,1.23,1l-.75.3c-.1-.25-.22-.61-.55-.61-.62,0-1.64.87-2.12,1.29Z"/><path class="cls-1" d="M58.62,177.77a2.65,2.65,0,1,1,2.65,2.66A2.61,2.61,0,0,1,58.62,177.77Zm4.51,0a1.86,1.86,0,1,0-1.86,2A1.88,1.88,0,0,0,63.13,177.77Z"/><path class="cls-1" d="M72.69,174.85l.67.13a4.74,4.74,0,0,0-.17,1.18,3.39,3.39,0,0,0,.08.78l-.73.06,0-.27c-.09-.59-.27-.95-1.47-.95-.58,0-1.41.18-1.41.9,0,1.29,3.79.19,3.79,2.28,0,1.16-1.4,1.47-2.35,1.47a3.88,3.88,0,0,1-1.74-.39l-.12.44-.64-.2a3.16,3.16,0,0,0,.14-1,2.3,2.3,0,0,0-.15-.9l.75-.1c.15,1,.36,1.44,1.82,1.44.45,0,1.5-.14,1.5-.81,0-1.34-3.79-.14-3.79-2.21,0-1.12,1.11-1.63,2.17-1.63a4.88,4.88,0,0,1,1.56.28Z"/><path class="cls-1" d="M2.5,66.87H5.34v.68H2.5V70c0,.63-.07,1.38.78,1.38A7.93,7.93,0,0,0,5.41,71l.24.65A10.33,10.33,0,0,1,3.21,72c-.91,0-1.46-.53-1.46-1.72V67.55H0v-.68H1.75V65.52H2.5Z"/><path class="cls-1" d="M12.08,71.22h2.2v.68h-4v-.68h1.05V67.56l-.88.12-.11-.62a1.64,1.64,0,0,0,1.07-.33.4.4,0,0,1,.32-.2c.36,0,.36.34.36.6v.65a3.81,3.81,0,0,1,2.18-1.06,1.29,1.29,0,0,1,1.23,1l-.75.3c-.1-.26-.22-.61-.55-.61-.62,0-1.64.86-2.11,1.29Z"/><path class="cls-1" d="M23.55,71.53a5.58,5.58,0,0,1-2.22.51c-.88,0-1.7-.41-1.7-1.39s.77-1.35,1.61-1.55a10.83,10.83,0,0,1,2.31-.24v-.32c0-.69.11-1.14-.82-1.14a3.07,3.07,0,0,0-1.72.48v.71h-.76V67.43a4.77,4.77,0,0,1,2.37-.71c1.24,0,1.68.33,1.68,1.52v3h1v.68H23.55Zm0-2a11.27,11.27,0,0,0-2.11.25c-.49.12-1,.29-1,.9s.46.71.95.71a5.41,5.41,0,0,0,2.18-.59Z"/><path class="cls-1" d="M31.66,66.87h2.83v.68H31.66V70c0,.63-.07,1.38.78,1.38a7.93,7.93,0,0,0,2.13-.4l.24.65a10.33,10.33,0,0,1-2.44.43c-.92,0-1.46-.53-1.46-1.72V67.55H29.16v-.68h1.75V65.52h.75Z"/><path class="cls-1" d="M43,71.53a5.53,5.53,0,0,1-2.21.51c-.88,0-1.7-.41-1.7-1.39s.77-1.35,1.6-1.55A11,11,0,0,1,43,68.86v-.32c0-.69.11-1.14-.81-1.14a3.1,3.1,0,0,0-1.73.48v.71h-.75V67.43a4.77,4.77,0,0,1,2.37-.71c1.24,0,1.68.33,1.68,1.52v3h1v.68H43Zm0-2a11.26,11.26,0,0,0-2.1.25c-.5.12-1,.29-1,.9s.46.71,1,.71A5.37,5.37,0,0,0,43,70.77Z"/><path class="cls-1" d="M49.76,71.22h.5v.68h-2v-.68H49V67.55l-.89.12L48,67.05a1.7,1.7,0,0,0,1.07-.33c.1-.11.17-.21.33-.21.35,0,.35.34.35.61a2.09,2.09,0,0,1,1.12-.4,1,1,0,0,1,.91.5,2.37,2.37,0,0,1,1.4-.5,1,1,0,0,1,1,.73,3.33,3.33,0,0,1,.09,1v2.82H55v.68h-2v-.68h.49V68.4c0-.37.08-1-.45-1a1.88,1.88,0,0,0-1.07.51v3.31h.5v.68H50.78v-.68h.5V68.4c0-.32,0-1-.42-1a2,2,0,0,0-1.1.51Z"/><path class="cls-1" d="M58.86,71.22h2.42V67.57a5.25,5.25,0,0,1-1.25.12l-1-.06L58.87,67,60,67a2,2,0,0,0,1.36-.34c.1-.11.17-.19.33-.19.38,0,.36.37.36.64v4.07h2.14v.68H58.86Zm2.67-5.61a.76.76,0,1,1,.78-.75A.76.76,0,0,1,61.53,65.61Z"/><path class="cls-1" d="M69.19,69.67c.07,1.06.9,1.69,2.2,1.69a5.67,5.67,0,0,0,2.25-.57l.21.62a6,6,0,0,1-2.56.63,2.55,2.55,0,0,1-2.89-2.55,2.68,2.68,0,0,1,2.71-2.77,2.3,2.3,0,0,1,2.48,2.44,2.94,2.94,0,0,1,0,.51ZM72.82,69a1.63,1.63,0,0,0-1.7-1.59A2,2,0,0,0,69.19,69Z"/><path class="cls-1" d="M79.27,71.22h.83v.68H77.69v-.68h.83V67.55l-.89.12-.11-.62a1.7,1.7,0,0,0,1.07-.33c.1-.11.17-.21.33-.21.35,0,.35.34.35.61v.18a4.56,4.56,0,0,1,1.93-.58,1.62,1.62,0,0,1,1.5.77,3.22,3.22,0,0,1,.21,1.45v2.28h.82v.68h-2.4v-.68h.82V69c0-.74,0-1.57-1-1.57a3.84,3.84,0,0,0-1.93.68Z"/><path class="cls-1" d="M90,66.87h2.84v.68H90V70c0,.63-.07,1.38.78,1.38a7.93,7.93,0,0,0,2.13-.4l.24.65a10.33,10.33,0,0,1-2.44.43c-.91,0-1.46-.53-1.46-1.72V67.55H87.47v-.68h1.75V65.52H90Z"/><path class="cls-1" d="M97.49,69.38A2.65,2.65,0,1,1,100.14,72,2.61,2.61,0,0,1,97.49,69.38Zm4.51,0a1.86,1.86,0,1,0-1.86,2A1.87,1.87,0,0,0,102,69.38Z"/><path class="cls-1" d="M111.56,66.47l.67.13a5.25,5.25,0,0,0-.17,1.18,3.39,3.39,0,0,0,.09.78l-.73.06,0-.27c-.08-.6-.27-.95-1.47-.95-.57,0-1.41.17-1.41.9,0,1.29,3.79.18,3.79,2.27,0,1.17-1.39,1.47-2.34,1.47a4,4,0,0,1-1.74-.38l-.12.43-.65-.19a3.27,3.27,0,0,0,.15-1,2.28,2.28,0,0,0-.16-.9l.76-.1c.14,1,.36,1.43,1.82,1.43.45,0,1.49-.13,1.49-.8,0-1.35-3.79-.14-3.79-2.21,0-1.12,1.12-1.63,2.18-1.63a4.87,4.87,0,0,1,1.55.28Z"/><path class="cls-2" d="M66.6,4.87H55.71a.76.76,0,0,0-.76.75V8.34l1.81,27.94v4a.76.76,0,0,0,.75.75h7.27a.76.76,0,0,0,.75-.75V36.3l1.81-28V5.62a.77.77,0,0,0-.22-.53A.79.79,0,0,0,66.6,4.87ZM60.24,39.48a1.13,1.13,0,0,1,1.83,0Zm3.79,0h-.31a2.64,2.64,0,0,0-5.12,0h-.32V37H64Zm0-4H58.23L56.52,9H65.8Zm-7.61-28V6.38h9.38V7.5Z"/><path class="cls-2" d="M79.63,4.87H68.74a.76.76,0,0,0-.76.75V8.34l1.81,27.94v4a.76.76,0,0,0,.76.75h7.26a.76.76,0,0,0,.76-.75V36.3l1.81-28V5.62A.76.76,0,0,0,79.63,4.87ZM73.27,39.48a1.13,1.13,0,0,1,1.83,0Zm3.79,0h-.32a2.64,2.64,0,0,0-5.11,0h-.32V37h5.75Zm0-4H71.26L69.54,9h9.29ZM69.5,7.5V6.38h9.37V7.5Z"/><path class="cls-2" d="M50.89,14.17V12a2.54,2.54,0,0,0-2.54-2.53h-2V6.07h.32a.76.76,0,0,0,.76-.75V5h5.17a.76.76,0,0,0,.76-.75V1.86a.76.76,0,0,0-.76-.76H47.48V.76A.76.76,0,0,0,46.72,0H42.3a.76.76,0,0,0-.76.76V5.32a.76.76,0,0,0,.76.75h.22V9.48H40.67A2.54,2.54,0,0,0,38.13,12v2.16a7.54,7.54,0,0,0-3.27,6V43.7a2.4,2.4,0,0,0,2.58,2.16H51.58a2.4,2.4,0,0,0,2.58-2.16V20.14A7.54,7.54,0,0,0,50.89,14.17ZM47.48,2.61h4.41v.85H47.48Zm-4.42-1.1H46V4.56h-2.9Zm1.83,4.56V9.48H44V6.07ZM39.65,12a1,1,0,0,1,1-1h7.68a1,1,0,0,1,1,1v1.78H39.65Zm13,31.69c0,.34-.5.65-1.07.65H37.44c-.57,0-1.07-.31-1.07-.65V38.16H52.65Zm0-7.05H36.37V22.71H52.65Zm0-15.45H36.37V20.14a6.08,6.08,0,0,1,2.77-4.83H49.89a6,6,0,0,1,2.76,4.83Z"/><path class="cls-2" d="M77.05,112a.71.71,0,0,0-.7-.64H38.89a.7.7,0,0,0-.69.65l-1,13v0a3.18,3.18,0,0,0,1.4,2.64v23.93a.69.69,0,0,0,.69.7H76a.7.7,0,0,0,.7-.7V127.7a3.19,3.19,0,0,0,1.4-2.65v0ZM38.62,124.35l.91-11.55h2.55v11.55Zm34.07,10v13.33H66V134.33Zm0-3.51v2.12H66v-2.12Zm-9.43-6.47V112.8h3.55v11.55Zm3.42,1.39a1.77,1.77,0,0,1-3.29,0Zm1.52-1.39V112.8h3.55v11.55Zm3.42,1.39a1.77,1.77,0,0,1-3.29,0Zm1.77,3.69H65.31a.69.69,0,0,0-.7.69v17.54h-1.4v-20a3.16,3.16,0,0,0,4.29-.6,3.18,3.18,0,0,0,4.94,0,3.16,3.16,0,0,0,2.84,1.15v19.44H74.09V130.12A.7.7,0,0,0,73.39,129.43Zm-.12-3.69h3.26a1.79,1.79,0,0,1-1.62,1.11A1.75,1.75,0,0,1,73.27,125.74Zm-.13-1.39V112.8h2.57l.92,11.55Zm2.14,24.7v1.88H40v-1.88ZM42,125.74a1.76,1.76,0,0,1-1.65,1.11,1.8,1.8,0,0,1-1.62-1.11Zm1.5-1.39V112.8H47v11.55Zm3.44,1.39a1.76,1.76,0,0,1-1.65,1.11,1.74,1.74,0,0,1-1.64-1.11Zm1.52-1.39V112.8H52v11.55Zm3.42,1.39a1.76,1.76,0,0,1-1.65,1.11,1.74,1.74,0,0,1-1.64-1.11Zm1.52-1.39V112.8h3.55v11.55Zm3.42,1.39a1.77,1.77,0,0,1-3.29,0Zm1.52-1.39V112.8h3.55v11.55ZM61.82,140v7.66H58.54V140Zm-4.67,0v7.66H53.88V140Zm-4.67,0v7.66H49.21V140Zm-4.67,0v7.66H44.54V140Zm13.93-14.26a1.77,1.77,0,0,1-3.29,0Zm.08,12.86H40V128.22a3.14,3.14,0,0,0,2.85-1.15,3.18,3.18,0,0,0,4.94,0,3.18,3.18,0,0,0,4.94,0,3.18,3.18,0,0,0,4.94,0,3.18,3.18,0,0,0,4.2.67ZM40,147.66V140h3.2v7.66Z"/></g></g></svg>